<?xml version="1.0" encoding="utf-8"?>
<!-- Generator: Adobe Illustrator 15.0.0, SVG Export Plug-In . SVG Version: 6.00 Build 0)  -->
<!DOCTYPE svg PUBLIC "-//W3C//DTD SVG 1.1//EN" "http://www.w3.org/Graphics/SVG/1.1/DTD/svg11.dtd">
<svg version="1.1" id="Layer_1" xmlns="http://www.w3.org/2000/svg" xmlns:xlink="http://www.w3.org/1999/xlink" x="0px" y="0px"
	 width="591px" height="305px" viewBox="0 0 591 305" enable-background="new 0 0 591 305" xml:space="preserve">
<line fill="none" stroke="#FFFFFF" stroke-width="3" stroke-miterlimit="10" x1="49.394" y1="262.854" x2="571.601" y2="262.854"/>
<polyline fill="#FFFFFF" points="577.366,262.854 563.796,257.547 570.581,262.854 563.796,268.158 577.366,262.854 "/>
<g>
	<g>
		<defs>
			<rect id="SVGID_1_" x="14.47" y="16.258" width="568.062" height="277.654"/>
		</defs>
		<clipPath id="SVGID_2_">
			<use xlink:href="#SVGID_1_"  overflow="visible"/>
		</clipPath>
		
			<line clip-path="url(#SVGID_2_)" fill="none" stroke="#FFFFFF" stroke-width="3" stroke-miterlimit="10" x1="51.542" y1="264.533" x2="51.542" y2="22.467"/>
	</g>
</g>
<polyline fill="#FFFFFF" points="51.542,17.957 44.757,28.564 51.542,23.264 58.329,28.564 51.542,17.957 "/>
<g>
	<g>
		<path fill="none" stroke="#FEE76D" stroke-width="3" stroke-linecap="round" stroke-miterlimit="10" d="M466.546,263.734
			l17.965-72.14c2.955-19.77,0.648-42.842-6.92-69.219c-7.567-26.379-20.396-56.062-38.485-89.055 M362.513,263.734l-19.323-87.246
			c0,0-4.533-22.049-10-42.078c-5.462-20.031-11.671-37.539-24.953-57.746c-13.287-20.211-33.379-42.615-33.379-42.615
			 M285.534,158.346c0,0,0.725-13.156-1.355-26.277c-2.08-13.119-6.949-26.164-11.219-36.715
			c-4.275-10.559-7.934-18.57-16.742-31.52c-8.809-12.951-22.752-30.803-22.752-30.803 M258.479,263.734l27.055-105.387
			 M154.446,263.734l-36.613-137.967c-7.314-20.973-14.861-38.986-22.646-54.055C87.404,56.644,79.386,44.528,71.134,35.36"/>
	</g>
	<g>
		
			<line fill="none" stroke="#6D6D6D" stroke-width="3" stroke-miterlimit="10" x1="92.429" y1="119.451" x2="135.287" y2="119.451"/>
	</g>
</g>
<path fill="none" stroke="#6D6D6D" stroke-width="2" stroke-linecap="round" stroke-miterlimit="10" d="M270.347,160.301h31.664
	 M470.198,197.979h31.66 M328.476,181.217h31.66"/>
<path fill="#FFFFFF" d="M553.312,280.504c-0.2,0.793-0.396,1.58-0.396,2.396c0,1.522,0.678,2.455,2.086,2.455
	c2.285,0,3.637-2.566,3.662-2.705c0.088-0.285,0.396-1.465,0.736-2.879c0.422-1.746,0.957-3.859,1.323-5.271
	c0.226-0.959,0.957-0.983,1.099-0.983c0.424,0,0.817,0.25,0.817,0.758c0,0.168-0.282,1.24-0.422,1.891
	c-0.11,0.424-0.396,1.496-0.479,1.916c-0.252,1.016-0.535,2.029-0.789,3.041c-0.226,0.99-0.564,2.312-0.564,2.934
	c0,0.566,0.086,1.299,0.847,1.299c1.153,0,1.661-1.662,2.143-3.496c0.086-0.396,0.113-0.508,0.395-0.508
	c0.082,0,0.339,0,0.339,0.279c0,0.057-0.369,1.775-0.847,2.793c-0.448,0.898-1.1,1.551-2.086,1.551
	c-1.237,0-2.281-0.791-2.535-2.061c-0.678,0.789-1.776,2.061-3.75,2.061c-0.562,0-1.83-0.111-2.733-0.875
	c-1.068,4.34-1.435,5.805-1.549,6.06c-0.058,0.086-0.394,0.59-0.984,0.59c-0.479,0-0.791-0.334-0.791-0.756
	c0-0.06,0-0.111,0.086-0.455l4.057-16.313c0.253-0.99,1.044-1.017,1.13-1.017c0.479,0,0.817,0.282,0.817,0.76
	c0,0.144-0.285,1.214-0.426,1.806L553.312,280.504"/>
<path fill="#FFFFFF" d="M26.616,55.428c-0.113,0.422-0.113,0.566-0.113,0.594c0,0.449,0.223,0.535,1.043,0.621
	c0.734,0.055,1.098,0.055,1.803,0.055c0.732,0,0.959,0,0.959,0.311c0,0.564-0.34,0.564-0.621,0.564
	c-0.787,0-1.635-0.059-2.449-0.059c-0.764,0-1.553-0.027-2.34-0.027c-0.791,0-1.609,0.027-2.396,0.027
	c-0.762,0-1.553,0.059-2.312,0.059c-0.17,0-0.48,0-0.48-0.34c0-0.535,0.17-0.535,1.186-0.535c3.016,0,3.102-0.309,3.352-1.352
	l3.779-15.049c0.027-0.086,0.111-0.426,0.111-0.594c0-0.225,0-0.338-0.789-0.338h-1.098c-4.17,0-4.904,0.506-6.426,4.877
	c-0.17,0.449-0.195,0.59-0.48,0.59c-0.197,0-0.336-0.141-0.336-0.311c0-0.055,0.139-0.451,0.168-0.508l1.691-4.957
	c0.197-0.537,0.227-0.564,0.902-0.564h15.641c0.48,0,0.762,0,0.762,0.311c0,0.082-0.029,0.365-0.057,0.479l-0.764,4.904
	c-0.055,0.42-0.109,0.646-0.422,0.646c-0.252,0-0.338-0.197-0.338-0.365c0-0.086,0.057-0.422,0.086-0.535
	c0.111-0.732,0.225-1.836,0.225-2.256c0-2.197-1.268-2.311-4.115-2.311c-0.592,0-1.521,0-1.775,0.057
	c-0.336,0.08-0.449,0.254-0.646,1.043L26.616,55.428"/>
<path fill="#FFFFFF" d="M384.845,188.107c0.117,0.211,0.117,0.258,0.117,0.281c0,0.188-0.139,0.188-0.518,0.188h-16.297
	c-0.38,0-0.519,0-0.519-0.188c0-0.023,0-0.07,0.117-0.281l7.938-15.926c0.162-0.306,0.214-0.421,0.609-0.421
	c0.398,0,0.447,0.115,0.613,0.421L384.845,188.107 M369.202,186.791h12.66l-6.316-12.682L369.202,186.791z"/>
<path fill="#FFFFFF" d="M389.694,186.609c-0.277,0-0.425,0-0.425-0.232c0-0.18,0.132-0.215,0.164-0.215
	c0.082-0.016,0.115-0.016,0.525-0.045c0.822-0.053,1.283-0.086,1.824-0.711c0.426-0.508,0.658-1.262,0.658-1.955
	c0-1.43-1.035-1.793-1.775-1.793c-0.607,0-1.742,0.184-2.32,0.906c0.515,0.031,0.84,0.375,0.84,0.854c0,0.457-0.325,0.84-0.84,0.84
	c-0.492,0-0.854-0.312-0.854-0.873c0-1.313,1.397-2.2,3.223-2.2s3.32,0.969,3.32,2.266c0,1.006-0.625,2.238-2.351,2.863
	c1.81,0.375,2.859,1.66,2.859,2.94c0,1.646-1.576,3.175-3.861,3.175c-1.989,0-3.698-1.003-3.698-2.552
	c0-0.672,0.459-0.951,0.918-0.951c0.51,0,0.905,0.378,0.905,0.904c0,0.346-0.182,0.885-0.955,0.918
	c0.693,0.974,2.14,1.151,2.798,1.151c0.952,0,2.135-0.606,2.135-2.646c0-1.762-0.918-2.646-2.201-2.646H389.694"/>
<path fill="#FFFFFF" d="M76.036,125.859c0.117,0.209,0.117,0.256,0.117,0.279c0,0.189-0.139,0.189-0.516,0.189H59.339
	c-0.375,0-0.518,0-0.518-0.189c0-0.023,0-0.07,0.117-0.279l7.939-15.926c0.164-0.307,0.211-0.422,0.611-0.422
	c0.4,0,0.445,0.115,0.609,0.422L76.036,125.859 M60.394,124.541h12.66l-6.316-12.682L60.394,124.541z"/>
<path fill="#FFFFFF" d="M82.796,128.5c0,0.545,0,0.76,1.645,0.76h0.625v0.588c-0.361-0.014-2.434-0.062-2.941-0.062
	c-0.609,0-2.629,0.049-2.928,0.062v-0.588h0.625c1.645,0,1.645-0.215,1.645-0.76v-8.383c-0.904,0.459-1.99,0.459-2.385,0.459v-0.59
	c0.676,0,2.17-0.016,3.223-1.051c0.461,0,0.492,0.014,0.492,0.459L82.796,128.5"/>
<path fill="#FFFFFF" d="M244.792,166.42c0.115,0.209,0.115,0.254,0.115,0.281c0,0.184-0.141,0.184-0.516,0.184H228.09
	c-0.375,0-0.518,0-0.518-0.184c0-0.027,0-0.072,0.117-0.281l7.939-15.926c0.164-0.305,0.215-0.422,0.611-0.422
	c0.4,0,0.445,0.117,0.609,0.422L244.792,166.42 M229.147,165.102h12.662l-6.32-12.684L229.147,165.102z"/>
<path fill="#FFFFFF" d="M253.853,170.412h-6.773c0-0.461,0-0.494,0.166-0.641l3.959-3.91c0.527-0.594,1.549-1.728,1.549-3.16
	c0-1.332-0.857-2.613-2.5-2.613c-0.773,0-1.893,0.363-2.4,1.529c0.854,0,0.969,0.574,0.969,0.871c0,0.594-0.477,0.873-0.873,0.873
	c-0.162,0-0.869-0.084-0.869-0.922c0-1.515,1.379-2.943,3.42-2.943c2.105,0,3.844,1.217,3.844,3.205c0,1.561-1.133,2.582-2.35,3.551
	c-0.986,0.775-1.562,1.234-3.287,2.766h3.025c0.229,0,1.498,0,1.627-0.102c0.213-0.164,0.379-1.133,0.43-1.498h0.555
	L253.853,170.412"/>
<path fill="#FFFFFF" d="M524.896,204.182c0.116,0.209,0.116,0.258,0.116,0.279c0,0.191-0.139,0.191-0.514,0.191h-16.301
	c-0.373,0-0.519,0-0.519-0.191c0-0.021,0-0.07,0.119-0.279l7.941-15.924c0.16-0.305,0.209-0.424,0.608-0.424
	c0.398,0,0.445,0.119,0.607,0.424L524.896,204.182 M509.257,202.867h12.658l-6.318-12.684L509.257,202.867z"/>
<path fill="#FFFFFF" d="M533.026,205.482v1.348c0,0.557,0,0.756,1.33,0.756h0.44v0.592c-0.82-0.035-1.875-0.068-2.479-0.068
	c-0.595,0-1.646,0.033-2.47,0.068v-0.592h0.445c1.332,0,1.332-0.199,1.332-0.756v-1.348h-4.836v-0.597l5.443-7.559
	c0.168-0.234,0.229-0.234,0.428-0.234c0.365,0,0.365,0.115,0.365,0.464v7.329h1.821v0.597H533.026 M527.401,204.887h4.34v-6.016
	L527.401,204.887z"/>
<path fill="#FFFFFF" d="M81.796,242.369c-0.119,0.422-0.119,0.496-0.377,0.496c-0.209,0-0.279-0.049-0.443-0.449l-5.85-13.832
	c-0.119-0.236-0.119-0.279-0.213-0.422l-3.098,12.4c-0.072,0.256-0.096,0.373-0.096,0.539c0,0.469,0.189,0.985,1.553,1.034
	c0.258,0,0.467,0.021,0.467,0.257c0,0.473-0.305,0.473-0.424,0.473c-0.773,0-1.619-0.074-2.418-0.074
	c-0.773,0-1.596,0.074-2.348,0.074c-0.189,0-0.307-0.094-0.307-0.262c0-0.445,0.258-0.468,0.398-0.468
	c1.904-0.071,2.303-0.821,2.537-1.762l3.148-12.613c0-0.209-1.48-0.209-1.598-0.209c-0.445,0-0.658,0-0.658-0.262
	c0-0.467,0.213-0.467,0.684-0.467h3.145c0.541,0,0.564,0.021,0.752,0.444l5.189,12.26l2.633-10.452
	c0.023-0.068,0.07-0.423,0.07-0.492c0-0.517-0.26-1.01-1.598-1.031c-0.189,0-0.422,0-0.422-0.262c0-0.467,0.283-0.467,0.422-0.467
	c0.775,0,1.598,0.065,2.395,0.065c0.775,0,1.598-0.065,2.373-0.065c0.305,0,0.305,0.233,0.305,0.254c0,0.448-0.283,0.475-0.4,0.475
	c-1.877,0.068-2.299,0.796-2.535,1.734L81.796,242.369"/>
<path fill="#FFFFFF" d="M97.39,235.182c-0.354,0-0.799,0-0.799-0.467c0-0.471,0.445-0.471,0.775-0.471h14.066
	c0.33,0,0.775,0,0.775,0.471c0,0.467-0.445,0.467-0.797,0.467H97.39 M97.366,239.742c-0.33,0-0.775,0-0.775-0.475
	c0-0.466,0.445-0.466,0.799-0.466h14.021c0.352,0,0.797,0,0.797,0.466c0,0.475-0.445,0.475-0.775,0.475H97.366z"/>
<path fill="#FFFFFF" d="M130.007,240.658c-1.033,2.229-2.818,2.725-4.084,2.725c-1.154,0-2.869-0.475-3.879-2.373
	c-0.963-1.785-1.057-3.898-1.057-5.66c0-1.879,0.119-3.713,0.869-5.334c0.963-2.186,2.678-2.793,4.088-2.793
	c0.984,0,2.912,0.373,3.992,2.631c0.822,1.736,0.938,3.617,0.938,5.496C130.874,237.203,130.759,239.033,130.007,240.658
	 M128.669,239.93c0.258-1.506,0.258-3.1,0.258-4.863c0-1.479,0-3.264-0.234-4.58c-0.449-2.323-1.996-2.745-2.77-2.745
	c-0.59,0-2.352,0.211-2.799,3.004c-0.188,1.271-0.188,2.817-0.188,4.321c0,1.386,0,3.55,0.26,4.955
	c0.422,2.254,1.809,2.845,2.727,2.845C126.978,242.865,128.315,242.158,128.669,239.93z"/>
<path fill="#FFFFFF" d="M205.513,241.01c0,0.867,0.068,1.127,2.184,1.127h0.75v0.729c-0.822-0.074-2.865-0.074-3.803-0.074
	c-0.939,0-2.984,0-3.805,0.074v-0.729h0.75c2.115,0,2.186-0.285,2.186-1.127v-12.168c-1.223,0.613-2.607,0.613-3.078,0.613v-0.73
	c0.754,0,2.818,0,4.275-1.502c0.541,0,0.541,0.047,0.541,0.607V241.01"/>
<path fill="#FFFFFF" d="M312.226,243.416h-8.717c0-0.561,0-0.609,0.261-0.867l4.508-5.027c1.293-1.457,2.469-3.309,2.469-5.188
	c0-1.926-1.014-3.828-3.148-3.828c-1.362,0-2.631,0.867-3.172,2.397c0.07-0.024,0.119-0.024,0.305-0.024
	c0.824,0,1.248,0.611,1.248,1.22c0,0.967-0.821,1.245-1.225,1.245c-0.066,0-1.244,0-1.244-1.313c0-2.09,1.74-4.25,4.396-4.25
	c2.862,0,4.979,1.879,4.979,4.555c0,2.346-1.41,3.615-5.076,6.855l-2.489,2.422h4.229c0.517,0,2.066,0,2.23-0.188
	c0.233-0.353,0.397-1.385,0.516-2.09h0.59L312.226,243.416"/>
<path fill="#FFFFFF" d="M422.688,239.402c0,2.396-2.139,4.531-5.006,4.531c-2.559,0-4.739-1.55-4.739-3.687
	c0-1.033,0.75-1.363,1.313-1.363c0.68,0,1.314,0.47,1.314,1.314c0,0.896-0.729,1.409-1.55,1.293c0.82,1.387,2.582,1.784,3.595,1.784
	c1.028,0,2.651-0.684,2.651-3.875c0-2.305-0.871-3.899-2.795-3.899h-1.032c-0.398,0-0.562,0-0.562-0.258
	c0-0.236,0.164-0.261,0.352-0.279c0.164,0,0.728-0.049,0.914-0.073c0.591-0.023,1.386-0.097,2.091-1.218
	c0.612-1.034,0.655-2.396,0.655-2.68c0-2.117-1.289-2.629-2.25-2.629c-0.85,0-2.395,0.303-3.125,1.454c0.353,0,1.455,0,1.455,1.175
	c0,0.68-0.469,1.196-1.197,1.196c-0.684,0-1.194-0.444-1.194-1.221c0-1.787,1.781-3.193,4.156-3.193c2.254,0,4.319,1.314,4.319,3.24
	c0,1.857-1.363,3.5-3.285,4.135C421.206,235.643,422.688,237.475,422.688,239.402"/>
<path fill="#FFFFFF" d="M522.233,238.26l7.211-11.012c0.188-0.287,0.256-0.287,0.471-0.287c0.373,0,0.373,0.143,0.373,0.613v10.686
	h2.352v0.73h-2.352v2.041c0,0.846,0.047,1.104,1.785,1.104h0.491v0.729c-0.961-0.074-2.206-0.074-3.19-0.074
	c-0.988,0-2.207,0-3.172,0.074v-0.729h0.496c1.737,0,1.78-0.26,1.78-1.104v-2.041h-6.245V238.26 M528.62,229.498l-5.729,8.762h5.729
	V229.498z"/>
<g>
	<line fill="none" x1="142.343" y1="171.889" x2="181.343" y2="62.888"/>
	<g>
		
			<line fill="none" stroke="#FFFFFF" stroke-width="3" stroke-miterlimit="10" x1="144.756" y1="165.143" x2="181.343" y2="62.888"/>
		<g>
			<polygon fill="#FFFFFF" points="150.076,163.467 145.255,163.748 141.708,160.473 142.343,171.889 			"/>
		</g>
	</g>
</g>
<text transform="matrix(1 0 0 1 133.6499 52.8887)" fill="#DCE0DF" font-family="'CMUSerif-Roman'" font-size="30">-1/∆S</text>
<text transform="matrix(1 0 0 1 215.6973 61.8784)" fill="#DCE0DF" font-family="'CMUSerif-Roman'" font-size="17.49">01</text>
</svg>
