<?xml version="1.0" encoding="utf-8" standalone="no"?>
<!DOCTYPE svg PUBLIC "-//W3C//DTD SVG 1.1//EN"
  "http://www.w3.org/Graphics/SVG/1.1/DTD/svg11.dtd">
<!-- Created with matplotlib (http://matplotlib.org/) -->
<svg height="251.213pt" version="1.1" viewBox="0 0 350.815625 251.213" width="350.815625pt" xmlns="http://www.w3.org/2000/svg" xmlns:xlink="http://www.w3.org/1999/xlink">
 <defs>
  <style type="text/css">
*{stroke-linecap:butt;stroke-linejoin:round;}
  </style>
 </defs>
 <g id="figure_1">
  <g id="patch_1">
   <path d="M 0 251.213 
L 350.815625 251.213 
L 350.815625 0 
L 0 0 
z
" style="fill:none;"/>
  </g>
  <g id="axes_1">
   <g id="patch_2">
    <path d="M 53.455625 219.50675 
L 343.615625 219.50675 
L 343.615625 12.93875 
L 53.455625 12.93875 
z
" style="fill:none;"/>
   </g>
   <g id="matplotlib.axis_1">
    <g id="xtick_1">
     <g id="line2d_1">
      <defs>
       <path d="M 0 0 
L 0 -5 
" id="m94848f9c19" style="stroke:#ffffff;stroke-width:1.2;"/>
      </defs>
      <g>
       <use style="fill:#ffffff;stroke:#ffffff;stroke-width:1.2;" x="68.245138" xlink:href="#m94848f9c19" y="219.50675"/>
      </g>
     </g>
     <g id="line2d_2">
      <defs>
       <path d="M 0 0 
L 0 5 
" id="m2e9f8d10c0" style="stroke:#ffffff;stroke-width:1.2;"/>
      </defs>
      <g>
       <use style="fill:#ffffff;stroke:#ffffff;stroke-width:1.2;" x="68.245138" xlink:href="#m2e9f8d10c0" y="12.93875"/>
      </g>
     </g>
    </g>
    <g id="xtick_2">
     <g id="line2d_3">
      <g>
       <use style="fill:#ffffff;stroke:#ffffff;stroke-width:1.2;" x="133.390381" xlink:href="#m94848f9c19" y="219.50675"/>
      </g>
     </g>
     <g id="line2d_4">
      <g>
       <use style="fill:#ffffff;stroke:#ffffff;stroke-width:1.2;" x="133.390381" xlink:href="#m2e9f8d10c0" y="12.93875"/>
      </g>
     </g>
    </g>
    <g id="xtick_3">
     <g id="line2d_5">
      <g>
       <use style="fill:#ffffff;stroke:#ffffff;stroke-width:1.2;" x="198.535625" xlink:href="#m94848f9c19" y="219.50675"/>
      </g>
     </g>
     <g id="line2d_6">
      <g>
       <use style="fill:#ffffff;stroke:#ffffff;stroke-width:1.2;" x="198.535625" xlink:href="#m2e9f8d10c0" y="12.93875"/>
      </g>
     </g>
    </g>
    <g id="xtick_4">
     <g id="line2d_7">
      <g>
       <use style="fill:#ffffff;stroke:#ffffff;stroke-width:1.2;" x="263.680869" xlink:href="#m94848f9c19" y="219.50675"/>
      </g>
     </g>
     <g id="line2d_8">
      <g>
       <use style="fill:#ffffff;stroke:#ffffff;stroke-width:1.2;" x="263.680869" xlink:href="#m2e9f8d10c0" y="12.93875"/>
      </g>
     </g>
    </g>
    <g id="xtick_5">
     <g id="line2d_9">
      <g>
       <use style="fill:#ffffff;stroke:#ffffff;stroke-width:1.2;" x="328.826112" xlink:href="#m94848f9c19" y="219.50675"/>
      </g>
     </g>
     <g id="line2d_10">
      <g>
       <use style="fill:#ffffff;stroke:#ffffff;stroke-width:1.2;" x="328.826112" xlink:href="#m2e9f8d10c0" y="12.93875"/>
      </g>
     </g>
    </g>
    <g id="text_1">
     <!-- coupling (arb.) -->
     <defs>
      <path d="M 26.609375 53.8125 
Q 35.453125 53.8125 40.984375 49.515625 
Q 46.53125 45.21875 47.65625 34.71875 
L 39.109375 34.71875 
Q 38.328125 39.546875 35.546875 42.75 
Q 32.765625 45.953125 26.609375 45.953125 
Q 18.21875 45.953125 14.59375 37.75 
Q 12.25 32.421875 12.25 24.609375 
Q 12.25 16.75 15.5625 11.375 
Q 18.890625 6 26.03125 6 
Q 31.5 6 34.6875 9.34375 
Q 37.890625 12.703125 39.109375 18.5 
L 47.65625 18.5 
Q 46.1875 8.109375 40.328125 3.296875 
Q 34.46875 -1.515625 25.34375 -1.515625 
Q 15.09375 -1.515625 8.984375 5.984375 
Q 2.875 13.484375 2.875 24.703125 
Q 2.875 38.484375 9.5625 46.140625 
Q 16.265625 53.8125 26.609375 53.8125 
z
M 25.25 53.5625 
z
" id="Helvetica-63"/>
      <path d="M 27.203125 5.671875 
Q 35.9375 5.671875 39.1875 12.28125 
Q 42.4375 18.890625 42.4375 27 
Q 42.4375 34.328125 40.09375 38.921875 
Q 36.375 46.140625 27.296875 46.140625 
Q 19.234375 46.140625 15.578125 39.984375 
Q 11.921875 33.84375 11.921875 25.140625 
Q 11.921875 16.796875 15.578125 11.234375 
Q 19.234375 5.671875 27.203125 5.671875 
z
M 27.546875 53.8125 
Q 37.640625 53.8125 44.625 47.0625 
Q 51.609375 40.328125 51.609375 27.25 
Q 51.609375 14.59375 45.453125 6.34375 
Q 39.3125 -1.90625 26.375 -1.90625 
Q 15.578125 -1.90625 9.21875 5.390625 
Q 2.875 12.703125 2.875 25 
Q 2.875 38.1875 9.5625 46 
Q 16.265625 53.8125 27.546875 53.8125 
z
M 27.25 53.5625 
z
" id="Helvetica-6f"/>
      <path d="M 15.234375 52.296875 
L 15.234375 17.578125 
Q 15.234375 13.578125 16.5 11.03125 
Q 18.84375 6.34375 25.25 6.34375 
Q 34.421875 6.34375 37.75 14.546875 
Q 39.546875 18.953125 39.546875 26.609375 
L 39.546875 52.296875 
L 48.34375 52.296875 
L 48.34375 0 
L 40.046875 0 
L 40.140625 7.71875 
Q 38.421875 4.734375 35.890625 2.6875 
Q 30.859375 -1.421875 23.6875 -1.421875 
Q 12.5 -1.421875 8.453125 6.0625 
Q 6.25 10.0625 6.25 16.75 
L 6.25 52.296875 
z
M 27.296875 53.5625 
z
" id="Helvetica-75"/>
      <path d="M 28.515625 5.90625 
Q 34.671875 5.90625 38.75 11.0625 
Q 42.828125 16.21875 42.828125 26.46875 
Q 42.828125 32.71875 41.015625 37.203125 
Q 37.59375 45.84375 28.515625 45.84375 
Q 19.390625 45.84375 16.015625 36.71875 
Q 14.203125 31.84375 14.203125 24.3125 
Q 14.203125 18.265625 16.015625 14.015625 
Q 19.4375 5.90625 28.515625 5.90625 
z
M 5.765625 52.046875 
L 14.3125 52.046875 
L 14.3125 45.125 
Q 16.9375 48.6875 20.0625 50.640625 
Q 24.515625 53.5625 30.515625 53.5625 
Q 39.40625 53.5625 45.609375 46.75 
Q 51.8125 39.9375 51.8125 27.296875 
Q 51.8125 10.203125 42.875 2.875 
Q 37.203125 -1.765625 29.6875 -1.765625 
Q 23.78125 -1.765625 19.78125 0.828125 
Q 17.4375 2.296875 14.546875 5.859375 
L 14.546875 -20.84375 
L 5.765625 -20.84375 
z
" id="Helvetica-70"/>
      <path d="M 6.6875 71.734375 
L 15.484375 71.734375 
L 15.484375 0 
L 6.6875 0 
z
" id="Helvetica-6c"/>
      <path d="M 6.453125 52.046875 
L 15.375 52.046875 
L 15.375 0 
L 6.453125 0 
z
M 6.453125 71.734375 
L 15.375 71.734375 
L 15.375 61.765625 
L 6.453125 61.765625 
z
" id="Helvetica-69"/>
      <path d="M 6.453125 52.296875 
L 14.796875 52.296875 
L 14.796875 44.875 
Q 18.5 49.46875 22.65625 51.46875 
Q 26.8125 53.46875 31.890625 53.46875 
Q 43.015625 53.46875 46.921875 45.703125 
Q 49.078125 41.453125 49.078125 33.546875 
L 49.078125 0 
L 40.140625 0 
L 40.140625 32.953125 
Q 40.140625 37.75 38.71875 40.671875 
Q 36.375 45.5625 30.21875 45.5625 
Q 27.09375 45.5625 25.09375 44.921875 
Q 21.484375 43.84375 18.75 40.625 
Q 16.546875 38.03125 15.890625 35.265625 
Q 15.234375 32.515625 15.234375 27.390625 
L 15.234375 0 
L 6.453125 0 
z
M 27.09375 53.5625 
z
" id="Helvetica-6e"/>
      <path d="M 24.90625 53.21875 
Q 31.0625 53.21875 35.640625 50.203125 
Q 38.140625 48.484375 40.71875 45.21875 
L 40.71875 51.8125 
L 48.828125 51.8125 
L 48.828125 4.25 
Q 48.828125 -5.71875 45.90625 -11.46875 
Q 40.4375 -22.125 25.25 -22.125 
Q 16.796875 -22.125 11.03125 -18.328125 
Q 5.28125 -14.546875 4.59375 -6.5 
L 13.53125 -6.5 
Q 14.15625 -10.015625 16.0625 -11.921875 
Q 19.046875 -14.84375 25.4375 -14.84375 
Q 35.546875 -14.84375 38.671875 -7.71875 
Q 40.53125 -3.515625 40.375 7.28125 
Q 37.75 3.265625 34.03125 1.3125 
Q 30.328125 -0.640625 24.21875 -0.640625 
Q 15.71875 -0.640625 9.34375 5.390625 
Q 2.984375 11.421875 2.984375 25.34375 
Q 2.984375 38.484375 9.40625 45.84375 
Q 15.828125 53.21875 24.90625 53.21875 
z
M 40.71875 26.375 
Q 40.71875 36.078125 36.71875 40.765625 
Q 32.71875 45.453125 26.515625 45.453125 
Q 17.234375 45.453125 13.8125 36.765625 
Q 12.015625 32.125 12.015625 24.609375 
Q 12.015625 15.765625 15.59375 11.15625 
Q 19.1875 6.546875 25.25 6.546875 
Q 34.71875 6.546875 38.578125 15.09375 
Q 40.71875 19.921875 40.71875 26.375 
z
M 25.921875 53.5625 
z
" id="Helvetica-67"/>
      <path id="Helvetica-20"/>
      <path d="M 29.59375 72.90625 
Q 21.921875 58.015625 19.625 50.984375 
Q 16.15625 40.28125 16.15625 26.265625 
Q 16.15625 12.109375 20.125 0.390625 
Q 22.5625 -6.84375 29.734375 -20.40625 
L 23.828125 -20.40625 
Q 16.703125 -9.28125 14.984375 -6.203125 
Q 13.28125 -3.125 11.28125 2.15625 
Q 8.546875 9.375 7.46875 17.578125 
Q 6.9375 21.828125 6.9375 25.6875 
Q 6.9375 40.140625 11.46875 51.421875 
Q 14.359375 58.59375 23.484375 72.90625 
z
" id="Helvetica-28"/>
      <path d="M 13.1875 13.921875 
Q 13.1875 10.109375 15.96875 7.90625 
Q 18.75 5.71875 22.5625 5.71875 
Q 27.203125 5.71875 31.546875 7.859375 
Q 38.875 11.421875 38.875 19.53125 
L 38.875 26.609375 
Q 37.25 25.59375 34.703125 24.90625 
Q 32.171875 24.21875 29.734375 23.921875 
L 24.421875 23.25 
Q 19.625 22.609375 17.234375 21.234375 
Q 13.1875 18.953125 13.1875 13.921875 
z
M 34.46875 31.6875 
Q 37.5 32.078125 38.53125 34.234375 
Q 39.109375 35.40625 39.109375 37.59375 
Q 39.109375 42.09375 35.90625 44.109375 
Q 32.71875 46.140625 26.765625 46.140625 
Q 19.875 46.140625 17 42.4375 
Q 15.375 40.375 14.890625 36.328125 
L 6.6875 36.328125 
Q 6.9375 46 12.96875 49.78125 
Q 19 53.5625 26.953125 53.5625 
Q 36.1875 53.5625 41.9375 50.046875 
Q 47.65625 46.53125 47.65625 39.109375 
L 47.65625 8.984375 
Q 47.65625 7.625 48.21875 6.78125 
Q 48.78125 5.953125 50.59375 5.953125 
Q 51.171875 5.953125 51.90625 6.03125 
Q 52.640625 6.109375 53.46875 6.25 
L 53.46875 -0.25 
Q 51.421875 -0.828125 50.34375 -0.96875 
Q 49.265625 -1.125 47.40625 -1.125 
Q 42.875 -1.125 40.828125 2.09375 
Q 39.75 3.8125 39.3125 6.9375 
Q 36.625 3.421875 31.59375 0.828125 
Q 26.5625 -1.765625 20.515625 -1.765625 
Q 13.234375 -1.765625 8.609375 2.65625 
Q 4 7.078125 4 13.71875 
Q 4 21 8.546875 25 
Q 13.09375 29 20.453125 29.9375 
z
M 27.203125 53.5625 
z
" id="Helvetica-61"/>
      <path d="M 6.6875 52.296875 
L 15.046875 52.296875 
L 15.046875 43.265625 
Q 16.0625 45.90625 20.0625 49.6875 
Q 24.078125 53.46875 29.296875 53.46875 
Q 29.546875 53.46875 30.125 53.421875 
Q 30.71875 53.375 32.125 53.21875 
L 32.125 43.953125 
Q 31.34375 44.09375 30.6875 44.140625 
Q 30.03125 44.1875 29.25 44.1875 
Q 22.609375 44.1875 19.046875 39.90625 
Q 15.484375 35.640625 15.484375 30.078125 
L 15.484375 0 
L 6.6875 0 
z
" id="Helvetica-72"/>
      <path d="M 5.765625 71.96875 
L 14.3125 71.96875 
L 14.3125 45.953125 
Q 17.1875 49.703125 21.1875 51.671875 
Q 25.203125 53.65625 29.890625 53.65625 
Q 39.65625 53.65625 45.734375 46.9375 
Q 51.8125 40.234375 51.8125 27.15625 
Q 51.8125 14.75 45.796875 6.546875 
Q 39.796875 -1.65625 29.15625 -1.65625 
Q 23.1875 -1.65625 19.09375 1.21875 
Q 16.65625 2.9375 13.875 6.6875 
L 13.875 0 
L 5.765625 0 
z
M 28.609375 6.109375 
Q 35.75 6.109375 39.28125 11.765625 
Q 42.828125 17.4375 42.828125 26.703125 
Q 42.828125 34.96875 39.28125 40.375 
Q 35.75 45.796875 28.859375 45.796875 
Q 22.859375 45.796875 18.328125 41.359375 
Q 13.8125 36.921875 13.8125 26.703125 
Q 13.8125 19.34375 15.671875 14.75 
Q 19.140625 6.109375 28.609375 6.109375 
z
" id="Helvetica-62"/>
      <path d="M 8.546875 10.640625 
L 18.75 10.640625 
L 18.75 0 
L 8.546875 0 
z
" id="Helvetica-2e"/>
      <path d="M 3.46875 -20.40625 
Q 11.234375 -5.28125 13.484375 1.65625 
Q 16.890625 12.15625 16.890625 26.265625 
Q 16.890625 40.375 12.9375 52.09375 
Q 10.5 59.328125 3.328125 72.90625 
L 9.234375 72.90625 
Q 16.75 60.890625 18.328125 58.078125 
Q 19.921875 55.28125 21.78125 50.34375 
Q 24.125 44.234375 25.125 38.28125 
Q 26.125 32.328125 26.125 26.8125 
Q 26.125 12.359375 21.53125 1.03125 
Q 18.65625 -6.25 9.578125 -20.40625 
z
" id="Helvetica-29"/>
     </defs>
     <g style="fill:#ffffff;" transform="translate(134.62 239.588)scale(0.2 -0.2)">
      <use xlink:href="#Helvetica-63"/>
      <use x="50" xlink:href="#Helvetica-6f"/>
      <use x="105.615234" xlink:href="#Helvetica-75"/>
      <use x="161.230469" xlink:href="#Helvetica-70"/>
      <use x="216.845703" xlink:href="#Helvetica-6c"/>
      <use x="239.0625" xlink:href="#Helvetica-69"/>
      <use x="261.279297" xlink:href="#Helvetica-6e"/>
      <use x="316.894531" xlink:href="#Helvetica-67"/>
      <use x="372.509766" xlink:href="#Helvetica-20"/>
      <use x="400.292969" xlink:href="#Helvetica-28"/>
      <use x="433.59375" xlink:href="#Helvetica-61"/>
      <use x="489.208984" xlink:href="#Helvetica-72"/>
      <use x="522.509766" xlink:href="#Helvetica-62"/>
      <use x="578.125" xlink:href="#Helvetica-2e"/>
      <use x="605.908203" xlink:href="#Helvetica-29"/>
     </g>
    </g>
   </g>
   <g id="matplotlib.axis_2">
    <g id="ytick_1">
     <g id="line2d_11">
      <defs>
       <path d="M 0 0 
L 5 0 
" id="m1d9c39491f" style="stroke:#ffffff;stroke-width:1.2;"/>
      </defs>
      <g>
       <use style="fill:#ffffff;stroke:#ffffff;stroke-width:1.2;" x="53.455625" xlink:href="#m1d9c39491f" y="219.50675"/>
      </g>
     </g>
     <g id="line2d_12">
      <defs>
       <path d="M 0 0 
L -5 0 
" id="m20e4f43cea" style="stroke:#ffffff;stroke-width:1.2;"/>
      </defs>
      <g>
       <use style="fill:#ffffff;stroke:#ffffff;stroke-width:1.2;" x="343.615625" xlink:href="#m20e4f43cea" y="219.50675"/>
      </g>
     </g>
     <g id="text_2">
      <!-- 0.0 -->
      <defs>
       <path d="M 27.046875 69.921875 
Q 40.625 69.921875 46.6875 58.734375 
Q 51.375 50.09375 51.375 35.0625 
Q 51.375 20.796875 47.125 11.46875 
Q 40.96875 -1.90625 27 -1.90625 
Q 14.40625 -1.90625 8.25 9.03125 
Q 3.125 18.171875 3.125 33.546875 
Q 3.125 45.453125 6.203125 54 
Q 11.96875 69.921875 27.046875 69.921875 
z
M 26.953125 6.109375 
Q 33.796875 6.109375 37.84375 12.15625 
Q 41.890625 18.21875 41.890625 34.71875 
Q 41.890625 46.625 38.953125 54.3125 
Q 36.03125 62.015625 27.59375 62.015625 
Q 19.828125 62.015625 16.234375 54.703125 
Q 12.640625 47.40625 12.640625 33.203125 
Q 12.640625 22.515625 14.9375 16.015625 
Q 18.453125 6.109375 26.953125 6.109375 
z
" id="Helvetica-30"/>
      </defs>
      <g style="fill:#ffffff;" transform="translate(27.715625 225.2455)scale(0.16 -0.16)">
       <use xlink:href="#Helvetica-30"/>
       <use x="55.615234" xlink:href="#Helvetica-2e"/>
       <use x="83.398438" xlink:href="#Helvetica-30"/>
      </g>
     </g>
    </g>
    <g id="ytick_2">
     <g id="line2d_13">
      <g>
       <use style="fill:#ffffff;stroke:#ffffff;stroke-width:1.2;" x="53.455625" xlink:href="#m1d9c39491f" y="167.86475"/>
      </g>
     </g>
     <g id="line2d_14">
      <g>
       <use style="fill:#ffffff;stroke:#ffffff;stroke-width:1.2;" x="343.615625" xlink:href="#m20e4f43cea" y="167.86475"/>
      </g>
     </g>
     <g id="text_3">
      <!-- 0.5 -->
      <defs>
       <path d="M 12.359375 17.828125 
Q 13.234375 10.296875 19.34375 7.421875 
Q 22.46875 5.953125 26.5625 5.953125 
Q 34.375 5.953125 38.125 10.9375 
Q 41.890625 15.921875 41.890625 21.96875 
Q 41.890625 29.296875 37.421875 33.296875 
Q 32.953125 37.3125 26.703125 37.3125 
Q 22.171875 37.3125 18.921875 35.546875 
Q 15.671875 33.796875 13.375 30.671875 
L 5.765625 31.109375 
L 11.078125 68.75 
L 47.40625 68.75 
L 47.40625 60.25 
L 17.671875 60.25 
L 14.703125 40.828125 
Q 17.140625 42.671875 19.34375 43.609375 
Q 23.25 45.21875 28.375 45.21875 
Q 37.984375 45.21875 44.671875 39.015625 
Q 51.375 32.8125 51.375 23.296875 
Q 51.375 13.375 45.234375 5.796875 
Q 39.109375 -1.765625 25.6875 -1.765625 
Q 17.140625 -1.765625 10.5625 3.046875 
Q 4 7.859375 3.21875 17.828125 
z
" id="Helvetica-35"/>
      </defs>
      <g style="fill:#ffffff;" transform="translate(27.715625 173.6035)scale(0.16 -0.16)">
       <use xlink:href="#Helvetica-30"/>
       <use x="55.615234" xlink:href="#Helvetica-2e"/>
       <use x="83.398438" xlink:href="#Helvetica-35"/>
      </g>
     </g>
    </g>
    <g id="ytick_3">
     <g id="line2d_15">
      <g>
       <use style="fill:#ffffff;stroke:#ffffff;stroke-width:1.2;" x="53.455625" xlink:href="#m1d9c39491f" y="116.22275"/>
      </g>
     </g>
     <g id="line2d_16">
      <g>
       <use style="fill:#ffffff;stroke:#ffffff;stroke-width:1.2;" x="343.615625" xlink:href="#m20e4f43cea" y="116.22275"/>
      </g>
     </g>
     <g id="text_4">
      <!-- 1.0 -->
      <defs>
       <path d="M 9.578125 49.515625 
L 9.578125 56.25 
Q 19.09375 57.171875 22.84375 59.34375 
Q 26.609375 61.53125 28.46875 69.625 
L 35.40625 69.625 
L 35.40625 0 
L 26.03125 0 
L 26.03125 49.515625 
z
" id="Helvetica-31"/>
      </defs>
      <g style="fill:#ffffff;" transform="translate(27.715625 121.9615)scale(0.16 -0.16)">
       <use xlink:href="#Helvetica-31"/>
       <use x="55.615234" xlink:href="#Helvetica-2e"/>
       <use x="83.398438" xlink:href="#Helvetica-30"/>
      </g>
     </g>
    </g>
    <g id="ytick_4">
     <g id="line2d_17">
      <g>
       <use style="fill:#ffffff;stroke:#ffffff;stroke-width:1.2;" x="53.455625" xlink:href="#m1d9c39491f" y="64.58075"/>
      </g>
     </g>
     <g id="line2d_18">
      <g>
       <use style="fill:#ffffff;stroke:#ffffff;stroke-width:1.2;" x="343.615625" xlink:href="#m20e4f43cea" y="64.58075"/>
      </g>
     </g>
     <g id="text_5">
      <!-- 1.5 -->
      <g style="fill:#ffffff;" transform="translate(27.715625 70.3195)scale(0.16 -0.16)">
       <use xlink:href="#Helvetica-31"/>
       <use x="55.615234" xlink:href="#Helvetica-2e"/>
       <use x="83.398438" xlink:href="#Helvetica-35"/>
      </g>
     </g>
    </g>
    <g id="ytick_5">
     <g id="line2d_19">
      <g>
       <use style="fill:#ffffff;stroke:#ffffff;stroke-width:1.2;" x="53.455625" xlink:href="#m1d9c39491f" y="12.93875"/>
      </g>
     </g>
     <g id="line2d_20">
      <g>
       <use style="fill:#ffffff;stroke:#ffffff;stroke-width:1.2;" x="343.615625" xlink:href="#m20e4f43cea" y="12.93875"/>
      </g>
     </g>
     <g id="text_6">
      <!-- 2.0 -->
      <defs>
       <path d="M 3.125 0 
Q 3.609375 9.03125 6.859375 15.71875 
Q 10.109375 22.40625 19.53125 27.875 
L 28.90625 33.296875 
Q 35.203125 36.96875 37.75 39.546875 
Q 41.75 43.609375 41.75 48.828125 
Q 41.75 54.9375 38.078125 58.515625 
Q 34.421875 62.109375 28.328125 62.109375 
Q 19.28125 62.109375 15.828125 55.28125 
Q 13.96875 51.609375 13.765625 45.125 
L 4.828125 45.125 
Q 4.984375 54.25 8.203125 60.015625 
Q 13.921875 70.171875 28.375 70.171875 
Q 40.375 70.171875 45.921875 63.671875 
Q 51.46875 57.171875 51.46875 49.21875 
Q 51.46875 40.828125 45.5625 34.859375 
Q 42.140625 31.390625 33.296875 26.46875 
L 26.609375 22.75 
Q 21.828125 20.125 19.09375 17.71875 
Q 14.203125 13.484375 12.9375 8.296875 
L 51.125 8.296875 
L 51.125 0 
L 3.125 0 
z
" id="Helvetica-32"/>
      </defs>
      <g style="fill:#ffffff;" transform="translate(27.715625 18.6775)scale(0.16 -0.16)">
       <use xlink:href="#Helvetica-32"/>
       <use x="55.615234" xlink:href="#Helvetica-2e"/>
       <use x="83.398438" xlink:href="#Helvetica-30"/>
      </g>
     </g>
    </g>
    <g id="text_7">
     <!-- $\Delta S / k_B$ -->
     <defs>
      <path d="M 14.40625 7.8125 
L 57.375 7.8125 
L 35.59375 61.578125 
z
M 30.71875 70.609375 
L 41.109375 70.609375 
L 70.21875 0 
L 2 0 
z
" id="Helvetica-394"/>
      <path d="M 13.96875 23.140625 
Q 14.3125 17.046875 16.84375 13.234375 
Q 21.6875 6.109375 33.890625 6.109375 
Q 39.359375 6.109375 43.84375 7.671875 
Q 52.546875 10.6875 52.546875 18.5 
Q 52.546875 24.359375 48.875 26.859375 
Q 45.171875 29.296875 37.25 31.109375 
L 27.546875 33.296875 
Q 18.015625 35.453125 14.0625 38.03125 
Q 7.234375 42.53125 7.234375 51.46875 
Q 7.234375 61.140625 13.921875 67.328125 
Q 20.609375 73.53125 32.859375 73.53125 
Q 44.140625 73.53125 52.015625 68.078125 
Q 59.90625 62.640625 59.90625 50.6875 
L 50.78125 50.6875 
Q 50.046875 56.453125 47.65625 59.515625 
Q 43.21875 65.140625 32.5625 65.140625 
Q 23.96875 65.140625 20.203125 61.515625 
Q 16.453125 57.90625 16.453125 53.125 
Q 16.453125 47.859375 20.84375 45.40625 
Q 23.734375 43.84375 33.890625 41.5 
L 43.953125 39.203125 
Q 51.21875 37.546875 55.171875 34.671875 
Q 62.015625 29.640625 62.015625 20.0625 
Q 62.015625 8.15625 53.34375 3.03125 
Q 44.671875 -2.09375 33.203125 -2.09375 
Q 19.828125 -2.09375 12.25 4.734375 
Q 4.6875 11.53125 4.828125 23.140625 
z
M 33.59375 73.6875 
z
" id="Helvetica-53"/>
      <path d="M 22.75 71.734375 
L 30.171875 71.734375 
L 7.421875 0 
L 0 0 
z
" id="Helvetica-2f"/>
      <path d="M 6.25 71.734375 
L 14.703125 71.734375 
L 14.703125 30.078125 
L 37.25 52.296875 
L 48.484375 52.296875 
L 28.46875 32.71875 
L 49.609375 0 
L 38.375 0 
L 22.078125 26.375 
L 14.703125 19.625 
L 14.703125 0 
L 6.25 0 
z
" id="Helvetica-6b"/>
      <path d="M 34.578125 41.40625 
Q 40.71875 41.40625 44.140625 43.109375 
Q 49.515625 45.796875 49.515625 52.78125 
Q 49.515625 59.8125 43.796875 62.25 
Q 40.578125 63.625 34.234375 63.625 
L 16.890625 63.625 
L 16.890625 41.40625 
z
M 37.84375 8.296875 
Q 46.78125 8.296875 50.59375 13.484375 
Q 52.984375 16.75 52.984375 21.390625 
Q 52.984375 29.203125 46 32.03125 
Q 42.28125 33.546875 36.1875 33.546875 
L 16.890625 33.546875 
L 16.890625 8.296875 
z
M 7.375 71.734375 
L 38.1875 71.734375 
Q 50.78125 71.734375 56.109375 64.203125 
Q 59.234375 59.765625 59.234375 53.953125 
Q 59.234375 47.171875 55.375 42.828125 
Q 53.375 40.53125 49.609375 38.625 
Q 55.125 36.53125 57.859375 33.890625 
Q 62.703125 29.203125 62.703125 20.953125 
Q 62.703125 14.015625 58.34375 8.40625 
Q 51.859375 0 37.703125 0 
L 7.375 0 
z
" id="Helvetica-42"/>
     </defs>
     <g style="fill:#ffffff;" transform="translate(21.546875 142.92275)rotate(-90)scale(0.2 -0.2)">
      <use transform="translate(0 0.3125)" xlink:href="#Helvetica-394"/>
      <use transform="translate(72.216797 0.3125)" xlink:href="#Helvetica-53"/>
      <use transform="translate(138.916016 0.3125)" xlink:href="#Helvetica-2f"/>
      <use transform="translate(166.699219 0.3125)" xlink:href="#Helvetica-6b"/>
      <use transform="translate(217.614414 -15.376563)scale(0.7)" xlink:href="#Helvetica-42"/>
     </g>
    </g>
   </g>
   <g id="PathCollection_1">
    <defs>
     <path d="M 0 3 
C 0.795609 3 1.55874 2.683901 2.12132 2.12132 
C 2.683901 1.55874 3 0.795609 3 0 
C 3 -0.795609 2.683901 -1.55874 2.12132 -2.12132 
C 1.55874 -2.683901 0.795609 -3 0 -3 
C -0.795609 -3 -1.55874 -2.683901 -2.12132 -2.12132 
C -2.683901 -1.55874 -3 -0.795609 -3 0 
C -3 0.795609 -2.683901 1.55874 -2.12132 2.12132 
C -1.55874 2.683901 -0.795609 3 0 3 
z
" id="m2d2cf54842" style="stroke:#8dd3c7;"/>
    </defs>
    <g clip-path="url(#p66972d19e2)">
     <use style="fill:#8dd3c7;stroke:#8dd3c7;" x="68.245138" xlink:href="#m2d2cf54842" y="148.712535"/>
     <use style="fill:#8dd3c7;stroke:#8dd3c7;" x="74.759662" xlink:href="#m2d2cf54842" y="153.57275"/>
     <use style="fill:#8dd3c7;stroke:#8dd3c7;" x="81.274186" xlink:href="#m2d2cf54842" y="153.463287"/>
     <use style="fill:#8dd3c7;stroke:#8dd3c7;" x="87.788711" xlink:href="#m2d2cf54842" y="156.517096"/>
     <use style="fill:#8dd3c7;stroke:#8dd3c7;" x="94.303235" xlink:href="#m2d2cf54842" y="154.449009"/>
     <use style="fill:#8dd3c7;stroke:#8dd3c7;" x="100.817759" xlink:href="#m2d2cf54842" y="155.804968"/>
     <use style="fill:#8dd3c7;stroke:#8dd3c7;" x="107.332284" xlink:href="#m2d2cf54842" y="152.805178"/>
     <use style="fill:#8dd3c7;stroke:#8dd3c7;" x="113.846808" xlink:href="#m2d2cf54842" y="154.634555"/>
     <use style="fill:#8dd3c7;stroke:#8dd3c7;" x="120.361333" xlink:href="#m2d2cf54842" y="154.627179"/>
     <use style="fill:#8dd3c7;stroke:#8dd3c7;" x="126.875857" xlink:href="#m2d2cf54842" y="147.25017"/>
     <use style="fill:#8dd3c7;stroke:#8dd3c7;" x="133.390381" xlink:href="#m2d2cf54842" y="148.865587"/>
     <use style="fill:#8dd3c7;stroke:#8dd3c7;" x="139.904906" xlink:href="#m2d2cf54842" y="143.944153"/>
     <use style="fill:#8dd3c7;stroke:#8dd3c7;" x="146.41943" xlink:href="#m2d2cf54842" y="135.722145"/>
     <use style="fill:#8dd3c7;stroke:#8dd3c7;" x="152.933954" xlink:href="#m2d2cf54842" y="131.238781"/>
     <use style="fill:#8dd3c7;stroke:#8dd3c7;" x="159.448479" xlink:href="#m2d2cf54842" y="119.342263"/>
     <use style="fill:#8dd3c7;stroke:#8dd3c7;" x="165.963003" xlink:href="#m2d2cf54842" y="114.653647"/>
     <use style="fill:#8dd3c7;stroke:#8dd3c7;" x="172.477528" xlink:href="#m2d2cf54842" y="95.846375"/>
     <use style="fill:#8dd3c7;stroke:#8dd3c7;" x="178.992052" xlink:href="#m2d2cf54842" y="82.902917"/>
     <use style="fill:#8dd3c7;stroke:#8dd3c7;" x="185.506576" xlink:href="#m2d2cf54842" y="81.214798"/>
     <use style="fill:#8dd3c7;stroke:#8dd3c7;" x="192.021101" xlink:href="#m2d2cf54842" y="64.447988"/>
     <use style="fill:#8dd3c7;stroke:#8dd3c7;" x="198.535625" xlink:href="#m2d2cf54842" y="53.53055"/>
     <use style="fill:#8dd3c7;stroke:#8dd3c7;" x="205.050149" xlink:href="#m2d2cf54842" y="33.000508"/>
     <use style="fill:#8dd3c7;stroke:#8dd3c7;" x="211.564674" xlink:href="#m2d2cf54842" y="41.744328"/>
     <use style="fill:#8dd3c7;stroke:#8dd3c7;" x="218.079198" xlink:href="#m2d2cf54842" y="36.593608"/>
     <use style="fill:#8dd3c7;stroke:#8dd3c7;" x="224.593722" xlink:href="#m2d2cf54842" y="43.288382"/>
     <use style="fill:#8dd3c7;stroke:#8dd3c7;" x="227.411663" xlink:href="#m2d2cf54842" y="-1"/>
     <use style="fill:#8dd3c7;stroke:#8dd3c7;" x="245.293827" xlink:href="#m2d2cf54842" y="-1"/>
     <use style="fill:#8dd3c7;stroke:#8dd3c7;" x="250.65182" xlink:href="#m2d2cf54842" y="58.775173"/>
     <use style="fill:#8dd3c7;stroke:#8dd3c7;" x="257.166344" xlink:href="#m2d2cf54842" y="5.058281"/>
     <use style="fill:#8dd3c7;stroke:#8dd3c7;" x="263.680869" xlink:href="#m2d2cf54842" y="93.846435"/>
    </g>
   </g>
   <g id="PathCollection_2">
    <defs>
     <path d="M 0 3 
C 0.795609 3 1.55874 2.683901 2.12132 2.12132 
C 2.683901 1.55874 3 0.795609 3 0 
C 3 -0.795609 2.683901 -1.55874 2.12132 -2.12132 
C 1.55874 -2.683901 0.795609 -3 0 -3 
C -0.795609 -3 -1.55874 -2.683901 -2.12132 -2.12132 
C -2.683901 -1.55874 -3 -0.795609 -3 0 
C -3 0.795609 -2.683901 1.55874 -2.12132 2.12132 
C -1.55874 2.683901 -0.795609 3 0 3 
z
" id="m1df081d4ad" style="stroke:#feffb3;"/>
    </defs>
    <g clip-path="url(#p66972d19e2)">
     <use style="fill:#feffb3;stroke:#feffb3;" x="68.245138" xlink:href="#m1df081d4ad" y="156.383267"/>
     <use style="fill:#feffb3;stroke:#feffb3;" x="74.759662" xlink:href="#m1df081d4ad" y="156.753993"/>
     <use style="fill:#feffb3;stroke:#feffb3;" x="81.274186" xlink:href="#m1df081d4ad" y="154.579548"/>
     <use style="fill:#feffb3;stroke:#feffb3;" x="87.788711" xlink:href="#m1df081d4ad" y="178.618876"/>
     <use style="fill:#feffb3;stroke:#feffb3;" x="94.303235" xlink:href="#m1df081d4ad" y="157.753603"/>
     <use style="fill:#feffb3;stroke:#feffb3;" x="100.817759" xlink:href="#m1df081d4ad" y="159.669765"/>
     <use style="fill:#feffb3;stroke:#feffb3;" x="107.332284" xlink:href="#m1df081d4ad" y="160.073993"/>
     <use style="fill:#feffb3;stroke:#feffb3;" x="113.846808" xlink:href="#m1df081d4ad" y="165.205062"/>
     <use style="fill:#feffb3;stroke:#feffb3;" x="120.361333" xlink:href="#m1df081d4ad" y="165.076904"/>
     <use style="fill:#feffb3;stroke:#feffb3;" x="126.875857" xlink:href="#m1df081d4ad" y="164.79278"/>
     <use style="fill:#feffb3;stroke:#feffb3;" x="133.390381" xlink:href="#m1df081d4ad" y="169.17742"/>
     <use style="fill:#feffb3;stroke:#feffb3;" x="139.904906" xlink:href="#m1df081d4ad" y="173.098356"/>
     <use style="fill:#feffb3;stroke:#feffb3;" x="146.41943" xlink:href="#m1df081d4ad" y="173.308821"/>
     <use style="fill:#feffb3;stroke:#feffb3;" x="152.933954" xlink:href="#m1df081d4ad" y="176.238322"/>
     <use style="fill:#feffb3;stroke:#feffb3;" x="159.448479" xlink:href="#m1df081d4ad" y="174.914267"/>
     <use style="fill:#feffb3;stroke:#feffb3;" x="165.963003" xlink:href="#m1df081d4ad" y="179.093436"/>
     <use style="fill:#feffb3;stroke:#feffb3;" x="172.477528" xlink:href="#m1df081d4ad" y="178.859883"/>
     <use style="fill:#feffb3;stroke:#feffb3;" x="178.992052" xlink:href="#m1df081d4ad" y="180.39608"/>
     <use style="fill:#feffb3;stroke:#feffb3;" x="185.506576" xlink:href="#m1df081d4ad" y="181.502779"/>
     <use style="fill:#feffb3;stroke:#feffb3;" x="192.021101" xlink:href="#m1df081d4ad" y="183.604504"/>
     <use style="fill:#feffb3;stroke:#feffb3;" x="198.535625" xlink:href="#m1df081d4ad" y="184.618975"/>
     <use style="fill:#feffb3;stroke:#feffb3;" x="205.050149" xlink:href="#m1df081d4ad" y="185.275492"/>
     <use style="fill:#feffb3;stroke:#feffb3;" x="211.564674" xlink:href="#m1df081d4ad" y="186.416265"/>
     <use style="fill:#feffb3;stroke:#feffb3;" x="218.079198" xlink:href="#m1df081d4ad" y="188.518961"/>
     <use style="fill:#feffb3;stroke:#feffb3;" x="224.593722" xlink:href="#m1df081d4ad" y="191.271657"/>
     <use style="fill:#feffb3;stroke:#feffb3;" x="231.108247" xlink:href="#m1df081d4ad" y="190.877111"/>
     <use style="fill:#feffb3;stroke:#feffb3;" x="237.622771" xlink:href="#m1df081d4ad" y="191.392197"/>
     <use style="fill:#feffb3;stroke:#feffb3;" x="244.137296" xlink:href="#m1df081d4ad" y="193.720944"/>
     <use style="fill:#feffb3;stroke:#feffb3;" x="250.65182" xlink:href="#m1df081d4ad" y="195.933398"/>
     <use style="fill:#feffb3;stroke:#feffb3;" x="257.166344" xlink:href="#m1df081d4ad" y="199.267805"/>
     <use style="fill:#feffb3;stroke:#feffb3;" x="263.680869" xlink:href="#m1df081d4ad" y="197.966876"/>
     <use style="fill:#feffb3;stroke:#feffb3;" x="270.195393" xlink:href="#m1df081d4ad" y="200.399112"/>
     <use style="fill:#feffb3;stroke:#feffb3;" x="276.709917" xlink:href="#m1df081d4ad" y="202.183497"/>
     <use style="fill:#feffb3;stroke:#feffb3;" x="283.224442" xlink:href="#m1df081d4ad" y="204.861643"/>
     <use style="fill:#feffb3;stroke:#feffb3;" x="289.738966" xlink:href="#m1df081d4ad" y="204.223722"/>
     <use style="fill:#feffb3;stroke:#feffb3;" x="296.253491" xlink:href="#m1df081d4ad" y="205.552787"/>
     <use style="fill:#feffb3;stroke:#feffb3;" x="302.768015" xlink:href="#m1df081d4ad" y="209.632258"/>
     <use style="fill:#feffb3;stroke:#feffb3;" x="309.282539" xlink:href="#m1df081d4ad" y="208.505373"/>
     <use style="fill:#feffb3;stroke:#feffb3;" x="315.797064" xlink:href="#m1df081d4ad" y="210.656716"/>
     <use style="fill:#feffb3;stroke:#feffb3;" x="322.311588" xlink:href="#m1df081d4ad" y="207.112429"/>
     <use style="fill:#feffb3;stroke:#feffb3;" x="328.826112" xlink:href="#m1df081d4ad" y="209.568369"/>
    </g>
   </g>
   <g id="patch_3">
    <path d="M 53.455625 219.50675 
L 53.455625 12.93875 
" style="fill:none;stroke:#ffffff;stroke-linecap:square;stroke-linejoin:miter;stroke-width:1.2;"/>
   </g>
   <g id="patch_4">
    <path d="M 343.615625 219.50675 
L 343.615625 12.93875 
" style="fill:none;stroke:#ffffff;stroke-linecap:square;stroke-linejoin:miter;stroke-width:1.2;"/>
   </g>
   <g id="patch_5">
    <path d="M 53.455625 219.50675 
L 343.615625 219.50675 
" style="fill:none;stroke:#ffffff;stroke-linecap:square;stroke-linejoin:miter;stroke-width:1.2;"/>
   </g>
   <g id="patch_6">
    <path d="M 53.455625 12.93875 
L 343.615625 12.93875 
" style="fill:none;stroke:#ffffff;stroke-linecap:square;stroke-linejoin:miter;stroke-width:1.2;"/>
   </g>
   <g id="legend_1">
    <g id="PathCollection_3">
     <g>
      <use style="fill:#8dd3c7;stroke:#8dd3c7;" x="71.855625" xlink:href="#m2d2cf54842" y="30.61625"/>
     </g>
    </g>
    <g id="text_8">
     <!-- $k_BT$-broadened -->
     <defs>
      <path d="M 59.8125 71.734375 
L 59.8125 63.1875 
L 35.640625 63.1875 
L 35.640625 0 
L 25.78125 0 
L 25.78125 63.1875 
L 1.609375 63.1875 
L 1.609375 71.734375 
z
" id="Helvetica-54"/>
      <path d="M 4.15625 32.375 
L 28.65625 32.375 
L 28.65625 23.34375 
L 4.15625 23.34375 
z
" id="Helvetica-2d"/>
      <path d="M 12.015625 25.53125 
Q 12.015625 17.140625 15.578125 11.46875 
Q 19.140625 5.8125 27 5.8125 
Q 33.109375 5.8125 37.03125 11.0625 
Q 40.96875 16.3125 40.96875 26.125 
Q 40.96875 36.03125 36.90625 40.796875 
Q 32.859375 45.5625 26.90625 45.5625 
Q 20.265625 45.5625 16.140625 40.484375 
Q 12.015625 35.40625 12.015625 25.53125 
z
M 25.25 53.21875 
Q 31.25 53.21875 35.296875 50.6875 
Q 37.640625 49.21875 40.625 45.5625 
L 40.625 71.96875 
L 49.078125 71.96875 
L 49.078125 0 
L 41.15625 0 
L 41.15625 7.28125 
Q 38.09375 2.4375 33.890625 0.28125 
Q 29.6875 -1.859375 24.265625 -1.859375 
Q 15.53125 -1.859375 9.125 5.484375 
Q 2.734375 12.84375 2.734375 25.046875 
Q 2.734375 36.46875 8.5625 44.84375 
Q 14.40625 53.21875 25.25 53.21875 
z
" id="Helvetica-64"/>
      <path d="M 28.21875 53.46875 
Q 33.796875 53.46875 39.015625 50.859375 
Q 44.234375 48.25 46.96875 44.09375 
Q 49.609375 40.140625 50.484375 34.859375 
Q 51.265625 31.25 51.265625 23.34375 
L 12.9375 23.34375 
Q 13.1875 15.375 16.703125 10.5625 
Q 20.21875 5.765625 27.59375 5.765625 
Q 34.46875 5.765625 38.578125 10.296875 
Q 40.921875 12.9375 41.890625 16.40625 
L 50.53125 16.40625 
Q 50.203125 13.53125 48.265625 9.984375 
Q 46.34375 6.453125 43.953125 4.203125 
Q 39.9375 0.296875 34.03125 -1.078125 
Q 30.859375 -1.859375 26.859375 -1.859375 
Q 17.09375 -1.859375 10.296875 5.25 
Q 3.515625 12.359375 3.515625 25.140625 
Q 3.515625 37.75 10.34375 45.609375 
Q 17.1875 53.46875 28.21875 53.46875 
z
M 42.234375 30.328125 
Q 41.703125 36.03125 39.75 39.453125 
Q 36.140625 45.796875 27.6875 45.796875 
Q 21.625 45.796875 17.515625 41.421875 
Q 13.421875 37.0625 13.1875 30.328125 
z
M 27.390625 53.5625 
z
" id="Helvetica-65"/>
     </defs>
     <g style="fill:#ffffff;" transform="translate(83.855625 34.81625)scale(0.16 -0.16)">
      <use transform="translate(0 0.03125)" xlink:href="#Helvetica-6b"/>
      <use transform="translate(50.915195 -15.657813)scale(0.7)" xlink:href="#Helvetica-42"/>
      <use transform="translate(100.219492 0.03125)" xlink:href="#Helvetica-54"/>
      <use transform="translate(161.303477 0.03125)" xlink:href="#Helvetica-2d"/>
      <use transform="translate(194.604258 0.03125)" xlink:href="#Helvetica-62"/>
      <use transform="translate(250.219492 0.03125)" xlink:href="#Helvetica-72"/>
      <use transform="translate(283.520273 0.03125)" xlink:href="#Helvetica-6f"/>
      <use transform="translate(339.135508 0.03125)" xlink:href="#Helvetica-61"/>
      <use transform="translate(394.750742 0.03125)" xlink:href="#Helvetica-64"/>
      <use transform="translate(450.365977 0.03125)" xlink:href="#Helvetica-65"/>
      <use transform="translate(505.981211 0.03125)" xlink:href="#Helvetica-6e"/>
      <use transform="translate(561.596445 0.03125)" xlink:href="#Helvetica-65"/>
      <use transform="translate(617.21168 0.03125)" xlink:href="#Helvetica-64"/>
     </g>
    </g>
    <g id="PathCollection_4">
     <g>
      <use style="fill:#feffb3;stroke:#feffb3;" x="71.855625" xlink:href="#m1df081d4ad" y="53.42875"/>
     </g>
    </g>
    <g id="text_9">
     <!-- $h \Gamma$-broadened -->
     <defs>
      <path d="M 6.453125 71.96875 
L 15.234375 71.96875 
L 15.234375 45.21875 
Q 18.359375 49.171875 20.84375 50.78125 
Q 25.09375 53.5625 31.453125 53.5625 
Q 42.828125 53.5625 46.875 45.609375 
Q 49.078125 41.265625 49.078125 33.546875 
L 49.078125 0 
L 40.046875 0 
L 40.046875 32.953125 
Q 40.046875 38.71875 38.578125 41.40625 
Q 36.1875 45.703125 29.59375 45.703125 
Q 24.125 45.703125 19.671875 41.9375 
Q 15.234375 38.1875 15.234375 27.734375 
L 15.234375 0 
L 6.453125 0 
z
" id="Helvetica-68"/>
      <path d="M 10.40625 70.609375 
L 58.796875 70.609375 
L 58.796875 62.203125 
L 20.015625 62.203125 
L 20.015625 0 
L 10.40625 0 
z
" id="Helvetica-393"/>
     </defs>
     <g style="fill:#ffffff;" transform="translate(83.855625 57.62875)scale(0.16 -0.16)">
      <use transform="translate(0 0.03125)" xlink:href="#Helvetica-68"/>
      <use transform="translate(55.615234 0.03125)" xlink:href="#Helvetica-393"/>
      <use transform="translate(116.699219 0.03125)" xlink:href="#Helvetica-2d"/>
      <use transform="translate(150 0.03125)" xlink:href="#Helvetica-62"/>
      <use transform="translate(205.615234 0.03125)" xlink:href="#Helvetica-72"/>
      <use transform="translate(238.916016 0.03125)" xlink:href="#Helvetica-6f"/>
      <use transform="translate(294.53125 0.03125)" xlink:href="#Helvetica-61"/>
      <use transform="translate(350.146484 0.03125)" xlink:href="#Helvetica-64"/>
      <use transform="translate(405.761719 0.03125)" xlink:href="#Helvetica-65"/>
      <use transform="translate(461.376953 0.03125)" xlink:href="#Helvetica-6e"/>
      <use transform="translate(516.992188 0.03125)" xlink:href="#Helvetica-65"/>
      <use transform="translate(572.607422 0.03125)" xlink:href="#Helvetica-64"/>
     </g>
    </g>
   </g>
  </g>
 </g>
 <defs>
  <clipPath id="p66972d19e2">
   <rect height="206.568" width="290.16" x="53.455625" y="12.93875"/>
  </clipPath>
 </defs>
</svg>
