<?xml version="1.0" encoding="utf-8"?>
<!-- Generator: Adobe Illustrator 15.0.0, SVG Export Plug-In . SVG Version: 6.00 Build 0)  -->
<!DOCTYPE svg PUBLIC "-//W3C//DTD SVG 1.1//EN" "http://www.w3.org/Graphics/SVG/1.1/DTD/svg11.dtd">
<svg version="1.1" id="gate_x5F_blockade_x5F_labels"
	 xmlns="http://www.w3.org/2000/svg" xmlns:xlink="http://www.w3.org/1999/xlink" x="0px" y="0px" width="360px" height="401px"
	 viewBox="0 0 360 401" enable-background="new 0 0 360 401" xml:space="preserve">
<g>
	<line fill="none" x1="215.243" y1="86.067" x2="215.243" y2="12"/>
	<g>
		<line fill="none" stroke="#FFFFFF" stroke-width="5" stroke-miterlimit="10" x1="215.243" y1="71.143" x2="215.243" y2="26.924"/>
		<g>
			<polygon fill="#FFFFFF" points="224.5,64.121 215.243,68.054 205.984,64.121 215.243,86.067 			"/>
		</g>
		<g>
			<polygon fill="#FFFFFF" points="224.5,33.946 215.243,30.013 205.984,33.946 215.243,12 			"/>
		</g>
	</g>
</g>
<g enable-background="new    ">
</g>
<g enable-background="new    ">
	<path fill="#FFFFFF" d="M230.441,40.18l6.594,19.547l6.516-19.547h3.484l-8.375,22.953h-3.297l-8.359-22.953H230.441z"/>
	<path fill="#FFFFFF" d="M248.594,64.079h1.603v1.293c0.329-0.443,0.688-0.787,1.078-1.029c0.554-0.365,1.205-0.547,1.954-0.547
		c1.108,0,2.049,0.424,2.822,1.271s1.16,2.057,1.16,3.63c0,2.126-0.558,3.644-1.674,4.555c-0.707,0.577-1.53,0.866-2.469,0.866
		c-0.738,0-1.356-0.161-1.856-0.483c-0.293-0.182-0.619-0.495-0.979-0.938v4.983h-1.64V64.079z M254.763,71.726
		c0.509-0.641,0.763-1.599,0.763-2.874c0-0.777-0.112-1.445-0.338-2.004c-0.427-1.075-1.207-1.612-2.34-1.612
		c-1.14,0-1.92,0.568-2.34,1.704c-0.226,0.607-0.339,1.378-0.339,2.313c0,0.753,0.113,1.394,0.339,1.922
		c0.426,1.008,1.206,1.512,2.34,1.512C253.615,72.687,254.254,72.367,254.763,71.726z"/>
</g>
<g enable-background="new    ">
	<path fill="#FFFFFF" d="M213.4,145.946h3.252v11.021c-0.023,1.629,0.299,2.9,0.967,3.814c0.645,0.961,1.822,1.441,3.533,1.441
		c1.746,0,2.941-0.492,3.586-1.477c0.633-0.914,0.949-2.174,0.949-3.779v-11.021h3.234v14.186c-0.07,1.395,0.328,2.092,1.195,2.092
		c0.328,0,0.662-0.035,1.002-0.105v2.549c-0.316,0.211-0.979,0.328-1.986,0.352c-0.984-0.07-1.693-0.305-2.127-0.703
		c-0.457-0.387-0.814-0.99-1.072-1.811c-1.125,1.629-2.695,2.467-4.711,2.514c-1.734,0-3.234-0.791-4.5-2.373h-0.07v9.07H213.4
		V145.946z"/>
</g>
<g enable-background="new    ">
	<path fill="#FFFFFF" d="M233.754,161.601h2.402l7.508,12.163v-12.163h1.947v15.054h-2.291l-7.619-12.148v12.148h-1.947V161.601z"/>
</g>
<g enable-background="new    ">
	<path fill="#FFFFFF" d="M213.4,213.945h3.252v11.021c-0.023,1.629,0.299,2.9,0.967,3.814c0.645,0.961,1.822,1.441,3.533,1.441
		c1.746,0,2.941-0.492,3.586-1.477c0.633-0.914,0.949-2.174,0.949-3.779v-11.021h3.234v14.186c-0.07,1.395,0.328,2.092,1.195,2.092
		c0.328,0,0.662-0.035,1.002-0.105v2.549c-0.316,0.211-0.979,0.328-1.986,0.352c-0.984-0.07-1.693-0.305-2.127-0.703
		c-0.457-0.387-0.814-0.99-1.072-1.811c-1.125,1.629-2.695,2.467-4.711,2.514c-1.734,0-3.234-0.791-4.5-2.373h-0.07v9.07H213.4
		V213.945z"/>
</g>
<g enable-background="new    ">
	<path fill="#FFFFFF" d="M233.754,229.6h2.402l7.508,12.164V229.6h1.947v15.055h-2.291l-7.619-12.148v12.148h-1.947V229.6z"/>
	<path fill="#FFFFFF" d="M248.184,237.859h5.145v1.896h-5.145V237.859z"/>
	<path fill="#FFFFFF" d="M256.311,234.263v-1.414c1.332-0.13,2.261-0.347,2.787-0.651c0.526-0.303,0.919-1.022,1.179-2.156h1.455
		v14.613h-1.968v-10.392H256.311z"/>
</g>
<g enable-background="new    ">
	<path fill="#FFFFFF" d="M117.749,146.472h18.738v3.164h-15.328v7.84h14.168v2.988h-14.168v8.754h15.592v3.076h-19.002V146.472z"/>
</g>
<g enable-background="new    ">
	<path fill="#FFFFFF" d="M140.478,169.228h10.443v1.844h-8.403v4.571h7.389v1.793h-7.389v6.846h-2.04V169.228z"/>
</g>
<line fill="none" stroke="#FFFFFF" stroke-width="3" stroke-miterlimit="10" x1="300.334" y1="126.319" x2="336.334" y2="159.651"/>
<line fill="none" stroke="#FFFFFF" stroke-width="3" stroke-miterlimit="10" x1="300.334" y1="194.334" x2="336.334" y2="227.667"/>
<line fill="none" stroke="#FFFFFF" stroke-width="3" stroke-miterlimit="10" x1="300.334" y1="258.99" x2="336.334" y2="292.322"/>
<line fill="none" stroke="#FFFFFF" stroke-width="3" stroke-miterlimit="10" x1="300.334" y1="322.038" x2="336.334" y2="355.371"/>
<rect x="99.005" y="188.958" opacity="0.35" fill="#00FFFF" stroke="#FFFFFF" stroke-width="3" stroke-miterlimit="10" enable-background="new    " width="77.76" height="174.96"/>
<line fill="none" stroke="#FFFFFF" stroke-width="6" stroke-miterlimit="10" x1="202.686" y1="314.038" x2="267.486" y2="314.038"/>
<line fill="none" stroke="#FFFFFF" stroke-width="6" stroke-miterlimit="10" x1="202.686" y1="250.157" x2="267.486" y2="250.157"/>
<path fill="#00ABC0" stroke="#00ABC0" stroke-width="5" stroke-miterlimit="10" d="M202.686,182.479"/>
<path fill="#00ABC0" stroke="#00ABC0" stroke-width="5" stroke-miterlimit="10" d="M209.166,175.999"/>
<path fill="#FFFFFF" stroke="#FFFFFF" stroke-width="5" stroke-miterlimit="10" d="M241.564,363.919"/>
<path fill="#FFFFFF" stroke="#FFFFFF" stroke-width="5" stroke-miterlimit="10" d="M235.086,357.439"/>
<line fill="none" stroke="#ABA3A9" stroke-width="12" stroke-miterlimit="10" x1="56.886" y1="363.919" x2="56.886" y2="130.638"/>
<path fill="#ABA3A9" stroke="#ABA3A9" stroke-width="5" stroke-miterlimit="10" d="M73.086,147.918"/>
<polygon fill="#ABA3A9" stroke="#ABA3A9" stroke-width="5" stroke-miterlimit="10" points="34.206,147.918 79.565,147.918 
	56.886,104.719 "/>
<g enable-background="new    ">
	<path fill="#FFFFFF" d="M22.094,277.464v-13.491h2.278v11.036h5.645v-10.201h2.151v10.201h6.303v-11.227h2.215v13.682H22.094z"/>
	<path fill="#FFFFFF" d="M27.131,260.72v-2.165h1.924c-0.793-0.641-1.362-1.32-1.709-2.037c-0.346-0.717-0.519-1.514-0.519-2.393
		c0-1.924,0.671-3.223,2.012-3.897c0.734-0.371,1.785-0.558,3.151-0.558h8.695v2.316h-8.543c-0.827,0-1.493,0.123-2,0.367
		c-0.844,0.405-1.266,1.139-1.266,2.203c0,0.539,0.056,0.982,0.165,1.328c0.186,0.625,0.557,1.173,1.113,1.646
		c0.447,0.38,0.909,0.626,1.386,0.74c0.478,0.114,1.158,0.171,2.044,0.171h7.101v2.278H27.131z"/>
	<path fill="#FFFFFF" d="M27.504,237.932c0.451-0.897,1.036-1.58,1.753-2.051c0.684-0.453,1.48-0.754,2.393-0.905
		c0.624-0.134,1.619-0.202,2.986-0.202v9.859c1.379-0.041,2.485-0.363,3.319-0.967c0.833-0.603,1.25-1.535,1.25-2.8
		c0-1.181-0.395-2.122-1.183-2.825c-0.458-0.395-0.987-0.673-1.59-0.837v-2.24c0.498,0.06,1.053,0.255,1.665,0.589
		c0.611,0.333,1.111,0.705,1.499,1.115c0.676,0.687,1.131,1.537,1.367,2.55c0.135,0.544,0.202,1.159,0.202,1.847
		c0,1.677-0.613,3.098-1.841,4.264s-2.947,1.748-5.157,1.748c-2.178,0-3.944-0.587-5.304-1.762
		c-1.358-1.174-2.037-2.708-2.037-4.604C26.827,239.756,27.053,238.829,27.504,237.932z M32.826,237.115
		c-0.987,0.092-1.776,0.306-2.367,0.641c-1.097,0.619-1.645,1.652-1.645,3.1c0,1.037,0.377,1.908,1.132,2.61
		c0.756,0.702,1.716,1.075,2.88,1.116V237.115z"/>
	<path fill="#FFFFFF" d="M27.131,231.826v-2.164h2.341c-0.455-0.178-1.01-0.612-1.664-1.305c-0.653-0.691-0.98-1.488-0.98-2.392
		c0-0.042,0.004-0.114,0.013-0.216c0.008-0.101,0.025-0.273,0.051-0.518h2.404c-0.025,0.135-0.042,0.259-0.051,0.373
		c-0.008,0.113-0.013,0.238-0.013,0.373c0,1.147,0.369,2.029,1.107,2.645c0.738,0.617,1.589,0.924,2.551,0.924h7.796v2.279H27.131z"
		/>
	<path fill="#FFFFFF" d="M27.675,215.722c0.296-0.429,0.726-0.866,1.291-1.312h-1.709v-2.101h12.327c1.722,0,3.08,0.253,4.076,0.757
		c1.839,0.941,2.759,2.721,2.759,5.336c0,1.455-0.327,2.678-0.981,3.67c-0.653,0.992-1.677,1.548-3.068,1.666v-2.316
		c0.607-0.109,1.075-0.327,1.404-0.654c0.507-0.512,0.76-1.317,0.76-2.417c0-1.737-0.616-2.874-1.848-3.411
		c-0.726-0.318-2.021-0.466-3.886-0.44c0.692,0.454,1.207,1,1.544,1.639c0.338,0.639,0.506,1.483,0.506,2.534
		c0,1.463-0.521,2.742-1.562,3.839s-2.766,1.646-5.17,1.646c-2.27,0-4.042-0.553-5.315-1.658c-1.274-1.105-1.911-2.439-1.911-4.003
		C26.891,217.436,27.152,216.512,27.675,215.722z M30.117,215.443c-0.81,0.688-1.215,1.564-1.215,2.631
		c0,1.596,0.751,2.687,2.253,3.274c0.802,0.311,1.853,0.466,3.151,0.466c1.527,0,2.689-0.309,3.487-0.926
		c0.797-0.617,1.195-1.445,1.195-2.486c0-1.629-0.738-2.774-2.215-3.438c-0.835-0.369-1.81-0.555-2.923-0.555
		C32.172,214.41,30.928,214.755,30.117,215.443z"/>
	<path fill="#FFFFFF" d="M27.131,200.368v-2.519c0.869,0.321,2.854,1.034,5.951,2.139c2.33,0.827,4.229,1.519,5.698,2.076
		c3.456,1.314,5.564,2.242,6.323,2.781s1.138,1.467,1.138,2.782c0,0.32-0.013,0.567-0.037,0.739
		c-0.025,0.174-0.072,0.387-0.14,0.639h-2.075c0.109-0.396,0.177-0.682,0.202-0.859c0.025-0.176,0.038-0.332,0.038-0.467
		c0-0.422-0.069-0.73-0.209-0.929c-0.139-0.198-0.31-0.364-0.512-0.499c-0.067-0.043-0.412-0.193-1.035-0.455
		c-0.623-0.261-1.087-0.451-1.39-0.568l-13.953,5.012v-2.582l11.041-3.633L27.131,200.368z"/>
</g>
<line fill="none" stroke="#FFFFFF" stroke-width="6" stroke-miterlimit="10" x1="202.686" y1="182.157" x2="267.486" y2="182.157"/>
<polyline fill="none" stroke="#FFFFFF" stroke-width="3" stroke-miterlimit="10" points="176.766,363.919 176.766,98.238 
	189.727,98.238 189.727,363.919 280.445,363.919 280.445,38.999 300.334,38.999 300.334,363.919 "/>
<line fill="none" stroke="#FFFFFF" stroke-width="3" stroke-miterlimit="10" x1="300.334" y1="61.667" x2="336.334" y2="94.999"/>
</svg>
