<?xml version="1.0" encoding="utf-8"?>
<!-- Generator: Adobe Illustrator 15.0.0, SVG Export Plug-In . SVG Version: 6.00 Build 0)  -->
<!DOCTYPE svg PUBLIC "-//W3C//DTD SVG 1.1//EN" "http://www.w3.org/Graphics/SVG/1.1/DTD/svg11.dtd">
<svg version="1.1" id="gate_x5F_blockade_x5F_labels"
	 xmlns="http://www.w3.org/2000/svg" xmlns:xlink="http://www.w3.org/1999/xlink" x="0px" y="0px" width="360px" height="401px"
	 viewBox="0 0 360 401" enable-background="new 0 0 360 401" xml:space="preserve">
<rect x="99.005" y="188.958" opacity="0.35" fill="#00FFFF" stroke="#FFFFFF" stroke-width="3" stroke-miterlimit="10" enable-background="new    " width="77.76" height="174.96"/>
<g enable-background="new    ">
	<path fill="#FFFFFF" d="M213.4,186.946h3.252v11.021c-0.023,1.629,0.299,2.9,0.967,3.814c0.645,0.961,1.822,1.441,3.533,1.441
		c1.746,0,2.94-0.492,3.586-1.478c0.633-0.914,0.949-2.175,0.949-3.779v-11.021h3.233v14.186c-0.069,1.395,0.328,2.092,1.195,2.092
		c0.327,0,0.661-0.035,1.002-0.104v2.549c-0.316,0.211-0.979,0.328-1.986,0.353c-0.983-0.07-1.692-0.306-2.127-0.703
		c-0.457-0.388-0.813-0.99-1.071-1.812c-1.125,1.629-2.695,2.468-4.711,2.515c-1.734,0-3.234-0.791-4.5-2.373h-0.07v9.069H213.4
		V186.946z"/>
</g>
<g enable-background="new    ">
	<path fill="#FFFFFF" d="M233.754,202.602h2.402l7.508,12.162v-12.162h1.947v15.054h-2.291l-7.619-12.148v12.148h-1.947V202.602
		L233.754,202.602z"/>
</g>
<g enable-background="new    ">
	<path fill="#FFFFFF" d="M213.4,254.945h3.252v11.021c-0.023,1.629,0.299,2.9,0.967,3.814c0.645,0.961,1.822,1.44,3.533,1.44
		c1.746,0,2.94-0.492,3.586-1.477c0.633-0.914,0.949-2.174,0.949-3.779v-11.021h3.233v14.187c-0.069,1.396,0.328,2.093,1.195,2.093
		c0.327,0,0.661-0.035,1.002-0.105v2.549c-0.316,0.211-0.979,0.328-1.986,0.352c-0.983-0.069-1.692-0.305-2.127-0.703
		c-0.457-0.387-0.813-0.989-1.071-1.811c-1.125,1.629-2.695,2.467-4.711,2.514c-1.734,0-3.234-0.791-4.5-2.373h-0.07v9.07H213.4
		V254.945z"/>
</g>
<g enable-background="new    ">
	<path fill="#FFFFFF" d="M233.754,270.6h2.402l7.508,12.164V270.6h1.947v15.055h-2.291l-7.619-12.147v12.147h-1.947V270.6
		L233.754,270.6z"/>
	<path fill="#FFFFFF" d="M248.184,278.859h5.146v1.896h-5.146V278.859z"/>
	<path fill="#FFFFFF" d="M256.311,275.264v-1.414c1.332-0.131,2.262-0.348,2.787-0.651c0.526-0.304,0.92-1.022,1.18-2.156h1.455
		v14.612h-1.969v-10.391H256.311z"/>
</g>
<g enable-background="new    ">
	<path fill="#FFFFFF" d="M117.749,197.472h18.738v3.164h-15.328v7.841h14.168v2.987h-14.168v8.754h15.592v3.076h-19.002V197.472z"/>
</g>
<g enable-background="new    ">
	<path fill="#FFFFFF" d="M140.478,220.229h10.443v1.844h-8.403v4.57h7.389v1.793h-7.389v6.847h-2.04V220.229L140.478,220.229z"/>
</g>
<line fill="none" stroke="#FFFFFF" stroke-width="3" stroke-miterlimit="10" x1="300.334" y1="126.319" x2="336.334" y2="159.651"/>
<line fill="none" stroke="#FFFFFF" stroke-width="3" stroke-miterlimit="10" x1="300.334" y1="194.334" x2="336.334" y2="227.667"/>
<line fill="none" stroke="#FFFFFF" stroke-width="3" stroke-miterlimit="10" x1="300.334" y1="258.99" x2="336.334" y2="292.322"/>
<line fill="none" stroke="#FFFFFF" stroke-width="3" stroke-miterlimit="10" x1="300.334" y1="322.038" x2="336.334" y2="355.371"/>
<line fill="none" stroke="#FFFFFF" stroke-width="6" stroke-miterlimit="10" x1="202.686" y1="314.038" x2="267.486" y2="314.038"/>
<line fill="none" stroke="#FFFFFF" stroke-width="6" stroke-miterlimit="10" x1="202.686" y1="250.157" x2="267.486" y2="250.157"/>
<path fill="#00ABC0" stroke="#00ABC0" stroke-width="5" stroke-miterlimit="10" d="M202.686,182.479"/>
<path fill="#00ABC0" stroke="#00ABC0" stroke-width="5" stroke-miterlimit="10" d="M209.166,175.999"/>
<path fill="#FFFFFF" stroke="#FFFFFF" stroke-width="5" stroke-miterlimit="10" d="M241.564,363.919"/>
<path fill="#FFFFFF" stroke="#FFFFFF" stroke-width="5" stroke-miterlimit="10" d="M235.086,357.439"/>
<line fill="none" stroke="#ABA3A9" stroke-width="12" stroke-miterlimit="10" x1="36.886" y1="363.919" x2="36.886" y2="130.638"/>
<path fill="#ABA3A9" stroke="#ABA3A9" stroke-width="5" stroke-miterlimit="10" d="M73.086,147.918"/>
<polygon fill="#ABA3A9" stroke="#ABA3A9" stroke-width="5" stroke-miterlimit="10" points="14.206,147.918 59.565,147.918 
	36.886,104.719 "/>
<g enable-background="new    ">
	<path fill="#FFFFFF" d="M2.094,277.464v-13.491h2.278v11.036h5.645v-10.2h2.151v10.2h6.303v-11.227h2.215v13.682H2.094
		L2.094,277.464z"/>
	<path fill="#FFFFFF" d="M7.131,260.721v-2.166h1.924c-0.793-0.641-1.362-1.32-1.709-2.037c-0.346-0.717-0.519-1.514-0.519-2.393
		c0-1.924,0.671-3.223,2.012-3.896c0.734-0.371,1.785-0.559,3.151-0.559h8.695v2.316h-8.543c-0.827,0-1.493,0.123-2,0.367
		c-0.844,0.404-1.266,1.139-1.266,2.203c0,0.539,0.056,0.981,0.165,1.327c0.186,0.625,0.557,1.173,1.113,1.646
		c0.447,0.381,0.909,0.627,1.386,0.74c0.478,0.114,1.158,0.172,2.044,0.172h7.101v2.277H7.131V260.721z"/>
	<path fill="#FFFFFF" d="M7.504,237.932c0.451-0.896,1.036-1.58,1.753-2.051c0.684-0.453,1.48-0.754,2.393-0.904
		c0.624-0.135,1.619-0.203,2.986-0.203v9.859c1.379-0.041,2.485-0.363,3.319-0.967c0.833-0.604,1.25-1.535,1.25-2.8
		c0-1.181-0.395-2.122-1.183-2.825c-0.458-0.395-0.987-0.673-1.59-0.837v-2.24c0.498,0.06,1.053,0.255,1.665,0.589
		c0.611,0.333,1.111,0.705,1.499,1.115c0.676,0.688,1.131,1.537,1.367,2.55c0.135,0.544,0.202,1.159,0.202,1.847
		c0,1.678-0.613,3.099-1.841,4.265c-1.228,1.166-2.947,1.748-5.157,1.748c-2.178,0-3.944-0.587-5.304-1.763
		c-1.358-1.174-2.037-2.707-2.037-4.604C6.827,239.756,7.053,238.829,7.504,237.932z M12.826,237.115
		c-0.987,0.092-1.776,0.306-2.367,0.641c-1.097,0.619-1.645,1.652-1.645,3.1c0,1.037,0.377,1.908,1.132,2.61
		c0.756,0.702,1.716,1.075,2.88,1.116V237.115z"/>
	<path fill="#FFFFFF" d="M7.131,231.826v-2.164h2.341c-0.455-0.178-1.01-0.612-1.664-1.305c-0.653-0.691-0.98-1.488-0.98-2.393
		c0-0.042,0.004-0.113,0.013-0.216c0.008-0.101,0.025-0.272,0.051-0.519h2.404c-0.025,0.136-0.042,0.26-0.051,0.373
		c-0.008,0.113-0.013,0.238-0.013,0.373c0,1.147,0.369,2.029,1.107,2.646c0.738,0.617,1.589,0.924,2.551,0.924h7.796v2.279
		L7.131,231.826L7.131,231.826z"/>
	<path fill="#FFFFFF" d="M7.675,215.723c0.296-0.43,0.726-0.867,1.291-1.312H7.257v-2.102h12.327c1.722,0,3.08,0.254,4.076,0.758
		c1.839,0.94,2.759,2.721,2.759,5.336c0,1.455-0.327,2.678-0.981,3.67c-0.653,0.992-1.677,1.548-3.068,1.666v-2.316
		c0.607-0.109,1.075-0.326,1.404-0.654c0.507-0.512,0.76-1.316,0.76-2.416c0-1.737-0.616-2.875-1.848-3.412
		c-0.726-0.317-2.021-0.465-3.886-0.439c0.692,0.454,1.207,1,1.544,1.639c0.338,0.639,0.506,1.483,0.506,2.534
		c0,1.463-0.521,2.742-1.562,3.839c-1.041,1.098-2.766,1.646-5.17,1.646c-2.27,0-4.042-0.553-5.315-1.658
		c-1.274-1.105-1.911-2.439-1.911-4.003C6.891,217.436,7.152,216.512,7.675,215.723z M10.117,215.443
		c-0.81,0.688-1.215,1.563-1.215,2.631c0,1.596,0.751,2.687,2.253,3.273c0.802,0.312,1.853,0.467,3.151,0.467
		c1.527,0,2.689-0.31,3.487-0.926c0.797-0.617,1.195-1.445,1.195-2.486c0-1.629-0.738-2.774-2.215-3.438
		c-0.835-0.369-1.81-0.555-2.923-0.555C12.172,214.41,10.928,214.755,10.117,215.443z"/>
	<path fill="#FFFFFF" d="M7.131,200.368v-2.519c0.869,0.321,2.854,1.034,5.951,2.139c2.33,0.827,4.229,1.519,5.698,2.076
		c3.456,1.313,5.564,2.242,6.323,2.781c0.759,0.538,1.138,1.467,1.138,2.781c0,0.32-0.013,0.566-0.037,0.739
		c-0.025,0.174-0.072,0.387-0.14,0.639h-2.075c0.109-0.396,0.177-0.682,0.202-0.858c0.025-0.176,0.038-0.332,0.038-0.467
		c0-0.423-0.069-0.73-0.209-0.93c-0.139-0.198-0.31-0.363-0.512-0.499c-0.067-0.043-0.412-0.192-1.035-0.455
		c-0.623-0.261-1.087-0.45-1.39-0.567L7.13,210.24v-2.582l11.041-3.633L7.131,200.368z"/>
</g>
<line fill="none" stroke="#FFFFFF" stroke-width="6" stroke-miterlimit="10" x1="202.686" y1="182.157" x2="267.486" y2="182.157"/>
<polyline fill="none" stroke="#FFFFFF" stroke-width="3" stroke-miterlimit="10" points="176.766,363.919 176.766,98.238 
	189.727,98.238 189.727,363.919 280.445,363.919 280.445,38.999 300.334,38.999 300.334,363.919 "/>
<line fill="none" stroke="#FFFFFF" stroke-width="3" stroke-miterlimit="10" x1="300.334" y1="61.667" x2="336.334" y2="94.999"/>
<g>
	<g>
		<path fill="none" stroke="#FFFFFF" stroke-width="3" stroke-miterlimit="10" d="M132.749,86.102
			c20.132-30.884,62.122-31.118,91.36-14.112"/>
		<g>
			<polygon fill="#FFFFFF" points="240.749,85.102 209.607,76.747 222.626,71.324 224.368,57.331 			"/>
		</g>
	</g>
</g>
<g>
	<g>
		<path fill="none" stroke="#FFFFFF" stroke-width="3" stroke-miterlimit="10" d="M236.749,109.68
			c-20.133,30.883-62.123,31.118-91.361,14.112"/>
		<g>
			<polygon fill="#FFFFFF" points="128.749,110.68 159.891,119.034 146.872,124.457 145.13,138.45 			"/>
		</g>
	</g>
</g>
<g>
	<path fill="#FFFFFF" d="M239.482,27.434v2.336h-8.767V49H227.9V27.434H239.482z"/>
	<path fill="#FFFFFF" d="M243.123,48.085c0,0.56-0.393,1.008-1.045,1.008c-0.598,0-0.989-0.448-0.989-1.008
		c0-0.56,0.41-1.026,1.026-1.026C242.712,47.059,243.123,47.507,243.123,48.085z M241.294,59.656v-9.032h1.643v9.032H241.294z"/>
	<path fill="#FFFFFF" d="M245.659,53.068c0-0.952-0.019-1.698-0.074-2.445h1.455l0.094,1.493h0.037
		c0.447-0.84,1.493-1.68,2.985-1.68c1.251,0,3.191,0.747,3.191,3.844v5.375h-1.643v-5.207c0-1.456-0.541-2.668-2.09-2.668
		c-1.063,0-1.903,0.765-2.202,1.679c-0.074,0.206-0.111,0.485-0.111,0.765v5.431h-1.643V53.068z"/>
</g>
<g>
	<path fill="#FFFFFF" d="M113.483,116.434v2.336h-8.767V138H101.9v-21.566H113.483z"/>
	<path fill="#FFFFFF" d="M123.468,144.065c0,3.34-2.333,4.796-4.497,4.796c-2.427,0-4.33-1.792-4.33-4.646
		c0-3.004,1.997-4.777,4.479-4.777C121.714,139.437,123.468,141.322,123.468,144.065z M116.32,144.158
		c0,1.978,1.12,3.471,2.725,3.471c1.567,0,2.743-1.474,2.743-3.508c0-1.53-0.765-3.453-2.706-3.453
		C117.16,140.668,116.32,142.46,116.32,144.158z"/>
	<path fill="#FFFFFF" d="M133.094,146.174c0,0.952,0.019,1.773,0.075,2.482h-1.456l-0.093-1.474h-0.038
		c-0.41,0.728-1.381,1.679-2.985,1.679c-1.418,0-3.116-0.802-3.116-3.956v-5.281h1.642v4.983c0,1.717,0.541,2.892,2.016,2.892
		c1.102,0,1.866-0.765,2.165-1.511c0.093-0.224,0.149-0.522,0.149-0.84v-5.524h1.642V146.174z"/>
	<path fill="#FFFFFF" d="M137.794,137.459v2.165h2.351v1.25h-2.351v4.871c0,1.12,0.316,1.754,1.231,1.754
		c0.447,0,0.709-0.037,0.951-0.112l0.075,1.25c-0.317,0.112-0.821,0.224-1.456,0.224c-0.765,0-1.381-0.261-1.772-0.69
		c-0.448-0.504-0.635-1.306-0.635-2.37v-4.927h-1.399v-1.25h1.399v-1.68L137.794,137.459z"/>
</g>
</svg>
