<?xml version="1.0" encoding="utf-8" standalone="no"?>
<!DOCTYPE svg PUBLIC "-//W3C//DTD SVG 1.1//EN"
  "http://www.w3.org/Graphics/SVG/1.1/DTD/svg11.dtd">
<!-- Created with matplotlib (http://matplotlib.org/) -->
<svg height="247.618336pt" version="1.1" viewBox="0 0 349.819625 247.618336" width="349.819625pt" xmlns="http://www.w3.org/2000/svg" xmlns:xlink="http://www.w3.org/1999/xlink">
 <defs>
  <style type="text/css">
*{stroke-linecap:butt;stroke-linejoin:round;}
  </style>
 </defs>
 <g id="figure_1">
  <g id="patch_1">
   <path d="M 0 247.618336 
L 349.819625 247.618336 
L 349.819625 0 
L 0 0 
z
" style="fill:none;"/>
  </g>
  <g id="axes_1">
   <g id="patch_2">
    <path d="M 31.215625 199.844696 
L 337.619625 199.844696 
L 337.619625 7.2 
L 31.215625 7.2 
z
" style="fill:none;"/>
   </g>
   <g id="matplotlib.axis_1">
    <g id="xtick_1">
     <g id="line2d_1">
      <defs>
       <path d="M 0 0 
L 0 5 
" id="m41822449af" style="stroke:#ffffff;stroke-width:1.2;"/>
      </defs>
      <g>
       <use style="fill:#ffffff;stroke:#ffffff;stroke-width:1.2;" x="172.161465" xlink:href="#m41822449af" y="199.844696"/>
      </g>
     </g>
     <g id="text_1">
      <!-- V$_{mid}$ -->
      <defs>
       <path d="M 13.28125 71.734375 
L 33.890625 10.640625 
L 54.25 71.734375 
L 65.140625 71.734375 
L 38.96875 0 
L 28.65625 0 
L 2.546875 71.734375 
z
" id="Helvetica-56"/>
       <path d="M 6.453125 52.296875 
L 15.140625 52.296875 
L 15.140625 44.875 
Q 18.265625 48.734375 20.796875 50.484375 
Q 25.140625 53.46875 30.671875 53.46875 
Q 36.921875 53.46875 40.71875 50.390625 
Q 42.875 48.640625 44.625 45.21875 
Q 47.5625 49.421875 51.515625 51.4375 
Q 55.46875 53.46875 60.40625 53.46875 
Q 70.953125 53.46875 74.75 45.84375 
Q 76.8125 41.75 76.8125 34.8125 
L 76.8125 0 
L 67.671875 0 
L 67.671875 36.328125 
Q 67.671875 41.546875 65.0625 43.5 
Q 62.453125 45.453125 58.6875 45.453125 
Q 53.515625 45.453125 49.78125 41.984375 
Q 46.046875 38.53125 46.046875 30.421875 
L 46.046875 0 
L 37.109375 0 
L 37.109375 34.125 
Q 37.109375 39.453125 35.84375 41.890625 
Q 33.84375 45.5625 28.375 45.5625 
Q 23.390625 45.5625 19.3125 41.703125 
Q 15.234375 37.84375 15.234375 27.734375 
L 15.234375 0 
L 6.453125 0 
z
" id="Helvetica-6d"/>
       <path d="M 6.453125 52.046875 
L 15.375 52.046875 
L 15.375 0 
L 6.453125 0 
z
M 6.453125 71.734375 
L 15.375 71.734375 
L 15.375 61.765625 
L 6.453125 61.765625 
z
" id="Helvetica-69"/>
       <path d="M 12.015625 25.53125 
Q 12.015625 17.140625 15.578125 11.46875 
Q 19.140625 5.8125 27 5.8125 
Q 33.109375 5.8125 37.03125 11.0625 
Q 40.96875 16.3125 40.96875 26.125 
Q 40.96875 36.03125 36.90625 40.796875 
Q 32.859375 45.5625 26.90625 45.5625 
Q 20.265625 45.5625 16.140625 40.484375 
Q 12.015625 35.40625 12.015625 25.53125 
z
M 25.25 53.21875 
Q 31.25 53.21875 35.296875 50.6875 
Q 37.640625 49.21875 40.625 45.5625 
L 40.625 71.96875 
L 49.078125 71.96875 
L 49.078125 0 
L 41.15625 0 
L 41.15625 7.28125 
Q 38.09375 2.4375 33.890625 0.28125 
Q 29.6875 -1.859375 24.265625 -1.859375 
Q 15.53125 -1.859375 9.125 5.484375 
Q 2.734375 12.84375 2.734375 25.046875 
Q 2.734375 36.46875 8.5625 44.84375 
Q 14.40625 53.21875 25.25 53.21875 
z
" id="Helvetica-64"/>
      </defs>
      <g style="fill:#fa8174;" transform="translate(150.68304 238.274639)rotate(-50)scale(0.16 -0.16)">
       <use transform="translate(0 0.265625)" xlink:href="#Helvetica-56"/>
       <use transform="translate(67.614414 -15.423438)scale(0.7)" xlink:href="#Helvetica-6d"/>
       <use transform="translate(125.924961 -15.423438)scale(0.7)" xlink:href="#Helvetica-69"/>
       <use transform="translate(141.476719 -15.423438)scale(0.7)" xlink:href="#Helvetica-64"/>
      </g>
     </g>
    </g>
    <g id="xtick_2">
     <g id="line2d_2">
      <g>
       <use style="fill:#ffffff;stroke:#ffffff;stroke-width:1.2;" x="184.417625" xlink:href="#m41822449af" y="199.844696"/>
      </g>
     </g>
     <g id="text_2">
      <!-- V$_{mid}$ -->
      <g style="fill:#81b1d2;" transform="translate(178.07455 238.274639)rotate(-50)scale(0.16 -0.16)">
       <use transform="translate(0 0.265625)" xlink:href="#Helvetica-56"/>
       <use transform="translate(67.614414 -15.423438)scale(0.7)" xlink:href="#Helvetica-6d"/>
       <use transform="translate(125.924961 -15.423438)scale(0.7)" xlink:href="#Helvetica-69"/>
       <use transform="translate(141.476719 -15.423438)scale(0.7)" xlink:href="#Helvetica-64"/>
      </g>
     </g>
    </g>
    <g id="text_3">
     <!-- V$_{p}$ -->
     <defs>
      <path d="M 28.515625 5.90625 
Q 34.671875 5.90625 38.75 11.0625 
Q 42.828125 16.21875 42.828125 26.46875 
Q 42.828125 32.71875 41.015625 37.203125 
Q 37.59375 45.84375 28.515625 45.84375 
Q 19.390625 45.84375 16.015625 36.71875 
Q 14.203125 31.84375 14.203125 24.3125 
Q 14.203125 18.265625 16.015625 14.015625 
Q 19.4375 5.90625 28.515625 5.90625 
z
M 5.765625 52.046875 
L 14.3125 52.046875 
L 14.3125 45.125 
Q 16.9375 48.6875 20.0625 50.640625 
Q 24.515625 53.5625 30.515625 53.5625 
Q 39.40625 53.5625 45.609375 46.75 
Q 51.8125 39.9375 51.8125 27.296875 
Q 51.8125 10.203125 42.875 2.875 
Q 37.203125 -1.765625 29.6875 -1.765625 
Q 23.78125 -1.765625 19.78125 0.828125 
Q 17.4375 2.296875 14.546875 5.859375 
L 14.546875 -20.84375 
L 5.765625 -20.84375 
z
" id="Helvetica-70"/>
     </defs>
     <g style="fill:#ffffff;" transform="translate(311.299425 229.818336)scale(0.2 -0.2)">
      <use transform="translate(0 0.265625)" xlink:href="#Helvetica-56"/>
      <use transform="translate(67.614414 -15.423438)scale(0.7)" xlink:href="#Helvetica-70"/>
     </g>
    </g>
   </g>
   <g id="matplotlib.axis_2">
    <g id="ytick_1">
     <g id="line2d_3">
      <defs>
       <path d="M 0 0 
L 5 0 
" id="m32614479d2" style="stroke:#ffffff;stroke-width:1.2;"/>
      </defs>
      <g>
       <use style="fill:#ffffff;stroke:#ffffff;stroke-width:1.2;" x="31.215625" xlink:href="#m32614479d2" y="183.790971"/>
      </g>
     </g>
    </g>
    <g id="ytick_2">
     <g id="line2d_4">
      <g>
       <use style="fill:#ffffff;stroke:#ffffff;stroke-width:1.2;" x="31.215625" xlink:href="#m32614479d2" y="143.656659"/>
      </g>
     </g>
    </g>
    <g id="ytick_3">
     <g id="line2d_5">
      <g>
       <use style="fill:#ffffff;stroke:#ffffff;stroke-width:1.2;" x="31.215625" xlink:href="#m32614479d2" y="103.522348"/>
      </g>
     </g>
    </g>
    <g id="ytick_4">
     <g id="line2d_6">
      <g>
       <use style="fill:#ffffff;stroke:#ffffff;stroke-width:1.2;" x="31.215625" xlink:href="#m32614479d2" y="63.388036"/>
      </g>
     </g>
    </g>
    <g id="ytick_5">
     <g id="line2d_7">
      <g>
       <use style="fill:#ffffff;stroke:#ffffff;stroke-width:1.2;" x="31.215625" xlink:href="#m32614479d2" y="23.253725"/>
      </g>
     </g>
    </g>
    <g id="text_4">
     <!-- $\delta G_{sens}$ -->
     <defs>
      <path d="M 10.40625 70.609375 
L 49.8125 70.609375 
L 49.8125 63.375 
L 21.78125 63.375 
L 21.78125 63.1875 
L 39.203125 51.609375 
Q 48.96875 45.015625 52.6875 38.578125 
Q 56.109375 32.078125 56 25 
Q 55.90625 14.59375 49.421875 6.984375 
Q 42.78125 -0.78125 30.28125 -0.984375 
Q 18.796875 -0.875 12.015625 6.296875 
Q 5.171875 13.28125 5.078125 24.3125 
Q 5.328125 47.90625 29.109375 49.8125 
L 29.109375 50 
L 10.40625 63.375 
z
M 31.109375 6.203125 
Q 39.015625 6.296875 42.671875 12.40625 
Q 46.390625 18.21875 46.390625 25.09375 
Q 46.390625 29 45.609375 31.890625 
Q 44.78125 34.71875 43.609375 36.625 
Q 42.390625 38.484375 41.21875 39.703125 
Q 39.984375 40.921875 39.203125 41.40625 
Q 37.203125 43.21875 33.6875 43.21875 
Q 14.796875 43.21875 14.703125 23.875 
Q 14.703125 16.5 19 11.53125 
Q 23.296875 6.296875 31.109375 6.203125 
z
" id="Helvetica-3b4"/>
      <path d="M 38.625 73.578125 
Q 48.734375 73.578125 56.109375 69.671875 
Q 66.796875 64.0625 69.1875 50 
L 59.578125 50 
Q 57.8125 57.859375 52.296875 61.453125 
Q 46.78125 65.046875 38.375 65.046875 
Q 28.421875 65.046875 21.609375 57.5625 
Q 14.796875 50.09375 14.796875 35.296875 
Q 14.796875 22.515625 20.40625 14.484375 
Q 26.03125 6.453125 38.71875 6.453125 
Q 48.4375 6.453125 54.8125 12.078125 
Q 61.1875 17.71875 61.328125 30.328125 
L 38.875 30.328125 
L 38.875 38.375 
L 70.359375 38.375 
L 70.359375 0 
L 64.109375 0 
L 61.765625 9.234375 
Q 56.84375 3.8125 53.03125 1.703125 
Q 46.625 -1.90625 36.765625 -1.90625 
Q 24.03125 -1.90625 14.84375 6.34375 
Q 4.828125 16.703125 4.828125 34.765625 
Q 4.828125 52.78125 14.59375 63.421875 
Q 23.875 73.578125 38.625 73.578125 
z
M 37.015625 73.6875 
z
" id="Helvetica-47"/>
      <path d="M 11.671875 16.40625 
Q 12.0625 12.015625 13.875 9.671875 
Q 17.1875 5.421875 25.390625 5.421875 
Q 30.28125 5.421875 33.984375 7.546875 
Q 37.703125 9.671875 37.703125 14.109375 
Q 37.703125 17.484375 34.71875 19.234375 
Q 32.8125 20.3125 27.203125 21.734375 
L 20.21875 23.484375 
Q 13.53125 25.140625 10.359375 27.203125 
Q 4.6875 30.765625 4.6875 37.0625 
Q 4.6875 44.484375 10.03125 49.0625 
Q 15.375 53.65625 24.421875 53.65625 
Q 36.234375 53.65625 41.453125 46.734375 
Q 44.734375 42.328125 44.625 37.25 
L 36.328125 37.25 
Q 36.078125 40.234375 34.234375 42.671875 
Q 31.203125 46.140625 23.734375 46.140625 
Q 18.75 46.140625 16.1875 44.234375 
Q 13.625 42.328125 13.625 39.203125 
Q 13.625 35.796875 17 33.734375 
Q 18.953125 32.515625 22.75 31.59375 
L 28.5625 30.171875 
Q 38.03125 27.875 41.265625 25.734375 
Q 46.390625 22.359375 46.390625 15.140625 
Q 46.390625 8.15625 41.09375 3.078125 
Q 35.796875 -2 24.953125 -2 
Q 13.28125 -2 8.421875 3.296875 
Q 3.5625 8.59375 3.21875 16.40625 
z
M 24.65625 53.5625 
z
" id="Helvetica-73"/>
      <path d="M 28.21875 53.46875 
Q 33.796875 53.46875 39.015625 50.859375 
Q 44.234375 48.25 46.96875 44.09375 
Q 49.609375 40.140625 50.484375 34.859375 
Q 51.265625 31.25 51.265625 23.34375 
L 12.9375 23.34375 
Q 13.1875 15.375 16.703125 10.5625 
Q 20.21875 5.765625 27.59375 5.765625 
Q 34.46875 5.765625 38.578125 10.296875 
Q 40.921875 12.9375 41.890625 16.40625 
L 50.53125 16.40625 
Q 50.203125 13.53125 48.265625 9.984375 
Q 46.34375 6.453125 43.953125 4.203125 
Q 39.9375 0.296875 34.03125 -1.078125 
Q 30.859375 -1.859375 26.859375 -1.859375 
Q 17.09375 -1.859375 10.296875 5.25 
Q 3.515625 12.359375 3.515625 25.140625 
Q 3.515625 37.75 10.34375 45.609375 
Q 17.1875 53.46875 28.21875 53.46875 
z
M 42.234375 30.328125 
Q 41.703125 36.03125 39.75 39.453125 
Q 36.140625 45.796875 27.6875 45.796875 
Q 21.625 45.796875 17.515625 41.421875 
Q 13.421875 37.0625 13.1875 30.328125 
z
M 27.390625 53.5625 
z
" id="Helvetica-65"/>
      <path d="M 6.453125 52.296875 
L 14.796875 52.296875 
L 14.796875 44.875 
Q 18.5 49.46875 22.65625 51.46875 
Q 26.8125 53.46875 31.890625 53.46875 
Q 43.015625 53.46875 46.921875 45.703125 
Q 49.078125 41.453125 49.078125 33.546875 
L 49.078125 0 
L 40.140625 0 
L 40.140625 32.953125 
Q 40.140625 37.75 38.71875 40.671875 
Q 36.375 45.5625 30.21875 45.5625 
Q 27.09375 45.5625 25.09375 44.921875 
Q 21.484375 43.84375 18.75 40.625 
Q 16.546875 38.03125 15.890625 35.265625 
Q 15.234375 32.515625 15.234375 27.390625 
L 15.234375 0 
L 6.453125 0 
z
M 27.09375 53.5625 
z
" id="Helvetica-6e"/>
     </defs>
     <g style="fill:#ffffff;" transform="translate(21.546875 132.622348)rotate(-90)scale(0.2 -0.2)">
      <use transform="translate(0 0.3125)" xlink:href="#Helvetica-3b4"/>
      <use transform="translate(61.083984 0.3125)" xlink:href="#Helvetica-47"/>
      <use transform="translate(139.782383 -15.376563)scale(0.7)" xlink:href="#Helvetica-73"/>
      <use transform="translate(174.782383 -15.376563)scale(0.7)" xlink:href="#Helvetica-65"/>
      <use transform="translate(213.713047 -15.376563)scale(0.7)" xlink:href="#Helvetica-6e"/>
      <use transform="translate(252.643711 -15.376563)scale(0.7)" xlink:href="#Helvetica-73"/>
     </g>
    </g>
   </g>
   <g id="PolyCollection_1">
    <path clip-path="url(#peb82f4106e)" d="M -581.592375 104.485571 
L -581.592375 103.522348 
L -576.475408 103.522348 
L -571.35844 103.522348 
L -566.241473 103.522348 
L -561.124506 103.522348 
L -556.007539 103.522348 
L -550.890571 103.522348 
L -545.773604 103.522348 
L -540.656637 103.522348 
L -535.53967 103.522348 
L -530.422702 103.522348 
L -525.305735 103.522348 
L -520.188768 103.522348 
L -515.071801 103.522348 
L -509.954833 103.522348 
L -504.837866 103.522348 
L -499.720899 103.522348 
L -494.603931 103.522348 
L -489.486964 103.522348 
L -484.369997 103.522348 
L -479.25303 103.522348 
L -474.136062 103.522348 
L -469.019095 103.522348 
L -463.902128 103.522348 
L -458.785161 103.522348 
L -453.668193 103.522348 
L -448.551226 103.522348 
L -443.434259 103.522348 
L -438.317291 103.522348 
L -433.200324 103.522348 
L -428.083357 103.522348 
L -422.96639 103.522348 
L -417.849422 103.522348 
L -412.732455 103.522348 
L -407.615488 103.522348 
L -402.498521 103.522348 
L -397.381553 103.522348 
L -392.264586 103.522348 
L -387.147619 103.522348 
L -382.030652 103.522348 
L -376.913684 103.522348 
L -371.796717 103.522348 
L -366.67975 103.522348 
L -361.562782 103.522348 
L -356.445815 103.522348 
L -351.328848 103.522348 
L -346.211881 103.522348 
L -341.094913 103.522348 
L -335.977946 103.522348 
L -330.860979 103.522348 
L -325.744012 103.522348 
L -320.627044 103.522348 
L -315.510077 103.522348 
L -310.39311 103.522348 
L -305.276143 103.522348 
L -300.159175 103.522348 
L -295.042208 103.522348 
L -289.925241 103.522348 
L -284.808273 103.522348 
L -279.691306 103.522348 
L -274.574339 103.522348 
L -269.457372 103.522348 
L -264.340404 103.522348 
L -259.223437 103.522348 
L -254.10647 103.522348 
L -248.989503 103.522348 
L -243.872535 103.522348 
L -238.755568 103.522348 
L -233.638601 103.522348 
L -228.521634 103.522348 
L -223.404666 103.522348 
L -218.287699 103.522348 
L -213.170732 103.522348 
L -208.053764 103.522348 
L -202.936797 103.522348 
L -197.81983 103.522348 
L -192.702863 103.522348 
L -187.585895 103.522348 
L -182.468928 103.522348 
L -177.351961 103.522348 
L -172.234994 103.522348 
L -167.118026 103.522348 
L -162.001059 103.522348 
L -156.884092 103.522348 
L -151.767124 103.522348 
L -146.650157 103.522348 
L -141.53319 103.522348 
L -136.416223 103.522348 
L -131.299255 103.522348 
L -126.182288 103.522348 
L -121.065321 103.522348 
L -115.948354 103.522348 
L -110.831386 103.522348 
L -105.714419 103.522348 
L -100.597452 103.522348 
L -95.480485 103.522348 
L -90.363517 103.522348 
L -85.24655 103.522348 
L -80.129583 103.522348 
L -75.012615 103.522348 
L -69.895648 103.522348 
L -64.778681 103.522348 
L -59.661714 103.522348 
L -54.544746 103.522348 
L -49.427779 103.522348 
L -44.310812 103.522348 
L -39.193845 103.522348 
L -34.076877 103.522348 
L -28.95991 103.522348 
L -23.842943 103.522348 
L -18.725976 103.522348 
L -13.609008 103.522348 
L -8.492041 103.522348 
L -3.375074 103.522348 
L 1.741894 103.522348 
L 6.858861 103.522348 
L 11.975828 103.522348 
L 17.092795 103.522348 
L 22.209763 103.522348 
L 27.32673 103.522348 
L 32.443697 103.522348 
L 37.560664 103.522348 
L 42.677632 103.522348 
L 47.794599 103.522348 
L 52.911566 103.522348 
L 58.028533 103.522348 
L 63.145501 103.522348 
L 68.262468 103.522348 
L 73.379435 103.522348 
L 78.496403 103.522348 
L 83.61337 103.522348 
L 88.730337 103.522348 
L 93.847304 103.522348 
L 98.964272 103.522348 
L 104.081239 103.522348 
L 109.198206 103.522348 
L 114.315173 103.522348 
L 119.432141 103.522348 
L 124.549108 103.522348 
L 129.666075 103.522348 
L 134.783043 103.522348 
L 139.90001 103.522348 
L 145.016977 103.522348 
L 150.133944 103.522348 
L 155.250912 103.522348 
L 160.367879 103.522348 
L 165.484846 103.522348 
L 170.601813 103.522348 
L 175.718781 103.522348 
L 180.835748 103.522348 
L 185.952715 103.522348 
L 191.069682 103.522348 
L 196.18665 103.522348 
L 201.303617 103.522348 
L 206.420584 103.522348 
L 211.537552 103.522348 
L 216.654519 103.522348 
L 221.771486 103.522348 
L 226.888453 103.522348 
L 232.005421 103.522348 
L 237.122388 103.522348 
L 242.239355 103.522348 
L 247.356322 103.522348 
L 252.47329 103.522348 
L 257.590257 103.522348 
L 262.707224 103.522348 
L 267.824191 103.522348 
L 272.941159 103.522348 
L 278.058126 103.522348 
L 283.175093 103.522348 
L 288.292061 103.522348 
L 293.409028 103.522348 
L 298.525995 103.522348 
L 303.642962 103.522348 
L 308.75993 103.522348 
L 313.876897 103.522348 
L 318.993864 103.522348 
L 324.110831 103.522348 
L 329.227799 103.522348 
L 334.344766 103.522348 
L 339.461733 103.522348 
L 344.5787 103.522348 
L 349.695668 103.522348 
L 354.812635 103.522348 
L 359.929602 103.522348 
L 365.04657 103.522348 
L 370.163537 103.522348 
L 375.280504 103.522348 
L 380.397471 103.522348 
L 385.514439 103.522348 
L 390.631406 103.522348 
L 395.748373 103.522348 
L 400.86534 103.522348 
L 405.982308 103.522348 
L 411.099275 103.522348 
L 416.216242 103.522348 
L 421.33321 103.522348 
L 426.450177 103.522348 
L 431.567144 103.522348 
L 436.684111 103.522348 
L 441.801079 103.522348 
L 446.918046 103.522348 
L 452.035013 103.522348 
L 457.15198 103.522348 
L 462.268948 103.522348 
L 467.385915 103.522348 
L 472.502882 103.522348 
L 477.619849 103.522348 
L 482.736817 103.522348 
L 487.853784 103.522348 
L 492.970751 103.522348 
L 498.087719 103.522348 
L 503.204686 103.522348 
L 508.321653 103.522348 
L 513.43862 103.522348 
L 518.555588 103.522348 
L 523.672555 103.522348 
L 528.789522 103.522348 
L 533.906489 103.522348 
L 539.023457 103.522348 
L 544.140424 103.522348 
L 549.257391 103.522348 
L 554.374358 103.522348 
L 559.491326 103.522348 
L 564.608293 103.522348 
L 569.72526 103.522348 
L 574.842228 103.522348 
L 579.959195 103.522348 
L 585.076162 103.522348 
L 590.193129 103.522348 
L 595.310097 103.522348 
L 600.427064 103.522348 
L 605.544031 103.522348 
L 610.660998 103.522348 
L 615.777966 103.522348 
L 620.894933 103.522348 
L 626.0119 103.522348 
L 631.128867 103.522348 
L 636.245835 103.522348 
L 641.362802 103.522348 
L 646.479769 103.522348 
L 651.596737 103.522348 
L 656.713704 103.522348 
L 661.830671 103.522348 
L 666.947638 103.522348 
L 672.064606 103.522348 
L 677.181573 103.522348 
L 682.29854 103.522348 
L 687.415507 103.522348 
L 692.532475 103.522348 
L 697.649442 103.522348 
L 702.766409 103.522348 
L 707.883377 103.522348 
L 713.000344 103.522348 
L 718.117311 103.522348 
L 723.234278 103.522348 
L 728.351246 103.522348 
L 733.468213 103.522348 
L 738.58518 103.522348 
L 743.702147 103.522348 
L 748.819115 103.522348 
L 753.936082 103.522348 
L 759.053049 103.522348 
L 764.170016 103.522348 
L 769.286984 103.522348 
L 774.403951 103.522348 
L 779.520918 103.522348 
L 784.637886 103.522348 
L 789.754853 103.522348 
L 794.87182 103.522348 
L 799.988787 103.522348 
L 805.105755 103.522348 
L 810.222722 103.522348 
L 815.339689 103.522348 
L 820.456656 103.522348 
L 825.573624 103.522348 
L 830.690591 103.522348 
L 835.807558 103.522348 
L 840.924525 103.522348 
L 846.041493 103.522348 
L 851.15846 103.522348 
L 856.275427 103.522348 
L 861.392395 103.522348 
L 866.509362 103.522348 
L 871.626329 103.522348 
L 876.743296 103.522348 
L 881.860264 103.522348 
L 886.977231 103.522348 
L 892.094198 103.522348 
L 897.211165 103.522348 
L 902.328133 103.522348 
L 907.4451 103.522348 
L 912.562067 103.522348 
L 917.679034 103.522348 
L 922.796002 103.522348 
L 927.912969 103.522348 
L 933.029936 103.522348 
L 938.146904 103.522348 
L 943.263871 103.522348 
L 948.380838 103.522348 
L 953.497805 103.522348 
L 958.614773 103.522348 
L 963.73174 103.522348 
L 968.848707 103.522348 
L 973.965674 103.522348 
L 979.082642 103.522348 
L 984.199609 103.522348 
L 989.316576 103.522348 
L 994.433544 103.522348 
L 999.550511 103.522348 
L 1004.667478 103.522348 
L 1009.784445 103.522348 
L 1014.901413 103.522348 
L 1020.01838 103.522348 
L 1025.135347 103.522348 
L 1030.252314 103.522348 
L 1035.369282 103.522348 
L 1040.486249 103.522348 
L 1045.603216 103.522348 
L 1050.720183 103.522348 
L 1055.837151 103.522348 
L 1060.954118 103.522348 
L 1066.071085 103.522348 
L 1071.188053 103.522348 
L 1076.30502 103.522348 
L 1081.421987 103.522348 
L 1086.538954 103.522348 
L 1091.655922 103.522348 
L 1096.772889 103.522348 
L 1101.889856 103.522348 
L 1107.006823 103.522348 
L 1112.123791 103.522348 
L 1117.240758 103.522348 
L 1122.357725 103.522348 
L 1127.474692 103.522348 
L 1132.59166 103.522348 
L 1137.708627 103.522348 
L 1142.825594 103.522348 
L 1147.942562 103.522348 
L 1153.059529 103.522348 
L 1158.176496 103.522348 
L 1163.293463 103.522348 
L 1168.410431 103.522348 
L 1173.527398 103.522348 
L 1178.644365 103.522348 
L 1183.761332 103.522348 
L 1188.8783 103.522348 
L 1193.995267 103.522348 
L 1199.112234 103.522348 
L 1204.229201 103.522348 
L 1209.346169 103.522348 
L 1214.463136 103.522348 
L 1219.580103 103.522348 
L 1224.697071 103.522348 
L 1229.814038 103.522348 
L 1234.931005 103.522348 
L 1240.047972 103.522348 
L 1245.16494 103.522348 
L 1250.281907 103.522348 
L 1255.398874 103.522348 
L 1260.515841 103.522348 
L 1265.632809 103.522348 
L 1270.749776 103.522348 
L 1275.866743 103.522348 
L 1280.983711 103.522348 
L 1286.100678 103.522348 
L 1291.217645 103.522348 
L 1296.334612 103.522348 
L 1301.45158 103.522348 
L 1306.568547 103.522348 
L 1311.685514 103.522348 
L 1316.802481 103.522348 
L 1321.919449 103.522348 
L 1327.036416 103.522348 
L 1332.153383 103.522348 
L 1337.27035 103.522348 
L 1342.387318 103.522348 
L 1347.504285 103.522348 
L 1352.621252 103.522348 
L 1357.73822 103.522348 
L 1362.855187 103.522348 
L 1367.972154 103.522348 
L 1373.089121 103.522348 
L 1378.206089 103.522348 
L 1383.323056 103.522348 
L 1388.440023 103.522348 
L 1393.55699 103.522348 
L 1398.673958 103.522348 
L 1403.790925 103.522348 
L 1408.907892 103.522348 
L 1414.024859 103.522348 
L 1419.141827 103.522348 
L 1424.258794 103.522348 
L 1429.375761 103.522348 
L 1434.492729 103.522348 
L 1439.609696 103.522348 
L 1444.726663 103.522348 
L 1449.84363 103.522348 
L 1454.960598 103.522348 
L 1460.077565 103.522348 
L 1465.194532 103.522348 
L 1470.311499 103.522348 
L 1475.428467 103.522348 
L 1480.545434 103.522348 
L 1485.662401 103.522348 
L 1490.779368 103.522348 
L 1495.896336 103.522348 
L 1501.013303 103.522348 
L 1506.13027 103.522348 
L 1511.247238 103.522348 
L 1516.364205 103.522348 
L 1521.481172 103.522348 
L 1526.598139 103.522348 
L 1531.715107 103.522348 
L 1536.832074 103.522348 
L 1541.949041 103.522348 
L 1547.066008 103.522348 
L 1552.182976 103.522348 
L 1557.299943 103.522348 
L 1562.41691 103.522348 
L 1567.533878 103.522348 
L 1572.650845 103.522348 
L 1577.767812 103.522348 
L 1582.884779 103.522348 
L 1588.001747 103.522348 
L 1593.118714 103.522348 
L 1598.235681 103.522348 
L 1603.352648 103.522348 
L 1608.469616 103.522348 
L 1613.586583 103.522348 
L 1618.70355 103.522348 
L 1623.820517 103.522348 
L 1628.937485 103.522348 
L 1634.054452 103.522348 
L 1639.171419 103.522348 
L 1644.288387 103.522348 
L 1649.405354 103.522348 
L 1654.522321 103.522348 
L 1659.639288 103.522348 
L 1664.756256 103.522348 
L 1669.873223 103.522348 
L 1674.99019 103.522348 
L 1680.107157 103.522348 
L 1685.224125 103.522348 
L 1690.341092 103.522348 
L 1695.458059 103.522348 
L 1700.575026 103.522348 
L 1705.691994 103.522348 
L 1710.808961 103.522348 
L 1715.925928 103.522348 
L 1721.042896 103.522348 
L 1726.159863 103.522348 
L 1731.27683 103.522348 
L 1736.393797 103.522348 
L 1741.510765 103.522348 
L 1746.627732 103.522348 
L 1751.744699 103.522348 
L 1756.861666 103.522348 
L 1761.978634 103.522348 
L 1767.095601 103.522348 
L 1772.212568 103.522348 
L 1777.329535 103.522348 
L 1782.446503 103.522348 
L 1787.56347 103.522348 
L 1792.680437 103.522348 
L 1797.797405 103.522348 
L 1802.914372 103.522348 
L 1808.031339 103.522348 
L 1813.148306 103.522348 
L 1818.265274 103.522348 
L 1823.382241 103.522348 
L 1828.499208 103.522348 
L 1833.616175 103.522348 
L 1838.733143 103.522348 
L 1843.85011 103.522348 
L 1848.967077 103.522348 
L 1854.084045 103.522348 
L 1859.201012 103.522348 
L 1864.317979 103.522348 
L 1869.434946 103.522348 
L 1874.551914 103.522348 
L 1879.668881 103.522348 
L 1884.785848 103.522348 
L 1889.902815 103.522348 
L 1895.019783 103.522348 
L 1900.13675 103.522348 
L 1905.253717 103.522348 
L 1910.370684 103.522348 
L 1915.487652 103.522348 
L 1920.604619 103.522348 
L 1925.721586 103.522348 
L 1930.838554 103.522348 
L 1935.955521 103.522348 
L 1941.072488 103.522348 
L 1946.189455 103.522348 
L 1951.306423 103.522348 
L 1956.42339 103.522348 
L 1961.540357 103.522348 
L 1966.657324 103.522348 
L 1971.774292 103.522348 
L 1971.774292 104.485571 
L 1971.774292 104.485571 
L 1966.657324 104.485571 
L 1961.540357 104.485571 
L 1956.42339 104.485571 
L 1951.306423 104.485571 
L 1946.189455 104.485571 
L 1941.072488 104.485571 
L 1935.955521 104.485571 
L 1930.838554 104.485571 
L 1925.721586 104.485571 
L 1920.604619 104.485571 
L 1915.487652 104.485571 
L 1910.370684 104.485571 
L 1905.253717 104.485571 
L 1900.13675 104.485571 
L 1895.019783 104.485571 
L 1889.902815 104.485571 
L 1884.785848 104.485571 
L 1879.668881 104.485571 
L 1874.551914 104.485571 
L 1869.434946 104.485571 
L 1864.317979 104.485571 
L 1859.201012 104.485571 
L 1854.084045 104.485571 
L 1848.967077 104.485571 
L 1843.85011 104.485571 
L 1838.733143 104.485571 
L 1833.616175 104.485571 
L 1828.499208 104.485571 
L 1823.382241 104.485571 
L 1818.265274 104.485571 
L 1813.148306 104.485571 
L 1808.031339 104.485571 
L 1802.914372 104.485571 
L 1797.797405 104.485571 
L 1792.680437 104.485571 
L 1787.56347 104.485571 
L 1782.446503 104.485571 
L 1777.329535 104.485571 
L 1772.212568 104.485571 
L 1767.095601 104.485571 
L 1761.978634 104.485571 
L 1756.861666 104.485571 
L 1751.744699 104.485571 
L 1746.627732 104.485571 
L 1741.510765 104.485571 
L 1736.393797 104.485571 
L 1731.27683 104.485571 
L 1726.159863 104.485571 
L 1721.042896 104.485571 
L 1715.925928 104.485571 
L 1710.808961 104.485571 
L 1705.691994 104.485571 
L 1700.575026 104.485571 
L 1695.458059 104.485571 
L 1690.341092 104.485571 
L 1685.224125 104.485571 
L 1680.107157 104.485571 
L 1674.99019 104.485571 
L 1669.873223 104.485571 
L 1664.756256 104.485571 
L 1659.639288 104.485571 
L 1654.522321 104.485571 
L 1649.405354 104.485571 
L 1644.288387 104.485571 
L 1639.171419 104.485571 
L 1634.054452 104.485571 
L 1628.937485 104.485571 
L 1623.820517 104.485571 
L 1618.70355 104.485571 
L 1613.586583 104.485571 
L 1608.469616 104.485571 
L 1603.352648 104.485571 
L 1598.235681 104.485571 
L 1593.118714 104.485571 
L 1588.001747 104.485571 
L 1582.884779 104.485571 
L 1577.767812 104.485571 
L 1572.650845 104.485571 
L 1567.533878 104.485571 
L 1562.41691 104.485571 
L 1557.299943 104.485571 
L 1552.182976 104.485571 
L 1547.066008 104.485571 
L 1541.949041 104.485571 
L 1536.832074 104.485571 
L 1531.715107 104.485571 
L 1526.598139 104.485571 
L 1521.481172 104.485571 
L 1516.364205 104.485571 
L 1511.247238 104.485571 
L 1506.13027 104.485571 
L 1501.013303 104.485571 
L 1495.896336 104.485571 
L 1490.779368 104.485571 
L 1485.662401 104.485571 
L 1480.545434 104.485571 
L 1475.428467 104.485571 
L 1470.311499 104.485571 
L 1465.194532 104.485571 
L 1460.077565 104.485571 
L 1454.960598 104.485571 
L 1449.84363 104.485571 
L 1444.726663 104.485571 
L 1439.609696 104.485571 
L 1434.492729 104.485571 
L 1429.375761 104.485571 
L 1424.258794 104.485571 
L 1419.141827 104.485571 
L 1414.024859 104.485571 
L 1408.907892 104.485571 
L 1403.790925 104.485571 
L 1398.673958 104.485571 
L 1393.55699 104.485571 
L 1388.440023 104.485571 
L 1383.323056 104.485571 
L 1378.206089 104.485571 
L 1373.089121 104.485571 
L 1367.972154 104.485571 
L 1362.855187 104.485571 
L 1357.73822 104.485571 
L 1352.621252 104.485571 
L 1347.504285 104.485571 
L 1342.387318 104.485571 
L 1337.27035 104.485571 
L 1332.153383 104.485571 
L 1327.036416 104.485571 
L 1321.919449 104.485571 
L 1316.802481 104.485571 
L 1311.685514 104.485571 
L 1306.568547 104.485571 
L 1301.45158 104.485571 
L 1296.334612 104.485571 
L 1291.217645 104.485571 
L 1286.100678 104.485571 
L 1280.983711 104.485571 
L 1275.866743 104.485571 
L 1270.749776 104.485571 
L 1265.632809 104.485571 
L 1260.515841 104.485571 
L 1255.398874 104.485571 
L 1250.281907 104.485571 
L 1245.16494 104.485571 
L 1240.047972 104.485571 
L 1234.931005 104.485571 
L 1229.814038 104.485571 
L 1224.697071 104.485571 
L 1219.580103 104.485571 
L 1214.463136 104.485571 
L 1209.346169 104.485571 
L 1204.229201 104.485571 
L 1199.112234 104.485571 
L 1193.995267 104.485571 
L 1188.8783 104.485571 
L 1183.761332 104.485571 
L 1178.644365 104.485571 
L 1173.527398 104.485571 
L 1168.410431 104.485571 
L 1163.293463 104.485571 
L 1158.176496 104.485571 
L 1153.059529 104.485571 
L 1147.942562 104.485571 
L 1142.825594 104.485571 
L 1137.708627 104.485571 
L 1132.59166 104.485571 
L 1127.474692 104.485571 
L 1122.357725 104.485571 
L 1117.240758 104.485571 
L 1112.123791 104.485571 
L 1107.006823 104.485571 
L 1101.889856 104.485571 
L 1096.772889 104.485571 
L 1091.655922 104.485571 
L 1086.538954 104.485571 
L 1081.421987 104.485571 
L 1076.30502 104.485571 
L 1071.188053 104.485571 
L 1066.071085 104.485571 
L 1060.954118 104.485571 
L 1055.837151 104.485571 
L 1050.720183 104.485571 
L 1045.603216 104.485571 
L 1040.486249 104.485571 
L 1035.369282 104.485571 
L 1030.252314 104.485571 
L 1025.135347 104.485571 
L 1020.01838 104.485571 
L 1014.901413 104.485571 
L 1009.784445 104.485571 
L 1004.667478 104.485571 
L 999.550511 104.485571 
L 994.433544 104.485571 
L 989.316576 104.485571 
L 984.199609 104.485571 
L 979.082642 104.485571 
L 973.965674 104.485571 
L 968.848707 104.485571 
L 963.73174 104.485571 
L 958.614773 104.485571 
L 953.497805 104.485571 
L 948.380838 104.485571 
L 943.263871 104.485571 
L 938.146904 104.485571 
L 933.029936 104.485571 
L 927.912969 104.485571 
L 922.796002 104.485571 
L 917.679034 104.485571 
L 912.562067 104.485571 
L 907.4451 104.485571 
L 902.328133 104.485571 
L 897.211165 104.485571 
L 892.094198 104.485571 
L 886.977231 104.485571 
L 881.860264 104.485571 
L 876.743296 104.485571 
L 871.626329 104.485571 
L 866.509362 104.485571 
L 861.392395 104.485571 
L 856.275427 104.485571 
L 851.15846 104.485571 
L 846.041493 104.485571 
L 840.924525 104.485571 
L 835.807558 104.485571 
L 830.690591 104.485571 
L 825.573624 104.485571 
L 820.456656 104.485572 
L 815.339689 104.485572 
L 810.222722 104.485572 
L 805.105755 104.485572 
L 799.988787 104.485572 
L 794.87182 104.485572 
L 789.754853 104.485572 
L 784.637886 104.485572 
L 779.520918 104.485572 
L 774.403951 104.485572 
L 769.286984 104.485573 
L 764.170016 104.485573 
L 759.053049 104.485573 
L 753.936082 104.485573 
L 748.819115 104.485574 
L 743.702147 104.485574 
L 738.58518 104.485575 
L 733.468213 104.485575 
L 728.351246 104.485576 
L 723.234278 104.485577 
L 718.117311 104.485578 
L 713.000344 104.485579 
L 707.883377 104.485581 
L 702.766409 104.485582 
L 697.649442 104.485584 
L 692.532475 104.485587 
L 687.415507 104.485589 
L 682.29854 104.485593 
L 677.181573 104.485596 
L 672.064606 104.485601 
L 666.947638 104.485606 
L 661.830671 104.485613 
L 656.713704 104.48562 
L 651.596737 104.485629 
L 646.479769 104.48564 
L 641.362802 104.485652 
L 636.245835 104.485667 
L 631.128867 104.485684 
L 626.0119 104.485705 
L 620.894933 104.485729 
L 615.777966 104.485757 
L 610.660998 104.485791 
L 605.544031 104.485831 
L 600.427064 104.485879 
L 595.310097 104.485934 
L 590.193129 104.486 
L 585.076162 104.486078 
L 579.959195 104.486171 
L 574.842228 104.48628 
L 569.72526 104.486408 
L 564.608293 104.48656 
L 559.491326 104.48674 
L 554.374358 104.486953 
L 549.257391 104.487204 
L 544.140424 104.4875 
L 539.023457 104.487851 
L 533.906489 104.488265 
L 528.789522 104.488755 
L 523.672555 104.489334 
L 518.555588 104.490018 
L 513.43862 104.490826 
L 508.321653 104.491781 
L 503.204686 104.492909 
L 498.087719 104.494243 
L 492.970751 104.495819 
L 487.853784 104.497681 
L 482.736817 104.499882 
L 477.619849 104.502483 
L 472.502882 104.505557 
L 467.385915 104.509189 
L 462.268948 104.513481 
L 457.15198 104.518553 
L 452.035013 104.524546 
L 446.918046 104.531629 
L 441.801079 104.539998 
L 436.684111 104.549888 
L 431.567144 104.561573 
L 426.450177 104.575382 
L 421.33321 104.591697 
L 416.216242 104.610975 
L 411.099275 104.633752 
L 405.982308 104.660663 
L 400.86534 104.692455 
L 395.748373 104.730013 
L 390.631406 104.774379 
L 385.514439 104.826782 
L 380.397471 104.888673 
L 375.280504 104.961761 
L 370.163537 105.04806 
L 365.04657 105.149938 
L 359.929602 105.270186 
L 354.812635 105.412078 
L 349.695668 105.579462 
L 344.5787 105.776847 
L 339.461733 106.009508 
L 334.344766 106.283606 
L 329.227799 106.606319 
L 324.110831 106.985977 
L 318.993864 107.432217 
L 313.876897 107.956126 
L 308.75993 108.570384 
L 303.642962 109.289373 
L 298.525995 110.129241 
L 293.409028 111.107864 
L 288.292061 112.244668 
L 283.175093 113.5602 
L 278.058126 115.075356 
L 272.941159 116.810053 
L 267.824191 118.781138 
L 262.707224 120.999165 
L 257.590257 123.463617 
L 252.47329 126.155988 
L 247.356322 129.030054 
L 242.239355 131.998623 
L 237.122388 134.916272 
L 232.005421 137.558304 
L 226.888453 139.597849 
L 221.771486 140.586507 
L 216.654519 139.949633 
L 211.537552 137.015218 
L 206.420584 131.101602 
L 201.303617 121.684718 
L 196.18665 108.63542 
L 191.069682 92.455231 
L 185.952715 74.374175 
L 180.835748 56.182416 
L 175.718781 39.800684 
L 170.601813 26.776539 
L 165.484846 17.9522 
L 160.367879 13.422233 
L 155.250912 12.717379 
L 150.133944 15.067174 
L 145.016977 19.625387 
L 139.90001 25.613402 
L 134.783043 32.387514 
L 129.666075 39.454804 
L 124.549108 46.461332 
L 119.432141 53.16896 
L 114.315173 59.430019 
L 109.198206 65.164231 
L 104.081239 70.339475 
L 98.964272 74.956618 
L 93.847304 79.038001 
L 88.730337 82.618962 
L 83.61337 85.741784 
L 78.496403 88.451493 
L 73.379435 90.793046 
L 68.262468 92.809549 
L 63.145501 94.541184 
L 58.028533 96.02467 
L 52.911566 97.293049 
L 47.794599 98.375714 
L 42.677632 99.298575 
L 37.560664 100.084304 
L 32.443697 100.752624 
L 27.32673 101.320614 
L 22.209763 101.803003 
L 17.092795 102.212454 
L 11.975828 102.559828 
L 6.858861 102.854415 
L 1.741894 103.104151 
L -3.375074 103.315803 
L -8.492041 103.495136 
L -13.609008 103.647053 
L -18.725976 103.775723 
L -23.842943 103.884688 
L -28.95991 103.976954 
L -34.076877 104.055073 
L -39.193845 104.121208 
L -44.310812 104.177193 
L -49.427779 104.224583 
L -54.544746 104.264695 
L -59.661714 104.298646 
L -64.778681 104.327381 
L -69.895648 104.351701 
L -75.012615 104.372283 
L -80.129583 104.389702 
L -85.24655 104.404443 
L -90.363517 104.416918 
L -95.480485 104.427475 
L -100.597452 104.436409 
L -105.714419 104.443969 
L -110.831386 104.450367 
L -115.948354 104.455781 
L -121.065321 104.460362 
L -126.182288 104.464239 
L -131.299255 104.46752 
L -136.416223 104.470296 
L -141.53319 104.472645 
L -146.650157 104.474633 
L -151.767124 104.476316 
L -156.884092 104.477739 
L -162.001059 104.478944 
L -167.118026 104.479963 
L -172.234994 104.480826 
L -177.351961 104.481555 
L -182.468928 104.482173 
L -187.585895 104.482696 
L -192.702863 104.483138 
L -197.81983 104.483512 
L -202.936797 104.483829 
L -208.053764 104.484097 
L -213.170732 104.484324 
L -218.287699 104.484516 
L -223.404666 104.484678 
L -228.521634 104.484815 
L -233.638601 104.484932 
L -238.755568 104.48503 
L -243.872535 104.485113 
L -248.989503 104.485184 
L -254.10647 104.485243 
L -259.223437 104.485294 
L -264.340404 104.485336 
L -269.457372 104.485373 
L -274.574339 104.485403 
L -279.691306 104.485429 
L -284.808273 104.485451 
L -289.925241 104.485469 
L -295.042208 104.485485 
L -300.159175 104.485498 
L -305.276143 104.48551 
L -310.39311 104.485519 
L -315.510077 104.485527 
L -320.627044 104.485534 
L -325.744012 104.48554 
L -330.860979 104.485545 
L -335.977946 104.485549 
L -341.094913 104.485552 
L -346.211881 104.485555 
L -351.328848 104.485558 
L -356.445815 104.48556 
L -361.562782 104.485561 
L -366.67975 104.485563 
L -371.796717 104.485564 
L -376.913684 104.485565 
L -382.030652 104.485566 
L -387.147619 104.485567 
L -392.264586 104.485568 
L -397.381553 104.485568 
L -402.498521 104.485569 
L -407.615488 104.485569 
L -412.732455 104.485569 
L -417.849422 104.48557 
L -422.96639 104.48557 
L -428.083357 104.48557 
L -433.200324 104.48557 
L -438.317291 104.48557 
L -443.434259 104.485571 
L -448.551226 104.485571 
L -453.668193 104.485571 
L -458.785161 104.485571 
L -463.902128 104.485571 
L -469.019095 104.485571 
L -474.136062 104.485571 
L -479.25303 104.485571 
L -484.369997 104.485571 
L -489.486964 104.485571 
L -494.603931 104.485571 
L -499.720899 104.485571 
L -504.837866 104.485571 
L -509.954833 104.485571 
L -515.071801 104.485571 
L -520.188768 104.485571 
L -525.305735 104.485571 
L -530.422702 104.485571 
L -535.53967 104.485571 
L -540.656637 104.485571 
L -545.773604 104.485571 
L -550.890571 104.485571 
L -556.007539 104.485571 
L -561.124506 104.485571 
L -566.241473 104.485571 
L -571.35844 104.485571 
L -576.475408 104.485571 
L -581.592375 104.485571 
z
" style="fill:#ffffff;fill-opacity:0.2;"/>
   </g>
   <g id="LineCollection_1">
    <path clip-path="url(#peb82f4106e)" d="M 184.417625 248.618336 
L 184.417625 103.522348 
" style="fill:none;stroke:#ffffff;stroke-dasharray:2,3.3;stroke-dashoffset:0;stroke-width:2;"/>
   </g>
   <g id="LineCollection_2">
    <path clip-path="url(#peb82f4106e)" d="M 172.161465 248.618336 
L 172.161465 103.522348 
" style="fill:none;stroke:#ffffff;stroke-dasharray:2,3.3;stroke-dashoffset:0;stroke-width:2;"/>
   </g>
   <g id="LineCollection_3">
    <path clip-path="url(#peb82f4106e)" d="M -1 103.522348 
L 350.819625 103.522348 
" style="fill:none;stroke:#ffffff;stroke-dasharray:2,3.3;stroke-dashoffset:0;stroke-width:2;"/>
   </g>
   <g id="line2d_8">
    <path clip-path="url(#peb82f4106e)" d="M -1 103.217564 
L 6.858861 102.854415 
L 17.092795 102.212454 
L 27.32673 101.320614 
L 37.560664 100.084304 
L 42.677632 99.298575 
L 47.794599 98.375714 
L 52.911566 97.293049 
L 58.028533 96.02467 
L 63.145501 94.541184 
L 68.262468 92.809549 
L 73.379435 90.793046 
L 78.496403 88.451493 
L 83.61337 85.741784 
L 88.730337 82.618962 
L 93.847304 79.038001 
L 98.964272 74.956618 
L 104.081239 70.339475 
L 109.198206 65.164231 
L 114.315173 59.430019 
L 119.432141 53.16896 
L 124.549108 46.461332 
L 139.90001 25.613402 
L 145.016977 19.625387 
L 150.133944 15.067174 
L 155.250912 12.717379 
L 160.367879 13.422233 
L 165.484846 17.9522 
L 170.601813 26.776539 
L 175.718781 39.800684 
L 180.835748 56.182416 
L 191.069682 92.455231 
L 196.18665 108.63542 
L 201.303617 121.684718 
L 206.420584 131.101602 
L 211.537552 137.015218 
L 216.654519 139.949633 
L 221.771486 140.586507 
L 226.888453 139.597849 
L 232.005421 137.558304 
L 237.122388 134.916272 
L 252.47329 126.155988 
L 257.590257 123.463617 
L 262.707224 120.999165 
L 267.824191 118.781138 
L 272.941159 116.810053 
L 278.058126 115.075356 
L 283.175093 113.5602 
L 288.292061 112.244668 
L 293.409028 111.107864 
L 298.525995 110.129241 
L 303.642962 109.289373 
L 313.876897 107.956126 
L 324.110831 106.985977 
L 334.344766 106.283606 
L 344.5787 105.776847 
L 350.819625 105.542696 
L 350.819625 105.542696 
" style="fill:none;stroke:#bc82bd;stroke-linecap:square;stroke-width:2;"/>
   </g>
   <g id="patch_3">
    <path d="M 31.215625 199.844696 
L 31.215625 7.2 
" style="fill:none;stroke:#ffffff;stroke-linecap:square;stroke-linejoin:miter;stroke-width:1.2;"/>
   </g>
   <g id="patch_4">
    <path d="M 337.619625 199.844696 
L 337.619625 7.2 
" style="fill:none;stroke:#ffffff;stroke-linecap:square;stroke-linejoin:miter;stroke-width:1.2;"/>
   </g>
   <g id="patch_5">
    <path d="M 31.215625 199.844696 
L 337.619625 199.844696 
" style="fill:none;stroke:#ffffff;stroke-linecap:square;stroke-linejoin:miter;stroke-width:1.2;"/>
   </g>
   <g id="patch_6">
    <path d="M 31.215625 7.2 
L 337.619625 7.2 
" style="fill:none;stroke:#ffffff;stroke-linecap:square;stroke-linejoin:miter;stroke-width:1.2;"/>
   </g>
   <g id="text_5">
    <!-- ASYMMETRIC -->
    <defs>
     <path d="M 44.4375 29.390625 
L 33.546875 61.078125 
L 21.96875 29.390625 
z
M 28.46875 71.734375 
L 39.453125 71.734375 
L 65.484375 0 
L 54.828125 0 
L 47.5625 21.484375 
L 19.1875 21.484375 
L 11.421875 0 
L 1.46875 0 
z
M 33.5 71.734375 
z
" id="Helvetica-41"/>
     <path d="M 13.96875 23.140625 
Q 14.3125 17.046875 16.84375 13.234375 
Q 21.6875 6.109375 33.890625 6.109375 
Q 39.359375 6.109375 43.84375 7.671875 
Q 52.546875 10.6875 52.546875 18.5 
Q 52.546875 24.359375 48.875 26.859375 
Q 45.171875 29.296875 37.25 31.109375 
L 27.546875 33.296875 
Q 18.015625 35.453125 14.0625 38.03125 
Q 7.234375 42.53125 7.234375 51.46875 
Q 7.234375 61.140625 13.921875 67.328125 
Q 20.609375 73.53125 32.859375 73.53125 
Q 44.140625 73.53125 52.015625 68.078125 
Q 59.90625 62.640625 59.90625 50.6875 
L 50.78125 50.6875 
Q 50.046875 56.453125 47.65625 59.515625 
Q 43.21875 65.140625 32.5625 65.140625 
Q 23.96875 65.140625 20.203125 61.515625 
Q 16.453125 57.90625 16.453125 53.125 
Q 16.453125 47.859375 20.84375 45.40625 
Q 23.734375 43.84375 33.890625 41.5 
L 43.953125 39.203125 
Q 51.21875 37.546875 55.171875 34.671875 
Q 62.015625 29.640625 62.015625 20.0625 
Q 62.015625 8.15625 53.34375 3.03125 
Q 44.671875 -2.09375 33.203125 -2.09375 
Q 19.828125 -2.09375 12.25 4.734375 
Q 4.6875 11.53125 4.828125 23.140625 
z
M 33.59375 73.6875 
z
" id="Helvetica-53"/>
     <path d="M 2.046875 71.734375 
L 13.375 71.734375 
L 33.984375 37.25 
L 54.59375 71.734375 
L 65.96875 71.734375 
L 38.875 28.90625 
L 38.875 0 
L 29.15625 0 
L 29.15625 28.90625 
z
M 34.125 71.734375 
z
" id="Helvetica-59"/>
     <path d="M 7.375 71.734375 
L 21.296875 71.734375 
L 41.890625 11.078125 
L 62.359375 71.734375 
L 76.125 71.734375 
L 76.125 0 
L 66.890625 0 
L 66.890625 42.328125 
Q 66.890625 44.53125 66.984375 49.609375 
Q 67.09375 54.6875 67.09375 60.5 
L 46.625 0 
L 37.015625 0 
L 16.40625 60.5 
L 16.40625 58.296875 
Q 16.40625 55.671875 16.53125 50.265625 
Q 16.65625 44.875 16.65625 42.328125 
L 16.65625 0 
L 7.375 0 
z
" id="Helvetica-4d"/>
     <path d="M 8.546875 71.734375 
L 60.84375 71.734375 
L 60.84375 62.9375 
L 18.015625 62.9375 
L 18.015625 41.15625 
L 57.625 41.15625 
L 57.625 32.859375 
L 18.015625 32.859375 
L 18.015625 8.546875 
L 61.578125 8.546875 
L 61.578125 0 
L 8.546875 0 
z
M 35.0625 71.734375 
z
" id="Helvetica-45"/>
     <path d="M 59.8125 71.734375 
L 59.8125 63.1875 
L 35.640625 63.1875 
L 35.640625 0 
L 25.78125 0 
L 25.78125 63.1875 
L 1.609375 63.1875 
L 1.609375 71.734375 
z
" id="Helvetica-54"/>
     <path d="M 40.96875 38.875 
Q 47.796875 38.875 51.78125 41.609375 
Q 55.765625 44.34375 55.765625 51.46875 
Q 55.765625 59.125 50.203125 61.921875 
Q 47.21875 63.375 42.234375 63.375 
L 18.5 63.375 
L 18.5 38.875 
z
M 8.796875 71.734375 
L 42 71.734375 
Q 50.203125 71.734375 55.515625 69.34375 
Q 65.625 64.75 65.625 52.390625 
Q 65.625 45.953125 62.953125 41.84375 
Q 60.296875 37.75 55.515625 35.25 
Q 59.71875 33.546875 61.84375 30.765625 
Q 63.96875 27.984375 64.203125 21.734375 
L 64.546875 12.109375 
Q 64.703125 8.015625 65.234375 6 
Q 66.109375 2.59375 68.359375 1.609375 
L 68.359375 0 
L 56.453125 0 
Q 55.953125 0.921875 55.65625 2.390625 
Q 55.375 3.859375 55.171875 8.0625 
L 54.59375 20.015625 
Q 54.25 27.046875 49.359375 29.4375 
Q 46.578125 30.765625 40.625 30.765625 
L 18.5 30.765625 
L 18.5 0 
L 8.796875 0 
z
" id="Helvetica-52"/>
     <path d="M 9.8125 71.734375 
L 19.625 71.734375 
L 19.625 0 
L 9.8125 0 
z
" id="Helvetica-49"/>
     <path d="M 37.84375 73.6875 
Q 51.46875 73.6875 58.984375 66.5 
Q 66.5 59.328125 67.328125 50.203125 
L 57.859375 50.203125 
Q 56.25 57.125 51.4375 61.171875 
Q 46.625 65.234375 37.9375 65.234375 
Q 27.34375 65.234375 20.828125 57.78125 
Q 14.3125 50.34375 14.3125 34.96875 
Q 14.3125 22.359375 20.1875 14.515625 
Q 26.078125 6.6875 37.75 6.6875 
Q 48.484375 6.6875 54.109375 14.9375 
Q 57.078125 19.28125 58.546875 26.375 
L 68.015625 26.375 
Q 66.75 15.046875 59.625 7.375 
Q 51.078125 -1.859375 36.578125 -1.859375 
Q 24.078125 -1.859375 15.578125 5.71875 
Q 4.390625 15.71875 4.390625 36.625 
Q 4.390625 52.484375 12.796875 62.640625 
Q 21.875 73.6875 37.84375 73.6875 
z
M 35.890625 73.6875 
z
" id="Helvetica-43"/>
    </defs>
    <g style="fill:#ffffff;" transform="translate(190.545705 45.728939)scale(0.18 -0.18)">
     <use xlink:href="#Helvetica-41"/>
     <use x="66.699219" xlink:href="#Helvetica-53"/>
     <use x="133.398438" xlink:href="#Helvetica-59"/>
     <use x="200.097656" xlink:href="#Helvetica-4d"/>
     <use x="283.398438" xlink:href="#Helvetica-4d"/>
     <use x="366.699219" xlink:href="#Helvetica-45"/>
     <use x="433.398438" xlink:href="#Helvetica-54"/>
     <use x="494.482422" xlink:href="#Helvetica-52"/>
     <use x="566.699219" xlink:href="#Helvetica-49"/>
     <use x="594.482422" xlink:href="#Helvetica-43"/>
    </g>
   </g>
  </g>
 </g>
 <defs>
  <clipPath id="peb82f4106e">
   <rect height="192.644696" width="306.404" x="31.215625" y="7.2"/>
  </clipPath>
 </defs>
</svg>
