<?xml version="1.0" encoding="utf-8" standalone="no"?>
<!DOCTYPE svg PUBLIC "-//W3C//DTD SVG 1.1//EN"
  "http://www.w3.org/Graphics/SVG/1.1/DTD/svg11.dtd">
<!-- Created with matplotlib (http://matplotlib.org/) -->
<svg height="247.618336pt" version="1.1" viewBox="0 0 349.099625 247.618336" width="349.099625pt" xmlns="http://www.w3.org/2000/svg" xmlns:xlink="http://www.w3.org/1999/xlink">
 <defs>
  <style type="text/css">
*{stroke-linecap:butt;stroke-linejoin:round;}
  </style>
 </defs>
 <g id="figure_1">
  <g id="patch_1">
   <path d="M 0 247.618336 
L 349.099625 247.618336 
L 349.099625 0 
L 0 0 
z
" style="fill:none;"/>
  </g>
  <g id="axes_1">
   <g id="patch_2">
    <path d="M 31.215625 199.844696 
L 336.899625 199.844696 
L 336.899625 7.2 
L 31.215625 7.2 
z
" style="fill:none;"/>
   </g>
   <g id="matplotlib.axis_1">
    <g id="xtick_1">
     <g id="line2d_1">
      <defs>
       <path d="M 0 0 
L 0 5 
" id="m0fa22cf2c4" style="stroke:#ffffff;stroke-width:1.2;"/>
      </defs>
      <g>
       <use style="fill:#ffffff;stroke:#ffffff;stroke-width:1.2;" x="184.057625" xlink:href="#m0fa22cf2c4" y="199.844696"/>
      </g>
     </g>
     <g id="text_1">
      <!-- V$_{mid}$ -->
      <defs>
       <path d="M 13.28125 71.734375 
L 33.890625 10.640625 
L 54.25 71.734375 
L 65.140625 71.734375 
L 38.96875 0 
L 28.65625 0 
L 2.546875 71.734375 
z
" id="Helvetica-56"/>
       <path d="M 6.453125 52.296875 
L 15.140625 52.296875 
L 15.140625 44.875 
Q 18.265625 48.734375 20.796875 50.484375 
Q 25.140625 53.46875 30.671875 53.46875 
Q 36.921875 53.46875 40.71875 50.390625 
Q 42.875 48.640625 44.625 45.21875 
Q 47.5625 49.421875 51.515625 51.4375 
Q 55.46875 53.46875 60.40625 53.46875 
Q 70.953125 53.46875 74.75 45.84375 
Q 76.8125 41.75 76.8125 34.8125 
L 76.8125 0 
L 67.671875 0 
L 67.671875 36.328125 
Q 67.671875 41.546875 65.0625 43.5 
Q 62.453125 45.453125 58.6875 45.453125 
Q 53.515625 45.453125 49.78125 41.984375 
Q 46.046875 38.53125 46.046875 30.421875 
L 46.046875 0 
L 37.109375 0 
L 37.109375 34.125 
Q 37.109375 39.453125 35.84375 41.890625 
Q 33.84375 45.5625 28.375 45.5625 
Q 23.390625 45.5625 19.3125 41.703125 
Q 15.234375 37.84375 15.234375 27.734375 
L 15.234375 0 
L 6.453125 0 
z
" id="Helvetica-6d"/>
       <path d="M 6.453125 52.046875 
L 15.375 52.046875 
L 15.375 0 
L 6.453125 0 
z
M 6.453125 71.734375 
L 15.375 71.734375 
L 15.375 61.765625 
L 6.453125 61.765625 
z
" id="Helvetica-69"/>
       <path d="M 12.015625 25.53125 
Q 12.015625 17.140625 15.578125 11.46875 
Q 19.140625 5.8125 27 5.8125 
Q 33.109375 5.8125 37.03125 11.0625 
Q 40.96875 16.3125 40.96875 26.125 
Q 40.96875 36.03125 36.90625 40.796875 
Q 32.859375 45.5625 26.90625 45.5625 
Q 20.265625 45.5625 16.140625 40.484375 
Q 12.015625 35.40625 12.015625 25.53125 
z
M 25.25 53.21875 
Q 31.25 53.21875 35.296875 50.6875 
Q 37.640625 49.21875 40.625 45.5625 
L 40.625 71.96875 
L 49.078125 71.96875 
L 49.078125 0 
L 41.15625 0 
L 41.15625 7.28125 
Q 38.09375 2.4375 33.890625 0.28125 
Q 29.6875 -1.859375 24.265625 -1.859375 
Q 15.53125 -1.859375 9.125 5.484375 
Q 2.734375 12.84375 2.734375 25.046875 
Q 2.734375 36.46875 8.5625 44.84375 
Q 14.40625 53.21875 25.25 53.21875 
z
" id="Helvetica-64"/>
      </defs>
      <g style="fill:#ffffff;" transform="translate(177.71455 238.274639)rotate(-50)scale(0.16 -0.16)">
       <use transform="translate(0 0.265625)" xlink:href="#Helvetica-56"/>
       <use transform="translate(67.614414 -15.423438)scale(0.7)" xlink:href="#Helvetica-6d"/>
       <use transform="translate(125.924961 -15.423438)scale(0.7)" xlink:href="#Helvetica-69"/>
       <use transform="translate(141.476719 -15.423438)scale(0.7)" xlink:href="#Helvetica-64"/>
      </g>
     </g>
    </g>
    <g id="text_2">
     <!-- V$_{p}$ -->
     <defs>
      <path d="M 28.515625 5.90625 
Q 34.671875 5.90625 38.75 11.0625 
Q 42.828125 16.21875 42.828125 26.46875 
Q 42.828125 32.71875 41.015625 37.203125 
Q 37.59375 45.84375 28.515625 45.84375 
Q 19.390625 45.84375 16.015625 36.71875 
Q 14.203125 31.84375 14.203125 24.3125 
Q 14.203125 18.265625 16.015625 14.015625 
Q 19.4375 5.90625 28.515625 5.90625 
z
M 5.765625 52.046875 
L 14.3125 52.046875 
L 14.3125 45.125 
Q 16.9375 48.6875 20.0625 50.640625 
Q 24.515625 53.5625 30.515625 53.5625 
Q 39.40625 53.5625 45.609375 46.75 
Q 51.8125 39.9375 51.8125 27.296875 
Q 51.8125 10.203125 42.875 2.875 
Q 37.203125 -1.765625 29.6875 -1.765625 
Q 23.78125 -1.765625 19.78125 0.828125 
Q 17.4375 2.296875 14.546875 5.859375 
L 14.546875 -20.84375 
L 5.765625 -20.84375 
z
" id="Helvetica-70"/>
     </defs>
     <g style="fill:#ffffff;" transform="translate(310.615425 229.818336)scale(0.2 -0.2)">
      <use transform="translate(0 0.265625)" xlink:href="#Helvetica-56"/>
      <use transform="translate(67.614414 -15.423438)scale(0.7)" xlink:href="#Helvetica-70"/>
     </g>
    </g>
   </g>
   <g id="matplotlib.axis_2">
    <g id="ytick_1">
     <g id="line2d_2">
      <defs>
       <path d="M 0 0 
L 5 0 
" id="m0ec1c1811e" style="stroke:#ffffff;stroke-width:1.2;"/>
      </defs>
      <g>
       <use style="fill:#ffffff;stroke:#ffffff;stroke-width:1.2;" x="31.215625" xlink:href="#m0ec1c1811e" y="183.790971"/>
      </g>
     </g>
    </g>
    <g id="ytick_2">
     <g id="line2d_3">
      <g>
       <use style="fill:#ffffff;stroke:#ffffff;stroke-width:1.2;" x="31.215625" xlink:href="#m0ec1c1811e" y="143.656659"/>
      </g>
     </g>
    </g>
    <g id="ytick_3">
     <g id="line2d_4">
      <g>
       <use style="fill:#ffffff;stroke:#ffffff;stroke-width:1.2;" x="31.215625" xlink:href="#m0ec1c1811e" y="103.522348"/>
      </g>
     </g>
    </g>
    <g id="ytick_4">
     <g id="line2d_5">
      <g>
       <use style="fill:#ffffff;stroke:#ffffff;stroke-width:1.2;" x="31.215625" xlink:href="#m0ec1c1811e" y="63.388036"/>
      </g>
     </g>
    </g>
    <g id="ytick_5">
     <g id="line2d_6">
      <g>
       <use style="fill:#ffffff;stroke:#ffffff;stroke-width:1.2;" x="31.215625" xlink:href="#m0ec1c1811e" y="23.253725"/>
      </g>
     </g>
    </g>
    <g id="text_3">
     <!-- $\delta G_{sens}$ -->
     <defs>
      <path d="M 10.40625 70.609375 
L 49.8125 70.609375 
L 49.8125 63.375 
L 21.78125 63.375 
L 21.78125 63.1875 
L 39.203125 51.609375 
Q 48.96875 45.015625 52.6875 38.578125 
Q 56.109375 32.078125 56 25 
Q 55.90625 14.59375 49.421875 6.984375 
Q 42.78125 -0.78125 30.28125 -0.984375 
Q 18.796875 -0.875 12.015625 6.296875 
Q 5.171875 13.28125 5.078125 24.3125 
Q 5.328125 47.90625 29.109375 49.8125 
L 29.109375 50 
L 10.40625 63.375 
z
M 31.109375 6.203125 
Q 39.015625 6.296875 42.671875 12.40625 
Q 46.390625 18.21875 46.390625 25.09375 
Q 46.390625 29 45.609375 31.890625 
Q 44.78125 34.71875 43.609375 36.625 
Q 42.390625 38.484375 41.21875 39.703125 
Q 39.984375 40.921875 39.203125 41.40625 
Q 37.203125 43.21875 33.6875 43.21875 
Q 14.796875 43.21875 14.703125 23.875 
Q 14.703125 16.5 19 11.53125 
Q 23.296875 6.296875 31.109375 6.203125 
z
" id="Helvetica-3b4"/>
      <path d="M 38.625 73.578125 
Q 48.734375 73.578125 56.109375 69.671875 
Q 66.796875 64.0625 69.1875 50 
L 59.578125 50 
Q 57.8125 57.859375 52.296875 61.453125 
Q 46.78125 65.046875 38.375 65.046875 
Q 28.421875 65.046875 21.609375 57.5625 
Q 14.796875 50.09375 14.796875 35.296875 
Q 14.796875 22.515625 20.40625 14.484375 
Q 26.03125 6.453125 38.71875 6.453125 
Q 48.4375 6.453125 54.8125 12.078125 
Q 61.1875 17.71875 61.328125 30.328125 
L 38.875 30.328125 
L 38.875 38.375 
L 70.359375 38.375 
L 70.359375 0 
L 64.109375 0 
L 61.765625 9.234375 
Q 56.84375 3.8125 53.03125 1.703125 
Q 46.625 -1.90625 36.765625 -1.90625 
Q 24.03125 -1.90625 14.84375 6.34375 
Q 4.828125 16.703125 4.828125 34.765625 
Q 4.828125 52.78125 14.59375 63.421875 
Q 23.875 73.578125 38.625 73.578125 
z
M 37.015625 73.6875 
z
" id="Helvetica-47"/>
      <path d="M 11.671875 16.40625 
Q 12.0625 12.015625 13.875 9.671875 
Q 17.1875 5.421875 25.390625 5.421875 
Q 30.28125 5.421875 33.984375 7.546875 
Q 37.703125 9.671875 37.703125 14.109375 
Q 37.703125 17.484375 34.71875 19.234375 
Q 32.8125 20.3125 27.203125 21.734375 
L 20.21875 23.484375 
Q 13.53125 25.140625 10.359375 27.203125 
Q 4.6875 30.765625 4.6875 37.0625 
Q 4.6875 44.484375 10.03125 49.0625 
Q 15.375 53.65625 24.421875 53.65625 
Q 36.234375 53.65625 41.453125 46.734375 
Q 44.734375 42.328125 44.625 37.25 
L 36.328125 37.25 
Q 36.078125 40.234375 34.234375 42.671875 
Q 31.203125 46.140625 23.734375 46.140625 
Q 18.75 46.140625 16.1875 44.234375 
Q 13.625 42.328125 13.625 39.203125 
Q 13.625 35.796875 17 33.734375 
Q 18.953125 32.515625 22.75 31.59375 
L 28.5625 30.171875 
Q 38.03125 27.875 41.265625 25.734375 
Q 46.390625 22.359375 46.390625 15.140625 
Q 46.390625 8.15625 41.09375 3.078125 
Q 35.796875 -2 24.953125 -2 
Q 13.28125 -2 8.421875 3.296875 
Q 3.5625 8.59375 3.21875 16.40625 
z
M 24.65625 53.5625 
z
" id="Helvetica-73"/>
      <path d="M 28.21875 53.46875 
Q 33.796875 53.46875 39.015625 50.859375 
Q 44.234375 48.25 46.96875 44.09375 
Q 49.609375 40.140625 50.484375 34.859375 
Q 51.265625 31.25 51.265625 23.34375 
L 12.9375 23.34375 
Q 13.1875 15.375 16.703125 10.5625 
Q 20.21875 5.765625 27.59375 5.765625 
Q 34.46875 5.765625 38.578125 10.296875 
Q 40.921875 12.9375 41.890625 16.40625 
L 50.53125 16.40625 
Q 50.203125 13.53125 48.265625 9.984375 
Q 46.34375 6.453125 43.953125 4.203125 
Q 39.9375 0.296875 34.03125 -1.078125 
Q 30.859375 -1.859375 26.859375 -1.859375 
Q 17.09375 -1.859375 10.296875 5.25 
Q 3.515625 12.359375 3.515625 25.140625 
Q 3.515625 37.75 10.34375 45.609375 
Q 17.1875 53.46875 28.21875 53.46875 
z
M 42.234375 30.328125 
Q 41.703125 36.03125 39.75 39.453125 
Q 36.140625 45.796875 27.6875 45.796875 
Q 21.625 45.796875 17.515625 41.421875 
Q 13.421875 37.0625 13.1875 30.328125 
z
M 27.390625 53.5625 
z
" id="Helvetica-65"/>
      <path d="M 6.453125 52.296875 
L 14.796875 52.296875 
L 14.796875 44.875 
Q 18.5 49.46875 22.65625 51.46875 
Q 26.8125 53.46875 31.890625 53.46875 
Q 43.015625 53.46875 46.921875 45.703125 
Q 49.078125 41.453125 49.078125 33.546875 
L 49.078125 0 
L 40.140625 0 
L 40.140625 32.953125 
Q 40.140625 37.75 38.71875 40.671875 
Q 36.375 45.5625 30.21875 45.5625 
Q 27.09375 45.5625 25.09375 44.921875 
Q 21.484375 43.84375 18.75 40.625 
Q 16.546875 38.03125 15.890625 35.265625 
Q 15.234375 32.515625 15.234375 27.390625 
L 15.234375 0 
L 6.453125 0 
z
M 27.09375 53.5625 
z
" id="Helvetica-6e"/>
     </defs>
     <g style="fill:#ffffff;" transform="translate(21.546875 132.622348)rotate(-90)scale(0.2 -0.2)">
      <use transform="translate(0 0.3125)" xlink:href="#Helvetica-3b4"/>
      <use transform="translate(61.083984 0.3125)" xlink:href="#Helvetica-47"/>
      <use transform="translate(139.782383 -15.376563)scale(0.7)" xlink:href="#Helvetica-73"/>
      <use transform="translate(174.782383 -15.376563)scale(0.7)" xlink:href="#Helvetica-65"/>
      <use transform="translate(213.713047 -15.376563)scale(0.7)" xlink:href="#Helvetica-6e"/>
      <use transform="translate(252.643711 -15.376563)scale(0.7)" xlink:href="#Helvetica-73"/>
     </g>
    </g>
   </g>
   <g id="PolyCollection_1">
    <path clip-path="url(#p3599c0fff7)" d="M -580.152375 103.522348 
L -580.152375 103.522348 
L -575.047432 103.522348 
L -569.942489 103.522348 
L -564.837545 103.522348 
L -559.732602 103.522348 
L -554.627659 103.522348 
L -549.522716 103.522348 
L -544.417772 103.522348 
L -539.312829 103.522348 
L -534.207886 103.522348 
L -529.102943 103.522348 
L -523.998 103.522348 
L -518.893056 103.522348 
L -513.788113 103.522348 
L -508.68317 103.522348 
L -503.578227 103.522348 
L -498.473283 103.522348 
L -493.36834 103.522348 
L -488.263397 103.522348 
L -483.158454 103.522348 
L -478.053511 103.522348 
L -472.948567 103.522348 
L -467.843624 103.522348 
L -462.738681 103.522348 
L -457.633738 103.522348 
L -452.528795 103.522348 
L -447.423851 103.522348 
L -442.318908 103.522348 
L -437.213965 103.522348 
L -432.109022 103.522348 
L -427.004078 103.522348 
L -421.899135 103.522348 
L -416.794192 103.522348 
L -411.689249 103.522348 
L -406.584306 103.522348 
L -401.479362 103.522348 
L -396.374419 103.522348 
L -391.269476 103.522348 
L -386.164533 103.522348 
L -381.059589 103.522348 
L -375.954646 103.522348 
L -370.849703 103.522348 
L -365.74476 103.522348 
L -360.639817 103.522348 
L -355.534873 103.522348 
L -350.42993 103.522348 
L -345.324987 103.522348 
L -340.220044 103.522348 
L -335.1151 103.522348 
L -330.010157 103.522348 
L -324.905214 103.522348 
L -319.800271 103.522348 
L -314.695328 103.522348 
L -309.590384 103.522348 
L -304.485441 103.522348 
L -299.380498 103.522348 
L -294.275555 103.522348 
L -289.170611 103.522348 
L -284.065668 103.522348 
L -278.960725 103.522348 
L -273.855782 103.522348 
L -268.750839 103.522348 
L -263.645895 103.522348 
L -258.540952 103.522348 
L -253.436009 103.522348 
L -248.331066 103.522348 
L -243.226122 103.522348 
L -238.121179 103.522348 
L -233.016236 103.522348 
L -227.911293 103.522348 
L -222.80635 103.522348 
L -217.701406 103.522348 
L -212.596463 103.522348 
L -207.49152 103.522348 
L -202.386577 103.522348 
L -197.281634 103.522348 
L -192.17669 103.522348 
L -187.071747 103.522348 
L -181.966804 103.522348 
L -176.861861 103.522348 
L -171.756917 103.522348 
L -166.651974 103.522348 
L -161.547031 103.522348 
L -156.442088 103.522348 
L -151.337145 103.522348 
L -146.232201 103.522348 
L -141.127258 103.522348 
L -136.022315 103.522348 
L -130.917372 103.522348 
L -125.812428 103.522348 
L -120.707485 103.522348 
L -115.602542 103.522348 
L -110.497599 103.522348 
L -105.392656 103.522348 
L -100.287712 103.522348 
L -95.182769 103.522348 
L -90.077826 103.522348 
L -84.972883 103.522348 
L -79.867939 103.522348 
L -74.762996 103.522348 
L -69.658053 103.522348 
L -64.55311 103.522348 
L -59.448167 103.522348 
L -54.343223 103.522348 
L -49.23828 103.522348 
L -44.133337 103.522348 
L -39.028394 103.522348 
L -33.92345 103.522348 
L -28.818507 103.522348 
L -23.713564 103.522348 
L -18.608621 103.522348 
L -13.503678 103.522348 
L -8.398734 103.522348 
L -3.293791 103.522348 
L 1.811152 103.522348 
L 6.916095 103.522348 
L 12.021038 103.522348 
L 17.125982 103.522348 
L 22.230925 103.522348 
L 27.335868 103.522348 
L 32.440811 103.522348 
L 37.545755 103.522348 
L 42.650698 103.522348 
L 47.755641 103.522348 
L 52.860584 103.522348 
L 57.965527 103.522348 
L 63.070471 103.522348 
L 68.175414 103.522348 
L 73.280357 103.522348 
L 78.3853 103.522348 
L 83.490244 103.522348 
L 88.595187 103.522348 
L 93.70013 103.522348 
L 98.805073 103.522348 
L 103.910016 103.522348 
L 109.01496 103.522348 
L 114.119903 103.522348 
L 119.224846 103.522348 
L 124.329789 103.522348 
L 129.434733 103.522348 
L 134.539676 103.522348 
L 139.644619 103.522348 
L 144.749562 103.522348 
L 149.854505 103.522348 
L 154.959449 103.522348 
L 160.064392 103.522348 
L 165.169335 103.522348 
L 170.274278 103.522348 
L 175.379222 103.522348 
L 180.484165 103.522348 
L 185.589108 103.522348 
L 190.694051 103.522348 
L 195.798994 103.522348 
L 200.903938 103.522348 
L 206.008881 103.522348 
L 211.113824 103.522348 
L 216.218767 103.522348 
L 221.323711 103.522348 
L 226.428654 103.522348 
L 231.533597 103.522348 
L 236.63854 103.522348 
L 241.743483 103.522348 
L 246.848427 103.522348 
L 251.95337 103.522348 
L 257.058313 103.522348 
L 262.163256 103.522348 
L 267.268199 103.522348 
L 272.373143 103.522348 
L 277.478086 103.522348 
L 282.583029 103.522348 
L 287.687972 103.522348 
L 292.792916 103.522348 
L 297.897859 103.522348 
L 303.002802 103.522348 
L 308.107745 103.522348 
L 313.212688 103.522348 
L 318.317632 103.522348 
L 323.422575 103.522348 
L 328.527518 103.522348 
L 333.632461 103.522348 
L 338.737405 103.522348 
L 343.842348 103.522348 
L 348.947291 103.522348 
L 354.052234 103.522348 
L 359.157177 103.522348 
L 364.262121 103.522348 
L 369.367064 103.522348 
L 374.472007 103.522348 
L 379.57695 103.522348 
L 384.681894 103.522348 
L 389.786837 103.522348 
L 394.89178 103.522348 
L 399.996723 103.522348 
L 405.101666 103.522348 
L 410.20661 103.522348 
L 415.311553 103.522348 
L 420.416496 103.522348 
L 425.521439 103.522348 
L 430.626383 103.522348 
L 435.731326 103.522348 
L 440.836269 103.522348 
L 445.941212 103.522348 
L 451.046155 103.522348 
L 456.151099 103.522348 
L 461.256042 103.522348 
L 466.360985 103.522348 
L 471.465928 103.522348 
L 476.570871 103.522348 
L 481.675815 103.522348 
L 486.780758 103.522348 
L 491.885701 103.522348 
L 496.990644 103.522348 
L 502.095588 103.522348 
L 507.200531 103.522348 
L 512.305474 103.522348 
L 517.410417 103.522348 
L 522.51536 103.522348 
L 527.620304 103.522348 
L 532.725247 103.522348 
L 537.83019 103.522348 
L 542.935133 103.522348 
L 548.040077 103.522348 
L 553.14502 103.522348 
L 558.249963 103.522348 
L 563.354906 103.522348 
L 568.459849 103.522348 
L 573.564793 103.522348 
L 578.669736 103.522348 
L 583.774679 103.522348 
L 588.879622 103.522348 
L 593.984566 103.522348 
L 599.089509 103.522348 
L 604.194452 103.522348 
L 609.299395 103.522348 
L 614.404338 103.522348 
L 619.509282 103.522348 
L 624.614225 103.522348 
L 629.719168 103.522348 
L 634.824111 103.522348 
L 639.929055 103.522348 
L 645.033998 103.522348 
L 650.138941 103.522348 
L 655.243884 103.522348 
L 660.348827 103.522348 
L 665.453771 103.522348 
L 670.558714 103.522348 
L 675.663657 103.522348 
L 680.7686 103.522348 
L 685.873544 103.522348 
L 690.978487 103.522348 
L 696.08343 103.522348 
L 701.188373 103.522348 
L 706.293316 103.522348 
L 711.39826 103.522348 
L 716.503203 103.522348 
L 721.608146 103.522348 
L 726.713089 103.522348 
L 731.818032 103.522348 
L 736.922976 103.522348 
L 742.027919 103.522348 
L 747.132862 103.522348 
L 752.237805 103.522348 
L 757.342749 103.522348 
L 762.447692 103.522348 
L 767.552635 103.522348 
L 772.657578 103.522348 
L 777.762521 103.522348 
L 782.867465 103.522348 
L 787.972408 103.522348 
L 793.077351 103.522348 
L 798.182294 103.522348 
L 803.287238 103.522348 
L 808.392181 103.522348 
L 813.497124 103.522348 
L 818.602067 103.522348 
L 823.70701 103.522348 
L 828.811954 103.522348 
L 833.916897 103.522348 
L 839.02184 103.522348 
L 844.126783 103.522348 
L 849.231727 103.522348 
L 854.33667 103.522348 
L 859.441613 103.522348 
L 864.546556 103.522348 
L 869.651499 103.522348 
L 874.756443 103.522348 
L 879.861386 103.522348 
L 884.966329 103.522348 
L 890.071272 103.522348 
L 895.176216 103.522348 
L 900.281159 103.522348 
L 905.386102 103.522348 
L 910.491045 103.522348 
L 915.595988 103.522348 
L 920.700932 103.522348 
L 925.805875 103.522348 
L 930.910818 103.522348 
L 936.015761 103.522348 
L 941.120704 103.522348 
L 946.225648 103.522348 
L 951.330591 103.522348 
L 956.435534 103.522348 
L 961.540477 103.522348 
L 966.645421 103.522348 
L 971.750364 103.522348 
L 976.855307 103.522348 
L 981.96025 103.522348 
L 987.065193 103.522348 
L 992.170137 103.522348 
L 997.27508 103.522348 
L 1002.380023 103.522348 
L 1007.484966 103.522348 
L 1012.58991 103.522348 
L 1017.694853 103.522348 
L 1022.799796 103.522348 
L 1027.904739 103.522348 
L 1033.009682 103.522348 
L 1038.114626 103.522348 
L 1043.219569 103.522348 
L 1048.324512 103.522348 
L 1053.429455 103.522348 
L 1058.534399 103.522348 
L 1063.639342 103.522348 
L 1068.744285 103.522348 
L 1073.849228 103.522348 
L 1078.954171 103.522348 
L 1084.059115 103.522348 
L 1089.164058 103.522348 
L 1094.269001 103.522348 
L 1099.373944 103.522348 
L 1104.478888 103.522348 
L 1109.583831 103.522348 
L 1114.688774 103.522348 
L 1119.793717 103.522348 
L 1124.89866 103.522348 
L 1130.003604 103.522348 
L 1135.108547 103.522348 
L 1140.21349 103.522348 
L 1145.318433 103.522348 
L 1150.423377 103.522348 
L 1155.52832 103.522348 
L 1160.633263 103.522348 
L 1165.738206 103.522348 
L 1170.843149 103.522348 
L 1175.948093 103.522348 
L 1181.053036 103.522348 
L 1186.157979 103.522348 
L 1191.262922 103.522348 
L 1196.367865 103.522348 
L 1201.472809 103.522348 
L 1206.577752 103.522348 
L 1211.682695 103.522348 
L 1216.787638 103.522348 
L 1221.892582 103.522348 
L 1226.997525 103.522348 
L 1232.102468 103.522348 
L 1237.207411 103.522348 
L 1242.312354 103.522348 
L 1247.417298 103.522348 
L 1252.522241 103.522348 
L 1257.627184 103.522348 
L 1262.732127 103.522348 
L 1267.837071 103.522348 
L 1272.942014 103.522348 
L 1278.046957 103.522348 
L 1283.1519 103.522348 
L 1288.256843 103.522348 
L 1293.361787 103.522348 
L 1298.46673 103.522348 
L 1303.571673 103.522348 
L 1308.676616 103.522348 
L 1313.78156 103.522348 
L 1318.886503 103.522348 
L 1323.991446 103.522348 
L 1329.096389 103.522348 
L 1334.201332 103.522348 
L 1339.306276 103.522348 
L 1344.411219 103.522348 
L 1349.516162 103.522348 
L 1354.621105 103.522348 
L 1359.726049 103.522348 
L 1364.830992 103.522348 
L 1369.935935 103.522348 
L 1375.040878 103.522348 
L 1380.145821 103.522348 
L 1385.250765 103.522348 
L 1390.355708 103.522348 
L 1395.460651 103.522348 
L 1400.565594 103.522348 
L 1405.670537 103.522348 
L 1410.775481 103.522348 
L 1415.880424 103.522348 
L 1420.985367 103.522348 
L 1426.09031 103.522348 
L 1431.195254 103.522348 
L 1436.300197 103.522348 
L 1441.40514 103.522348 
L 1446.510083 103.522348 
L 1451.615026 103.522348 
L 1456.71997 103.522348 
L 1461.824913 103.522348 
L 1466.929856 103.522348 
L 1472.034799 103.522348 
L 1477.139743 103.522348 
L 1482.244686 103.522348 
L 1487.349629 103.522348 
L 1492.454572 103.522348 
L 1497.559515 103.522348 
L 1502.664459 103.522348 
L 1507.769402 103.522348 
L 1512.874345 103.522348 
L 1517.979288 103.522348 
L 1523.084232 103.522348 
L 1528.189175 103.522348 
L 1533.294118 103.522348 
L 1538.399061 103.522348 
L 1543.504004 103.522348 
L 1548.608948 103.522348 
L 1553.713891 103.522348 
L 1558.818834 103.522348 
L 1563.923777 103.522348 
L 1569.028721 103.522348 
L 1574.133664 103.522348 
L 1579.238607 103.522348 
L 1584.34355 103.522348 
L 1589.448493 103.522348 
L 1594.553437 103.522348 
L 1599.65838 103.522348 
L 1604.763323 103.522348 
L 1609.868266 103.522348 
L 1614.97321 103.522348 
L 1620.078153 103.522348 
L 1625.183096 103.522348 
L 1630.288039 103.522348 
L 1635.392982 103.522348 
L 1640.497926 103.522348 
L 1645.602869 103.522348 
L 1650.707812 103.522348 
L 1655.812755 103.522348 
L 1660.917698 103.522348 
L 1666.022642 103.522348 
L 1671.127585 103.522348 
L 1676.232528 103.522348 
L 1681.337471 103.522348 
L 1686.442415 103.522348 
L 1691.547358 103.522348 
L 1696.652301 103.522348 
L 1701.757244 103.522348 
L 1706.862187 103.522348 
L 1711.967131 103.522348 
L 1717.072074 103.522348 
L 1722.177017 103.522348 
L 1727.28196 103.522348 
L 1732.386904 103.522348 
L 1737.491847 103.522348 
L 1742.59679 103.522348 
L 1747.701733 103.522348 
L 1752.806676 103.522348 
L 1757.91162 103.522348 
L 1763.016563 103.522348 
L 1768.121506 103.522348 
L 1773.226449 103.522348 
L 1778.331393 103.522348 
L 1783.436336 103.522348 
L 1788.541279 103.522348 
L 1793.646222 103.522348 
L 1798.751165 103.522348 
L 1803.856109 103.522348 
L 1808.961052 103.522348 
L 1814.065995 103.522348 
L 1819.170938 103.522348 
L 1824.275882 103.522348 
L 1829.380825 103.522348 
L 1834.485768 103.522348 
L 1839.590711 103.522348 
L 1844.695654 103.522348 
L 1849.800598 103.522348 
L 1854.905541 103.522348 
L 1860.010484 103.522348 
L 1865.115427 103.522348 
L 1870.22037 103.522348 
L 1875.325314 103.522348 
L 1880.430257 103.522348 
L 1885.5352 103.522348 
L 1890.640143 103.522348 
L 1895.745087 103.522348 
L 1900.85003 103.522348 
L 1905.954973 103.522348 
L 1911.059916 103.522348 
L 1916.164859 103.522348 
L 1921.269803 103.522348 
L 1926.374746 103.522348 
L 1931.479689 103.522348 
L 1936.584632 103.522348 
L 1941.689576 103.522348 
L 1946.794519 103.522348 
L 1951.899462 103.522348 
L 1957.004405 103.522348 
L 1962.109348 103.522348 
L 1967.214292 103.522348 
L 1967.214292 103.522348 
L 1967.214292 103.522348 
L 1962.109348 103.522348 
L 1957.004405 103.522348 
L 1951.899462 103.522348 
L 1946.794519 103.522348 
L 1941.689576 103.522348 
L 1936.584632 103.522348 
L 1931.479689 103.522348 
L 1926.374746 103.522348 
L 1921.269803 103.522348 
L 1916.164859 103.522348 
L 1911.059916 103.522348 
L 1905.954973 103.522348 
L 1900.85003 103.522348 
L 1895.745087 103.522348 
L 1890.640143 103.522348 
L 1885.5352 103.522348 
L 1880.430257 103.522348 
L 1875.325314 103.522348 
L 1870.22037 103.522348 
L 1865.115427 103.522348 
L 1860.010484 103.522348 
L 1854.905541 103.522348 
L 1849.800598 103.522348 
L 1844.695654 103.522348 
L 1839.590711 103.522348 
L 1834.485768 103.522348 
L 1829.380825 103.522348 
L 1824.275882 103.522348 
L 1819.170938 103.522348 
L 1814.065995 103.522348 
L 1808.961052 103.522348 
L 1803.856109 103.522348 
L 1798.751165 103.522348 
L 1793.646222 103.522348 
L 1788.541279 103.522348 
L 1783.436336 103.522348 
L 1778.331393 103.522348 
L 1773.226449 103.522348 
L 1768.121506 103.522348 
L 1763.016563 103.522348 
L 1757.91162 103.522348 
L 1752.806676 103.522348 
L 1747.701733 103.522348 
L 1742.59679 103.522348 
L 1737.491847 103.522348 
L 1732.386904 103.522348 
L 1727.28196 103.522348 
L 1722.177017 103.522348 
L 1717.072074 103.522348 
L 1711.967131 103.522348 
L 1706.862187 103.522348 
L 1701.757244 103.522348 
L 1696.652301 103.522348 
L 1691.547358 103.522348 
L 1686.442415 103.522348 
L 1681.337471 103.522348 
L 1676.232528 103.522348 
L 1671.127585 103.522348 
L 1666.022642 103.522348 
L 1660.917698 103.522348 
L 1655.812755 103.522348 
L 1650.707812 103.522348 
L 1645.602869 103.522348 
L 1640.497926 103.522348 
L 1635.392982 103.522348 
L 1630.288039 103.522348 
L 1625.183096 103.522348 
L 1620.078153 103.522348 
L 1614.97321 103.522348 
L 1609.868266 103.522348 
L 1604.763323 103.522348 
L 1599.65838 103.522348 
L 1594.553437 103.522348 
L 1589.448493 103.522348 
L 1584.34355 103.522348 
L 1579.238607 103.522348 
L 1574.133664 103.522348 
L 1569.028721 103.522348 
L 1563.923777 103.522348 
L 1558.818834 103.522348 
L 1553.713891 103.522348 
L 1548.608948 103.522348 
L 1543.504004 103.522348 
L 1538.399061 103.522348 
L 1533.294118 103.522348 
L 1528.189175 103.522348 
L 1523.084232 103.522348 
L 1517.979288 103.522348 
L 1512.874345 103.522348 
L 1507.769402 103.522348 
L 1502.664459 103.522348 
L 1497.559515 103.522348 
L 1492.454572 103.522348 
L 1487.349629 103.522348 
L 1482.244686 103.522348 
L 1477.139743 103.522348 
L 1472.034799 103.522348 
L 1466.929856 103.522348 
L 1461.824913 103.522348 
L 1456.71997 103.522348 
L 1451.615026 103.522348 
L 1446.510083 103.522348 
L 1441.40514 103.522348 
L 1436.300197 103.522348 
L 1431.195254 103.522348 
L 1426.09031 103.522348 
L 1420.985367 103.522348 
L 1415.880424 103.522348 
L 1410.775481 103.522348 
L 1405.670537 103.522348 
L 1400.565594 103.522348 
L 1395.460651 103.522348 
L 1390.355708 103.522348 
L 1385.250765 103.522348 
L 1380.145821 103.522348 
L 1375.040878 103.522348 
L 1369.935935 103.522348 
L 1364.830992 103.522348 
L 1359.726049 103.522348 
L 1354.621105 103.522348 
L 1349.516162 103.522348 
L 1344.411219 103.522348 
L 1339.306276 103.522348 
L 1334.201332 103.522348 
L 1329.096389 103.522348 
L 1323.991446 103.522348 
L 1318.886503 103.522348 
L 1313.78156 103.522348 
L 1308.676616 103.522348 
L 1303.571673 103.522348 
L 1298.46673 103.522348 
L 1293.361787 103.522348 
L 1288.256843 103.522348 
L 1283.1519 103.522348 
L 1278.046957 103.522348 
L 1272.942014 103.522348 
L 1267.837071 103.522348 
L 1262.732127 103.522348 
L 1257.627184 103.522348 
L 1252.522241 103.522348 
L 1247.417298 103.522348 
L 1242.312354 103.522348 
L 1237.207411 103.522348 
L 1232.102468 103.522348 
L 1226.997525 103.522348 
L 1221.892582 103.522348 
L 1216.787638 103.522348 
L 1211.682695 103.522348 
L 1206.577752 103.522348 
L 1201.472809 103.522348 
L 1196.367865 103.522348 
L 1191.262922 103.522348 
L 1186.157979 103.522348 
L 1181.053036 103.522348 
L 1175.948093 103.522348 
L 1170.843149 103.522348 
L 1165.738206 103.522348 
L 1160.633263 103.522348 
L 1155.52832 103.522348 
L 1150.423377 103.522348 
L 1145.318433 103.522348 
L 1140.21349 103.522348 
L 1135.108547 103.522348 
L 1130.003604 103.522348 
L 1124.89866 103.522348 
L 1119.793717 103.522348 
L 1114.688774 103.522348 
L 1109.583831 103.522348 
L 1104.478888 103.522348 
L 1099.373944 103.522348 
L 1094.269001 103.522348 
L 1089.164058 103.522348 
L 1084.059115 103.522348 
L 1078.954171 103.522348 
L 1073.849228 103.522348 
L 1068.744285 103.522348 
L 1063.639342 103.522348 
L 1058.534399 103.522348 
L 1053.429455 103.522348 
L 1048.324512 103.522348 
L 1043.219569 103.522348 
L 1038.114626 103.522348 
L 1033.009682 103.522348 
L 1027.904739 103.522348 
L 1022.799796 103.522348 
L 1017.694853 103.522348 
L 1012.58991 103.522348 
L 1007.484966 103.522348 
L 1002.380023 103.522348 
L 997.27508 103.522348 
L 992.170137 103.522348 
L 987.065193 103.522348 
L 981.96025 103.522348 
L 976.855307 103.522348 
L 971.750364 103.522348 
L 966.645421 103.522348 
L 961.540477 103.522348 
L 956.435534 103.522348 
L 951.330591 103.522348 
L 946.225648 103.522348 
L 941.120704 103.522348 
L 936.015761 103.522348 
L 930.910818 103.522348 
L 925.805875 103.522348 
L 920.700932 103.522348 
L 915.595988 103.522348 
L 910.491045 103.522348 
L 905.386102 103.522348 
L 900.281159 103.522348 
L 895.176216 103.522348 
L 890.071272 103.522348 
L 884.966329 103.522348 
L 879.861386 103.522348 
L 874.756443 103.522348 
L 869.651499 103.522348 
L 864.546556 103.522348 
L 859.441613 103.522348 
L 854.33667 103.522348 
L 849.231727 103.522348 
L 844.126783 103.522348 
L 839.02184 103.522348 
L 833.916897 103.522348 
L 828.811954 103.522348 
L 823.70701 103.522348 
L 818.602067 103.522348 
L 813.497124 103.522348 
L 808.392181 103.522348 
L 803.287238 103.522348 
L 798.182294 103.522349 
L 793.077351 103.522349 
L 787.972408 103.522349 
L 782.867465 103.522349 
L 777.762521 103.522349 
L 772.657578 103.522349 
L 767.552635 103.52235 
L 762.447692 103.52235 
L 757.342749 103.52235 
L 752.237805 103.522351 
L 747.132862 103.522351 
L 742.027919 103.522352 
L 736.922976 103.522353 
L 731.818032 103.522354 
L 726.713089 103.522355 
L 721.608146 103.522356 
L 716.503203 103.522358 
L 711.39826 103.522359 
L 706.293316 103.522362 
L 701.188373 103.522364 
L 696.08343 103.522367 
L 690.978487 103.522371 
L 685.873544 103.522375 
L 680.7686 103.52238 
L 675.663657 103.522385 
L 670.558714 103.522392 
L 665.453771 103.5224 
L 660.348827 103.52241 
L 655.243884 103.522421 
L 650.138941 103.522434 
L 645.033998 103.52245 
L 639.929055 103.522468 
L 634.824111 103.52249 
L 629.719168 103.522516 
L 624.614225 103.522547 
L 619.509282 103.522583 
L 614.404338 103.522626 
L 609.299395 103.522676 
L 604.194452 103.522736 
L 599.089509 103.522806 
L 593.984566 103.52289 
L 588.879622 103.522988 
L 583.774679 103.523104 
L 578.669736 103.523242 
L 573.564793 103.523404 
L 568.459849 103.523596 
L 563.354906 103.523823 
L 558.249963 103.524092 
L 553.14502 103.524409 
L 548.040077 103.524783 
L 542.935133 103.525226 
L 537.83019 103.525749 
L 532.725247 103.526367 
L 527.620304 103.527097 
L 522.51536 103.527961 
L 517.410417 103.528981 
L 512.305474 103.530186 
L 507.200531 103.531611 
L 502.095588 103.533294 
L 496.990644 103.535284 
L 491.885701 103.537635 
L 486.780758 103.540413 
L 481.675815 103.543697 
L 476.570871 103.547577 
L 471.465928 103.552162 
L 466.360985 103.55758 
L 461.256042 103.563983 
L 456.151099 103.571549 
L 451.046155 103.580489 
L 445.941212 103.591055 
L 440.836269 103.603539 
L 435.731326 103.618291 
L 430.626383 103.635722 
L 425.521439 103.656318 
L 420.416496 103.680655 
L 415.311553 103.709408 
L 410.20661 103.74338 
L 405.101666 103.783516 
L 399.996723 103.830931 
L 394.89178 103.886942 
L 389.786837 103.953103 
L 384.681894 104.031245 
L 379.57695 104.123529 
L 374.472007 104.232501 
L 369.367064 104.361158 
L 364.262121 104.51303 
L 359.157177 104.692265 
L 354.052234 104.90374 
L 348.947291 105.153177 
L 343.842348 105.447282 
L 338.737405 105.7939 
L 333.632461 106.202192 
L 328.527518 106.682825 
L 323.422575 107.248186 
L 318.317632 107.912603 
L 313.212688 108.692573 
L 308.107745 109.606977 
L 303.002802 110.677275 
L 297.897859 111.927623 
L 292.792916 113.384887 
L 287.687972 115.078473 
L 282.583029 117.039858 
L 277.478086 119.3017 
L 272.373143 121.896293 
L 267.268199 124.853114 
L 262.163256 128.195064 
L 257.058313 131.932928 
L 251.95337 136.057446 
L 246.848427 140.528276 
L 241.743483 145.259175 
L 236.63854 150.098921 
L 231.533597 154.808324 
L 226.428654 159.035466 
L 221.323711 162.294792 
L 216.218767 163.961579 
L 211.113824 163.301072 
L 206.008881 159.557943 
L 200.903938 152.126979 
L 195.798994 140.795569 
L 190.694051 125.985953 
L 185.589108 108.86021 
L 180.484165 91.158686 
L 175.379222 74.775763 
L 170.274278 61.259068 
L 165.169335 51.477288 
L 160.064392 45.574906 
L 154.959449 43.150681 
L 149.854505 43.513471 
L 144.749562 45.900511 
L 139.644619 49.614307 
L 134.539676 54.084776 
L 129.434733 58.881686 
L 124.329789 63.701118 
L 119.224846 68.34202 
L 114.119903 72.681723 
L 109.01496 76.654391 
L 103.910016 80.233668 
L 98.805073 83.419445 
L 93.70013 86.228157 
L 88.595187 88.685886 
L 83.490244 90.823606 
L 78.3853 92.673992 
L 73.280357 94.269373 
L 68.175414 95.640478 
L 63.070471 96.815732 
L 57.965527 97.820926 
L 52.860584 98.67913 
L 47.755641 99.41075 
L 42.650698 100.033692 
L 37.545755 100.563557 
L 32.440811 101.013868 
L 27.335868 101.396299 
L 22.230925 101.72089 
L 17.125982 101.996254 
L 12.021038 102.22976 
L 6.916095 102.427703 
L 1.811152 102.595451 
L -3.293791 102.737576 
L -8.398734 102.857967 
L -13.503678 102.959931 
L -18.608621 103.046276 
L -23.713564 103.119386 
L -28.818507 103.181283 
L -33.92345 103.233684 
L -39.028394 103.278041 
L -44.133337 103.315587 
L -49.23828 103.347367 
L -54.343223 103.374265 
L -59.448167 103.39703 
L -64.55311 103.416297 
L -69.658053 103.432603 
L -74.762996 103.446402 
L -79.867939 103.45808 
L -84.972883 103.467962 
L -90.077826 103.476326 
L -95.182769 103.483403 
L -100.287712 103.489392 
L -105.392656 103.49446 
L -110.497599 103.498749 
L -115.602542 103.502378 
L -120.707485 103.505449 
L -125.812428 103.508048 
L -130.917372 103.510248 
L -136.022315 103.512108 
L -141.127258 103.513683 
L -146.232201 103.515016 
L -151.337145 103.516143 
L -156.442088 103.517098 
L -161.547031 103.517905 
L -166.651974 103.518588 
L -171.756917 103.519167 
L -176.861861 103.519656 
L -181.966804 103.52007 
L -187.071747 103.52042 
L -192.17669 103.520717 
L -197.281634 103.520968 
L -202.386577 103.52118 
L -207.49152 103.521359 
L -212.596463 103.521512 
L -217.701406 103.52164 
L -222.80635 103.521749 
L -227.911293 103.521841 
L -233.016236 103.521919 
L -238.121179 103.521985 
L -243.226122 103.522041 
L -248.331066 103.522088 
L -253.436009 103.522128 
L -258.540952 103.522162 
L -263.645895 103.52219 
L -268.750839 103.522215 
L -273.855782 103.522235 
L -278.960725 103.522252 
L -284.065668 103.522267 
L -289.170611 103.52228 
L -294.275555 103.52229 
L -299.380498 103.522299 
L -304.485441 103.522306 
L -309.590384 103.522313 
L -314.695328 103.522318 
L -319.800271 103.522323 
L -324.905214 103.522327 
L -330.010157 103.52233 
L -335.1151 103.522333 
L -340.220044 103.522335 
L -345.324987 103.522337 
L -350.42993 103.522339 
L -355.534873 103.52234 
L -360.639817 103.522341 
L -365.74476 103.522342 
L -370.849703 103.522343 
L -375.954646 103.522344 
L -381.059589 103.522344 
L -386.164533 103.522345 
L -391.269476 103.522345 
L -396.374419 103.522346 
L -401.479362 103.522346 
L -406.584306 103.522346 
L -411.689249 103.522347 
L -416.794192 103.522347 
L -421.899135 103.522347 
L -427.004078 103.522347 
L -432.109022 103.522347 
L -437.213965 103.522347 
L -442.318908 103.522347 
L -447.423851 103.522347 
L -452.528795 103.522347 
L -457.633738 103.522348 
L -462.738681 103.522348 
L -467.843624 103.522348 
L -472.948567 103.522348 
L -478.053511 103.522348 
L -483.158454 103.522348 
L -488.263397 103.522348 
L -493.36834 103.522348 
L -498.473283 103.522348 
L -503.578227 103.522348 
L -508.68317 103.522348 
L -513.788113 103.522348 
L -518.893056 103.522348 
L -523.998 103.522348 
L -529.102943 103.522348 
L -534.207886 103.522348 
L -539.312829 103.522348 
L -544.417772 103.522348 
L -549.522716 103.522348 
L -554.627659 103.522348 
L -559.732602 103.522348 
L -564.837545 103.522348 
L -569.942489 103.522348 
L -575.047432 103.522348 
L -580.152375 103.522348 
z
" style="fill:#ffffff;fill-opacity:0.2;"/>
   </g>
   <g id="LineCollection_1">
    <path clip-path="url(#p3599c0fff7)" d="M 184.057625 248.618336 
L 184.057625 103.522348 
" style="fill:none;stroke:#ffffff;stroke-dasharray:2,3.3;stroke-dashoffset:0;stroke-width:2;"/>
   </g>
   <g id="LineCollection_2">
    <path clip-path="url(#p3599c0fff7)" d="M -1 103.522348 
L 350.099625 103.522348 
" style="fill:none;stroke:#ffffff;stroke-dasharray:2,3.3;stroke-dashoffset:0;stroke-width:2;"/>
   </g>
   <g id="line2d_7">
    <path clip-path="url(#p3599c0fff7)" d="M -1 102.673715 
L 12.021038 102.22976 
L 22.230925 101.72089 
L 32.440811 101.013868 
L 42.650698 100.033692 
L 52.860584 98.67913 
L 57.965527 97.820926 
L 63.070471 96.815732 
L 68.175414 95.640478 
L 73.280357 94.269373 
L 78.3853 92.673992 
L 83.490244 90.823606 
L 88.595187 88.685886 
L 93.70013 86.228157 
L 98.805073 83.419445 
L 103.910016 80.233668 
L 109.01496 76.654391 
L 114.119903 72.681723 
L 119.224846 68.34202 
L 124.329789 63.701118 
L 134.539676 54.084776 
L 139.644619 49.614307 
L 144.749562 45.900511 
L 149.854505 43.513471 
L 154.959449 43.150681 
L 160.064392 45.574906 
L 165.169335 51.477288 
L 170.274278 61.259068 
L 175.379222 74.775763 
L 180.484165 91.158686 
L 185.589108 108.86021 
L 190.694051 125.985953 
L 195.798994 140.795569 
L 200.903938 152.126979 
L 206.008881 159.557943 
L 211.113824 163.301072 
L 216.218767 163.961579 
L 221.323711 162.294792 
L 226.428654 159.035466 
L 231.533597 154.808324 
L 241.743483 145.259175 
L 246.848427 140.528276 
L 251.95337 136.057446 
L 257.058313 131.932928 
L 262.163256 128.195064 
L 267.268199 124.853114 
L 272.373143 121.896293 
L 277.478086 119.3017 
L 282.583029 117.039858 
L 287.687972 115.078473 
L 292.792916 113.384887 
L 297.897859 111.927623 
L 303.002802 110.677275 
L 308.107745 109.606977 
L 313.212688 108.692573 
L 318.317632 107.912603 
L 328.527518 106.682825 
L 338.737405 105.7939 
L 350.099625 105.096872 
L 350.099625 105.096872 
" style="fill:none;stroke:#bc82bd;stroke-linecap:square;stroke-width:2;"/>
   </g>
   <g id="patch_3">
    <path d="M 31.215625 199.844696 
L 31.215625 7.2 
" style="fill:none;stroke:#ffffff;stroke-linecap:square;stroke-linejoin:miter;stroke-width:1.2;"/>
   </g>
   <g id="patch_4">
    <path d="M 336.899625 199.844696 
L 336.899625 7.2 
" style="fill:none;stroke:#ffffff;stroke-linecap:square;stroke-linejoin:miter;stroke-width:1.2;"/>
   </g>
   <g id="patch_5">
    <path d="M 31.215625 199.844696 
L 336.899625 199.844696 
" style="fill:none;stroke:#ffffff;stroke-linecap:square;stroke-linejoin:miter;stroke-width:1.2;"/>
   </g>
   <g id="patch_6">
    <path d="M 31.215625 7.2 
L 336.899625 7.2 
" style="fill:none;stroke:#ffffff;stroke-linecap:square;stroke-linejoin:miter;stroke-width:1.2;"/>
   </g>
   <g id="text_4">
    <!-- ANTISYMMETRIC -->
    <defs>
     <path d="M 44.4375 29.390625 
L 33.546875 61.078125 
L 21.96875 29.390625 
z
M 28.46875 71.734375 
L 39.453125 71.734375 
L 65.484375 0 
L 54.828125 0 
L 47.5625 21.484375 
L 19.1875 21.484375 
L 11.421875 0 
L 1.46875 0 
z
M 33.5 71.734375 
z
" id="Helvetica-41"/>
     <path d="M 7.625 71.734375 
L 19.09375 71.734375 
L 55.328125 13.625 
L 55.328125 71.734375 
L 64.546875 71.734375 
L 64.546875 0 
L 53.65625 0 
L 16.890625 58.0625 
L 16.890625 0 
L 7.625 0 
z
M 35.453125 71.734375 
z
" id="Helvetica-4e"/>
     <path d="M 59.8125 71.734375 
L 59.8125 63.1875 
L 35.640625 63.1875 
L 35.640625 0 
L 25.78125 0 
L 25.78125 63.1875 
L 1.609375 63.1875 
L 1.609375 71.734375 
z
" id="Helvetica-54"/>
     <path d="M 9.8125 71.734375 
L 19.625 71.734375 
L 19.625 0 
L 9.8125 0 
z
" id="Helvetica-49"/>
     <path d="M 13.96875 23.140625 
Q 14.3125 17.046875 16.84375 13.234375 
Q 21.6875 6.109375 33.890625 6.109375 
Q 39.359375 6.109375 43.84375 7.671875 
Q 52.546875 10.6875 52.546875 18.5 
Q 52.546875 24.359375 48.875 26.859375 
Q 45.171875 29.296875 37.25 31.109375 
L 27.546875 33.296875 
Q 18.015625 35.453125 14.0625 38.03125 
Q 7.234375 42.53125 7.234375 51.46875 
Q 7.234375 61.140625 13.921875 67.328125 
Q 20.609375 73.53125 32.859375 73.53125 
Q 44.140625 73.53125 52.015625 68.078125 
Q 59.90625 62.640625 59.90625 50.6875 
L 50.78125 50.6875 
Q 50.046875 56.453125 47.65625 59.515625 
Q 43.21875 65.140625 32.5625 65.140625 
Q 23.96875 65.140625 20.203125 61.515625 
Q 16.453125 57.90625 16.453125 53.125 
Q 16.453125 47.859375 20.84375 45.40625 
Q 23.734375 43.84375 33.890625 41.5 
L 43.953125 39.203125 
Q 51.21875 37.546875 55.171875 34.671875 
Q 62.015625 29.640625 62.015625 20.0625 
Q 62.015625 8.15625 53.34375 3.03125 
Q 44.671875 -2.09375 33.203125 -2.09375 
Q 19.828125 -2.09375 12.25 4.734375 
Q 4.6875 11.53125 4.828125 23.140625 
z
M 33.59375 73.6875 
z
" id="Helvetica-53"/>
     <path d="M 2.046875 71.734375 
L 13.375 71.734375 
L 33.984375 37.25 
L 54.59375 71.734375 
L 65.96875 71.734375 
L 38.875 28.90625 
L 38.875 0 
L 29.15625 0 
L 29.15625 28.90625 
z
M 34.125 71.734375 
z
" id="Helvetica-59"/>
     <path d="M 7.375 71.734375 
L 21.296875 71.734375 
L 41.890625 11.078125 
L 62.359375 71.734375 
L 76.125 71.734375 
L 76.125 0 
L 66.890625 0 
L 66.890625 42.328125 
Q 66.890625 44.53125 66.984375 49.609375 
Q 67.09375 54.6875 67.09375 60.5 
L 46.625 0 
L 37.015625 0 
L 16.40625 60.5 
L 16.40625 58.296875 
Q 16.40625 55.671875 16.53125 50.265625 
Q 16.65625 44.875 16.65625 42.328125 
L 16.65625 0 
L 7.375 0 
z
" id="Helvetica-4d"/>
     <path d="M 8.546875 71.734375 
L 60.84375 71.734375 
L 60.84375 62.9375 
L 18.015625 62.9375 
L 18.015625 41.15625 
L 57.625 41.15625 
L 57.625 32.859375 
L 18.015625 32.859375 
L 18.015625 8.546875 
L 61.578125 8.546875 
L 61.578125 0 
L 8.546875 0 
z
M 35.0625 71.734375 
z
" id="Helvetica-45"/>
     <path d="M 40.96875 38.875 
Q 47.796875 38.875 51.78125 41.609375 
Q 55.765625 44.34375 55.765625 51.46875 
Q 55.765625 59.125 50.203125 61.921875 
Q 47.21875 63.375 42.234375 63.375 
L 18.5 63.375 
L 18.5 38.875 
z
M 8.796875 71.734375 
L 42 71.734375 
Q 50.203125 71.734375 55.515625 69.34375 
Q 65.625 64.75 65.625 52.390625 
Q 65.625 45.953125 62.953125 41.84375 
Q 60.296875 37.75 55.515625 35.25 
Q 59.71875 33.546875 61.84375 30.765625 
Q 63.96875 27.984375 64.203125 21.734375 
L 64.546875 12.109375 
Q 64.703125 8.015625 65.234375 6 
Q 66.109375 2.59375 68.359375 1.609375 
L 68.359375 0 
L 56.453125 0 
Q 55.953125 0.921875 55.65625 2.390625 
Q 55.375 3.859375 55.171875 8.0625 
L 54.59375 20.015625 
Q 54.25 27.046875 49.359375 29.4375 
Q 46.578125 30.765625 40.625 30.765625 
L 18.5 30.765625 
L 18.5 0 
L 8.796875 0 
z
" id="Helvetica-52"/>
     <path d="M 37.84375 73.6875 
Q 51.46875 73.6875 58.984375 66.5 
Q 66.5 59.328125 67.328125 50.203125 
L 57.859375 50.203125 
Q 56.25 57.125 51.4375 61.171875 
Q 46.625 65.234375 37.9375 65.234375 
Q 27.34375 65.234375 20.828125 57.78125 
Q 14.3125 50.34375 14.3125 34.96875 
Q 14.3125 22.359375 20.1875 14.515625 
Q 26.078125 6.6875 37.75 6.6875 
Q 48.484375 6.6875 54.109375 14.9375 
Q 57.078125 19.28125 58.546875 26.375 
L 68.015625 26.375 
Q 66.75 15.046875 59.625 7.375 
Q 51.078125 -1.859375 36.578125 -1.859375 
Q 24.078125 -1.859375 15.578125 5.71875 
Q 4.390625 15.71875 4.390625 36.625 
Q 4.390625 52.484375 12.796875 62.640625 
Q 21.875 73.6875 37.84375 73.6875 
z
M 35.890625 73.6875 
z
" id="Helvetica-43"/>
    </defs>
    <g style="fill:#ffffff;" transform="translate(184.057625 45.728939)scale(0.18 -0.18)">
     <use xlink:href="#Helvetica-41"/>
     <use x="66.699219" xlink:href="#Helvetica-4e"/>
     <use x="138.916016" xlink:href="#Helvetica-54"/>
     <use x="200" xlink:href="#Helvetica-49"/>
     <use x="227.783203" xlink:href="#Helvetica-53"/>
     <use x="294.482422" xlink:href="#Helvetica-59"/>
     <use x="361.181641" xlink:href="#Helvetica-4d"/>
     <use x="444.482422" xlink:href="#Helvetica-4d"/>
     <use x="527.783203" xlink:href="#Helvetica-45"/>
     <use x="594.482422" xlink:href="#Helvetica-54"/>
     <use x="655.566406" xlink:href="#Helvetica-52"/>
     <use x="727.783203" xlink:href="#Helvetica-49"/>
     <use x="755.566406" xlink:href="#Helvetica-43"/>
    </g>
   </g>
  </g>
 </g>
 <defs>
  <clipPath id="p3599c0fff7">
   <rect height="192.644696" width="305.684" x="31.215625" y="7.2"/>
  </clipPath>
 </defs>
</svg>
