<?xml version="1.0" encoding="utf-8" standalone="no"?>
<!DOCTYPE svg PUBLIC "-//W3C//DTD SVG 1.1//EN"
  "http://www.w3.org/Graphics/SVG/1.1/DTD/svg11.dtd">
<!-- Created with matplotlib (http://matplotlib.org/) -->
<svg height="245.4925pt" version="1.1" viewBox="0 0 346.855 245.4925" width="346.855pt" xmlns="http://www.w3.org/2000/svg" xmlns:xlink="http://www.w3.org/1999/xlink">
 <defs>
  <style type="text/css">
*{stroke-linecap:butt;stroke-linejoin:round;}
  </style>
 </defs>
 <g id="figure_1">
  <g id="patch_1">
   <path d="M -0 245.4925 
L 346.855 245.4925 
L 346.855 0 
L -0 0 
z
" style="fill:none;"/>
  </g>
  <g id="axes_1">
   <g id="patch_2">
    <path d="M 53.74 198.98 
L 288.8 198.98 
L 288.8 7.2 
L 53.74 7.2 
z
" style="fill:none;"/>
   </g>
   <g id="matplotlib.axis_1">
    <g id="xtick_1">
     <g id="line2d_1">
      <defs>
       <path d="M 0 0 
L 0 -5 
" id="m224adcc7fe" style="stroke:#ffffff;stroke-width:1.2;"/>
      </defs>
      <g>
       <use style="fill:#ffffff;stroke:#ffffff;stroke-width:1.2;" x="53.74" xlink:href="#m224adcc7fe" y="198.98"/>
      </g>
     </g>
     <g id="line2d_2">
      <defs>
       <path d="M 0 0 
L 0 5 
" id="mdc34b6d506" style="stroke:#ffffff;stroke-width:1.2;"/>
      </defs>
      <g>
       <use style="fill:#ffffff;stroke:#ffffff;stroke-width:1.2;" x="53.74" xlink:href="#mdc34b6d506" y="7.2"/>
      </g>
     </g>
     <g id="text_1">
      <!-- −20 -->
      <defs>
       <path d="M 55.421875 29.59375 
L 55.421875 21.390625 
L 4.5 21.390625 
L 4.5 29.59375 
z
" id="Helvetica-2212"/>
       <path d="M 3.125 0 
Q 3.609375 9.03125 6.859375 15.71875 
Q 10.109375 22.40625 19.53125 27.875 
L 28.90625 33.296875 
Q 35.203125 36.96875 37.75 39.546875 
Q 41.75 43.609375 41.75 48.828125 
Q 41.75 54.9375 38.078125 58.515625 
Q 34.421875 62.109375 28.328125 62.109375 
Q 19.28125 62.109375 15.828125 55.28125 
Q 13.96875 51.609375 13.765625 45.125 
L 4.828125 45.125 
Q 4.984375 54.25 8.203125 60.015625 
Q 13.921875 70.171875 28.375 70.171875 
Q 40.375 70.171875 45.921875 63.671875 
Q 51.46875 57.171875 51.46875 49.21875 
Q 51.46875 40.828125 45.5625 34.859375 
Q 42.140625 31.390625 33.296875 26.46875 
L 26.609375 22.75 
Q 21.828125 20.125 19.09375 17.71875 
Q 14.203125 13.484375 12.9375 8.296875 
L 51.125 8.296875 
L 51.125 0 
L 3.125 0 
z
" id="Helvetica-32"/>
       <path d="M 27.046875 69.921875 
Q 40.625 69.921875 46.6875 58.734375 
Q 51.375 50.09375 51.375 35.0625 
Q 51.375 20.796875 47.125 11.46875 
Q 40.96875 -1.90625 27 -1.90625 
Q 14.40625 -1.90625 8.25 9.03125 
Q 3.125 18.171875 3.125 33.546875 
Q 3.125 45.453125 6.203125 54 
Q 11.96875 69.921875 27.046875 69.921875 
z
M 26.953125 6.109375 
Q 33.796875 6.109375 37.84375 12.15625 
Q 41.890625 18.21875 41.890625 34.71875 
Q 41.890625 46.625 38.953125 54.3125 
Q 36.03125 62.015625 27.59375 62.015625 
Q 19.828125 62.015625 16.234375 54.703125 
Q 12.640625 47.40625 12.640625 33.203125 
Q 12.640625 22.515625 14.9375 16.015625 
Q 18.453125 6.109375 26.953125 6.109375 
z
" id="Helvetica-30"/>
      </defs>
      <g style="fill:#ffffff;" transform="translate(40.17 213.9575)scale(0.16 -0.16)">
       <use xlink:href="#Helvetica-2212"/>
       <use x="58.398438" xlink:href="#Helvetica-32"/>
       <use x="114.013672" xlink:href="#Helvetica-30"/>
      </g>
     </g>
    </g>
    <g id="xtick_2">
     <g id="line2d_3">
      <g>
       <use style="fill:#ffffff;stroke:#ffffff;stroke-width:1.2;" x="112.505" xlink:href="#m224adcc7fe" y="198.98"/>
      </g>
     </g>
     <g id="line2d_4">
      <g>
       <use style="fill:#ffffff;stroke:#ffffff;stroke-width:1.2;" x="112.505" xlink:href="#mdc34b6d506" y="7.2"/>
      </g>
     </g>
     <g id="text_2">
      <!-- −10 -->
      <defs>
       <path d="M 9.578125 49.515625 
L 9.578125 56.25 
Q 19.09375 57.171875 22.84375 59.34375 
Q 26.609375 61.53125 28.46875 69.625 
L 35.40625 69.625 
L 35.40625 0 
L 26.03125 0 
L 26.03125 49.515625 
z
" id="Helvetica-31"/>
      </defs>
      <g style="fill:#ffffff;" transform="translate(98.935 213.9575)scale(0.16 -0.16)">
       <use xlink:href="#Helvetica-2212"/>
       <use x="58.398438" xlink:href="#Helvetica-31"/>
       <use x="114.013672" xlink:href="#Helvetica-30"/>
      </g>
     </g>
    </g>
    <g id="xtick_3">
     <g id="line2d_5">
      <g>
       <use style="fill:#ffffff;stroke:#ffffff;stroke-width:1.2;" x="171.27" xlink:href="#m224adcc7fe" y="198.98"/>
      </g>
     </g>
     <g id="line2d_6">
      <g>
       <use style="fill:#ffffff;stroke:#ffffff;stroke-width:1.2;" x="171.27" xlink:href="#mdc34b6d506" y="7.2"/>
      </g>
     </g>
     <g id="text_3">
      <!-- 0 -->
      <g style="fill:#ffffff;" transform="translate(166.82125 213.9575)scale(0.16 -0.16)">
       <use xlink:href="#Helvetica-30"/>
      </g>
     </g>
    </g>
    <g id="xtick_4">
     <g id="line2d_7">
      <g>
       <use style="fill:#ffffff;stroke:#ffffff;stroke-width:1.2;" x="230.035" xlink:href="#m224adcc7fe" y="198.98"/>
      </g>
     </g>
     <g id="line2d_8">
      <g>
       <use style="fill:#ffffff;stroke:#ffffff;stroke-width:1.2;" x="230.035" xlink:href="#mdc34b6d506" y="7.2"/>
      </g>
     </g>
     <g id="text_4">
      <!-- 10 -->
      <g style="fill:#ffffff;" transform="translate(221.1375 213.9575)scale(0.16 -0.16)">
       <use xlink:href="#Helvetica-31"/>
       <use x="55.615234" xlink:href="#Helvetica-30"/>
      </g>
     </g>
    </g>
    <g id="xtick_5">
     <g id="line2d_9">
      <g>
       <use style="fill:#ffffff;stroke:#ffffff;stroke-width:1.2;" x="288.8" xlink:href="#m224adcc7fe" y="198.98"/>
      </g>
     </g>
     <g id="line2d_10">
      <g>
       <use style="fill:#ffffff;stroke:#ffffff;stroke-width:1.2;" x="288.8" xlink:href="#mdc34b6d506" y="7.2"/>
      </g>
     </g>
     <g id="text_5">
      <!-- 20 -->
      <g style="fill:#ffffff;" transform="translate(279.9025 213.9575)scale(0.16 -0.16)">
       <use xlink:href="#Helvetica-32"/>
       <use x="55.615234" xlink:href="#Helvetica-30"/>
      </g>
     </g>
    </g>
    <g id="text_6">
     <!-- $I_{heat}$ (nA DC) -->
     <defs>
      <path d="M 9.8125 71.734375 
L 19.625 71.734375 
L 19.625 0 
L 9.8125 0 
z
" id="Helvetica-49"/>
      <path d="M 6.453125 71.96875 
L 15.234375 71.96875 
L 15.234375 45.21875 
Q 18.359375 49.171875 20.84375 50.78125 
Q 25.09375 53.5625 31.453125 53.5625 
Q 42.828125 53.5625 46.875 45.609375 
Q 49.078125 41.265625 49.078125 33.546875 
L 49.078125 0 
L 40.046875 0 
L 40.046875 32.953125 
Q 40.046875 38.71875 38.578125 41.40625 
Q 36.1875 45.703125 29.59375 45.703125 
Q 24.125 45.703125 19.671875 41.9375 
Q 15.234375 38.1875 15.234375 27.734375 
L 15.234375 0 
L 6.453125 0 
z
" id="Helvetica-68"/>
      <path d="M 28.21875 53.46875 
Q 33.796875 53.46875 39.015625 50.859375 
Q 44.234375 48.25 46.96875 44.09375 
Q 49.609375 40.140625 50.484375 34.859375 
Q 51.265625 31.25 51.265625 23.34375 
L 12.9375 23.34375 
Q 13.1875 15.375 16.703125 10.5625 
Q 20.21875 5.765625 27.59375 5.765625 
Q 34.46875 5.765625 38.578125 10.296875 
Q 40.921875 12.9375 41.890625 16.40625 
L 50.53125 16.40625 
Q 50.203125 13.53125 48.265625 9.984375 
Q 46.34375 6.453125 43.953125 4.203125 
Q 39.9375 0.296875 34.03125 -1.078125 
Q 30.859375 -1.859375 26.859375 -1.859375 
Q 17.09375 -1.859375 10.296875 5.25 
Q 3.515625 12.359375 3.515625 25.140625 
Q 3.515625 37.75 10.34375 45.609375 
Q 17.1875 53.46875 28.21875 53.46875 
z
M 42.234375 30.328125 
Q 41.703125 36.03125 39.75 39.453125 
Q 36.140625 45.796875 27.6875 45.796875 
Q 21.625 45.796875 17.515625 41.421875 
Q 13.421875 37.0625 13.1875 30.328125 
z
M 27.390625 53.5625 
z
" id="Helvetica-65"/>
      <path d="M 13.1875 13.921875 
Q 13.1875 10.109375 15.96875 7.90625 
Q 18.75 5.71875 22.5625 5.71875 
Q 27.203125 5.71875 31.546875 7.859375 
Q 38.875 11.421875 38.875 19.53125 
L 38.875 26.609375 
Q 37.25 25.59375 34.703125 24.90625 
Q 32.171875 24.21875 29.734375 23.921875 
L 24.421875 23.25 
Q 19.625 22.609375 17.234375 21.234375 
Q 13.1875 18.953125 13.1875 13.921875 
z
M 34.46875 31.6875 
Q 37.5 32.078125 38.53125 34.234375 
Q 39.109375 35.40625 39.109375 37.59375 
Q 39.109375 42.09375 35.90625 44.109375 
Q 32.71875 46.140625 26.765625 46.140625 
Q 19.875 46.140625 17 42.4375 
Q 15.375 40.375 14.890625 36.328125 
L 6.6875 36.328125 
Q 6.9375 46 12.96875 49.78125 
Q 19 53.5625 26.953125 53.5625 
Q 36.1875 53.5625 41.9375 50.046875 
Q 47.65625 46.53125 47.65625 39.109375 
L 47.65625 8.984375 
Q 47.65625 7.625 48.21875 6.78125 
Q 48.78125 5.953125 50.59375 5.953125 
Q 51.171875 5.953125 51.90625 6.03125 
Q 52.640625 6.109375 53.46875 6.25 
L 53.46875 -0.25 
Q 51.421875 -0.828125 50.34375 -0.96875 
Q 49.265625 -1.125 47.40625 -1.125 
Q 42.875 -1.125 40.828125 2.09375 
Q 39.75 3.8125 39.3125 6.9375 
Q 36.625 3.421875 31.59375 0.828125 
Q 26.5625 -1.765625 20.515625 -1.765625 
Q 13.234375 -1.765625 8.609375 2.65625 
Q 4 7.078125 4 13.71875 
Q 4 21 8.546875 25 
Q 13.09375 29 20.453125 29.9375 
z
M 27.203125 53.5625 
z
" id="Helvetica-61"/>
      <path d="M 8.203125 66.890625 
L 17.09375 66.890625 
L 17.09375 52.296875 
L 25.4375 52.296875 
L 25.4375 45.125 
L 17.09375 45.125 
L 17.09375 10.984375 
Q 17.09375 8.25 18.953125 7.328125 
Q 19.96875 6.78125 22.359375 6.78125 
Q 23 6.78125 23.734375 6.8125 
Q 24.46875 6.84375 25.4375 6.9375 
L 25.4375 0 
Q 23.921875 -0.4375 22.28125 -0.625 
Q 20.65625 -0.828125 18.75 -0.828125 
Q 12.59375 -0.828125 10.390625 2.3125 
Q 8.203125 5.46875 8.203125 10.5 
L 8.203125 45.125 
L 1.125 45.125 
L 1.125 52.296875 
L 8.203125 52.296875 
z
" id="Helvetica-74"/>
      <path id="Helvetica-20"/>
      <path d="M 29.59375 72.90625 
Q 21.921875 58.015625 19.625 50.984375 
Q 16.15625 40.28125 16.15625 26.265625 
Q 16.15625 12.109375 20.125 0.390625 
Q 22.5625 -6.84375 29.734375 -20.40625 
L 23.828125 -20.40625 
Q 16.703125 -9.28125 14.984375 -6.203125 
Q 13.28125 -3.125 11.28125 2.15625 
Q 8.546875 9.375 7.46875 17.578125 
Q 6.9375 21.828125 6.9375 25.6875 
Q 6.9375 40.140625 11.46875 51.421875 
Q 14.359375 58.59375 23.484375 72.90625 
z
" id="Helvetica-28"/>
      <path d="M 6.453125 52.296875 
L 14.796875 52.296875 
L 14.796875 44.875 
Q 18.5 49.46875 22.65625 51.46875 
Q 26.8125 53.46875 31.890625 53.46875 
Q 43.015625 53.46875 46.921875 45.703125 
Q 49.078125 41.453125 49.078125 33.546875 
L 49.078125 0 
L 40.140625 0 
L 40.140625 32.953125 
Q 40.140625 37.75 38.71875 40.671875 
Q 36.375 45.5625 30.21875 45.5625 
Q 27.09375 45.5625 25.09375 44.921875 
Q 21.484375 43.84375 18.75 40.625 
Q 16.546875 38.03125 15.890625 35.265625 
Q 15.234375 32.515625 15.234375 27.390625 
L 15.234375 0 
L 6.453125 0 
z
M 27.09375 53.5625 
z
" id="Helvetica-6e"/>
      <path d="M 44.4375 29.390625 
L 33.546875 61.078125 
L 21.96875 29.390625 
z
M 28.46875 71.734375 
L 39.453125 71.734375 
L 65.484375 0 
L 54.828125 0 
L 47.5625 21.484375 
L 19.1875 21.484375 
L 11.421875 0 
L 1.46875 0 
z
M 33.5 71.734375 
z
" id="Helvetica-41"/>
      <path d="M 35.15625 8.296875 
Q 40.09375 8.296875 43.265625 9.328125 
Q 48.921875 11.234375 52.546875 16.65625 
Q 55.421875 21 56.6875 27.78125 
Q 57.421875 31.84375 57.421875 35.296875 
Q 57.421875 48.640625 52.125 56 
Q 46.828125 63.375 35.0625 63.375 
L 17.828125 63.375 
L 17.828125 8.296875 
z
M 8.0625 71.734375 
L 37.109375 71.734375 
Q 51.90625 71.734375 60.0625 61.234375 
Q 67.328125 51.765625 67.328125 36.96875 
Q 67.328125 25.53125 63.03125 16.3125 
Q 55.46875 0 37.015625 0 
L 8.0625 0 
z
" id="Helvetica-44"/>
      <path d="M 37.84375 73.6875 
Q 51.46875 73.6875 58.984375 66.5 
Q 66.5 59.328125 67.328125 50.203125 
L 57.859375 50.203125 
Q 56.25 57.125 51.4375 61.171875 
Q 46.625 65.234375 37.9375 65.234375 
Q 27.34375 65.234375 20.828125 57.78125 
Q 14.3125 50.34375 14.3125 34.96875 
Q 14.3125 22.359375 20.1875 14.515625 
Q 26.078125 6.6875 37.75 6.6875 
Q 48.484375 6.6875 54.109375 14.9375 
Q 57.078125 19.28125 58.546875 26.375 
L 68.015625 26.375 
Q 66.75 15.046875 59.625 7.375 
Q 51.078125 -1.859375 36.578125 -1.859375 
Q 24.078125 -1.859375 15.578125 5.71875 
Q 4.390625 15.71875 4.390625 36.625 
Q 4.390625 52.484375 12.796875 62.640625 
Q 21.875 73.6875 37.84375 73.6875 
z
M 35.890625 73.6875 
z
" id="Helvetica-43"/>
      <path d="M 3.46875 -20.40625 
Q 11.234375 -5.28125 13.484375 1.65625 
Q 16.890625 12.15625 16.890625 26.265625 
Q 16.890625 40.375 12.9375 52.09375 
Q 10.5 59.328125 3.328125 72.90625 
L 9.234375 72.90625 
Q 16.75 60.890625 18.328125 58.078125 
Q 19.921875 55.28125 21.78125 50.34375 
Q 24.125 44.234375 25.125 38.28125 
Q 26.125 32.328125 26.125 26.8125 
Q 26.125 12.359375 21.53125 1.03125 
Q 18.65625 -6.25 9.578125 -20.40625 
z
" id="Helvetica-29"/>
     </defs>
     <g style="fill:#ffffff;" transform="translate(115.57 234.0925)scale(0.2 -0.2)">
      <use transform="translate(0 0.3125)" xlink:href="#Helvetica-49"/>
      <use transform="translate(28.698398 -15.376563)scale(0.7)" xlink:href="#Helvetica-68"/>
      <use transform="translate(67.629062 -15.376563)scale(0.7)" xlink:href="#Helvetica-65"/>
      <use transform="translate(106.559727 -15.376563)scale(0.7)" xlink:href="#Helvetica-61"/>
      <use transform="translate(145.490391 -15.376563)scale(0.7)" xlink:href="#Helvetica-74"/>
      <use transform="translate(167.553477 0.3125)" xlink:href="#Helvetica-20"/>
      <use transform="translate(195.33668 0.3125)" xlink:href="#Helvetica-28"/>
      <use transform="translate(228.637461 0.3125)" xlink:href="#Helvetica-6e"/>
      <use transform="translate(284.252695 0.3125)" xlink:href="#Helvetica-41"/>
      <use transform="translate(350.951914 0.3125)" xlink:href="#Helvetica-20"/>
      <use transform="translate(378.735117 0.3125)" xlink:href="#Helvetica-44"/>
      <use transform="translate(450.951914 0.3125)" xlink:href="#Helvetica-43"/>
      <use transform="translate(523.168711 0.3125)" xlink:href="#Helvetica-29"/>
     </g>
    </g>
   </g>
   <g id="matplotlib.axis_2">
    <g id="ytick_1">
     <g id="line2d_11">
      <defs>
       <path d="M 0 0 
L 5 0 
" id="mde4c3c8bdb" style="stroke:#ffffff;stroke-width:1.2;"/>
      </defs>
      <g>
       <use style="fill:#ffffff;stroke:#ffffff;stroke-width:1.2;" x="53.74" xlink:href="#mde4c3c8bdb" y="175.543368"/>
      </g>
     </g>
     <g id="text_7">
      <!-- 0.2 -->
      <defs>
       <path d="M 8.546875 10.640625 
L 18.75 10.640625 
L 18.75 0 
L 8.546875 0 
z
" id="Helvetica-2e"/>
      </defs>
      <g style="fill:#ffffff;" transform="translate(28 181.282118)scale(0.16 -0.16)">
       <use xlink:href="#Helvetica-30"/>
       <use x="55.615234" xlink:href="#Helvetica-2e"/>
       <use x="83.398438" xlink:href="#Helvetica-32"/>
      </g>
     </g>
    </g>
    <g id="ytick_2">
     <g id="line2d_12">
      <g>
       <use style="fill:#ffffff;stroke:#ffffff;stroke-width:1.2;" x="53.74" xlink:href="#mde4c3c8bdb" y="118.665385"/>
      </g>
     </g>
     <g id="text_8">
      <!-- 0.3 -->
      <defs>
       <path d="M 25.984375 -1.90625 
Q 13.578125 -1.90625 7.984375 4.90625 
Q 2.390625 11.71875 2.390625 21.484375 
L 11.578125 21.484375 
Q 12.15625 14.703125 14.109375 11.625 
Q 17.53125 6.109375 26.46875 6.109375 
Q 33.40625 6.109375 37.59375 9.8125 
Q 41.796875 13.53125 41.796875 19.390625 
Q 41.796875 26.609375 37.375 29.484375 
Q 32.953125 32.375 25.09375 32.375 
Q 24.21875 32.375 23.3125 32.34375 
Q 22.40625 32.328125 21.484375 32.28125 
L 21.484375 40.046875 
Q 22.859375 39.890625 23.78125 39.84375 
Q 24.703125 39.796875 25.78125 39.796875 
Q 30.71875 39.796875 33.890625 41.359375 
Q 39.453125 44.09375 39.453125 51.125 
Q 39.453125 56.34375 35.734375 59.171875 
Q 32.03125 62.015625 27.09375 62.015625 
Q 18.3125 62.015625 14.9375 56.15625 
Q 13.09375 52.9375 12.84375 46.96875 
L 4.15625 46.96875 
Q 4.15625 54.78125 7.28125 60.25 
Q 12.640625 70.015625 26.171875 70.015625 
Q 36.859375 70.015625 42.71875 65.25 
Q 48.578125 60.5 48.578125 51.46875 
Q 48.578125 45.015625 45.125 41.015625 
Q 42.96875 38.53125 39.546875 37.109375 
Q 45.0625 35.59375 48.15625 31.265625 
Q 51.265625 26.953125 51.265625 20.703125 
Q 51.265625 10.6875 44.671875 4.390625 
Q 38.09375 -1.90625 25.984375 -1.90625 
z
" id="Helvetica-33"/>
      </defs>
      <g style="fill:#ffffff;" transform="translate(28 124.404135)scale(0.16 -0.16)">
       <use xlink:href="#Helvetica-30"/>
       <use x="55.615234" xlink:href="#Helvetica-2e"/>
       <use x="83.398438" xlink:href="#Helvetica-33"/>
      </g>
     </g>
    </g>
    <g id="ytick_3">
     <g id="line2d_13">
      <g>
       <use style="fill:#ffffff;stroke:#ffffff;stroke-width:1.2;" x="53.74" xlink:href="#mde4c3c8bdb" y="61.787403"/>
      </g>
     </g>
     <g id="text_9">
      <!-- 0.4 -->
      <defs>
       <path d="M 33.0625 24.75 
L 33.0625 56.453125 
L 10.640625 24.75 
z
M 33.203125 0 
L 33.203125 17.09375 
L 2.546875 17.09375 
L 2.546875 25.6875 
L 34.578125 70.125 
L 42 70.125 
L 42 24.75 
L 52.296875 24.75 
L 52.296875 17.09375 
L 42 17.09375 
L 42 0 
z
" id="Helvetica-34"/>
      </defs>
      <g style="fill:#ffffff;" transform="translate(28 67.526153)scale(0.16 -0.16)">
       <use xlink:href="#Helvetica-30"/>
       <use x="55.615234" xlink:href="#Helvetica-2e"/>
       <use x="83.398438" xlink:href="#Helvetica-34"/>
      </g>
     </g>
    </g>
    <g id="text_10">
     <!-- $k_B T / \alpha$ (mV) -->
     <defs>
      <path d="M 6.25 71.734375 
L 14.703125 71.734375 
L 14.703125 30.078125 
L 37.25 52.296875 
L 48.484375 52.296875 
L 28.46875 32.71875 
L 49.609375 0 
L 38.375 0 
L 22.078125 26.375 
L 14.703125 19.625 
L 14.703125 0 
L 6.25 0 
z
" id="Helvetica-6b"/>
      <path d="M 34.578125 41.40625 
Q 40.71875 41.40625 44.140625 43.109375 
Q 49.515625 45.796875 49.515625 52.78125 
Q 49.515625 59.8125 43.796875 62.25 
Q 40.578125 63.625 34.234375 63.625 
L 16.890625 63.625 
L 16.890625 41.40625 
z
M 37.84375 8.296875 
Q 46.78125 8.296875 50.59375 13.484375 
Q 52.984375 16.75 52.984375 21.390625 
Q 52.984375 29.203125 46 32.03125 
Q 42.28125 33.546875 36.1875 33.546875 
L 16.890625 33.546875 
L 16.890625 8.296875 
z
M 7.375 71.734375 
L 38.1875 71.734375 
Q 50.78125 71.734375 56.109375 64.203125 
Q 59.234375 59.765625 59.234375 53.953125 
Q 59.234375 47.171875 55.375 42.828125 
Q 53.375 40.53125 49.609375 38.625 
Q 55.125 36.53125 57.859375 33.890625 
Q 62.703125 29.203125 62.703125 20.953125 
Q 62.703125 14.015625 58.34375 8.40625 
Q 51.859375 0 37.703125 0 
L 7.375 0 
z
" id="Helvetica-42"/>
      <path d="M 59.8125 71.734375 
L 59.8125 63.1875 
L 35.640625 63.1875 
L 35.640625 0 
L 25.78125 0 
L 25.78125 63.1875 
L 1.609375 63.1875 
L 1.609375 71.734375 
z
" id="Helvetica-54"/>
      <path d="M 22.75 71.734375 
L 30.171875 71.734375 
L 7.421875 0 
L 0 0 
z
" id="Helvetica-2f"/>
      <path d="M 52.296875 10.984375 
Q 52.09375 6.6875 55.078125 6.78125 
Q 56.890625 6.78125 57.8125 7.421875 
L 57.8125 -0.296875 
Q 56.6875 -0.6875 54.890625 -0.78125 
Q 52.984375 -0.984375 51.703125 -0.984375 
Q 48.1875 -0.875 46.1875 1.609375 
Q 44 4 44 7.421875 
L 43.796875 7.421875 
Q 37.703125 -0.984375 27.09375 -0.984375 
Q 15.71875 -0.78125 10.109375 7.171875 
Q 4.390625 14.890625 4.390625 25.6875 
Q 4.390625 36.71875 9.90625 44.671875 
Q 15.375 52.78125 27.203125 52.984375 
Q 37.703125 52.984375 43.703125 44.484375 
L 43.890625 44.484375 
L 43.890625 52 
L 52.296875 52 
z
M 28.515625 6.203125 
Q 32.421875 6.203125 35.203125 8.015625 
Q 37.890625 9.71875 39.703125 12.59375 
Q 43.21875 18.5 43.21875 25.59375 
Q 43.21875 33.5 39.984375 39.5 
Q 36.71875 45.609375 28.078125 45.796875 
Q 20.40625 45.609375 16.890625 39.59375 
Q 13.375 33.6875 13.375 26.515625 
Q 13.375 18.890625 16.890625 12.796875 
Q 20.40625 6.390625 28.515625 6.203125 
z
" id="Helvetica-3b1"/>
      <path d="M 6.453125 52.296875 
L 15.140625 52.296875 
L 15.140625 44.875 
Q 18.265625 48.734375 20.796875 50.484375 
Q 25.140625 53.46875 30.671875 53.46875 
Q 36.921875 53.46875 40.71875 50.390625 
Q 42.875 48.640625 44.625 45.21875 
Q 47.5625 49.421875 51.515625 51.4375 
Q 55.46875 53.46875 60.40625 53.46875 
Q 70.953125 53.46875 74.75 45.84375 
Q 76.8125 41.75 76.8125 34.8125 
L 76.8125 0 
L 67.671875 0 
L 67.671875 36.328125 
Q 67.671875 41.546875 65.0625 43.5 
Q 62.453125 45.453125 58.6875 45.453125 
Q 53.515625 45.453125 49.78125 41.984375 
Q 46.046875 38.53125 46.046875 30.421875 
L 46.046875 0 
L 37.109375 0 
L 37.109375 34.125 
Q 37.109375 39.453125 35.84375 41.890625 
Q 33.84375 45.5625 28.375 45.5625 
Q 23.390625 45.5625 19.3125 41.703125 
Q 15.234375 37.84375 15.234375 27.734375 
L 15.234375 0 
L 6.453125 0 
z
" id="Helvetica-6d"/>
      <path d="M 13.28125 71.734375 
L 33.890625 10.640625 
L 54.25 71.734375 
L 65.140625 71.734375 
L 38.96875 0 
L 28.65625 0 
L 2.546875 71.734375 
z
" id="Helvetica-56"/>
     </defs>
     <g style="fill:#ffffff;" transform="translate(21.8 152.59)rotate(-90)scale(0.2 -0.2)">
      <use transform="translate(0 0.09375)" xlink:href="#Helvetica-6b"/>
      <use transform="translate(50.915195 -15.595313)scale(0.7)" xlink:href="#Helvetica-42"/>
      <use transform="translate(100.219492 0.09375)" xlink:href="#Helvetica-54"/>
      <use transform="translate(161.303477 0.09375)" xlink:href="#Helvetica-2f"/>
      <use transform="translate(189.08668 0.09375)" xlink:href="#Helvetica-3b1"/>
      <use transform="translate(250.170664 0.09375)" xlink:href="#Helvetica-20"/>
      <use transform="translate(277.953867 0.09375)" xlink:href="#Helvetica-28"/>
      <use transform="translate(311.254648 0.09375)" xlink:href="#Helvetica-6d"/>
      <use transform="translate(394.55543 0.09375)" xlink:href="#Helvetica-56"/>
      <use transform="translate(461.254648 0.09375)" xlink:href="#Helvetica-29"/>
     </g>
    </g>
   </g>
   <g id="PathCollection_1">
    <defs>
     <path d="M 0 2.738613 
C 0.726289 2.738613 1.422928 2.450055 1.936492 1.936492 
C 2.450055 1.422928 2.738613 0.726289 2.738613 0 
C 2.738613 -0.726289 2.450055 -1.422928 1.936492 -1.936492 
C 1.422928 -2.450055 0.726289 -2.738613 0 -2.738613 
C -0.726289 -2.738613 -1.422928 -2.450055 -1.936492 -1.936492 
C -2.450055 -1.422928 -2.738613 -0.726289 -2.738613 0 
C -2.738613 0.726289 -2.450055 1.422928 -1.936492 1.936492 
C -1.422928 2.450055 -0.726289 2.738613 0 2.738613 
z
" id="m79a70c8295"/>
    </defs>
    <g clip-path="url(#p1751c766d8)">
     <use style="fill:#808080;fill-opacity:0.75;" x="53.74" xlink:href="#m79a70c8295" y="24.277294"/>
     <use style="fill:#808080;fill-opacity:0.75;" x="59.6165" xlink:href="#m79a70c8295" y="21.346578"/>
     <use style="fill:#808080;fill-opacity:0.75;" x="65.493" xlink:href="#m79a70c8295" y="46.248975"/>
     <use style="fill:#808080;fill-opacity:0.75;" x="71.3695" xlink:href="#m79a70c8295" y="51.737997"/>
     <use style="fill:#808080;fill-opacity:0.75;" x="77.246" xlink:href="#m79a70c8295" y="61.251726"/>
     <use style="fill:#808080;fill-opacity:0.75;" x="83.1225" xlink:href="#m79a70c8295" y="74.556577"/>
     <use style="fill:#808080;fill-opacity:0.75;" x="88.999" xlink:href="#m79a70c8295" y="91.617945"/>
     <use style="fill:#808080;fill-opacity:0.75;" x="94.8755" xlink:href="#m79a70c8295" y="84.299868"/>
     <use style="fill:#808080;fill-opacity:0.75;" x="100.752" xlink:href="#m79a70c8295" y="89.025248"/>
     <use style="fill:#808080;fill-opacity:0.75;" x="106.6285" xlink:href="#m79a70c8295" y="115.041812"/>
     <use style="fill:#808080;fill-opacity:0.75;" x="112.505" xlink:href="#m79a70c8295" y="123.197263"/>
     <use style="fill:#808080;fill-opacity:0.75;" x="118.3815" xlink:href="#m79a70c8295" y="130.035792"/>
     <use style="fill:#808080;fill-opacity:0.75;" x="124.258" xlink:href="#m79a70c8295" y="141.136675"/>
     <use style="fill:#808080;fill-opacity:0.75;" x="130.1345" xlink:href="#m79a70c8295" y="139.694556"/>
     <use style="fill:#808080;fill-opacity:0.75;" x="136.011" xlink:href="#m79a70c8295" y="155.989965"/>
     <use style="fill:#808080;fill-opacity:0.75;" x="141.8875" xlink:href="#m79a70c8295" y="150.515344"/>
     <use style="fill:#808080;fill-opacity:0.75;" x="147.764" xlink:href="#m79a70c8295" y="159.779217"/>
     <use style="fill:#808080;fill-opacity:0.75;" x="153.6405" xlink:href="#m79a70c8295" y="166.091243"/>
     <use style="fill:#808080;fill-opacity:0.75;" x="159.517" xlink:href="#m79a70c8295" y="173.392129"/>
     <use style="fill:#808080;fill-opacity:0.75;" x="165.3935" xlink:href="#m79a70c8295" y="184.833422"/>
     <use style="fill:#808080;fill-opacity:0.75;" x="171.27" xlink:href="#m79a70c8295" y="179.638829"/>
     <use style="fill:#808080;fill-opacity:0.75;" x="177.1465" xlink:href="#m79a70c8295" y="159.40201"/>
     <use style="fill:#808080;fill-opacity:0.75;" x="183.023" xlink:href="#m79a70c8295" y="175.16645"/>
     <use style="fill:#808080;fill-opacity:0.75;" x="188.8995" xlink:href="#m79a70c8295" y="158.590536"/>
     <use style="fill:#808080;fill-opacity:0.75;" x="194.776" xlink:href="#m79a70c8295" y="161.818189"/>
     <use style="fill:#808080;fill-opacity:0.75;" x="200.6525" xlink:href="#m79a70c8295" y="158.910594"/>
     <use style="fill:#808080;fill-opacity:0.75;" x="206.529" xlink:href="#m79a70c8295" y="148.723256"/>
     <use style="fill:#808080;fill-opacity:0.75;" x="212.4055" xlink:href="#m79a70c8295" y="149.370637"/>
     <use style="fill:#808080;fill-opacity:0.75;" x="218.282" xlink:href="#m79a70c8295" y="117.964704"/>
     <use style="fill:#808080;fill-opacity:0.75;" x="224.1585" xlink:href="#m79a70c8295" y="105.12824"/>
     <use style="fill:#808080;fill-opacity:0.75;" x="230.035" xlink:href="#m79a70c8295" y="121.564326"/>
     <use style="fill:#808080;fill-opacity:0.75;" x="235.9115" xlink:href="#m79a70c8295" y="113.848586"/>
     <use style="fill:#808080;fill-opacity:0.75;" x="241.788" xlink:href="#m79a70c8295" y="109.941085"/>
     <use style="fill:#808080;fill-opacity:0.75;" x="247.6645" xlink:href="#m79a70c8295" y="107.294204"/>
     <use style="fill:#808080;fill-opacity:0.75;" x="253.541" xlink:href="#m79a70c8295" y="87.105497"/>
     <use style="fill:#808080;fill-opacity:0.75;" x="259.4175" xlink:href="#m79a70c8295" y="86.875757"/>
     <use style="fill:#808080;fill-opacity:0.75;" x="265.294" xlink:href="#m79a70c8295" y="68.492151"/>
     <use style="fill:#808080;fill-opacity:0.75;" x="271.1705" xlink:href="#m79a70c8295" y="64.421203"/>
     <use style="fill:#808080;fill-opacity:0.75;" x="277.047" xlink:href="#m79a70c8295" y="61.734268"/>
     <use style="fill:#808080;fill-opacity:0.75;" x="282.9235" xlink:href="#m79a70c8295" y="41.471405"/>
     <use style="fill:#808080;fill-opacity:0.75;" x="288.8" xlink:href="#m79a70c8295" y="48.00783"/>
    </g>
   </g>
   <g id="line2d_14">
    <path clip-path="url(#p1751c766d8)" d="M 53.74 22.400929 
L 59.6165 33.275967 
L 65.493 44.031943 
L 71.3695 54.743564 
L 77.246 65.30482 
L 83.1225 75.541085 
L 88.999 85.468621 
L 94.8755 95.091944 
L 100.752 104.28253 
L 106.6285 113.270365 
L 112.505 121.883685 
L 118.3815 129.89747 
L 124.258 137.443611 
L 130.1345 144.487621 
L 136.011 150.877373 
L 141.8875 156.498758 
L 147.764 161.275266 
L 153.6405 165.163615 
L 159.517 168.074855 
L 165.3935 169.86875 
L 171.27 170.464651 
L 177.1465 169.879678 
L 183.023 168.083466 
L 188.8995 165.139049 
L 194.776 161.158218 
L 200.6525 156.275369 
L 206.529 150.518491 
L 212.4055 144.136981 
L 218.282 137.058394 
L 224.1585 129.397644 
L 230.035 121.241371 
L 235.9115 112.582344 
L 241.788 103.547717 
L 247.6645 94.179943 
L 253.541 84.560738 
L 259.4175 74.762959 
L 265.294 64.738215 
L 271.1705 54.535552 
L 277.047 44.109829 
L 282.9235 33.526859 
L 288.8 22.804318 
" style="fill:none;stroke:#fa8174;stroke-linecap:square;stroke-width:2;"/>
   </g>
   <g id="patch_3">
    <path d="M 53.74 198.98 
L 53.74 7.2 
" style="fill:none;stroke:#ffffff;stroke-linecap:square;stroke-linejoin:miter;stroke-width:1.2;"/>
   </g>
   <g id="patch_4">
    <path d="M 288.8 198.98 
L 288.8 7.2 
" style="fill:none;stroke:#ffffff;stroke-linecap:square;stroke-linejoin:miter;stroke-width:1.2;"/>
   </g>
   <g id="patch_5">
    <path d="M 53.74 198.98 
L 288.8 198.98 
" style="fill:none;stroke:#ffffff;stroke-linecap:square;stroke-linejoin:miter;stroke-width:1.2;"/>
   </g>
   <g id="patch_6">
    <path d="M 53.74 7.2 
L 288.8 7.2 
" style="fill:none;stroke:#ffffff;stroke-linecap:square;stroke-linejoin:miter;stroke-width:1.2;"/>
   </g>
   <g id="text_11">
    <!-- $T = a \sqrt{T^2_{MC} + b I_{heat}^2 R}$ -->
    <defs>
     <path d="M 55.421875 40.140625 
L 55.421875 31.9375 
L 4.5 31.9375 
L 4.5 40.140625 
z
M 55.421875 19.1875 
L 55.421875 10.84375 
L 4.5 10.84375 
L 4.5 19.1875 
z
" id="Helvetica-3d"/>
     <path d="M 42.390625 -175.984375 
L 19.671875 -96.6875 
L 12.796875 -104.6875 
L 10.984375 -102.78125 
L 25.296875 -85.984375 
L 46.578125 -160.40625 
L 98.1875 2.78125 
Q 98.53125 4 100 4 
Q 100.828125 4 101.40625 3.40625 
Q 102 2.828125 102 2 
L 102 1.609375 
L 46.296875 -174.8125 
Q 45.703125 -175.984375 44.578125 -175.984375 
z
" id="Cmex10-71"/>
     <path d="M 7.375 71.734375 
L 21.296875 71.734375 
L 41.890625 11.078125 
L 62.359375 71.734375 
L 76.125 71.734375 
L 76.125 0 
L 66.890625 0 
L 66.890625 42.328125 
Q 66.890625 44.53125 66.984375 49.609375 
Q 67.09375 54.6875 67.09375 60.5 
L 46.625 0 
L 37.015625 0 
L 16.40625 60.5 
L 16.40625 58.296875 
Q 16.40625 55.671875 16.53125 50.265625 
Q 16.65625 44.875 16.65625 42.328125 
L 16.65625 0 
L 7.375 0 
z
" id="Helvetica-4d"/>
     <path d="M 4.5 21.390625 
L 4.5 29.59375 
L 25.78125 29.59375 
L 25.78125 51.03125 
L 34.125 51.03125 
L 34.125 29.59375 
L 55.421875 29.59375 
L 55.421875 21.390625 
L 34.125 21.390625 
L 34.125 0 
L 25.78125 0 
L 25.78125 21.390625 
z
" id="Helvetica-2b"/>
     <path d="M 5.765625 71.96875 
L 14.3125 71.96875 
L 14.3125 45.953125 
Q 17.1875 49.703125 21.1875 51.671875 
Q 25.203125 53.65625 29.890625 53.65625 
Q 39.65625 53.65625 45.734375 46.9375 
Q 51.8125 40.234375 51.8125 27.15625 
Q 51.8125 14.75 45.796875 6.546875 
Q 39.796875 -1.65625 29.15625 -1.65625 
Q 23.1875 -1.65625 19.09375 1.21875 
Q 16.65625 2.9375 13.875 6.6875 
L 13.875 0 
L 5.765625 0 
z
M 28.609375 6.109375 
Q 35.75 6.109375 39.28125 11.765625 
Q 42.828125 17.4375 42.828125 26.703125 
Q 42.828125 34.96875 39.28125 40.375 
Q 35.75 45.796875 28.859375 45.796875 
Q 22.859375 45.796875 18.328125 41.359375 
Q 13.8125 36.921875 13.8125 26.703125 
Q 13.8125 19.34375 15.671875 14.75 
Q 19.140625 6.109375 28.609375 6.109375 
z
" id="Helvetica-62"/>
     <path d="M 40.96875 38.875 
Q 47.796875 38.875 51.78125 41.609375 
Q 55.765625 44.34375 55.765625 51.46875 
Q 55.765625 59.125 50.203125 61.921875 
Q 47.21875 63.375 42.234375 63.375 
L 18.5 63.375 
L 18.5 38.875 
z
M 8.796875 71.734375 
L 42 71.734375 
Q 50.203125 71.734375 55.515625 69.34375 
Q 65.625 64.75 65.625 52.390625 
Q 65.625 45.953125 62.953125 41.84375 
Q 60.296875 37.75 55.515625 35.25 
Q 59.71875 33.546875 61.84375 30.765625 
Q 63.96875 27.984375 64.203125 21.734375 
L 64.546875 12.109375 
Q 64.703125 8.015625 65.234375 6 
Q 66.109375 2.59375 68.359375 1.609375 
L 68.359375 0 
L 56.453125 0 
Q 55.953125 0.921875 55.65625 2.390625 
Q 55.375 3.859375 55.171875 8.0625 
L 54.59375 20.015625 
Q 54.25 27.046875 49.359375 29.4375 
Q 46.578125 30.765625 40.625 30.765625 
L 18.5 30.765625 
L 18.5 0 
L 8.796875 0 
z
" id="Helvetica-52"/>
    </defs>
    <g style="fill:#ffffff;" transform="translate(88.999 45.556)scale(0.18 -0.18)">
     <use transform="translate(0 0.73125)" xlink:href="#Helvetica-54"/>
     <use transform="translate(77.744141 0.73125)" xlink:href="#Helvetica-3d"/>
     <use transform="translate(152.802734 0.73125)" xlink:href="#Helvetica-61"/>
     <use transform="translate(208.417969 115.765625)scale(0.80981)" xlink:href="#Cmex10-71"/>
     <use transform="translate(301.886719 0.696875)" xlink:href="#Helvetica-54"/>
     <use transform="translate(363.885898 38.629688)scale(0.7)" xlink:href="#Helvetica-32"/>
     <use transform="translate(363.885898 -25.451562)scale(0.7)" xlink:href="#Helvetica-4d"/>
     <use transform="translate(422.196445 -25.451562)scale(0.7)" xlink:href="#Helvetica-43"/>
     <use transform="translate(492.023203 0.696875)" xlink:href="#Helvetica-2b"/>
     <use transform="translate(567.081797 0.696875)" xlink:href="#Helvetica-62"/>
     <use transform="translate(622.697031 0.696875)" xlink:href="#Helvetica-49"/>
     <use transform="translate(651.39543 37.426563)scale(0.7)" xlink:href="#Helvetica-32"/>
     <use transform="translate(651.39543 -25.451562)scale(0.7)" xlink:href="#Helvetica-68"/>
     <use transform="translate(690.326094 -25.451562)scale(0.7)" xlink:href="#Helvetica-65"/>
     <use transform="translate(729.256758 -25.451562)scale(0.7)" xlink:href="#Helvetica-61"/>
     <use transform="translate(768.187422 -25.451562)scale(0.7)" xlink:href="#Helvetica-74"/>
     <use transform="translate(790.250508 0.696875)" xlink:href="#Helvetica-52"/>
     <path d="M 289.386719 112.5 
L 289.386719 118.75 
L 874.967305 118.75 
L 874.967305 112.5 
L 289.386719 112.5 
z
"/>
    </g>
   </g>
  </g>
  <g id="axes_2">
   <g id="matplotlib.axis_3">
    <g id="ytick_4">
     <g id="line2d_15">
      <defs>
       <path d="M 0 0 
L -5 0 
" id="m4fba96d811" style="stroke:#ffffff;stroke-width:1.2;"/>
      </defs>
      <g>
       <use style="fill:#ffffff;stroke:#ffffff;stroke-width:1.2;" x="288.8" xlink:href="#m4fba96d811" y="184.792646"/>
      </g>
     </g>
     <g id="text_12">
      <!-- 100 -->
      <g style="fill:#ffffff;" transform="translate(292.3 190.531396)scale(0.16 -0.16)">
       <use xlink:href="#Helvetica-31"/>
       <use x="55.615234" xlink:href="#Helvetica-30"/>
       <use x="111.230469" xlink:href="#Helvetica-30"/>
      </g>
     </g>
    </g>
    <g id="ytick_5">
     <g id="line2d_16">
      <g>
       <use style="fill:#ffffff;stroke:#ffffff;stroke-width:1.2;" x="288.8" xlink:href="#m4fba96d811" y="132.539302"/>
      </g>
     </g>
     <g id="text_13">
      <!-- 150 -->
      <defs>
       <path d="M 12.359375 17.828125 
Q 13.234375 10.296875 19.34375 7.421875 
Q 22.46875 5.953125 26.5625 5.953125 
Q 34.375 5.953125 38.125 10.9375 
Q 41.890625 15.921875 41.890625 21.96875 
Q 41.890625 29.296875 37.421875 33.296875 
Q 32.953125 37.3125 26.703125 37.3125 
Q 22.171875 37.3125 18.921875 35.546875 
Q 15.671875 33.796875 13.375 30.671875 
L 5.765625 31.109375 
L 11.078125 68.75 
L 47.40625 68.75 
L 47.40625 60.25 
L 17.671875 60.25 
L 14.703125 40.828125 
Q 17.140625 42.671875 19.34375 43.609375 
Q 23.25 45.21875 28.375 45.21875 
Q 37.984375 45.21875 44.671875 39.015625 
Q 51.375 32.8125 51.375 23.296875 
Q 51.375 13.375 45.234375 5.796875 
Q 39.109375 -1.765625 25.6875 -1.765625 
Q 17.140625 -1.765625 10.5625 3.046875 
Q 4 7.859375 3.21875 17.828125 
z
" id="Helvetica-35"/>
      </defs>
      <g style="fill:#ffffff;" transform="translate(292.3 138.278052)scale(0.16 -0.16)">
       <use xlink:href="#Helvetica-31"/>
       <use x="55.615234" xlink:href="#Helvetica-35"/>
       <use x="111.230469" xlink:href="#Helvetica-30"/>
      </g>
     </g>
    </g>
    <g id="ytick_6">
     <g id="line2d_17">
      <g>
       <use style="fill:#ffffff;stroke:#ffffff;stroke-width:1.2;" x="288.8" xlink:href="#m4fba96d811" y="80.285959"/>
      </g>
     </g>
     <g id="text_14">
      <!-- 200 -->
      <g style="fill:#ffffff;" transform="translate(292.3 86.024709)scale(0.16 -0.16)">
       <use xlink:href="#Helvetica-32"/>
       <use x="55.615234" xlink:href="#Helvetica-30"/>
       <use x="111.230469" xlink:href="#Helvetica-30"/>
      </g>
     </g>
    </g>
    <g id="ytick_7">
     <g id="line2d_18">
      <g>
       <use style="fill:#ffffff;stroke:#ffffff;stroke-width:1.2;" x="288.8" xlink:href="#m4fba96d811" y="28.032615"/>
      </g>
     </g>
     <g id="text_15">
      <!-- 250 -->
      <g style="fill:#ffffff;" transform="translate(292.3 33.771365)scale(0.16 -0.16)">
       <use xlink:href="#Helvetica-32"/>
       <use x="55.615234" xlink:href="#Helvetica-35"/>
       <use x="111.230469" xlink:href="#Helvetica-30"/>
      </g>
     </g>
    </g>
    <g id="text_16">
     <!-- T (mK) -->
     <defs>
      <path d="M 7.625 71.734375 
L 17.09375 71.734375 
L 17.09375 36.765625 
L 52.046875 71.734375 
L 65.484375 71.734375 
L 35.640625 42.828125 
L 66.3125 0 
L 53.65625 0 
L 28.5625 35.984375 
L 17.09375 25 
L 17.09375 0 
L 7.625 0 
z
" id="Helvetica-4b"/>
     </defs>
     <g style="fill:#ffffff;" transform="translate(325.16125 72.544688)rotate(-270)scale(0.2 -0.2)">
      <use xlink:href="#Helvetica-54"/>
      <use x="61.083984" xlink:href="#Helvetica-20"/>
      <use x="88.867188" xlink:href="#Helvetica-28"/>
      <use x="122.167969" xlink:href="#Helvetica-6d"/>
      <use x="205.46875" xlink:href="#Helvetica-4b"/>
      <use x="272.167969" xlink:href="#Helvetica-29"/>
     </g>
    </g>
   </g>
   <g id="patch_7">
    <path d="M 53.74 198.98 
L 53.74 7.2 
" style="fill:none;stroke:#ffffff;stroke-linecap:square;stroke-linejoin:miter;stroke-width:1.2;"/>
   </g>
   <g id="patch_8">
    <path d="M 288.8 198.98 
L 288.8 7.2 
" style="fill:none;stroke:#ffffff;stroke-linecap:square;stroke-linejoin:miter;stroke-width:1.2;"/>
   </g>
   <g id="patch_9">
    <path d="M 53.74 198.98 
L 288.8 198.98 
" style="fill:none;stroke:#ffffff;stroke-linecap:square;stroke-linejoin:miter;stroke-width:1.2;"/>
   </g>
   <g id="patch_10">
    <path d="M 53.74 7.2 
L 288.8 7.2 
" style="fill:none;stroke:#ffffff;stroke-linecap:square;stroke-linejoin:miter;stroke-width:1.2;"/>
   </g>
  </g>
 </g>
 <defs>
  <clipPath id="p1751c766d8">
   <rect height="191.78" width="235.06" x="53.74" y="7.2"/>
  </clipPath>
 </defs>
</svg>
