<?xml version="1.0" encoding="utf-8" standalone="no"?>
<!DOCTYPE svg PUBLIC "-//W3C//DTD SVG 1.1//EN"
  "http://www.w3.org/Graphics/SVG/1.1/DTD/svg11.dtd">
<!-- Created with matplotlib (http://matplotlib.org/) -->
<svg height="247.618336pt" version="1.1" viewBox="0 0 349.819625 247.618336" width="349.819625pt" xmlns="http://www.w3.org/2000/svg" xmlns:xlink="http://www.w3.org/1999/xlink">
 <defs>
  <style type="text/css">
*{stroke-linecap:butt;stroke-linejoin:round;}
  </style>
 </defs>
 <g id="figure_1">
  <g id="patch_1">
   <path d="M -0 247.618336 
L 349.819625 247.618336 
L 349.819625 0 
L -0 0 
z
" style="fill:none;"/>
  </g>
  <g id="axes_1">
   <g id="patch_2">
    <path d="M 31.215625 199.844696 
L 337.619625 199.844696 
L 337.619625 7.2 
L 31.215625 7.2 
z
" style="fill:none;"/>
   </g>
   <g id="matplotlib.axis_1">
    <g id="xtick_1">
     <g id="line2d_1">
      <defs>
       <path d="M 0 0 
L 0 5 
" id="m0f1be10458" style="stroke:#ffffff;stroke-width:1.2;"/>
      </defs>
      <g>
       <use style="fill:#ffffff;stroke:#ffffff;stroke-width:1.2;" x="172.161465" xlink:href="#m0f1be10458" y="199.844696"/>
      </g>
     </g>
     <g id="text_1">
      <!-- V$_{mid}$ -->
      <defs>
       <path d="M 13.28125 71.734375 
L 33.890625 10.640625 
L 54.25 71.734375 
L 65.140625 71.734375 
L 38.96875 0 
L 28.65625 0 
L 2.546875 71.734375 
z
" id="Helvetica-56"/>
       <path d="M 6.453125 52.296875 
L 15.140625 52.296875 
L 15.140625 44.875 
Q 18.265625 48.734375 20.796875 50.484375 
Q 25.140625 53.46875 30.671875 53.46875 
Q 36.921875 53.46875 40.71875 50.390625 
Q 42.875 48.640625 44.625 45.21875 
Q 47.5625 49.421875 51.515625 51.4375 
Q 55.46875 53.46875 60.40625 53.46875 
Q 70.953125 53.46875 74.75 45.84375 
Q 76.8125 41.75 76.8125 34.8125 
L 76.8125 0 
L 67.671875 0 
L 67.671875 36.328125 
Q 67.671875 41.546875 65.0625 43.5 
Q 62.453125 45.453125 58.6875 45.453125 
Q 53.515625 45.453125 49.78125 41.984375 
Q 46.046875 38.53125 46.046875 30.421875 
L 46.046875 0 
L 37.109375 0 
L 37.109375 34.125 
Q 37.109375 39.453125 35.84375 41.890625 
Q 33.84375 45.5625 28.375 45.5625 
Q 23.390625 45.5625 19.3125 41.703125 
Q 15.234375 37.84375 15.234375 27.734375 
L 15.234375 0 
L 6.453125 0 
z
" id="Helvetica-6d"/>
       <path d="M 6.453125 52.046875 
L 15.375 52.046875 
L 15.375 0 
L 6.453125 0 
z
M 6.453125 71.734375 
L 15.375 71.734375 
L 15.375 61.765625 
L 6.453125 61.765625 
z
" id="Helvetica-69"/>
       <path d="M 12.015625 25.53125 
Q 12.015625 17.140625 15.578125 11.46875 
Q 19.140625 5.8125 27 5.8125 
Q 33.109375 5.8125 37.03125 11.0625 
Q 40.96875 16.3125 40.96875 26.125 
Q 40.96875 36.03125 36.90625 40.796875 
Q 32.859375 45.5625 26.90625 45.5625 
Q 20.265625 45.5625 16.140625 40.484375 
Q 12.015625 35.40625 12.015625 25.53125 
z
M 25.25 53.21875 
Q 31.25 53.21875 35.296875 50.6875 
Q 37.640625 49.21875 40.625 45.5625 
L 40.625 71.96875 
L 49.078125 71.96875 
L 49.078125 0 
L 41.15625 0 
L 41.15625 7.28125 
Q 38.09375 2.4375 33.890625 0.28125 
Q 29.6875 -1.859375 24.265625 -1.859375 
Q 15.53125 -1.859375 9.125 5.484375 
Q 2.734375 12.84375 2.734375 25.046875 
Q 2.734375 36.46875 8.5625 44.84375 
Q 14.40625 53.21875 25.25 53.21875 
z
" id="Helvetica-64"/>
      </defs>
      <g style="fill:#fa8174;" transform="translate(150.68304 238.274639)rotate(-50)scale(0.16 -0.16)">
       <use transform="translate(0 0.265625)" xlink:href="#Helvetica-56"/>
       <use transform="translate(67.614414 -15.423438)scale(0.7)" xlink:href="#Helvetica-6d"/>
       <use transform="translate(125.924961 -15.423438)scale(0.7)" xlink:href="#Helvetica-69"/>
       <use transform="translate(141.476719 -15.423438)scale(0.7)" xlink:href="#Helvetica-64"/>
      </g>
     </g>
    </g>
    <g id="xtick_2">
     <g id="line2d_2">
      <g>
       <use style="fill:#ffffff;stroke:#ffffff;stroke-width:1.2;" x="184.417625" xlink:href="#m0f1be10458" y="199.844696"/>
      </g>
     </g>
     <g id="text_2">
      <!-- V$_{mid}$ -->
      <g style="fill:#81b1d2;" transform="translate(178.07455 238.274639)rotate(-50)scale(0.16 -0.16)">
       <use transform="translate(0 0.265625)" xlink:href="#Helvetica-56"/>
       <use transform="translate(67.614414 -15.423438)scale(0.7)" xlink:href="#Helvetica-6d"/>
       <use transform="translate(125.924961 -15.423438)scale(0.7)" xlink:href="#Helvetica-69"/>
       <use transform="translate(141.476719 -15.423438)scale(0.7)" xlink:href="#Helvetica-64"/>
      </g>
     </g>
    </g>
    <g id="text_3">
     <!-- V$_{p}$ -->
     <defs>
      <path d="M 28.515625 5.90625 
Q 34.671875 5.90625 38.75 11.0625 
Q 42.828125 16.21875 42.828125 26.46875 
Q 42.828125 32.71875 41.015625 37.203125 
Q 37.59375 45.84375 28.515625 45.84375 
Q 19.390625 45.84375 16.015625 36.71875 
Q 14.203125 31.84375 14.203125 24.3125 
Q 14.203125 18.265625 16.015625 14.015625 
Q 19.4375 5.90625 28.515625 5.90625 
z
M 5.765625 52.046875 
L 14.3125 52.046875 
L 14.3125 45.125 
Q 16.9375 48.6875 20.0625 50.640625 
Q 24.515625 53.5625 30.515625 53.5625 
Q 39.40625 53.5625 45.609375 46.75 
Q 51.8125 39.9375 51.8125 27.296875 
Q 51.8125 10.203125 42.875 2.875 
Q 37.203125 -1.765625 29.6875 -1.765625 
Q 23.78125 -1.765625 19.78125 0.828125 
Q 17.4375 2.296875 14.546875 5.859375 
L 14.546875 -20.84375 
L 5.765625 -20.84375 
z
" id="Helvetica-70"/>
     </defs>
     <g style="fill:#ffffff;" transform="translate(311.299425 229.818336)scale(0.2 -0.2)">
      <use transform="translate(0 0.265625)" xlink:href="#Helvetica-56"/>
      <use transform="translate(67.614414 -15.423438)scale(0.7)" xlink:href="#Helvetica-70"/>
     </g>
    </g>
   </g>
   <g id="matplotlib.axis_2">
    <g id="ytick_1">
     <g id="line2d_3">
      <defs>
       <path d="M 0 0 
L 5 0 
" id="maa5a9352c0" style="stroke:#ffffff;stroke-width:1.2;"/>
      </defs>
      <g>
       <use style="fill:#ffffff;stroke:#ffffff;stroke-width:1.2;" x="31.215625" xlink:href="#maa5a9352c0" y="180.580226"/>
      </g>
     </g>
    </g>
    <g id="ytick_2">
     <g id="line2d_4">
      <g>
       <use style="fill:#ffffff;stroke:#ffffff;stroke-width:1.2;" x="31.215625" xlink:href="#maa5a9352c0" y="142.051287"/>
      </g>
     </g>
    </g>
    <g id="ytick_3">
     <g id="line2d_5">
      <g>
       <use style="fill:#ffffff;stroke:#ffffff;stroke-width:1.2;" x="31.215625" xlink:href="#maa5a9352c0" y="103.522348"/>
      </g>
     </g>
    </g>
    <g id="ytick_4">
     <g id="line2d_6">
      <g>
       <use style="fill:#ffffff;stroke:#ffffff;stroke-width:1.2;" x="31.215625" xlink:href="#maa5a9352c0" y="64.993409"/>
      </g>
     </g>
    </g>
    <g id="ytick_5">
     <g id="line2d_7">
      <g>
       <use style="fill:#ffffff;stroke:#ffffff;stroke-width:1.2;" x="31.215625" xlink:href="#maa5a9352c0" y="26.46447"/>
      </g>
     </g>
    </g>
    <g id="text_4">
     <!-- G$_{sens}$ -->
     <defs>
      <path d="M 38.625 73.578125 
Q 48.734375 73.578125 56.109375 69.671875 
Q 66.796875 64.0625 69.1875 50 
L 59.578125 50 
Q 57.8125 57.859375 52.296875 61.453125 
Q 46.78125 65.046875 38.375 65.046875 
Q 28.421875 65.046875 21.609375 57.5625 
Q 14.796875 50.09375 14.796875 35.296875 
Q 14.796875 22.515625 20.40625 14.484375 
Q 26.03125 6.453125 38.71875 6.453125 
Q 48.4375 6.453125 54.8125 12.078125 
Q 61.1875 17.71875 61.328125 30.328125 
L 38.875 30.328125 
L 38.875 38.375 
L 70.359375 38.375 
L 70.359375 0 
L 64.109375 0 
L 61.765625 9.234375 
Q 56.84375 3.8125 53.03125 1.703125 
Q 46.625 -1.90625 36.765625 -1.90625 
Q 24.03125 -1.90625 14.84375 6.34375 
Q 4.828125 16.703125 4.828125 34.765625 
Q 4.828125 52.78125 14.59375 63.421875 
Q 23.875 73.578125 38.625 73.578125 
z
M 37.015625 73.6875 
z
" id="Helvetica-47"/>
      <path d="M 11.671875 16.40625 
Q 12.0625 12.015625 13.875 9.671875 
Q 17.1875 5.421875 25.390625 5.421875 
Q 30.28125 5.421875 33.984375 7.546875 
Q 37.703125 9.671875 37.703125 14.109375 
Q 37.703125 17.484375 34.71875 19.234375 
Q 32.8125 20.3125 27.203125 21.734375 
L 20.21875 23.484375 
Q 13.53125 25.140625 10.359375 27.203125 
Q 4.6875 30.765625 4.6875 37.0625 
Q 4.6875 44.484375 10.03125 49.0625 
Q 15.375 53.65625 24.421875 53.65625 
Q 36.234375 53.65625 41.453125 46.734375 
Q 44.734375 42.328125 44.625 37.25 
L 36.328125 37.25 
Q 36.078125 40.234375 34.234375 42.671875 
Q 31.203125 46.140625 23.734375 46.140625 
Q 18.75 46.140625 16.1875 44.234375 
Q 13.625 42.328125 13.625 39.203125 
Q 13.625 35.796875 17 33.734375 
Q 18.953125 32.515625 22.75 31.59375 
L 28.5625 30.171875 
Q 38.03125 27.875 41.265625 25.734375 
Q 46.390625 22.359375 46.390625 15.140625 
Q 46.390625 8.15625 41.09375 3.078125 
Q 35.796875 -2 24.953125 -2 
Q 13.28125 -2 8.421875 3.296875 
Q 3.5625 8.59375 3.21875 16.40625 
z
M 24.65625 53.5625 
z
" id="Helvetica-73"/>
      <path d="M 28.21875 53.46875 
Q 33.796875 53.46875 39.015625 50.859375 
Q 44.234375 48.25 46.96875 44.09375 
Q 49.609375 40.140625 50.484375 34.859375 
Q 51.265625 31.25 51.265625 23.34375 
L 12.9375 23.34375 
Q 13.1875 15.375 16.703125 10.5625 
Q 20.21875 5.765625 27.59375 5.765625 
Q 34.46875 5.765625 38.578125 10.296875 
Q 40.921875 12.9375 41.890625 16.40625 
L 50.53125 16.40625 
Q 50.203125 13.53125 48.265625 9.984375 
Q 46.34375 6.453125 43.953125 4.203125 
Q 39.9375 0.296875 34.03125 -1.078125 
Q 30.859375 -1.859375 26.859375 -1.859375 
Q 17.09375 -1.859375 10.296875 5.25 
Q 3.515625 12.359375 3.515625 25.140625 
Q 3.515625 37.75 10.34375 45.609375 
Q 17.1875 53.46875 28.21875 53.46875 
z
M 42.234375 30.328125 
Q 41.703125 36.03125 39.75 39.453125 
Q 36.140625 45.796875 27.6875 45.796875 
Q 21.625 45.796875 17.515625 41.421875 
Q 13.421875 37.0625 13.1875 30.328125 
z
M 27.390625 53.5625 
z
" id="Helvetica-65"/>
      <path d="M 6.453125 52.296875 
L 14.796875 52.296875 
L 14.796875 44.875 
Q 18.5 49.46875 22.65625 51.46875 
Q 26.8125 53.46875 31.890625 53.46875 
Q 43.015625 53.46875 46.921875 45.703125 
Q 49.078125 41.453125 49.078125 33.546875 
L 49.078125 0 
L 40.140625 0 
L 40.140625 32.953125 
Q 40.140625 37.75 38.71875 40.671875 
Q 36.375 45.5625 30.21875 45.5625 
Q 27.09375 45.5625 25.09375 44.921875 
Q 21.484375 43.84375 18.75 40.625 
Q 16.546875 38.03125 15.890625 35.265625 
Q 15.234375 32.515625 15.234375 27.390625 
L 15.234375 0 
L 6.453125 0 
z
M 27.09375 53.5625 
z
" id="Helvetica-6e"/>
     </defs>
     <g style="fill:#ffffff;" transform="translate(21.546875 126.522348)rotate(-90)scale(0.2 -0.2)">
      <use transform="translate(0 0.3125)" xlink:href="#Helvetica-47"/>
      <use transform="translate(78.698398 -15.376563)scale(0.7)" xlink:href="#Helvetica-73"/>
      <use transform="translate(113.698398 -15.376563)scale(0.7)" xlink:href="#Helvetica-65"/>
      <use transform="translate(152.629062 -15.376563)scale(0.7)" xlink:href="#Helvetica-6e"/>
      <use transform="translate(191.559727 -15.376563)scale(0.7)" xlink:href="#Helvetica-73"/>
     </g>
    </g>
   </g>
   <g id="PolyCollection_1">
    <path clip-path="url(#p2c115af5ea)" d="M -581.592375 45.266592 
L -581.592375 45.728939 
L -576.475408 45.535908 
L -571.35844 45.342878 
L -566.241473 45.149847 
L -561.124506 44.956816 
L -556.007539 44.763785 
L -550.890571 44.570755 
L -545.773604 44.377724 
L -540.656637 44.184693 
L -535.53967 43.991662 
L -530.422702 43.798632 
L -525.305735 43.605601 
L -520.188768 43.41257 
L -515.071801 43.219539 
L -509.954833 43.026509 
L -504.837866 42.833478 
L -499.720899 42.640447 
L -494.603931 42.447416 
L -489.486964 42.254386 
L -484.369997 42.061355 
L -479.25303 41.868324 
L -474.136062 41.675293 
L -469.019095 41.482262 
L -463.902128 41.289232 
L -458.785161 41.096201 
L -453.668193 40.90317 
L -448.551226 40.710139 
L -443.434259 40.517109 
L -438.317291 40.324078 
L -433.200324 40.131047 
L -428.083357 39.938016 
L -422.96639 39.744986 
L -417.849422 39.551955 
L -412.732455 39.358924 
L -407.615488 39.165893 
L -402.498521 38.972863 
L -397.381553 38.779832 
L -392.264586 38.586801 
L -387.147619 38.39377 
L -382.030652 38.20074 
L -376.913684 38.007709 
L -371.796717 37.814678 
L -366.67975 37.621647 
L -361.562782 37.428617 
L -356.445815 37.235586 
L -351.328848 37.042555 
L -346.211881 36.849524 
L -341.094913 36.656494 
L -335.977946 36.463463 
L -330.860979 36.270432 
L -325.744012 36.077401 
L -320.627044 35.884371 
L -315.510077 35.69134 
L -310.39311 35.498309 
L -305.276143 35.305278 
L -300.159175 35.112247 
L -295.042208 34.919217 
L -289.925241 34.726186 
L -284.808273 34.533155 
L -279.691306 34.340124 
L -274.574339 34.147094 
L -269.457372 33.954063 
L -264.340404 33.761032 
L -259.223437 33.568001 
L -254.10647 33.374971 
L -248.989503 33.18194 
L -243.872535 32.988909 
L -238.755568 32.795878 
L -233.638601 32.602848 
L -228.521634 32.409817 
L -223.404666 32.216786 
L -218.287699 32.023755 
L -213.170732 31.830725 
L -208.053764 31.637694 
L -202.936797 31.444663 
L -197.81983 31.251632 
L -192.702863 31.058602 
L -187.585895 30.865571 
L -182.468928 30.67254 
L -177.351961 30.479509 
L -172.234994 30.286479 
L -167.118026 30.093448 
L -162.001059 29.900417 
L -156.884092 29.707386 
L -151.767124 29.514356 
L -146.650157 29.321325 
L -141.53319 29.128294 
L -136.416223 28.935263 
L -131.299255 28.742233 
L -126.182288 28.549202 
L -121.065321 28.356171 
L -115.948354 28.16314 
L -110.831386 27.97011 
L -105.714419 27.777079 
L -100.597452 27.584048 
L -95.480485 27.391018 
L -90.363517 27.197987 
L -85.24655 27.004956 
L -80.129583 26.811926 
L -75.012615 26.618896 
L -69.895648 26.425866 
L -64.778681 26.232836 
L -59.661714 26.039807 
L -54.544746 25.846778 
L -49.427779 25.653751 
L -44.310812 25.460724 
L -39.193845 25.2677 
L -34.076877 25.074678 
L -28.95991 24.881661 
L -23.842943 24.688649 
L -18.725976 24.495646 
L -13.609008 24.302655 
L -8.492041 24.109682 
L -3.375074 23.916734 
L 1.741894 23.723822 
L 6.858861 23.530962 
L 11.975828 23.338177 
L 17.092795 23.145501 
L 22.209763 22.95298 
L 27.32673 22.760683 
L 32.443697 22.568709 
L 37.560664 22.3772 
L 42.677632 22.186359 
L 47.794599 21.996482 
L 52.911566 21.80799 
L 58.028533 21.621493 
L 63.145501 21.437867 
L 68.262468 21.258373 
L 73.379435 21.084828 
L 78.496403 20.91984 
L 83.61337 20.767163 
L 88.730337 20.632194 
L 93.847304 20.52268 
L 98.964272 20.449738 
L 104.081239 20.429295 
L 109.198206 20.484118 
L 114.315173 20.646652 
L 119.432141 20.962926 
L 124.549108 21.497823 
L 129.666075 22.341945 
L 134.783043 23.620093 
L 139.90001 25.50079 
L 145.016977 28.205008 
L 150.133944 32.010014 
L 155.250912 37.240869 
L 160.367879 44.238509 
L 165.484846 53.292744 
L 170.601813 64.53733 
L 175.718781 77.828421 
L 180.835748 92.661617 
L 185.952715 108.197754 
L 191.069682 123.4274 
L 196.18665 137.416712 
L 201.303617 149.516359 
L 206.420584 159.44359 
L 211.537552 167.235126 
L 216.654519 173.132713 
L 221.771486 177.467118 
L 226.888453 180.575319 
L 232.005421 182.755752 
L 237.122388 184.251929 
L 242.239355 185.252454 
L 247.356322 185.898459 
L 252.47329 186.293128 
L 257.590257 186.510713 
L 262.707224 186.604067 
L 267.824191 186.61053 
L 272.941159 186.556347 
L 278.058126 186.459896 
L 283.175093 186.334017 
L 288.292061 186.187663 
L 293.409028 186.02707 
L 298.525995 185.856579 
L 303.642962 185.679209 
L 308.75993 185.497058 
L 313.876897 185.311586 
L 318.993864 185.123806 
L 324.110831 184.934423 
L 329.227799 184.743926 
L 334.344766 184.552656 
L 339.461733 184.360847 
L 344.5787 184.168666 
L 349.695668 183.976225 
L 354.812635 183.783604 
L 359.929602 183.590858 
L 365.04657 183.398025 
L 370.163537 183.205132 
L 375.280504 183.012197 
L 380.397471 182.819232 
L 385.514439 182.626247 
L 390.631406 182.433249 
L 395.748373 182.24024 
L 400.86534 182.047225 
L 405.982308 181.854205 
L 411.099275 181.661181 
L 416.216242 181.468156 
L 421.33321 181.275129 
L 426.450177 181.0821 
L 431.567144 180.889071 
L 436.684111 180.696042 
L 441.801079 180.503012 
L 446.918046 180.309982 
L 452.035013 180.116951 
L 457.15198 179.923921 
L 462.268948 179.73089 
L 467.385915 179.53786 
L 472.502882 179.344829 
L 477.619849 179.151798 
L 482.736817 178.958768 
L 487.853784 178.765737 
L 492.970751 178.572706 
L 498.087719 178.379675 
L 503.204686 178.186645 
L 508.321653 177.993614 
L 513.43862 177.800583 
L 518.555588 177.607552 
L 523.672555 177.414522 
L 528.789522 177.221491 
L 533.906489 177.02846 
L 539.023457 176.835429 
L 544.140424 176.642399 
L 549.257391 176.449368 
L 554.374358 176.256337 
L 559.491326 176.063306 
L 564.608293 175.870276 
L 569.72526 175.677245 
L 574.842228 175.484214 
L 579.959195 175.291183 
L 585.076162 175.098153 
L 590.193129 174.905122 
L 595.310097 174.712091 
L 600.427064 174.51906 
L 605.544031 174.32603 
L 610.660998 174.132999 
L 615.777966 173.939968 
L 620.894933 173.746937 
L 626.0119 173.553907 
L 631.128867 173.360876 
L 636.245835 173.167845 
L 641.362802 172.974814 
L 646.479769 172.781783 
L 651.596737 172.588753 
L 656.713704 172.395722 
L 661.830671 172.202691 
L 666.947638 172.00966 
L 672.064606 171.81663 
L 677.181573 171.623599 
L 682.29854 171.430568 
L 687.415507 171.237537 
L 692.532475 171.044507 
L 697.649442 170.851476 
L 702.766409 170.658445 
L 707.883377 170.465414 
L 713.000344 170.272384 
L 718.117311 170.079353 
L 723.234278 169.886322 
L 728.351246 169.693291 
L 733.468213 169.500261 
L 738.58518 169.30723 
L 743.702147 169.114199 
L 748.819115 168.921168 
L 753.936082 168.728138 
L 759.053049 168.535107 
L 764.170016 168.342076 
L 769.286984 168.149045 
L 774.403951 167.956015 
L 779.520918 167.762984 
L 784.637886 167.569953 
L 789.754853 167.376922 
L 794.87182 167.183892 
L 799.988787 166.990861 
L 805.105755 166.79783 
L 810.222722 166.604799 
L 815.339689 166.411769 
L 820.456656 166.218738 
L 825.573624 166.025707 
L 830.690591 165.832676 
L 835.807558 165.639645 
L 840.924525 165.446615 
L 846.041493 165.253584 
L 851.15846 165.060553 
L 856.275427 164.867522 
L 861.392395 164.674492 
L 866.509362 164.481461 
L 871.626329 164.28843 
L 876.743296 164.095399 
L 881.860264 163.902369 
L 886.977231 163.709338 
L 892.094198 163.516307 
L 897.211165 163.323276 
L 902.328133 163.130246 
L 907.4451 162.937215 
L 912.562067 162.744184 
L 917.679034 162.551153 
L 922.796002 162.358123 
L 927.912969 162.165092 
L 933.029936 161.972061 
L 938.146904 161.77903 
L 943.263871 161.586 
L 948.380838 161.392969 
L 953.497805 161.199938 
L 958.614773 161.006907 
L 963.73174 160.813877 
L 968.848707 160.620846 
L 973.965674 160.427815 
L 979.082642 160.234784 
L 984.199609 160.041754 
L 989.316576 159.848723 
L 994.433544 159.655692 
L 999.550511 159.462661 
L 1004.667478 159.26963 
L 1009.784445 159.0766 
L 1014.901413 158.883569 
L 1020.01838 158.690538 
L 1025.135347 158.497507 
L 1030.252314 158.304477 
L 1035.369282 158.111446 
L 1040.486249 157.918415 
L 1045.603216 157.725384 
L 1050.720183 157.532354 
L 1055.837151 157.339323 
L 1060.954118 157.146292 
L 1066.071085 156.953261 
L 1071.188053 156.760231 
L 1076.30502 156.5672 
L 1081.421987 156.374169 
L 1086.538954 156.181138 
L 1091.655922 155.988108 
L 1096.772889 155.795077 
L 1101.889856 155.602046 
L 1107.006823 155.409015 
L 1112.123791 155.215985 
L 1117.240758 155.022954 
L 1122.357725 154.829923 
L 1127.474692 154.636892 
L 1132.59166 154.443862 
L 1137.708627 154.250831 
L 1142.825594 154.0578 
L 1147.942562 153.864769 
L 1153.059529 153.671739 
L 1158.176496 153.478708 
L 1163.293463 153.285677 
L 1168.410431 153.092646 
L 1173.527398 152.899616 
L 1178.644365 152.706585 
L 1183.761332 152.513554 
L 1188.8783 152.320523 
L 1193.995267 152.127492 
L 1199.112234 151.934462 
L 1204.229201 151.741431 
L 1209.346169 151.5484 
L 1214.463136 151.355369 
L 1219.580103 151.162339 
L 1224.697071 150.969308 
L 1229.814038 150.776277 
L 1234.931005 150.583246 
L 1240.047972 150.390216 
L 1245.16494 150.197185 
L 1250.281907 150.004154 
L 1255.398874 149.811123 
L 1260.515841 149.618093 
L 1265.632809 149.425062 
L 1270.749776 149.232031 
L 1275.866743 149.039 
L 1280.983711 148.84597 
L 1286.100678 148.652939 
L 1291.217645 148.459908 
L 1296.334612 148.266877 
L 1301.45158 148.073847 
L 1306.568547 147.880816 
L 1311.685514 147.687785 
L 1316.802481 147.494754 
L 1321.919449 147.301724 
L 1327.036416 147.108693 
L 1332.153383 146.915662 
L 1337.27035 146.722631 
L 1342.387318 146.529601 
L 1347.504285 146.33657 
L 1352.621252 146.143539 
L 1357.73822 145.950508 
L 1362.855187 145.757477 
L 1367.972154 145.564447 
L 1373.089121 145.371416 
L 1378.206089 145.178385 
L 1383.323056 144.985354 
L 1388.440023 144.792324 
L 1393.55699 144.599293 
L 1398.673958 144.406262 
L 1403.790925 144.213231 
L 1408.907892 144.020201 
L 1414.024859 143.82717 
L 1419.141827 143.634139 
L 1424.258794 143.441108 
L 1429.375761 143.248078 
L 1434.492729 143.055047 
L 1439.609696 142.862016 
L 1444.726663 142.668985 
L 1449.84363 142.475955 
L 1454.960598 142.282924 
L 1460.077565 142.089893 
L 1465.194532 141.896862 
L 1470.311499 141.703832 
L 1475.428467 141.510801 
L 1480.545434 141.31777 
L 1485.662401 141.124739 
L 1490.779368 140.931709 
L 1495.896336 140.738678 
L 1501.013303 140.545647 
L 1506.13027 140.352616 
L 1511.247238 140.159586 
L 1516.364205 139.966555 
L 1521.481172 139.773524 
L 1526.598139 139.580493 
L 1531.715107 139.387463 
L 1536.832074 139.194432 
L 1541.949041 139.001401 
L 1547.066008 138.80837 
L 1552.182976 138.615339 
L 1557.299943 138.422309 
L 1562.41691 138.229278 
L 1567.533878 138.036247 
L 1572.650845 137.843216 
L 1577.767812 137.650186 
L 1582.884779 137.457155 
L 1588.001747 137.264124 
L 1593.118714 137.071093 
L 1598.235681 136.878063 
L 1603.352648 136.685032 
L 1608.469616 136.492001 
L 1613.586583 136.29897 
L 1618.70355 136.10594 
L 1623.820517 135.912909 
L 1628.937485 135.719878 
L 1634.054452 135.526847 
L 1639.171419 135.333817 
L 1644.288387 135.140786 
L 1649.405354 134.947755 
L 1654.522321 134.754724 
L 1659.639288 134.561694 
L 1664.756256 134.368663 
L 1669.873223 134.175632 
L 1674.99019 133.982601 
L 1680.107157 133.789571 
L 1685.224125 133.59654 
L 1690.341092 133.403509 
L 1695.458059 133.210478 
L 1700.575026 133.017448 
L 1705.691994 132.824417 
L 1710.808961 132.631386 
L 1715.925928 132.438355 
L 1721.042896 132.245324 
L 1726.159863 132.052294 
L 1731.27683 131.859263 
L 1736.393797 131.666232 
L 1741.510765 131.473201 
L 1746.627732 131.280171 
L 1751.744699 131.08714 
L 1756.861666 130.894109 
L 1761.978634 130.701078 
L 1767.095601 130.508048 
L 1772.212568 130.315017 
L 1777.329535 130.121986 
L 1782.446503 129.928955 
L 1787.56347 129.735925 
L 1792.680437 129.542894 
L 1797.797405 129.349863 
L 1802.914372 129.156832 
L 1808.031339 128.963802 
L 1813.148306 128.770771 
L 1818.265274 128.57774 
L 1823.382241 128.384709 
L 1828.499208 128.191679 
L 1833.616175 127.998648 
L 1838.733143 127.805617 
L 1843.85011 127.612586 
L 1848.967077 127.419556 
L 1854.084045 127.226525 
L 1859.201012 127.033494 
L 1864.317979 126.840463 
L 1869.434946 126.647433 
L 1874.551914 126.454402 
L 1879.668881 126.261371 
L 1884.785848 126.06834 
L 1889.902815 125.87531 
L 1895.019783 125.682279 
L 1900.13675 125.489248 
L 1905.253717 125.296217 
L 1910.370684 125.103186 
L 1915.487652 124.910156 
L 1920.604619 124.717125 
L 1925.721586 124.524094 
L 1930.838554 124.331063 
L 1935.955521 124.138033 
L 1941.072488 123.945002 
L 1946.189455 123.751971 
L 1951.306423 123.55894 
L 1956.42339 123.36591 
L 1961.540357 123.172879 
L 1966.657324 122.979848 
L 1971.774292 122.786817 
L 1971.774292 122.32447 
L 1971.774292 122.32447 
L 1966.657324 122.517501 
L 1961.540357 122.710532 
L 1956.42339 122.903562 
L 1951.306423 123.096593 
L 1946.189455 123.289624 
L 1941.072488 123.482655 
L 1935.955521 123.675685 
L 1930.838554 123.868716 
L 1925.721586 124.061747 
L 1920.604619 124.254778 
L 1915.487652 124.447808 
L 1910.370684 124.640839 
L 1905.253717 124.83387 
L 1900.13675 125.026901 
L 1895.019783 125.219931 
L 1889.902815 125.412962 
L 1884.785848 125.605993 
L 1879.668881 125.799024 
L 1874.551914 125.992055 
L 1869.434946 126.185085 
L 1864.317979 126.378116 
L 1859.201012 126.571147 
L 1854.084045 126.764178 
L 1848.967077 126.957208 
L 1843.85011 127.150239 
L 1838.733143 127.34327 
L 1833.616175 127.536301 
L 1828.499208 127.729331 
L 1823.382241 127.922362 
L 1818.265274 128.115393 
L 1813.148306 128.308424 
L 1808.031339 128.501454 
L 1802.914372 128.694485 
L 1797.797405 128.887516 
L 1792.680437 129.080547 
L 1787.56347 129.273577 
L 1782.446503 129.466608 
L 1777.329535 129.659639 
L 1772.212568 129.85267 
L 1767.095601 130.0457 
L 1761.978634 130.238731 
L 1756.861666 130.431762 
L 1751.744699 130.624793 
L 1746.627732 130.817823 
L 1741.510765 131.010854 
L 1736.393797 131.203885 
L 1731.27683 131.396916 
L 1726.159863 131.589946 
L 1721.042896 131.782977 
L 1715.925928 131.976008 
L 1710.808961 132.169039 
L 1705.691994 132.362069 
L 1700.575026 132.5551 
L 1695.458059 132.748131 
L 1690.341092 132.941162 
L 1685.224125 133.134193 
L 1680.107157 133.327223 
L 1674.99019 133.520254 
L 1669.873223 133.713285 
L 1664.756256 133.906316 
L 1659.639288 134.099346 
L 1654.522321 134.292377 
L 1649.405354 134.485408 
L 1644.288387 134.678439 
L 1639.171419 134.871469 
L 1634.054452 135.0645 
L 1628.937485 135.257531 
L 1623.820517 135.450562 
L 1618.70355 135.643592 
L 1613.586583 135.836623 
L 1608.469616 136.029654 
L 1603.352648 136.222685 
L 1598.235681 136.415715 
L 1593.118714 136.608746 
L 1588.001747 136.801777 
L 1582.884779 136.994808 
L 1577.767812 137.187838 
L 1572.650845 137.380869 
L 1567.533878 137.5739 
L 1562.41691 137.766931 
L 1557.299943 137.959961 
L 1552.182976 138.152992 
L 1547.066008 138.346023 
L 1541.949041 138.539054 
L 1536.832074 138.732084 
L 1531.715107 138.925115 
L 1526.598139 139.118146 
L 1521.481172 139.311177 
L 1516.364205 139.504208 
L 1511.247238 139.697238 
L 1506.13027 139.890269 
L 1501.013303 140.0833 
L 1495.896336 140.276331 
L 1490.779368 140.469361 
L 1485.662401 140.662392 
L 1480.545434 140.855423 
L 1475.428467 141.048454 
L 1470.311499 141.241484 
L 1465.194532 141.434515 
L 1460.077565 141.627546 
L 1454.960598 141.820577 
L 1449.84363 142.013607 
L 1444.726663 142.206638 
L 1439.609696 142.399669 
L 1434.492729 142.5927 
L 1429.375761 142.78573 
L 1424.258794 142.978761 
L 1419.141827 143.171792 
L 1414.024859 143.364823 
L 1408.907892 143.557853 
L 1403.790925 143.750884 
L 1398.673958 143.943915 
L 1393.55699 144.136946 
L 1388.440023 144.329976 
L 1383.323056 144.523007 
L 1378.206089 144.716038 
L 1373.089121 144.909069 
L 1367.972154 145.102099 
L 1362.855187 145.29513 
L 1357.73822 145.488161 
L 1352.621252 145.681192 
L 1347.504285 145.874222 
L 1342.387318 146.067253 
L 1337.27035 146.260284 
L 1332.153383 146.453315 
L 1327.036416 146.646346 
L 1321.919449 146.839376 
L 1316.802481 147.032407 
L 1311.685514 147.225438 
L 1306.568547 147.418469 
L 1301.45158 147.611499 
L 1296.334612 147.80453 
L 1291.217645 147.997561 
L 1286.100678 148.190592 
L 1280.983711 148.383622 
L 1275.866743 148.576653 
L 1270.749776 148.769684 
L 1265.632809 148.962715 
L 1260.515841 149.155745 
L 1255.398874 149.348776 
L 1250.281907 149.541807 
L 1245.16494 149.734838 
L 1240.047972 149.927868 
L 1234.931005 150.120899 
L 1229.814038 150.31393 
L 1224.697071 150.506961 
L 1219.580103 150.699991 
L 1214.463136 150.893022 
L 1209.346169 151.086053 
L 1204.229201 151.279084 
L 1199.112234 151.472114 
L 1193.995267 151.665145 
L 1188.8783 151.858176 
L 1183.761332 152.051207 
L 1178.644365 152.244237 
L 1173.527398 152.437268 
L 1168.410431 152.630299 
L 1163.293463 152.82333 
L 1158.176496 153.016361 
L 1153.059529 153.209391 
L 1147.942562 153.402422 
L 1142.825594 153.595453 
L 1137.708627 153.788484 
L 1132.59166 153.981514 
L 1127.474692 154.174545 
L 1122.357725 154.367576 
L 1117.240758 154.560607 
L 1112.123791 154.753637 
L 1107.006823 154.946668 
L 1101.889856 155.139699 
L 1096.772889 155.33273 
L 1091.655922 155.52576 
L 1086.538954 155.718791 
L 1081.421987 155.911822 
L 1076.30502 156.104853 
L 1071.188053 156.297883 
L 1066.071085 156.490914 
L 1060.954118 156.683945 
L 1055.837151 156.876976 
L 1050.720183 157.070006 
L 1045.603216 157.263037 
L 1040.486249 157.456068 
L 1035.369282 157.649099 
L 1030.252314 157.842129 
L 1025.135347 158.03516 
L 1020.01838 158.228191 
L 1014.901413 158.421222 
L 1009.784445 158.614252 
L 1004.667478 158.807283 
L 999.550511 159.000314 
L 994.433544 159.193345 
L 989.316576 159.386375 
L 984.199609 159.579406 
L 979.082642 159.772437 
L 973.965674 159.965468 
L 968.848707 160.158499 
L 963.73174 160.351529 
L 958.614773 160.54456 
L 953.497805 160.737591 
L 948.380838 160.930622 
L 943.263871 161.123652 
L 938.146904 161.316683 
L 933.029936 161.509714 
L 927.912969 161.702745 
L 922.796002 161.895775 
L 917.679034 162.088806 
L 912.562067 162.281837 
L 907.4451 162.474868 
L 902.328133 162.667898 
L 897.211165 162.860929 
L 892.094198 163.05396 
L 886.977231 163.246991 
L 881.860264 163.440021 
L 876.743296 163.633052 
L 871.626329 163.826083 
L 866.509362 164.019114 
L 861.392395 164.212144 
L 856.275427 164.405175 
L 851.15846 164.598206 
L 846.041493 164.791237 
L 840.924525 164.984267 
L 835.807558 165.177298 
L 830.690591 165.370329 
L 825.573624 165.56336 
L 820.456656 165.75639 
L 815.339689 165.949421 
L 810.222722 166.142452 
L 805.105755 166.335483 
L 799.988787 166.528513 
L 794.87182 166.721544 
L 789.754853 166.914575 
L 784.637886 167.107605 
L 779.520918 167.300636 
L 774.403951 167.493667 
L 769.286984 167.686697 
L 764.170016 167.879728 
L 759.053049 168.072759 
L 753.936082 168.265789 
L 748.819115 168.45882 
L 743.702147 168.65185 
L 738.58518 168.844881 
L 733.468213 169.037911 
L 728.351246 169.230942 
L 723.234278 169.423972 
L 718.117311 169.617002 
L 713.000344 169.810033 
L 707.883377 170.003063 
L 702.766409 170.196093 
L 697.649442 170.389122 
L 692.532475 170.582152 
L 687.415507 170.775182 
L 682.29854 170.968211 
L 677.181573 171.16124 
L 672.064606 171.354268 
L 666.947638 171.547296 
L 661.830671 171.740324 
L 656.713704 171.933351 
L 651.596737 172.126378 
L 646.479769 172.319403 
L 641.362802 172.512428 
L 636.245835 172.705452 
L 631.128867 172.898474 
L 626.0119 173.091495 
L 620.894933 173.284514 
L 615.777966 173.477531 
L 610.660998 173.670546 
L 605.544031 173.863557 
L 600.427064 174.056566 
L 595.310097 174.249569 
L 590.193129 174.442569 
L 585.076162 174.635562 
L 579.959195 174.828548 
L 574.842228 175.021527 
L 569.72526 175.214496 
L 564.608293 175.407454 
L 559.491326 175.600398 
L 554.374358 175.793327 
L 549.257391 175.986237 
L 544.140424 176.179125 
L 539.023457 176.371988 
L 533.906489 176.56482 
L 528.789522 176.757615 
L 523.672555 176.950368 
L 518.555588 177.143071 
L 513.43862 177.335714 
L 508.321653 177.528286 
L 503.204686 177.720775 
L 498.087719 177.913166 
L 492.970751 178.10544 
L 487.853784 178.297577 
L 482.736817 178.489551 
L 477.619849 178.681333 
L 472.502882 178.872889 
L 467.385915 179.064176 
L 462.268948 179.255147 
L 457.15198 179.445743 
L 452.035013 179.635896 
L 446.918046 179.825527 
L 441.801079 180.01454 
L 436.684111 180.202823 
L 431.567144 180.390243 
L 426.450177 180.576644 
L 421.33321 180.761841 
L 416.216242 180.945615 
L 411.099275 181.127707 
L 405.982308 181.307814 
L 400.86534 181.485573 
L 395.748373 181.660561 
L 390.631406 181.832274 
L 385.514439 182.000119 
L 380.397471 182.163396 
L 375.280504 182.321278 
L 370.163537 182.47279 
L 365.04657 182.616782 
L 359.929602 182.751896 
L 354.812635 182.876534 
L 349.695668 182.98881 
L 344.5787 183.086507 
L 339.461733 183.167011 
L 334.344766 183.227251 
L 329.227799 183.26362 
L 324.110831 183.271881 
L 318.993864 183.247069 
L 313.876897 183.183372 
L 308.75993 183.074001 
L 303.642962 182.911037 
L 298.525995 182.685271 
L 293.409028 182.386022 
L 288.292061 182.000949 
L 283.175093 181.515848 
L 278.058126 180.914452 
L 272.941159 180.178248 
L 267.824191 179.286311 
L 262.707224 178.215195 
L 257.590257 176.938904 
L 252.47329 175.428981 
L 247.356322 173.65476 
L 242.239355 171.583842 
L 237.122388 169.182846 
L 232.005421 166.418494 
L 226.888453 163.259078 
L 221.771486 159.676321 
L 216.654519 155.647616 
L 211.537552 151.158548 
L 206.420584 146.205548 
L 201.303617 140.798421 
L 196.18665 134.962437 
L 191.069682 128.739616 
L 185.952715 122.188877 
L 180.835748 115.384784 
L 175.718781 108.41482 
L 170.601813 101.375318 
L 165.484846 94.366415 
L 160.367879 87.486564 
L 155.250912 80.827255 
L 150.133944 74.468497 
L 145.016977 68.47555 
L 139.90001 62.897084 
L 134.783043 57.764813 
L 129.666075 53.094366 
L 124.549108 48.887111 
L 119.432141 45.132553 
L 114.315173 41.81097 
L 109.198206 38.896014 
L 104.081239 36.357074 
L 98.964272 34.161288 
L 93.847304 32.275166 
L 88.730337 30.665819 
L 83.61337 29.301834 
L 78.496403 28.15385 
L 73.379435 27.194892 
L 68.262468 26.400517 
L 63.145501 25.748825 
L 58.028533 25.220378 
L 52.911566 24.798053 
L 47.794599 24.466866 
L 42.677632 24.21377 
L 37.560664 24.027461 
L 32.443697 23.898177 
L 27.32673 23.817516 
L 22.209763 23.778266 
L 17.092795 23.774249 
L 11.975828 23.800187 
L 6.858861 23.851569 
L 1.741894 23.924556 
L -3.375074 24.015875 
L -8.492041 24.122744 
L -13.609008 24.242797 
L -18.725976 24.374026 
L -23.842943 24.514726 
L -28.95991 24.66345 
L -34.076877 24.81897 
L -39.193845 24.980247 
L -44.310812 25.146399 
L -49.427779 25.316678 
L -54.544746 25.490451 
L -59.661714 25.667184 
L -64.778681 25.84642 
L -69.895648 26.027776 
L -75.012615 26.210927 
L -80.129583 26.395596 
L -85.24655 26.581551 
L -90.363517 26.768593 
L -95.480485 26.956556 
L -100.597452 27.145299 
L -105.714419 27.334701 
L -110.831386 27.52466 
L -115.948354 27.715092 
L -121.065321 27.905924 
L -126.182288 28.097094 
L -131.299255 28.28855 
L -136.416223 28.480248 
L -141.53319 28.672151 
L -146.650157 28.864228 
L -151.767124 29.056451 
L -156.884092 29.248798 
L -162.001059 29.441251 
L -167.118026 29.633793 
L -172.234994 29.826409 
L -177.351961 30.01909 
L -182.468928 30.211824 
L -187.585895 30.404604 
L -192.702863 30.597422 
L -197.81983 30.790273 
L -202.936797 30.983152 
L -208.053764 31.176054 
L -213.170732 31.368976 
L -218.287699 31.561915 
L -223.404666 31.754868 
L -228.521634 31.947832 
L -233.638601 32.140807 
L -238.755568 32.333791 
L -243.872535 32.526782 
L -248.989503 32.719779 
L -254.10647 32.912781 
L -259.223437 33.105787 
L -264.340404 33.298798 
L -269.457372 33.491811 
L -274.574339 33.684827 
L -279.691306 33.877845 
L -284.808273 34.070866 
L -289.925241 34.263888 
L -295.042208 34.456911 
L -300.159175 34.649935 
L -305.276143 34.842961 
L -310.39311 35.035987 
L -315.510077 35.229014 
L -320.627044 35.422041 
L -325.744012 35.615069 
L -330.860979 35.808098 
L -335.977946 36.001126 
L -341.094913 36.194155 
L -346.211881 36.387185 
L -351.328848 36.580214 
L -356.445815 36.773244 
L -361.562782 36.966274 
L -366.67975 37.159304 
L -371.796717 37.352334 
L -376.913684 37.545364 
L -382.030652 37.738395 
L -387.147619 37.931425 
L -392.264586 38.124456 
L -397.381553 38.317486 
L -402.498521 38.510517 
L -407.615488 38.703547 
L -412.732455 38.896578 
L -417.849422 39.089608 
L -422.96639 39.282639 
L -428.083357 39.47567 
L -433.200324 39.6687 
L -438.317291 39.861731 
L -443.434259 40.054762 
L -448.551226 40.247792 
L -453.668193 40.440823 
L -458.785161 40.633854 
L -463.902128 40.826885 
L -469.019095 41.019915 
L -474.136062 41.212946 
L -479.25303 41.405977 
L -484.369997 41.599008 
L -489.486964 41.792038 
L -494.603931 41.985069 
L -499.720899 42.1781 
L -504.837866 42.371131 
L -509.954833 42.564161 
L -515.071801 42.757192 
L -520.188768 42.950223 
L -525.305735 43.143254 
L -530.422702 43.336284 
L -535.53967 43.529315 
L -540.656637 43.722346 
L -545.773604 43.915377 
L -550.890571 44.108407 
L -556.007539 44.301438 
L -561.124506 44.494469 
L -566.241473 44.6875 
L -571.35844 44.88053 
L -576.475408 45.073561 
L -581.592375 45.266592 
z
" style="fill:#ffffff;fill-opacity:0.2;"/>
   </g>
   <g id="LineCollection_1">
    <path clip-path="url(#p2c115af5ea)" d="M 184.417625 248.618336 
L 184.417625 103.522348 
" style="fill:none;stroke:#ffffff;stroke-dasharray:2,3.3;stroke-dashoffset:0;stroke-width:2;"/>
   </g>
   <g id="LineCollection_2">
    <path clip-path="url(#p2c115af5ea)" d="M 172.161465 248.618336 
L 172.161465 103.522348 
" style="fill:none;stroke:#ffffff;stroke-dasharray:2,3.3;stroke-dashoffset:0;stroke-width:2;"/>
   </g>
   <g id="LineCollection_3">
    <path clip-path="url(#p2c115af5ea)" d="M -1 103.522348 
L 184.417625 103.522348 
" style="fill:none;stroke:#ffffff;stroke-dasharray:2,3.3;stroke-dashoffset:0;stroke-width:2;"/>
   </g>
   <g id="line2d_8">
    <path clip-path="url(#p2c115af5ea)" d="M -1 23.827192 
L 78.496403 20.91984 
L 93.847304 20.52268 
L 104.081239 20.429295 
L 114.315173 20.646652 
L 119.432141 20.962926 
L 124.549108 21.497823 
L 129.666075 22.341945 
L 134.783043 23.620093 
L 139.90001 25.50079 
L 145.016977 28.205008 
L 150.133944 32.010014 
L 155.250912 37.240869 
L 160.367879 44.238509 
L 165.484846 53.292744 
L 170.601813 64.53733 
L 175.718781 77.828421 
L 180.835748 92.661617 
L 191.069682 123.4274 
L 196.18665 137.416712 
L 201.303617 149.516359 
L 206.420584 159.44359 
L 211.537552 167.235126 
L 216.654519 173.132713 
L 221.771486 177.467118 
L 226.888453 180.575319 
L 232.005421 182.755752 
L 237.122388 184.251929 
L 242.239355 185.252454 
L 247.356322 185.898459 
L 252.47329 186.293128 
L 257.590257 186.510713 
L 267.824191 186.61053 
L 278.058126 186.459896 
L 298.525995 185.856579 
L 350.819625 183.933916 
L 350.819625 183.933916 
" style="fill:none;stroke:#81b1d2;stroke-linecap:square;stroke-width:2;"/>
   </g>
   <g id="line2d_9">
    <path clip-path="url(#p2c115af5ea)" d="M -1 23.973489 
L 11.975828 23.800187 
L 27.32673 23.817516 
L 37.560664 24.027461 
L 47.794599 24.466866 
L 58.028533 25.220378 
L 63.145501 25.748825 
L 68.262468 26.400517 
L 73.379435 27.194892 
L 78.496403 28.15385 
L 83.61337 29.301834 
L 88.730337 30.665819 
L 93.847304 32.275166 
L 98.964272 34.161288 
L 104.081239 36.357074 
L 109.198206 38.896014 
L 114.315173 41.81097 
L 119.432141 45.132553 
L 124.549108 48.887111 
L 129.666075 53.094366 
L 134.783043 57.764813 
L 139.90001 62.897084 
L 145.016977 68.47555 
L 150.133944 74.468497 
L 155.250912 80.827255 
L 160.367879 87.486564 
L 170.601813 101.375318 
L 180.835748 115.384784 
L 185.952715 122.188877 
L 191.069682 128.739616 
L 196.18665 134.962437 
L 201.303617 140.798421 
L 206.420584 146.205548 
L 211.537552 151.158548 
L 216.654519 155.647616 
L 221.771486 159.676321 
L 226.888453 163.259078 
L 232.005421 166.418494 
L 237.122388 169.182846 
L 242.239355 171.583842 
L 247.356322 173.65476 
L 252.47329 175.428981 
L 257.590257 176.938904 
L 262.707224 178.215195 
L 267.824191 179.286311 
L 272.941159 180.178248 
L 278.058126 180.914452 
L 283.175093 181.515848 
L 293.409028 182.386022 
L 303.642962 182.911037 
L 313.876897 183.183372 
L 329.227799 183.26362 
L 344.5787 183.086507 
L 350.819625 182.964148 
L 350.819625 182.964148 
" style="fill:none;stroke:#fa8174;stroke-linecap:square;stroke-width:2;"/>
   </g>
   <g id="patch_3">
    <path d="M 31.215625 199.844696 
L 31.215625 7.2 
" style="fill:none;stroke:#ffffff;stroke-linecap:square;stroke-linejoin:miter;stroke-width:1.2;"/>
   </g>
   <g id="patch_4">
    <path d="M 337.619625 199.844696 
L 337.619625 7.2 
" style="fill:none;stroke:#ffffff;stroke-linecap:square;stroke-linejoin:miter;stroke-width:1.2;"/>
   </g>
   <g id="patch_5">
    <path d="M 31.215625 199.844696 
L 337.619625 199.844696 
" style="fill:none;stroke:#ffffff;stroke-linecap:square;stroke-linejoin:miter;stroke-width:1.2;"/>
   </g>
   <g id="patch_6">
    <path d="M 31.215625 7.2 
L 337.619625 7.2 
" style="fill:none;stroke:#ffffff;stroke-linecap:square;stroke-linejoin:miter;stroke-width:1.2;"/>
   </g>
   <g id="text_5">
    <!-- $N-1$ -->
    <defs>
     <path d="M 22.859375 71.734375 
L 34.328125 71.734375 
L 58.203125 13.625 
L 70.5625 71.734375 
L 79.78125 71.734375 
L 64.546875 0 
L 53.65625 0 
L 29.203125 58.0625 
L 16.890625 0 
L 7.625 0 
z
" id="Helvetica-Oblique-4e"/>
     <path d="M 61.671875 29.59375 
L 59.96875 21.390625 
L 9.03125 21.390625 
L 10.75 29.59375 
z
" id="Helvetica-Oblique-2212"/>
     <path d="M 20.0625 49.515625 
L 21.484375 56.25 
Q 31.203125 57.171875 35.421875 59.34375 
Q 39.65625 61.53125 43.265625 69.625 
L 50.203125 69.625 
L 35.40625 0 
L 26.03125 0 
L 36.53125 49.515625 
z
" id="Helvetica-Oblique-31"/>
    </defs>
    <g style="fill:#ffffff;" transform="translate(77.176225 132.419052)scale(0.18 -0.18)">
     <use transform="translate(0 0.265625)" xlink:href="#Helvetica-Oblique-4e"/>
     <use transform="translate(88.876953 0.265625)" xlink:href="#Helvetica-Oblique-2212"/>
     <use transform="translate(163.935547 0.265625)" xlink:href="#Helvetica-Oblique-31"/>
    </g>
   </g>
   <g id="text_6">
    <!-- $N$ -->
    <g style="fill:#ffffff;" transform="translate(261.018625 132.419052)scale(0.18 -0.18)">
     <use transform="translate(0 0.265625)" xlink:href="#Helvetica-Oblique-4e"/>
    </g>
   </g>
   <g id="text_7">
    <!-- $\Delta S_{N-1 \rightarrow N} &gt; 0$ -->
    <defs>
     <path d="M 40.59375 68.796875 
C 39.796875 70.5 39.40625 70.5 38.59375 70.5 
C 37.40625 70.5 37.296875 70.296875 36.59375 68.890625 
L 4.203125 1.703125 
C 4.09375 1.5 3.703125 0.59375 3.703125 0.5 
C 3.703125 0.09375 3.796875 0 5.59375 0 
L 71.5 0 
C 73.296875 0 73.40625 0.09375 73.40625 0.5 
C 73.40625 0.59375 73 1.5 72.90625 1.703125 
z
M 36.09375 63.09375 
L 63.796875 5.59375 
L 8.296875 5.59375 
z
" id="CMR17-1"/>
     <path d="M 63.5 69.109375 
C 63.5 70 62.796875 70 62.59375 70 
C 62.203125 70 62.09375 69.90625 60.90625 68.40625 
C 60.296875 67.703125 56.203125 62.515625 56.09375 62.421875 
C 52.796875 68.90625 46.203125 70 42 70 
C 29.296875 70 17.796875 58.484375 17.796875 47.265625 
C 17.796875 39.828125 22.296875 35.453125 27.203125 33.765625 
C 28.296875 33.359375 34.203125 31.765625 37.203125 31.078125 
C 42.296875 29.6875 43.59375 29.296875 45.703125 27.109375 
C 46.09375 26.609375 48.09375 24.328125 48.09375 19.65625 
C 48.09375 10.421875 39.5 0.890625 29.5 0.890625 
C 21.296875 0.890625 12.203125 4.375 12.203125 15.484375 
C 12.203125 17.375 12.59375 19.765625 12.90625 20.75 
C 12.90625 21.0625 13 21.53125 13 21.734375 
C 13 22.140625 12.796875 22.640625 12 22.640625 
C 11.09375 22.640625 11 22.4375 10.59375 20.75 
L 5.5 0.375 
C 5.5 0.28125 5.09375 -1 5.09375 -1.109375 
C 5.09375 -2 5.90625 -2 6.09375 -2 
C 6.5 -2 6.59375 -1.90625 7.796875 -0.40625 
L 12.40625 5.5625 
C 14.796875 1.96875 20 -2 29.296875 -2 
C 42.203125 -2 54 10.40625 54 22.8125 
C 54 27 53 30.671875 49.203125 34.328125 
C 47.09375 36.421875 45.296875 36.921875 36.09375 39.3125 
C 29.40625 41.09375 28.5 41.390625 26.703125 42.984375 
C 25 44.65625 23.703125 47.046875 23.703125 50.421875 
C 23.703125 58.765625 32.203125 67.3125 41.703125 67.3125 
C 51.5 67.3125 56.09375 61.34375 56.09375 51.921875 
C 56.09375 49.34375 55.59375 46.65625 55.59375 46.265625 
C 55.59375 45.359375 56.40625 45.359375 56.703125 45.359375 
C 57.59375 45.359375 57.703125 45.65625 58.09375 47.25 
z
" id="CMMI12-83"/>
     <path d="M 74 57.78125 
C 75.09375 62.09375 76.703125 65.09375 84.296875 65.09375 
C 84.59375 65.09375 85.796875 65.09375 85.796875 66.859375 
C 85.796875 68 84.90625 68 84.5 68 
C 82.5 68 77.40625 68 75.40625 68 
L 70.59375 68 
C 69.203125 68 67.40625 68 66 68 
C 65.40625 68 64.203125 68 64.203125 66.09375 
C 64.203125 65.09375 65 65.09375 65.703125 65.09375 
C 71.703125 65.09375 72.09375 62.796875 72.09375 60.984375 
C 72.09375 60.09375 72 59.78125 71.703125 58.390625 
L 60.40625 13.28125 
L 39 66.390625 
C 38.296875 68 38.203125 68 36 68 
L 23.796875 68 
C 21.796875 68 20.90625 68 20.90625 66.09375 
C 20.90625 65.09375 21.59375 65.09375 23.5 65.09375 
C 24 65.09375 29.90625 65.09375 29.90625 64.296875 
C 29.90625 64.09375 29.703125 63.296875 29.59375 63 
L 16.296875 9.921875 
C 15.09375 5 12.703125 2.90625 6.09375 2.90625 
C 5.59375 2.90625 4.59375 2.90625 4.59375 1.046875 
C 4.59375 0 5.59375 0 5.90625 0 
C 7.90625 0 13 0 15 0 
L 19.796875 0 
C 21.203125 0 22.90625 0 24.296875 0 
C 25 0 26.09375 0 26.09375 1.90625 
C 26.09375 2.8125 25.09375 2.90625 24.703125 2.90625 
C 21.40625 2.90625 18.203125 3.5 18.203125 7.09375 
C 18.203125 7.890625 18.40625 8.78125 18.59375 9.578125 
L 32.09375 63 
C 32.703125 62 32.703125 61.8125 33.09375 60.90625 
L 56.90625 1.796875 
C 57.40625 0.59375 57.59375 0 58.5 0 
C 59.5 0 59.59375 0.296875 60 2 
z
" id="CMMI12-78"/>
     <path d="M 65.90625 23 
C 67.59375 23 69.40625 23 69.40625 25 
C 69.40625 27 67.59375 27 65.90625 27 
L 11.796875 27 
C 10.09375 27 8.296875 27 8.296875 25 
C 8.296875 23 10.09375 23 11.796875 23 
z
" id="CMSY10-0"/>
     <path d="M 26.59375 63.40625 
C 26.59375 65.5 26.5 65.5 25.09375 65.5 
C 21.203125 61.1875 15.296875 59.796875 9.703125 59.796875 
C 9.40625 59.796875 8.90625 59.796875 8.796875 59.5 
C 8.703125 59.296875 8.703125 59.09375 8.703125 57 
C 11.796875 57 17 57.59375 21 59.984375 
L 21 7.203125 
C 21 3.6875 20.796875 2.5 12.203125 2.5 
L 9.203125 2.5 
L 9.203125 0 
C 14 0 19 0 23.796875 0 
C 28.59375 0 33.59375 0 38.40625 0 
L 38.40625 2.5 
L 35.40625 2.5 
C 26.796875 2.5 26.59375 3.59375 26.59375 7.15625 
z
" id="CMR17-49"/>
     <path d="M 83.40625 23 
C 77.90625 18.796875 75.203125 14.703125 74.40625 13.40625 
C 69.90625 6.5 69.09375 0.203125 69.09375 0.09375 
C 69.09375 -1.09375 70.296875 -1.09375 71.09375 -1.09375 
C 72.796875 -1.09375 72.90625 -0.90625 73.296875 0.90625 
C 75.59375 10.703125 81.5 19.09375 92.796875 23.703125 
C 94 24.09375 94.296875 24.296875 94.296875 25 
C 94.296875 25.703125 93.703125 26 93.5 26.09375 
C 89.09375 27.796875 77 32.796875 73.203125 49.59375 
C 72.90625 50.796875 72.796875 51.09375 71.09375 51.09375 
C 70.296875 51.09375 69.09375 51.09375 69.09375 49.890625 
C 69.09375 49.6875 70 43.390625 74.203125 36.703125 
C 76.203125 33.703125 79.09375 30.203125 83.40625 27 
L 9.09375 27 
C 7.296875 27 5.5 27 5.5 25 
C 5.5 23 7.296875 23 9.09375 23 
z
" id="CMSY10-33"/>
     <path d="M 65.90625 22.640625 
C 67.796875 23.546875 67.90625 24.140625 67.90625 24.84375 
C 67.90625 25.4375 67.703125 26.140625 65.90625 26.953125 
L 11.796875 51.90625 
C 10.5 52.5 10.296875 52.5 10.09375 52.5 
C 8.90625 52.5 8.203125 51.5 8.203125 50.703125 
C 8.203125 49.5 9 49.09375 10.296875 48.5 
L 61.703125 24.84375 
L 10.203125 1.015625 
C 8.203125 0.09375 8.203125 -0.609375 8.203125 -1.203125 
C 8.203125 -2 8.90625 -3 10.09375 -3 
C 10.296875 -3 10.40625 -2.890625 11.796875 -2.296875 
z
" id="CMMI12-62"/>
     <path d="M 42 31.640625 
C 42 37.75 41.90625 48.125 37.703125 56.109375 
C 34 63.109375 28.09375 65.59375 22.90625 65.59375 
C 18.09375 65.59375 12 63.40625 8.203125 56.203125 
C 4.203125 48.71875 3.796875 39.4375 3.796875 31.640625 
C 3.796875 25.953125 3.90625 17.28125 7 9.671875 
C 11.296875 -0.609375 19 -2 22.90625 -2 
C 27.5 -2 34.5 -0.109375 38.59375 9.375 
C 41.59375 16.28125 42 24.359375 42 31.640625 
z
M 22.90625 -0.40625 
C 16.5 -0.40625 12.703125 5.078125 11.296875 12.6875 
C 10.203125 18.5625 10.203125 27.15625 10.203125 32.75 
C 10.203125 40.4375 10.203125 46.828125 11.5 52.921875 
C 13.40625 61.390625 19 64 22.90625 64 
C 27 64 32.296875 61.296875 34.203125 53.125 
C 35.5 47.4375 35.59375 40.734375 35.59375 32.75 
C 35.59375 26.25 35.59375 18.265625 34.40625 12.375 
C 32.296875 1.484375 26.40625 -0.40625 22.90625 -0.40625 
z
" id="CMR17-48"/>
    </defs>
    <g style="fill:#ffffff;" transform="translate(190.545705 55.361174)scale(0.22 -0.22)">
     <use transform="translate(0 14.943915)scale(0.996264)" xlink:href="#CMR17-1"/>
     <use transform="translate(76.91959 14.943915)scale(0.996264)" xlink:href="#CMMI12-83"/>
     <use transform="translate(136.914078 0)scale(0.697382)" xlink:href="#CMMI12-78"/>
     <use transform="translate(198.879051 0)scale(0.697382)" xlink:href="#CMSY10-0"/>
     <use transform="translate(253.120044 0)scale(0.697382)" xlink:href="#CMR17-49"/>
     <use transform="translate(285.103226 0)scale(0.697382)" xlink:href="#CMSY10-33"/>
     <use transform="translate(354.8416 0)scale(0.697382)" xlink:href="#CMMI12-78"/>
     <use transform="translate(444.978714 14.943915)scale(0.996264)" xlink:href="#CMMI12-62"/>
     <use transform="translate(548.524819 14.943915)scale(0.996264)" xlink:href="#CMR17-48"/>
    </g>
   </g>
  </g>
 </g>
 <defs>
  <clipPath id="p2c115af5ea">
   <rect height="192.644696" width="306.404" x="31.215625" y="7.2"/>
  </clipPath>
 </defs>
</svg>
