<?xml version="1.0" encoding="utf-8" standalone="no"?>
<!DOCTYPE svg PUBLIC "-//W3C//DTD SVG 1.1//EN"
  "http://www.w3.org/Graphics/SVG/1.1/DTD/svg11.dtd">
<!-- Created with matplotlib (http://matplotlib.org/) -->
<svg height="247.618336pt" version="1.1" viewBox="0 0 349.099625 247.618336" width="349.099625pt" xmlns="http://www.w3.org/2000/svg" xmlns:xlink="http://www.w3.org/1999/xlink">
 <defs>
  <style type="text/css">
*{stroke-linecap:butt;stroke-linejoin:round;}
  </style>
 </defs>
 <g id="figure_1">
  <g id="patch_1">
   <path d="M 0 247.618336 
L 349.099625 247.618336 
L 349.099625 0 
L 0 0 
z
" style="fill:none;"/>
  </g>
  <g id="axes_1">
   <g id="patch_2">
    <path d="M 31.215625 199.844696 
L 336.899625 199.844696 
L 336.899625 7.2 
L 31.215625 7.2 
z
" style="fill:none;"/>
   </g>
   <g id="matplotlib.axis_1">
    <g id="xtick_1">
     <g id="line2d_1">
      <defs>
       <path d="M 0 0 
L 0 5 
" id="m90f1e303bd" style="stroke:#ffffff;stroke-width:1.2;"/>
      </defs>
      <g>
       <use style="fill:#ffffff;stroke:#ffffff;stroke-width:1.2;" x="171.830265" xlink:href="#m90f1e303bd" y="199.844696"/>
      </g>
     </g>
     <g id="text_1">
      <!-- V$_{mid}$ -->
      <defs>
       <path d="M 13.28125 71.734375 
L 33.890625 10.640625 
L 54.25 71.734375 
L 65.140625 71.734375 
L 38.96875 0 
L 28.65625 0 
L 2.546875 71.734375 
z
" id="Helvetica-56"/>
       <path d="M 6.453125 52.296875 
L 15.140625 52.296875 
L 15.140625 44.875 
Q 18.265625 48.734375 20.796875 50.484375 
Q 25.140625 53.46875 30.671875 53.46875 
Q 36.921875 53.46875 40.71875 50.390625 
Q 42.875 48.640625 44.625 45.21875 
Q 47.5625 49.421875 51.515625 51.4375 
Q 55.46875 53.46875 60.40625 53.46875 
Q 70.953125 53.46875 74.75 45.84375 
Q 76.8125 41.75 76.8125 34.8125 
L 76.8125 0 
L 67.671875 0 
L 67.671875 36.328125 
Q 67.671875 41.546875 65.0625 43.5 
Q 62.453125 45.453125 58.6875 45.453125 
Q 53.515625 45.453125 49.78125 41.984375 
Q 46.046875 38.53125 46.046875 30.421875 
L 46.046875 0 
L 37.109375 0 
L 37.109375 34.125 
Q 37.109375 39.453125 35.84375 41.890625 
Q 33.84375 45.5625 28.375 45.5625 
Q 23.390625 45.5625 19.3125 41.703125 
Q 15.234375 37.84375 15.234375 27.734375 
L 15.234375 0 
L 6.453125 0 
z
" id="Helvetica-6d"/>
       <path d="M 6.453125 52.046875 
L 15.375 52.046875 
L 15.375 0 
L 6.453125 0 
z
M 6.453125 71.734375 
L 15.375 71.734375 
L 15.375 61.765625 
L 6.453125 61.765625 
z
" id="Helvetica-69"/>
       <path d="M 12.015625 25.53125 
Q 12.015625 17.140625 15.578125 11.46875 
Q 19.140625 5.8125 27 5.8125 
Q 33.109375 5.8125 37.03125 11.0625 
Q 40.96875 16.3125 40.96875 26.125 
Q 40.96875 36.03125 36.90625 40.796875 
Q 32.859375 45.5625 26.90625 45.5625 
Q 20.265625 45.5625 16.140625 40.484375 
Q 12.015625 35.40625 12.015625 25.53125 
z
M 25.25 53.21875 
Q 31.25 53.21875 35.296875 50.6875 
Q 37.640625 49.21875 40.625 45.5625 
L 40.625 71.96875 
L 49.078125 71.96875 
L 49.078125 0 
L 41.15625 0 
L 41.15625 7.28125 
Q 38.09375 2.4375 33.890625 0.28125 
Q 29.6875 -1.859375 24.265625 -1.859375 
Q 15.53125 -1.859375 9.125 5.484375 
Q 2.734375 12.84375 2.734375 25.046875 
Q 2.734375 36.46875 8.5625 44.84375 
Q 14.40625 53.21875 25.25 53.21875 
z
" id="Helvetica-64"/>
      </defs>
      <g style="fill:#fa8174;" transform="translate(150.35184 238.274639)rotate(-50)scale(0.16 -0.16)">
       <use transform="translate(0 0.265625)" xlink:href="#Helvetica-56"/>
       <use transform="translate(67.614414 -15.423438)scale(0.7)" xlink:href="#Helvetica-6d"/>
       <use transform="translate(125.924961 -15.423438)scale(0.7)" xlink:href="#Helvetica-69"/>
       <use transform="translate(141.476719 -15.423438)scale(0.7)" xlink:href="#Helvetica-64"/>
      </g>
     </g>
    </g>
    <g id="xtick_2">
     <g id="line2d_2">
      <g>
       <use style="fill:#ffffff;stroke:#ffffff;stroke-width:1.2;" x="184.057625" xlink:href="#m90f1e303bd" y="199.844696"/>
      </g>
     </g>
     <g id="text_2">
      <!-- V$_{mid}$ -->
      <g style="fill:#81b1d2;" transform="translate(177.71455 238.274639)rotate(-50)scale(0.16 -0.16)">
       <use transform="translate(0 0.265625)" xlink:href="#Helvetica-56"/>
       <use transform="translate(67.614414 -15.423438)scale(0.7)" xlink:href="#Helvetica-6d"/>
       <use transform="translate(125.924961 -15.423438)scale(0.7)" xlink:href="#Helvetica-69"/>
       <use transform="translate(141.476719 -15.423438)scale(0.7)" xlink:href="#Helvetica-64"/>
      </g>
     </g>
    </g>
    <g id="text_3">
     <!-- V$_{p}$ -->
     <defs>
      <path d="M 28.515625 5.90625 
Q 34.671875 5.90625 38.75 11.0625 
Q 42.828125 16.21875 42.828125 26.46875 
Q 42.828125 32.71875 41.015625 37.203125 
Q 37.59375 45.84375 28.515625 45.84375 
Q 19.390625 45.84375 16.015625 36.71875 
Q 14.203125 31.84375 14.203125 24.3125 
Q 14.203125 18.265625 16.015625 14.015625 
Q 19.4375 5.90625 28.515625 5.90625 
z
M 5.765625 52.046875 
L 14.3125 52.046875 
L 14.3125 45.125 
Q 16.9375 48.6875 20.0625 50.640625 
Q 24.515625 53.5625 30.515625 53.5625 
Q 39.40625 53.5625 45.609375 46.75 
Q 51.8125 39.9375 51.8125 27.296875 
Q 51.8125 10.203125 42.875 2.875 
Q 37.203125 -1.765625 29.6875 -1.765625 
Q 23.78125 -1.765625 19.78125 0.828125 
Q 17.4375 2.296875 14.546875 5.859375 
L 14.546875 -20.84375 
L 5.765625 -20.84375 
z
" id="Helvetica-70"/>
     </defs>
     <g style="fill:#ffffff;" transform="translate(310.615425 229.818336)scale(0.2 -0.2)">
      <use transform="translate(0 0.265625)" xlink:href="#Helvetica-56"/>
      <use transform="translate(67.614414 -15.423438)scale(0.7)" xlink:href="#Helvetica-70"/>
     </g>
    </g>
   </g>
   <g id="matplotlib.axis_2">
    <g id="ytick_1">
     <g id="line2d_3">
      <defs>
       <path d="M 0 0 
L 5 0 
" id="m69d498b08e" style="stroke:#ffffff;stroke-width:1.2;"/>
      </defs>
      <g>
       <use style="fill:#ffffff;stroke:#ffffff;stroke-width:1.2;" x="31.215625" xlink:href="#m69d498b08e" y="180.580226"/>
      </g>
     </g>
    </g>
    <g id="ytick_2">
     <g id="line2d_4">
      <g>
       <use style="fill:#ffffff;stroke:#ffffff;stroke-width:1.2;" x="31.215625" xlink:href="#m69d498b08e" y="142.051287"/>
      </g>
     </g>
    </g>
    <g id="ytick_3">
     <g id="line2d_5">
      <g>
       <use style="fill:#ffffff;stroke:#ffffff;stroke-width:1.2;" x="31.215625" xlink:href="#m69d498b08e" y="103.522348"/>
      </g>
     </g>
    </g>
    <g id="ytick_4">
     <g id="line2d_6">
      <g>
       <use style="fill:#ffffff;stroke:#ffffff;stroke-width:1.2;" x="31.215625" xlink:href="#m69d498b08e" y="64.993409"/>
      </g>
     </g>
    </g>
    <g id="ytick_5">
     <g id="line2d_7">
      <g>
       <use style="fill:#ffffff;stroke:#ffffff;stroke-width:1.2;" x="31.215625" xlink:href="#m69d498b08e" y="26.46447"/>
      </g>
     </g>
    </g>
    <g id="text_4">
     <!-- G$_{sens}$ -->
     <defs>
      <path d="M 38.625 73.578125 
Q 48.734375 73.578125 56.109375 69.671875 
Q 66.796875 64.0625 69.1875 50 
L 59.578125 50 
Q 57.8125 57.859375 52.296875 61.453125 
Q 46.78125 65.046875 38.375 65.046875 
Q 28.421875 65.046875 21.609375 57.5625 
Q 14.796875 50.09375 14.796875 35.296875 
Q 14.796875 22.515625 20.40625 14.484375 
Q 26.03125 6.453125 38.71875 6.453125 
Q 48.4375 6.453125 54.8125 12.078125 
Q 61.1875 17.71875 61.328125 30.328125 
L 38.875 30.328125 
L 38.875 38.375 
L 70.359375 38.375 
L 70.359375 0 
L 64.109375 0 
L 61.765625 9.234375 
Q 56.84375 3.8125 53.03125 1.703125 
Q 46.625 -1.90625 36.765625 -1.90625 
Q 24.03125 -1.90625 14.84375 6.34375 
Q 4.828125 16.703125 4.828125 34.765625 
Q 4.828125 52.78125 14.59375 63.421875 
Q 23.875 73.578125 38.625 73.578125 
z
M 37.015625 73.6875 
z
" id="Helvetica-47"/>
      <path d="M 11.671875 16.40625 
Q 12.0625 12.015625 13.875 9.671875 
Q 17.1875 5.421875 25.390625 5.421875 
Q 30.28125 5.421875 33.984375 7.546875 
Q 37.703125 9.671875 37.703125 14.109375 
Q 37.703125 17.484375 34.71875 19.234375 
Q 32.8125 20.3125 27.203125 21.734375 
L 20.21875 23.484375 
Q 13.53125 25.140625 10.359375 27.203125 
Q 4.6875 30.765625 4.6875 37.0625 
Q 4.6875 44.484375 10.03125 49.0625 
Q 15.375 53.65625 24.421875 53.65625 
Q 36.234375 53.65625 41.453125 46.734375 
Q 44.734375 42.328125 44.625 37.25 
L 36.328125 37.25 
Q 36.078125 40.234375 34.234375 42.671875 
Q 31.203125 46.140625 23.734375 46.140625 
Q 18.75 46.140625 16.1875 44.234375 
Q 13.625 42.328125 13.625 39.203125 
Q 13.625 35.796875 17 33.734375 
Q 18.953125 32.515625 22.75 31.59375 
L 28.5625 30.171875 
Q 38.03125 27.875 41.265625 25.734375 
Q 46.390625 22.359375 46.390625 15.140625 
Q 46.390625 8.15625 41.09375 3.078125 
Q 35.796875 -2 24.953125 -2 
Q 13.28125 -2 8.421875 3.296875 
Q 3.5625 8.59375 3.21875 16.40625 
z
M 24.65625 53.5625 
z
" id="Helvetica-73"/>
      <path d="M 28.21875 53.46875 
Q 33.796875 53.46875 39.015625 50.859375 
Q 44.234375 48.25 46.96875 44.09375 
Q 49.609375 40.140625 50.484375 34.859375 
Q 51.265625 31.25 51.265625 23.34375 
L 12.9375 23.34375 
Q 13.1875 15.375 16.703125 10.5625 
Q 20.21875 5.765625 27.59375 5.765625 
Q 34.46875 5.765625 38.578125 10.296875 
Q 40.921875 12.9375 41.890625 16.40625 
L 50.53125 16.40625 
Q 50.203125 13.53125 48.265625 9.984375 
Q 46.34375 6.453125 43.953125 4.203125 
Q 39.9375 0.296875 34.03125 -1.078125 
Q 30.859375 -1.859375 26.859375 -1.859375 
Q 17.09375 -1.859375 10.296875 5.25 
Q 3.515625 12.359375 3.515625 25.140625 
Q 3.515625 37.75 10.34375 45.609375 
Q 17.1875 53.46875 28.21875 53.46875 
z
M 42.234375 30.328125 
Q 41.703125 36.03125 39.75 39.453125 
Q 36.140625 45.796875 27.6875 45.796875 
Q 21.625 45.796875 17.515625 41.421875 
Q 13.421875 37.0625 13.1875 30.328125 
z
M 27.390625 53.5625 
z
" id="Helvetica-65"/>
      <path d="M 6.453125 52.296875 
L 14.796875 52.296875 
L 14.796875 44.875 
Q 18.5 49.46875 22.65625 51.46875 
Q 26.8125 53.46875 31.890625 53.46875 
Q 43.015625 53.46875 46.921875 45.703125 
Q 49.078125 41.453125 49.078125 33.546875 
L 49.078125 0 
L 40.140625 0 
L 40.140625 32.953125 
Q 40.140625 37.75 38.71875 40.671875 
Q 36.375 45.5625 30.21875 45.5625 
Q 27.09375 45.5625 25.09375 44.921875 
Q 21.484375 43.84375 18.75 40.625 
Q 16.546875 38.03125 15.890625 35.265625 
Q 15.234375 32.515625 15.234375 27.390625 
L 15.234375 0 
L 6.453125 0 
z
M 27.09375 53.5625 
z
" id="Helvetica-6e"/>
     </defs>
     <g style="fill:#ffffff;" transform="translate(21.546875 126.522348)rotate(-90)scale(0.2 -0.2)">
      <use transform="translate(0 0.3125)" xlink:href="#Helvetica-47"/>
      <use transform="translate(78.698398 -15.376563)scale(0.7)" xlink:href="#Helvetica-73"/>
      <use transform="translate(113.698398 -15.376563)scale(0.7)" xlink:href="#Helvetica-65"/>
      <use transform="translate(152.629062 -15.376563)scale(0.7)" xlink:href="#Helvetica-6e"/>
      <use transform="translate(191.559727 -15.376563)scale(0.7)" xlink:href="#Helvetica-73"/>
     </g>
    </g>
   </g>
   <g id="PolyCollection_1">
    <path clip-path="url(#pff2bba9491)" d="M -580.152375 45.266592 
L -580.152375 45.728939 
L -575.047432 45.535908 
L -569.942489 45.342878 
L -564.837545 45.149847 
L -559.732602 44.956816 
L -554.627659 44.763785 
L -549.522716 44.570755 
L -544.417772 44.377724 
L -539.312829 44.184693 
L -534.207886 43.991662 
L -529.102943 43.798632 
L -523.998 43.605601 
L -518.893056 43.41257 
L -513.788113 43.219539 
L -508.68317 43.026509 
L -503.578227 42.833478 
L -498.473283 42.640447 
L -493.36834 42.447416 
L -488.263397 42.254386 
L -483.158454 42.061355 
L -478.053511 41.868324 
L -472.948567 41.675293 
L -467.843624 41.482262 
L -462.738681 41.289232 
L -457.633738 41.096201 
L -452.528795 40.90317 
L -447.423851 40.710139 
L -442.318908 40.517109 
L -437.213965 40.324078 
L -432.109022 40.131047 
L -427.004078 39.938016 
L -421.899135 39.744986 
L -416.794192 39.551955 
L -411.689249 39.358924 
L -406.584306 39.165893 
L -401.479362 38.972863 
L -396.374419 38.779832 
L -391.269476 38.586801 
L -386.164533 38.39377 
L -381.059589 38.20074 
L -375.954646 38.007709 
L -370.849703 37.814678 
L -365.74476 37.621647 
L -360.639817 37.428617 
L -355.534873 37.235586 
L -350.42993 37.042555 
L -345.324987 36.849524 
L -340.220044 36.656494 
L -335.1151 36.463463 
L -330.010157 36.270432 
L -324.905214 36.077401 
L -319.800271 35.884371 
L -314.695328 35.69134 
L -309.590384 35.498309 
L -304.485441 35.305278 
L -299.380498 35.112247 
L -294.275555 34.919217 
L -289.170611 34.726186 
L -284.065668 34.533155 
L -278.960725 34.340124 
L -273.855782 34.147094 
L -268.750839 33.954063 
L -263.645895 33.761032 
L -258.540952 33.568001 
L -253.436009 33.374971 
L -248.331066 33.18194 
L -243.226122 32.988909 
L -238.121179 32.795878 
L -233.016236 32.602848 
L -227.911293 32.409817 
L -222.80635 32.216786 
L -217.701406 32.023755 
L -212.596463 31.830725 
L -207.49152 31.637694 
L -202.386577 31.444663 
L -197.281634 31.251632 
L -192.17669 31.058602 
L -187.071747 30.865571 
L -181.966804 30.67254 
L -176.861861 30.479509 
L -171.756917 30.286479 
L -166.651974 30.093448 
L -161.547031 29.900417 
L -156.442088 29.707386 
L -151.337145 29.514356 
L -146.232201 29.321325 
L -141.127258 29.128294 
L -136.022315 28.935263 
L -130.917372 28.742233 
L -125.812428 28.549202 
L -120.707485 28.356171 
L -115.602542 28.16314 
L -110.497599 27.97011 
L -105.392656 27.777079 
L -100.287712 27.584048 
L -95.182769 27.391018 
L -90.077826 27.197987 
L -84.972883 27.004956 
L -79.867939 26.811926 
L -74.762996 26.618896 
L -69.658053 26.425866 
L -64.55311 26.232836 
L -59.448167 26.039807 
L -54.343223 25.846778 
L -49.23828 25.653751 
L -44.133337 25.460724 
L -39.028394 25.2677 
L -33.92345 25.074678 
L -28.818507 24.881661 
L -23.713564 24.688649 
L -18.608621 24.495646 
L -13.503678 24.302655 
L -8.398734 24.109682 
L -3.293791 23.916734 
L 1.811152 23.723822 
L 6.916095 23.530962 
L 12.021038 23.338177 
L 17.125982 23.145501 
L 22.230925 22.95298 
L 27.335868 22.760683 
L 32.440811 22.568709 
L 37.545755 22.3772 
L 42.650698 22.186359 
L 47.755641 21.996482 
L 52.860584 21.80799 
L 57.965527 21.621493 
L 63.070471 21.437867 
L 68.175414 21.258373 
L 73.280357 21.084828 
L 78.3853 20.91984 
L 83.490244 20.767163 
L 88.595187 20.632194 
L 93.70013 20.52268 
L 98.805073 20.449738 
L 103.910016 20.429295 
L 109.01496 20.484118 
L 114.119903 20.646652 
L 119.224846 20.962926 
L 124.329789 21.497823 
L 129.434733 22.341945 
L 134.539676 23.620093 
L 139.644619 25.50079 
L 144.749562 28.205008 
L 149.854505 32.010014 
L 154.959449 37.240869 
L 160.064392 44.238509 
L 165.169335 53.292744 
L 170.274278 64.53733 
L 175.379222 77.828421 
L 180.484165 92.661617 
L 185.589108 108.197754 
L 190.694051 123.4274 
L 195.798994 137.416712 
L 200.903938 149.516359 
L 206.008881 159.44359 
L 211.113824 167.235126 
L 216.218767 173.132713 
L 221.323711 177.467118 
L 226.428654 180.575319 
L 231.533597 182.755752 
L 236.63854 184.251929 
L 241.743483 185.252454 
L 246.848427 185.898459 
L 251.95337 186.293128 
L 257.058313 186.510713 
L 262.163256 186.604067 
L 267.268199 186.61053 
L 272.373143 186.556347 
L 277.478086 186.459896 
L 282.583029 186.334017 
L 287.687972 186.187663 
L 292.792916 186.02707 
L 297.897859 185.856579 
L 303.002802 185.679209 
L 308.107745 185.497058 
L 313.212688 185.311586 
L 318.317632 185.123806 
L 323.422575 184.934423 
L 328.527518 184.743926 
L 333.632461 184.552656 
L 338.737405 184.360847 
L 343.842348 184.168666 
L 348.947291 183.976225 
L 354.052234 183.783604 
L 359.157177 183.590858 
L 364.262121 183.398025 
L 369.367064 183.205132 
L 374.472007 183.012197 
L 379.57695 182.819232 
L 384.681894 182.626247 
L 389.786837 182.433249 
L 394.89178 182.24024 
L 399.996723 182.047225 
L 405.101666 181.854205 
L 410.20661 181.661181 
L 415.311553 181.468156 
L 420.416496 181.275129 
L 425.521439 181.0821 
L 430.626383 180.889071 
L 435.731326 180.696042 
L 440.836269 180.503012 
L 445.941212 180.309982 
L 451.046155 180.116951 
L 456.151099 179.923921 
L 461.256042 179.73089 
L 466.360985 179.53786 
L 471.465928 179.344829 
L 476.570871 179.151798 
L 481.675815 178.958768 
L 486.780758 178.765737 
L 491.885701 178.572706 
L 496.990644 178.379675 
L 502.095588 178.186645 
L 507.200531 177.993614 
L 512.305474 177.800583 
L 517.410417 177.607552 
L 522.51536 177.414522 
L 527.620304 177.221491 
L 532.725247 177.02846 
L 537.83019 176.835429 
L 542.935133 176.642399 
L 548.040077 176.449368 
L 553.14502 176.256337 
L 558.249963 176.063306 
L 563.354906 175.870276 
L 568.459849 175.677245 
L 573.564793 175.484214 
L 578.669736 175.291183 
L 583.774679 175.098153 
L 588.879622 174.905122 
L 593.984566 174.712091 
L 599.089509 174.51906 
L 604.194452 174.32603 
L 609.299395 174.132999 
L 614.404338 173.939968 
L 619.509282 173.746937 
L 624.614225 173.553907 
L 629.719168 173.360876 
L 634.824111 173.167845 
L 639.929055 172.974814 
L 645.033998 172.781783 
L 650.138941 172.588753 
L 655.243884 172.395722 
L 660.348827 172.202691 
L 665.453771 172.00966 
L 670.558714 171.81663 
L 675.663657 171.623599 
L 680.7686 171.430568 
L 685.873544 171.237537 
L 690.978487 171.044507 
L 696.08343 170.851476 
L 701.188373 170.658445 
L 706.293316 170.465414 
L 711.39826 170.272384 
L 716.503203 170.079353 
L 721.608146 169.886322 
L 726.713089 169.693291 
L 731.818032 169.500261 
L 736.922976 169.30723 
L 742.027919 169.114199 
L 747.132862 168.921168 
L 752.237805 168.728138 
L 757.342749 168.535107 
L 762.447692 168.342076 
L 767.552635 168.149045 
L 772.657578 167.956015 
L 777.762521 167.762984 
L 782.867465 167.569953 
L 787.972408 167.376922 
L 793.077351 167.183892 
L 798.182294 166.990861 
L 803.287238 166.79783 
L 808.392181 166.604799 
L 813.497124 166.411769 
L 818.602067 166.218738 
L 823.70701 166.025707 
L 828.811954 165.832676 
L 833.916897 165.639645 
L 839.02184 165.446615 
L 844.126783 165.253584 
L 849.231727 165.060553 
L 854.33667 164.867522 
L 859.441613 164.674492 
L 864.546556 164.481461 
L 869.651499 164.28843 
L 874.756443 164.095399 
L 879.861386 163.902369 
L 884.966329 163.709338 
L 890.071272 163.516307 
L 895.176216 163.323276 
L 900.281159 163.130246 
L 905.386102 162.937215 
L 910.491045 162.744184 
L 915.595988 162.551153 
L 920.700932 162.358123 
L 925.805875 162.165092 
L 930.910818 161.972061 
L 936.015761 161.77903 
L 941.120704 161.586 
L 946.225648 161.392969 
L 951.330591 161.199938 
L 956.435534 161.006907 
L 961.540477 160.813877 
L 966.645421 160.620846 
L 971.750364 160.427815 
L 976.855307 160.234784 
L 981.96025 160.041754 
L 987.065193 159.848723 
L 992.170137 159.655692 
L 997.27508 159.462661 
L 1002.380023 159.26963 
L 1007.484966 159.0766 
L 1012.58991 158.883569 
L 1017.694853 158.690538 
L 1022.799796 158.497507 
L 1027.904739 158.304477 
L 1033.009682 158.111446 
L 1038.114626 157.918415 
L 1043.219569 157.725384 
L 1048.324512 157.532354 
L 1053.429455 157.339323 
L 1058.534399 157.146292 
L 1063.639342 156.953261 
L 1068.744285 156.760231 
L 1073.849228 156.5672 
L 1078.954171 156.374169 
L 1084.059115 156.181138 
L 1089.164058 155.988108 
L 1094.269001 155.795077 
L 1099.373944 155.602046 
L 1104.478888 155.409015 
L 1109.583831 155.215985 
L 1114.688774 155.022954 
L 1119.793717 154.829923 
L 1124.89866 154.636892 
L 1130.003604 154.443862 
L 1135.108547 154.250831 
L 1140.21349 154.0578 
L 1145.318433 153.864769 
L 1150.423377 153.671739 
L 1155.52832 153.478708 
L 1160.633263 153.285677 
L 1165.738206 153.092646 
L 1170.843149 152.899616 
L 1175.948093 152.706585 
L 1181.053036 152.513554 
L 1186.157979 152.320523 
L 1191.262922 152.127492 
L 1196.367865 151.934462 
L 1201.472809 151.741431 
L 1206.577752 151.5484 
L 1211.682695 151.355369 
L 1216.787638 151.162339 
L 1221.892582 150.969308 
L 1226.997525 150.776277 
L 1232.102468 150.583246 
L 1237.207411 150.390216 
L 1242.312354 150.197185 
L 1247.417298 150.004154 
L 1252.522241 149.811123 
L 1257.627184 149.618093 
L 1262.732127 149.425062 
L 1267.837071 149.232031 
L 1272.942014 149.039 
L 1278.046957 148.84597 
L 1283.1519 148.652939 
L 1288.256843 148.459908 
L 1293.361787 148.266877 
L 1298.46673 148.073847 
L 1303.571673 147.880816 
L 1308.676616 147.687785 
L 1313.78156 147.494754 
L 1318.886503 147.301724 
L 1323.991446 147.108693 
L 1329.096389 146.915662 
L 1334.201332 146.722631 
L 1339.306276 146.529601 
L 1344.411219 146.33657 
L 1349.516162 146.143539 
L 1354.621105 145.950508 
L 1359.726049 145.757477 
L 1364.830992 145.564447 
L 1369.935935 145.371416 
L 1375.040878 145.178385 
L 1380.145821 144.985354 
L 1385.250765 144.792324 
L 1390.355708 144.599293 
L 1395.460651 144.406262 
L 1400.565594 144.213231 
L 1405.670537 144.020201 
L 1410.775481 143.82717 
L 1415.880424 143.634139 
L 1420.985367 143.441108 
L 1426.09031 143.248078 
L 1431.195254 143.055047 
L 1436.300197 142.862016 
L 1441.40514 142.668985 
L 1446.510083 142.475955 
L 1451.615026 142.282924 
L 1456.71997 142.089893 
L 1461.824913 141.896862 
L 1466.929856 141.703832 
L 1472.034799 141.510801 
L 1477.139743 141.31777 
L 1482.244686 141.124739 
L 1487.349629 140.931709 
L 1492.454572 140.738678 
L 1497.559515 140.545647 
L 1502.664459 140.352616 
L 1507.769402 140.159586 
L 1512.874345 139.966555 
L 1517.979288 139.773524 
L 1523.084232 139.580493 
L 1528.189175 139.387463 
L 1533.294118 139.194432 
L 1538.399061 139.001401 
L 1543.504004 138.80837 
L 1548.608948 138.615339 
L 1553.713891 138.422309 
L 1558.818834 138.229278 
L 1563.923777 138.036247 
L 1569.028721 137.843216 
L 1574.133664 137.650186 
L 1579.238607 137.457155 
L 1584.34355 137.264124 
L 1589.448493 137.071093 
L 1594.553437 136.878063 
L 1599.65838 136.685032 
L 1604.763323 136.492001 
L 1609.868266 136.29897 
L 1614.97321 136.10594 
L 1620.078153 135.912909 
L 1625.183096 135.719878 
L 1630.288039 135.526847 
L 1635.392982 135.333817 
L 1640.497926 135.140786 
L 1645.602869 134.947755 
L 1650.707812 134.754724 
L 1655.812755 134.561694 
L 1660.917698 134.368663 
L 1666.022642 134.175632 
L 1671.127585 133.982601 
L 1676.232528 133.789571 
L 1681.337471 133.59654 
L 1686.442415 133.403509 
L 1691.547358 133.210478 
L 1696.652301 133.017448 
L 1701.757244 132.824417 
L 1706.862187 132.631386 
L 1711.967131 132.438355 
L 1717.072074 132.245324 
L 1722.177017 132.052294 
L 1727.28196 131.859263 
L 1732.386904 131.666232 
L 1737.491847 131.473201 
L 1742.59679 131.280171 
L 1747.701733 131.08714 
L 1752.806676 130.894109 
L 1757.91162 130.701078 
L 1763.016563 130.508048 
L 1768.121506 130.315017 
L 1773.226449 130.121986 
L 1778.331393 129.928955 
L 1783.436336 129.735925 
L 1788.541279 129.542894 
L 1793.646222 129.349863 
L 1798.751165 129.156832 
L 1803.856109 128.963802 
L 1808.961052 128.770771 
L 1814.065995 128.57774 
L 1819.170938 128.384709 
L 1824.275882 128.191679 
L 1829.380825 127.998648 
L 1834.485768 127.805617 
L 1839.590711 127.612586 
L 1844.695654 127.419556 
L 1849.800598 127.226525 
L 1854.905541 127.033494 
L 1860.010484 126.840463 
L 1865.115427 126.647433 
L 1870.22037 126.454402 
L 1875.325314 126.261371 
L 1880.430257 126.06834 
L 1885.5352 125.87531 
L 1890.640143 125.682279 
L 1895.745087 125.489248 
L 1900.85003 125.296217 
L 1905.954973 125.103186 
L 1911.059916 124.910156 
L 1916.164859 124.717125 
L 1921.269803 124.524094 
L 1926.374746 124.331063 
L 1931.479689 124.138033 
L 1936.584632 123.945002 
L 1941.689576 123.751971 
L 1946.794519 123.55894 
L 1951.899462 123.36591 
L 1957.004405 123.172879 
L 1962.109348 122.979848 
L 1967.214292 122.786817 
L 1967.214292 122.32447 
L 1967.214292 122.32447 
L 1962.109348 122.517501 
L 1957.004405 122.710532 
L 1951.899462 122.903562 
L 1946.794519 123.096593 
L 1941.689576 123.289624 
L 1936.584632 123.482655 
L 1931.479689 123.675685 
L 1926.374746 123.868716 
L 1921.269803 124.061747 
L 1916.164859 124.254778 
L 1911.059916 124.447808 
L 1905.954973 124.640839 
L 1900.85003 124.83387 
L 1895.745087 125.026901 
L 1890.640143 125.219931 
L 1885.5352 125.412962 
L 1880.430257 125.605993 
L 1875.325314 125.799024 
L 1870.22037 125.992055 
L 1865.115427 126.185085 
L 1860.010484 126.378116 
L 1854.905541 126.571147 
L 1849.800598 126.764178 
L 1844.695654 126.957208 
L 1839.590711 127.150239 
L 1834.485768 127.34327 
L 1829.380825 127.536301 
L 1824.275882 127.729331 
L 1819.170938 127.922362 
L 1814.065995 128.115393 
L 1808.961052 128.308424 
L 1803.856109 128.501454 
L 1798.751165 128.694485 
L 1793.646222 128.887516 
L 1788.541279 129.080547 
L 1783.436336 129.273577 
L 1778.331393 129.466608 
L 1773.226449 129.659639 
L 1768.121506 129.85267 
L 1763.016563 130.0457 
L 1757.91162 130.238731 
L 1752.806676 130.431762 
L 1747.701733 130.624793 
L 1742.59679 130.817823 
L 1737.491847 131.010854 
L 1732.386904 131.203885 
L 1727.28196 131.396916 
L 1722.177017 131.589946 
L 1717.072074 131.782977 
L 1711.967131 131.976008 
L 1706.862187 132.169039 
L 1701.757244 132.362069 
L 1696.652301 132.5551 
L 1691.547358 132.748131 
L 1686.442415 132.941162 
L 1681.337471 133.134193 
L 1676.232528 133.327223 
L 1671.127585 133.520254 
L 1666.022642 133.713285 
L 1660.917698 133.906316 
L 1655.812755 134.099346 
L 1650.707812 134.292377 
L 1645.602869 134.485408 
L 1640.497926 134.678439 
L 1635.392982 134.871469 
L 1630.288039 135.0645 
L 1625.183096 135.257531 
L 1620.078153 135.450562 
L 1614.97321 135.643592 
L 1609.868266 135.836623 
L 1604.763323 136.029654 
L 1599.65838 136.222685 
L 1594.553437 136.415715 
L 1589.448493 136.608746 
L 1584.34355 136.801777 
L 1579.238607 136.994808 
L 1574.133664 137.187838 
L 1569.028721 137.380869 
L 1563.923777 137.5739 
L 1558.818834 137.766931 
L 1553.713891 137.959961 
L 1548.608948 138.152992 
L 1543.504004 138.346023 
L 1538.399061 138.539054 
L 1533.294118 138.732084 
L 1528.189175 138.925115 
L 1523.084232 139.118146 
L 1517.979288 139.311177 
L 1512.874345 139.504208 
L 1507.769402 139.697238 
L 1502.664459 139.890269 
L 1497.559515 140.0833 
L 1492.454572 140.276331 
L 1487.349629 140.469361 
L 1482.244686 140.662392 
L 1477.139743 140.855423 
L 1472.034799 141.048454 
L 1466.929856 141.241484 
L 1461.824913 141.434515 
L 1456.71997 141.627546 
L 1451.615026 141.820577 
L 1446.510083 142.013607 
L 1441.40514 142.206638 
L 1436.300197 142.399669 
L 1431.195254 142.5927 
L 1426.09031 142.78573 
L 1420.985367 142.978761 
L 1415.880424 143.171792 
L 1410.775481 143.364823 
L 1405.670537 143.557853 
L 1400.565594 143.750884 
L 1395.460651 143.943915 
L 1390.355708 144.136946 
L 1385.250765 144.329976 
L 1380.145821 144.523007 
L 1375.040878 144.716038 
L 1369.935935 144.909069 
L 1364.830992 145.102099 
L 1359.726049 145.29513 
L 1354.621105 145.488161 
L 1349.516162 145.681192 
L 1344.411219 145.874222 
L 1339.306276 146.067253 
L 1334.201332 146.260284 
L 1329.096389 146.453315 
L 1323.991446 146.646346 
L 1318.886503 146.839376 
L 1313.78156 147.032407 
L 1308.676616 147.225438 
L 1303.571673 147.418469 
L 1298.46673 147.611499 
L 1293.361787 147.80453 
L 1288.256843 147.997561 
L 1283.1519 148.190592 
L 1278.046957 148.383622 
L 1272.942014 148.576653 
L 1267.837071 148.769684 
L 1262.732127 148.962715 
L 1257.627184 149.155745 
L 1252.522241 149.348776 
L 1247.417298 149.541807 
L 1242.312354 149.734838 
L 1237.207411 149.927868 
L 1232.102468 150.120899 
L 1226.997525 150.31393 
L 1221.892582 150.506961 
L 1216.787638 150.699991 
L 1211.682695 150.893022 
L 1206.577752 151.086053 
L 1201.472809 151.279084 
L 1196.367865 151.472114 
L 1191.262922 151.665145 
L 1186.157979 151.858176 
L 1181.053036 152.051207 
L 1175.948093 152.244237 
L 1170.843149 152.437268 
L 1165.738206 152.630299 
L 1160.633263 152.82333 
L 1155.52832 153.016361 
L 1150.423377 153.209391 
L 1145.318433 153.402422 
L 1140.21349 153.595453 
L 1135.108547 153.788484 
L 1130.003604 153.981514 
L 1124.89866 154.174545 
L 1119.793717 154.367576 
L 1114.688774 154.560607 
L 1109.583831 154.753637 
L 1104.478888 154.946668 
L 1099.373944 155.139699 
L 1094.269001 155.33273 
L 1089.164058 155.52576 
L 1084.059115 155.718791 
L 1078.954171 155.911822 
L 1073.849228 156.104853 
L 1068.744285 156.297883 
L 1063.639342 156.490914 
L 1058.534399 156.683945 
L 1053.429455 156.876976 
L 1048.324512 157.070006 
L 1043.219569 157.263037 
L 1038.114626 157.456068 
L 1033.009682 157.649099 
L 1027.904739 157.842129 
L 1022.799796 158.03516 
L 1017.694853 158.228191 
L 1012.58991 158.421222 
L 1007.484966 158.614252 
L 1002.380023 158.807283 
L 997.27508 159.000314 
L 992.170137 159.193345 
L 987.065193 159.386375 
L 981.96025 159.579406 
L 976.855307 159.772437 
L 971.750364 159.965468 
L 966.645421 160.158499 
L 961.540477 160.351529 
L 956.435534 160.54456 
L 951.330591 160.737591 
L 946.225648 160.930622 
L 941.120704 161.123652 
L 936.015761 161.316683 
L 930.910818 161.509714 
L 925.805875 161.702745 
L 920.700932 161.895775 
L 915.595988 162.088806 
L 910.491045 162.281837 
L 905.386102 162.474868 
L 900.281159 162.667898 
L 895.176216 162.860929 
L 890.071272 163.05396 
L 884.966329 163.246991 
L 879.861386 163.440021 
L 874.756443 163.633052 
L 869.651499 163.826083 
L 864.546556 164.019114 
L 859.441613 164.212144 
L 854.33667 164.405175 
L 849.231727 164.598206 
L 844.126783 164.791237 
L 839.02184 164.984267 
L 833.916897 165.177298 
L 828.811954 165.370329 
L 823.70701 165.56336 
L 818.602067 165.75639 
L 813.497124 165.949421 
L 808.392181 166.142452 
L 803.287238 166.335483 
L 798.182294 166.528513 
L 793.077351 166.721544 
L 787.972408 166.914575 
L 782.867465 167.107605 
L 777.762521 167.300636 
L 772.657578 167.493667 
L 767.552635 167.686697 
L 762.447692 167.879728 
L 757.342749 168.072759 
L 752.237805 168.265789 
L 747.132862 168.45882 
L 742.027919 168.65185 
L 736.922976 168.844881 
L 731.818032 169.037911 
L 726.713089 169.230942 
L 721.608146 169.423972 
L 716.503203 169.617002 
L 711.39826 169.810033 
L 706.293316 170.003063 
L 701.188373 170.196093 
L 696.08343 170.389122 
L 690.978487 170.582152 
L 685.873544 170.775182 
L 680.7686 170.968211 
L 675.663657 171.16124 
L 670.558714 171.354268 
L 665.453771 171.547296 
L 660.348827 171.740324 
L 655.243884 171.933351 
L 650.138941 172.126378 
L 645.033998 172.319403 
L 639.929055 172.512428 
L 634.824111 172.705452 
L 629.719168 172.898474 
L 624.614225 173.091495 
L 619.509282 173.284514 
L 614.404338 173.477531 
L 609.299395 173.670546 
L 604.194452 173.863557 
L 599.089509 174.056566 
L 593.984566 174.249569 
L 588.879622 174.442569 
L 583.774679 174.635562 
L 578.669736 174.828548 
L 573.564793 175.021527 
L 568.459849 175.214496 
L 563.354906 175.407454 
L 558.249963 175.600398 
L 553.14502 175.793327 
L 548.040077 175.986237 
L 542.935133 176.179125 
L 537.83019 176.371988 
L 532.725247 176.56482 
L 527.620304 176.757615 
L 522.51536 176.950368 
L 517.410417 177.143071 
L 512.305474 177.335714 
L 507.200531 177.528286 
L 502.095588 177.720775 
L 496.990644 177.913166 
L 491.885701 178.10544 
L 486.780758 178.297577 
L 481.675815 178.489551 
L 476.570871 178.681333 
L 471.465928 178.872889 
L 466.360985 179.064176 
L 461.256042 179.255147 
L 456.151099 179.445743 
L 451.046155 179.635896 
L 445.941212 179.825527 
L 440.836269 180.01454 
L 435.731326 180.202823 
L 430.626383 180.390243 
L 425.521439 180.576644 
L 420.416496 180.761841 
L 415.311553 180.945615 
L 410.20661 181.127707 
L 405.101666 181.307814 
L 399.996723 181.485573 
L 394.89178 181.660561 
L 389.786837 181.832274 
L 384.681894 182.000119 
L 379.57695 182.163396 
L 374.472007 182.321278 
L 369.367064 182.47279 
L 364.262121 182.616782 
L 359.157177 182.751896 
L 354.052234 182.876534 
L 348.947291 182.98881 
L 343.842348 183.086507 
L 338.737405 183.167011 
L 333.632461 183.227251 
L 328.527518 183.26362 
L 323.422575 183.271881 
L 318.317632 183.247069 
L 313.212688 183.183372 
L 308.107745 183.074001 
L 303.002802 182.911037 
L 297.897859 182.685271 
L 292.792916 182.386022 
L 287.687972 182.000949 
L 282.583029 181.515848 
L 277.478086 180.914452 
L 272.373143 180.178248 
L 267.268199 179.286311 
L 262.163256 178.215195 
L 257.058313 176.938904 
L 251.95337 175.428981 
L 246.848427 173.65476 
L 241.743483 171.583842 
L 236.63854 169.182846 
L 231.533597 166.418494 
L 226.428654 163.259078 
L 221.323711 159.676321 
L 216.218767 155.647616 
L 211.113824 151.158548 
L 206.008881 146.205548 
L 200.903938 140.798421 
L 195.798994 134.962437 
L 190.694051 128.739616 
L 185.589108 122.188877 
L 180.484165 115.384784 
L 175.379222 108.41482 
L 170.274278 101.375318 
L 165.169335 94.366415 
L 160.064392 87.486564 
L 154.959449 80.827255 
L 149.854505 74.468497 
L 144.749562 68.47555 
L 139.644619 62.897084 
L 134.539676 57.764813 
L 129.434733 53.094366 
L 124.329789 48.887111 
L 119.224846 45.132553 
L 114.119903 41.81097 
L 109.01496 38.896014 
L 103.910016 36.357074 
L 98.805073 34.161288 
L 93.70013 32.275166 
L 88.595187 30.665819 
L 83.490244 29.301834 
L 78.3853 28.15385 
L 73.280357 27.194892 
L 68.175414 26.400517 
L 63.070471 25.748825 
L 57.965527 25.220378 
L 52.860584 24.798053 
L 47.755641 24.466866 
L 42.650698 24.21377 
L 37.545755 24.027461 
L 32.440811 23.898177 
L 27.335868 23.817516 
L 22.230925 23.778266 
L 17.125982 23.774249 
L 12.021038 23.800187 
L 6.916095 23.851569 
L 1.811152 23.924556 
L -3.293791 24.015875 
L -8.398734 24.122744 
L -13.503678 24.242797 
L -18.608621 24.374026 
L -23.713564 24.514726 
L -28.818507 24.66345 
L -33.92345 24.81897 
L -39.028394 24.980247 
L -44.133337 25.146399 
L -49.23828 25.316678 
L -54.343223 25.490451 
L -59.448167 25.667184 
L -64.55311 25.84642 
L -69.658053 26.027776 
L -74.762996 26.210927 
L -79.867939 26.395596 
L -84.972883 26.581551 
L -90.077826 26.768593 
L -95.182769 26.956556 
L -100.287712 27.145299 
L -105.392656 27.334701 
L -110.497599 27.52466 
L -115.602542 27.715092 
L -120.707485 27.905924 
L -125.812428 28.097094 
L -130.917372 28.28855 
L -136.022315 28.480248 
L -141.127258 28.672151 
L -146.232201 28.864228 
L -151.337145 29.056451 
L -156.442088 29.248798 
L -161.547031 29.441251 
L -166.651974 29.633793 
L -171.756917 29.826409 
L -176.861861 30.01909 
L -181.966804 30.211824 
L -187.071747 30.404604 
L -192.17669 30.597422 
L -197.281634 30.790273 
L -202.386577 30.983152 
L -207.49152 31.176054 
L -212.596463 31.368976 
L -217.701406 31.561915 
L -222.80635 31.754868 
L -227.911293 31.947832 
L -233.016236 32.140807 
L -238.121179 32.333791 
L -243.226122 32.526782 
L -248.331066 32.719779 
L -253.436009 32.912781 
L -258.540952 33.105787 
L -263.645895 33.298798 
L -268.750839 33.491811 
L -273.855782 33.684827 
L -278.960725 33.877845 
L -284.065668 34.070866 
L -289.170611 34.263888 
L -294.275555 34.456911 
L -299.380498 34.649935 
L -304.485441 34.842961 
L -309.590384 35.035987 
L -314.695328 35.229014 
L -319.800271 35.422041 
L -324.905214 35.615069 
L -330.010157 35.808098 
L -335.1151 36.001126 
L -340.220044 36.194155 
L -345.324987 36.387185 
L -350.42993 36.580214 
L -355.534873 36.773244 
L -360.639817 36.966274 
L -365.74476 37.159304 
L -370.849703 37.352334 
L -375.954646 37.545364 
L -381.059589 37.738395 
L -386.164533 37.931425 
L -391.269476 38.124456 
L -396.374419 38.317486 
L -401.479362 38.510517 
L -406.584306 38.703547 
L -411.689249 38.896578 
L -416.794192 39.089608 
L -421.899135 39.282639 
L -427.004078 39.47567 
L -432.109022 39.6687 
L -437.213965 39.861731 
L -442.318908 40.054762 
L -447.423851 40.247792 
L -452.528795 40.440823 
L -457.633738 40.633854 
L -462.738681 40.826885 
L -467.843624 41.019915 
L -472.948567 41.212946 
L -478.053511 41.405977 
L -483.158454 41.599008 
L -488.263397 41.792038 
L -493.36834 41.985069 
L -498.473283 42.1781 
L -503.578227 42.371131 
L -508.68317 42.564161 
L -513.788113 42.757192 
L -518.893056 42.950223 
L -523.998 43.143254 
L -529.102943 43.336284 
L -534.207886 43.529315 
L -539.312829 43.722346 
L -544.417772 43.915377 
L -549.522716 44.108407 
L -554.627659 44.301438 
L -559.732602 44.494469 
L -564.837545 44.6875 
L -569.942489 44.88053 
L -575.047432 45.073561 
L -580.152375 45.266592 
z
" style="fill:#ffffff;fill-opacity:0.2;"/>
   </g>
   <g id="LineCollection_1">
    <path clip-path="url(#pff2bba9491)" d="M 184.057625 248.618336 
L 184.057625 103.522348 
" style="fill:none;stroke:#ffffff;stroke-dasharray:2,3.3;stroke-dashoffset:0;stroke-width:2;"/>
   </g>
   <g id="LineCollection_2">
    <path clip-path="url(#pff2bba9491)" d="M 171.830265 248.618336 
L 171.830265 103.522348 
" style="fill:none;stroke:#ffffff;stroke-dasharray:2,3.3;stroke-dashoffset:0;stroke-width:2;"/>
   </g>
   <g id="LineCollection_3">
    <path clip-path="url(#pff2bba9491)" d="M -1 103.522348 
L 184.057625 103.522348 
" style="fill:none;stroke:#ffffff;stroke-dasharray:2,3.3;stroke-dashoffset:0;stroke-width:2;"/>
   </g>
   <g id="line2d_8">
    <path clip-path="url(#pff2bba9491)" d="M -1 23.830053 
L 78.3853 20.91984 
L 93.70013 20.52268 
L 103.910016 20.429295 
L 114.119903 20.646652 
L 119.224846 20.962926 
L 124.329789 21.497823 
L 129.434733 22.341945 
L 134.539676 23.620093 
L 139.644619 25.50079 
L 144.749562 28.205008 
L 149.854505 32.010014 
L 154.959449 37.240869 
L 160.064392 44.238509 
L 165.169335 53.292744 
L 170.274278 64.53733 
L 175.379222 77.828421 
L 180.484165 92.661617 
L 190.694051 123.4274 
L 195.798994 137.416712 
L 200.903938 149.516359 
L 206.008881 159.44359 
L 211.113824 167.235126 
L 216.218767 173.132713 
L 221.323711 177.467118 
L 226.428654 180.575319 
L 231.533597 182.755752 
L 236.63854 184.251929 
L 241.743483 185.252454 
L 246.848427 185.898459 
L 251.95337 186.293128 
L 257.058313 186.510713 
L 267.268199 186.61053 
L 277.478086 186.459896 
L 297.897859 185.856579 
L 350.099625 183.932745 
L 350.099625 183.932745 
" style="fill:none;stroke:#81b1d2;stroke-linecap:square;stroke-width:2;"/>
   </g>
   <g id="line2d_9">
    <path clip-path="url(#pff2bba9491)" d="M -1 23.974843 
L 12.021038 23.800187 
L 27.335868 23.817516 
L 37.545755 24.027461 
L 47.755641 24.466866 
L 57.965527 25.220378 
L 63.070471 25.748825 
L 68.175414 26.400517 
L 73.280357 27.194892 
L 78.3853 28.15385 
L 83.490244 29.301834 
L 88.595187 30.665819 
L 93.70013 32.275166 
L 98.805073 34.161288 
L 103.910016 36.357074 
L 109.01496 38.896014 
L 114.119903 41.81097 
L 119.224846 45.132553 
L 124.329789 48.887111 
L 129.434733 53.094366 
L 134.539676 57.764813 
L 139.644619 62.897084 
L 144.749562 68.47555 
L 149.854505 74.468497 
L 154.959449 80.827255 
L 160.064392 87.486564 
L 170.274278 101.375318 
L 180.484165 115.384784 
L 185.589108 122.188877 
L 190.694051 128.739616 
L 195.798994 134.962437 
L 200.903938 140.798421 
L 206.008881 146.205548 
L 211.113824 151.158548 
L 216.218767 155.647616 
L 221.323711 159.676321 
L 226.428654 163.259078 
L 231.533597 166.418494 
L 236.63854 169.182846 
L 241.743483 171.583842 
L 246.848427 173.65476 
L 251.95337 175.428981 
L 257.058313 176.938904 
L 262.163256 178.215195 
L 267.268199 179.286311 
L 272.373143 180.178248 
L 277.478086 180.914452 
L 282.583029 181.515848 
L 292.792916 182.386022 
L 303.002802 182.911037 
L 313.212688 183.183372 
L 328.527518 183.26362 
L 343.842348 183.086507 
L 350.099625 182.963466 
L 350.099625 182.963466 
" style="fill:none;stroke:#fa8174;stroke-linecap:square;stroke-width:2;"/>
   </g>
   <g id="patch_3">
    <path d="M 31.215625 199.844696 
L 31.215625 7.2 
" style="fill:none;stroke:#ffffff;stroke-linecap:square;stroke-linejoin:miter;stroke-width:1.2;"/>
   </g>
   <g id="patch_4">
    <path d="M 336.899625 199.844696 
L 336.899625 7.2 
" style="fill:none;stroke:#ffffff;stroke-linecap:square;stroke-linejoin:miter;stroke-width:1.2;"/>
   </g>
   <g id="patch_5">
    <path d="M 31.215625 199.844696 
L 336.899625 199.844696 
" style="fill:none;stroke:#ffffff;stroke-linecap:square;stroke-linejoin:miter;stroke-width:1.2;"/>
   </g>
   <g id="patch_6">
    <path d="M 31.215625 7.2 
L 336.899625 7.2 
" style="fill:none;stroke:#ffffff;stroke-linecap:square;stroke-linejoin:miter;stroke-width:1.2;"/>
   </g>
   <g id="text_5">
    <!-- $N-1$ -->
    <defs>
     <path d="M 22.859375 71.734375 
L 34.328125 71.734375 
L 58.203125 13.625 
L 70.5625 71.734375 
L 79.78125 71.734375 
L 64.546875 0 
L 53.65625 0 
L 29.203125 58.0625 
L 16.890625 0 
L 7.625 0 
z
" id="Helvetica-Oblique-4e"/>
     <path d="M 61.671875 29.59375 
L 59.96875 21.390625 
L 9.03125 21.390625 
L 10.75 29.59375 
z
" id="Helvetica-Oblique-2212"/>
     <path d="M 20.0625 49.515625 
L 21.484375 56.25 
Q 31.203125 57.171875 35.421875 59.34375 
Q 39.65625 61.53125 43.265625 69.625 
L 50.203125 69.625 
L 35.40625 0 
L 26.03125 0 
L 36.53125 49.515625 
z
" id="Helvetica-Oblique-31"/>
    </defs>
    <g style="fill:#ffffff;" transform="translate(77.068225 132.419052)scale(0.18 -0.18)">
     <use transform="translate(0 0.265625)" xlink:href="#Helvetica-Oblique-4e"/>
     <use transform="translate(88.876953 0.265625)" xlink:href="#Helvetica-Oblique-2212"/>
     <use transform="translate(163.935547 0.265625)" xlink:href="#Helvetica-Oblique-31"/>
    </g>
   </g>
   <g id="text_6">
    <!-- $N$ -->
    <g style="fill:#ffffff;" transform="translate(260.478625 132.419052)scale(0.18 -0.18)">
     <use transform="translate(0 0.265625)" xlink:href="#Helvetica-Oblique-4e"/>
    </g>
   </g>
   <g id="text_7">
    <!-- $\Delta S_{N-1 \rightarrow N} &gt; 0$ -->
    <defs>
     <path d="M 40.59375 68.796875 
C 39.796875 70.5 39.40625 70.5 38.59375 70.5 
C 37.40625 70.5 37.296875 70.296875 36.59375 68.890625 
L 4.203125 1.703125 
C 4.09375 1.5 3.703125 0.59375 3.703125 0.5 
C 3.703125 0.09375 3.796875 0 5.59375 0 
L 71.5 0 
C 73.296875 0 73.40625 0.09375 73.40625 0.5 
C 73.40625 0.59375 73 1.5 72.90625 1.703125 
z
M 36.09375 63.09375 
L 63.796875 5.59375 
L 8.296875 5.59375 
z
" id="CMR17-1"/>
     <path d="M 63.5 69.109375 
C 63.5 70 62.796875 70 62.59375 70 
C 62.203125 70 62.09375 69.90625 60.90625 68.40625 
C 60.296875 67.703125 56.203125 62.515625 56.09375 62.421875 
C 52.796875 68.90625 46.203125 70 42 70 
C 29.296875 70 17.796875 58.484375 17.796875 47.265625 
C 17.796875 39.828125 22.296875 35.453125 27.203125 33.765625 
C 28.296875 33.359375 34.203125 31.765625 37.203125 31.078125 
C 42.296875 29.6875 43.59375 29.296875 45.703125 27.109375 
C 46.09375 26.609375 48.09375 24.328125 48.09375 19.65625 
C 48.09375 10.421875 39.5 0.890625 29.5 0.890625 
C 21.296875 0.890625 12.203125 4.375 12.203125 15.484375 
C 12.203125 17.375 12.59375 19.765625 12.90625 20.75 
C 12.90625 21.0625 13 21.53125 13 21.734375 
C 13 22.140625 12.796875 22.640625 12 22.640625 
C 11.09375 22.640625 11 22.4375 10.59375 20.75 
L 5.5 0.375 
C 5.5 0.28125 5.09375 -1 5.09375 -1.109375 
C 5.09375 -2 5.90625 -2 6.09375 -2 
C 6.5 -2 6.59375 -1.90625 7.796875 -0.40625 
L 12.40625 5.5625 
C 14.796875 1.96875 20 -2 29.296875 -2 
C 42.203125 -2 54 10.40625 54 22.8125 
C 54 27 53 30.671875 49.203125 34.328125 
C 47.09375 36.421875 45.296875 36.921875 36.09375 39.3125 
C 29.40625 41.09375 28.5 41.390625 26.703125 42.984375 
C 25 44.65625 23.703125 47.046875 23.703125 50.421875 
C 23.703125 58.765625 32.203125 67.3125 41.703125 67.3125 
C 51.5 67.3125 56.09375 61.34375 56.09375 51.921875 
C 56.09375 49.34375 55.59375 46.65625 55.59375 46.265625 
C 55.59375 45.359375 56.40625 45.359375 56.703125 45.359375 
C 57.59375 45.359375 57.703125 45.65625 58.09375 47.25 
z
" id="CMMI12-83"/>
     <path d="M 74 57.78125 
C 75.09375 62.09375 76.703125 65.09375 84.296875 65.09375 
C 84.59375 65.09375 85.796875 65.09375 85.796875 66.859375 
C 85.796875 68 84.90625 68 84.5 68 
C 82.5 68 77.40625 68 75.40625 68 
L 70.59375 68 
C 69.203125 68 67.40625 68 66 68 
C 65.40625 68 64.203125 68 64.203125 66.09375 
C 64.203125 65.09375 65 65.09375 65.703125 65.09375 
C 71.703125 65.09375 72.09375 62.796875 72.09375 60.984375 
C 72.09375 60.09375 72 59.78125 71.703125 58.390625 
L 60.40625 13.28125 
L 39 66.390625 
C 38.296875 68 38.203125 68 36 68 
L 23.796875 68 
C 21.796875 68 20.90625 68 20.90625 66.09375 
C 20.90625 65.09375 21.59375 65.09375 23.5 65.09375 
C 24 65.09375 29.90625 65.09375 29.90625 64.296875 
C 29.90625 64.09375 29.703125 63.296875 29.59375 63 
L 16.296875 9.921875 
C 15.09375 5 12.703125 2.90625 6.09375 2.90625 
C 5.59375 2.90625 4.59375 2.90625 4.59375 1.046875 
C 4.59375 0 5.59375 0 5.90625 0 
C 7.90625 0 13 0 15 0 
L 19.796875 0 
C 21.203125 0 22.90625 0 24.296875 0 
C 25 0 26.09375 0 26.09375 1.90625 
C 26.09375 2.8125 25.09375 2.90625 24.703125 2.90625 
C 21.40625 2.90625 18.203125 3.5 18.203125 7.09375 
C 18.203125 7.890625 18.40625 8.78125 18.59375 9.578125 
L 32.09375 63 
C 32.703125 62 32.703125 61.8125 33.09375 60.90625 
L 56.90625 1.796875 
C 57.40625 0.59375 57.59375 0 58.5 0 
C 59.5 0 59.59375 0.296875 60 2 
z
" id="CMMI12-78"/>
     <path d="M 65.90625 23 
C 67.59375 23 69.40625 23 69.40625 25 
C 69.40625 27 67.59375 27 65.90625 27 
L 11.796875 27 
C 10.09375 27 8.296875 27 8.296875 25 
C 8.296875 23 10.09375 23 11.796875 23 
z
" id="CMSY10-0"/>
     <path d="M 26.59375 63.40625 
C 26.59375 65.5 26.5 65.5 25.09375 65.5 
C 21.203125 61.1875 15.296875 59.796875 9.703125 59.796875 
C 9.40625 59.796875 8.90625 59.796875 8.796875 59.5 
C 8.703125 59.296875 8.703125 59.09375 8.703125 57 
C 11.796875 57 17 57.59375 21 59.984375 
L 21 7.203125 
C 21 3.6875 20.796875 2.5 12.203125 2.5 
L 9.203125 2.5 
L 9.203125 0 
C 14 0 19 0 23.796875 0 
C 28.59375 0 33.59375 0 38.40625 0 
L 38.40625 2.5 
L 35.40625 2.5 
C 26.796875 2.5 26.59375 3.59375 26.59375 7.15625 
z
" id="CMR17-49"/>
     <path d="M 83.40625 23 
C 77.90625 18.796875 75.203125 14.703125 74.40625 13.40625 
C 69.90625 6.5 69.09375 0.203125 69.09375 0.09375 
C 69.09375 -1.09375 70.296875 -1.09375 71.09375 -1.09375 
C 72.796875 -1.09375 72.90625 -0.90625 73.296875 0.90625 
C 75.59375 10.703125 81.5 19.09375 92.796875 23.703125 
C 94 24.09375 94.296875 24.296875 94.296875 25 
C 94.296875 25.703125 93.703125 26 93.5 26.09375 
C 89.09375 27.796875 77 32.796875 73.203125 49.59375 
C 72.90625 50.796875 72.796875 51.09375 71.09375 51.09375 
C 70.296875 51.09375 69.09375 51.09375 69.09375 49.890625 
C 69.09375 49.6875 70 43.390625 74.203125 36.703125 
C 76.203125 33.703125 79.09375 30.203125 83.40625 27 
L 9.09375 27 
C 7.296875 27 5.5 27 5.5 25 
C 5.5 23 7.296875 23 9.09375 23 
z
" id="CMSY10-33"/>
     <path d="M 65.90625 22.640625 
C 67.796875 23.546875 67.90625 24.140625 67.90625 24.84375 
C 67.90625 25.4375 67.703125 26.140625 65.90625 26.953125 
L 11.796875 51.90625 
C 10.5 52.5 10.296875 52.5 10.09375 52.5 
C 8.90625 52.5 8.203125 51.5 8.203125 50.703125 
C 8.203125 49.5 9 49.09375 10.296875 48.5 
L 61.703125 24.84375 
L 10.203125 1.015625 
C 8.203125 0.09375 8.203125 -0.609375 8.203125 -1.203125 
C 8.203125 -2 8.90625 -3 10.09375 -3 
C 10.296875 -3 10.40625 -2.890625 11.796875 -2.296875 
z
" id="CMMI12-62"/>
     <path d="M 42 31.640625 
C 42 37.75 41.90625 48.125 37.703125 56.109375 
C 34 63.109375 28.09375 65.59375 22.90625 65.59375 
C 18.09375 65.59375 12 63.40625 8.203125 56.203125 
C 4.203125 48.71875 3.796875 39.4375 3.796875 31.640625 
C 3.796875 25.953125 3.90625 17.28125 7 9.671875 
C 11.296875 -0.609375 19 -2 22.90625 -2 
C 27.5 -2 34.5 -0.109375 38.59375 9.375 
C 41.59375 16.28125 42 24.359375 42 31.640625 
z
M 22.90625 -0.40625 
C 16.5 -0.40625 12.703125 5.078125 11.296875 12.6875 
C 10.203125 18.5625 10.203125 27.15625 10.203125 32.75 
C 10.203125 40.4375 10.203125 46.828125 11.5 52.921875 
C 13.40625 61.390625 19 64 22.90625 64 
C 27 64 32.296875 61.296875 34.203125 53.125 
C 35.5 47.4375 35.59375 40.734375 35.59375 32.75 
C 35.59375 26.25 35.59375 18.265625 34.40625 12.375 
C 32.296875 1.484375 26.40625 -0.40625 22.90625 -0.40625 
z
" id="CMR17-48"/>
    </defs>
    <g style="fill:#ffffff;" transform="translate(190.171305 55.361174)scale(0.22 -0.22)">
     <use transform="translate(0 14.943915)scale(0.996264)" xlink:href="#CMR17-1"/>
     <use transform="translate(76.91959 14.943915)scale(0.996264)" xlink:href="#CMMI12-83"/>
     <use transform="translate(136.914078 0)scale(0.697382)" xlink:href="#CMMI12-78"/>
     <use transform="translate(198.879051 0)scale(0.697382)" xlink:href="#CMSY10-0"/>
     <use transform="translate(253.120044 0)scale(0.697382)" xlink:href="#CMR17-49"/>
     <use transform="translate(285.103226 0)scale(0.697382)" xlink:href="#CMSY10-33"/>
     <use transform="translate(354.8416 0)scale(0.697382)" xlink:href="#CMMI12-78"/>
     <use transform="translate(444.978714 14.943915)scale(0.996264)" xlink:href="#CMMI12-62"/>
     <use transform="translate(548.524819 14.943915)scale(0.996264)" xlink:href="#CMR17-48"/>
    </g>
   </g>
  </g>
 </g>
 <defs>
  <clipPath id="pff2bba9491">
   <rect height="192.644696" width="305.684" x="31.215625" y="7.2"/>
  </clipPath>
 </defs>
</svg>
