<?xml version="1.0" encoding="utf-8"?>
<!-- Generator: Adobe Illustrator 15.0.0, SVG Export Plug-In . SVG Version: 6.00 Build 0)  -->
<!DOCTYPE svg PUBLIC "-//W3C//DTD SVG 1.1//EN" "http://www.w3.org/Graphics/SVG/1.1/DTD/svg11.dtd">
<svg version="1.1" id="Layer_1" xmlns="http://www.w3.org/2000/svg" xmlns:xlink="http://www.w3.org/1999/xlink" x="0px" y="0px"
	 width="587px" height="362px" viewBox="0 0 587 362" enable-background="new 0 0 587 362" xml:space="preserve">
<rect x="0.5" y="0.5" fill="#FFFFFF" stroke="#000000" stroke-miterlimit="10" width="586" height="361"/>
<g>
	<line fill="none" stroke="#FFFFFF" stroke-width="3" x1="139.938" y1="270.26" x2="225.242" y2="270.26"/>
	<line fill="none" stroke="#FFFFFF" stroke-width="3" x1="139.938" y1="261.58" x2="139.938" y2="278.932"/>
	<line fill="none" stroke="#FFFFFF" stroke-width="0.8571" x1="225.242" y1="261.58" x2="225.242" y2="278.932"/>
	<text transform="matrix(1 0 0 1 172.8047 249.2363)" fill="#FFFFFF" font-family="'DejaVuSans'" font-size="28.5711">μ</text>
	<text transform="matrix(1 0 0 1 190.9766 249.2363)" fill="#FFFFFF" font-family="'DejaVuSans'" font-size="28.5711">m</text>
	<rect x="190.594" y="45.314" fill="#BA1C1C" width="289.383" height="58.273"/>
	<rect x="191.086" y="130.744" fill="#BA1C1C" width="289.383" height="115.562"/>
	<rect x="203.43" y="53.705" fill="#09BA09" width="41.484" height="41.482"/>
	<rect x="425.656" y="53.705" fill="#09BA09" width="41.484" height="41.482"/>
	<rect x="164.914" y="167.783" fill="#09BA09" width="41.477" height="41.482"/>
	<rect x="465.164" y="167.783" fill="#09BA09" width="41.484" height="41.482"/>
	<rect x="218.523" y="226.549" fill="#09BA09" width="41.484" height="41.484"/>
	<rect x="411.555" y="226.549" fill="#09BA09" width="41.477" height="41.484"/>
	<rect x="411.555" y="109.018" fill="#09BA09" width="41.477" height="41.484"/>
	<rect x="348.547" y="189.51" fill="#E0E003" width="41.484" height="41.484"/>
	<rect x="281.523" y="189.51" fill="#E0E003" width="41.484" height="41.484"/>
	<line fill="none" stroke="#969696" stroke-width="2" x1="311.148" y1="169.783" x2="360.406" y2="169.783"/>
	<line fill="none" stroke="#C3C3C3" stroke-width="2" x1="315.906" y1="196.096" x2="315.906" y2="165.307"/>
	<line fill="none" stroke="#C3C3C3" stroke-width="2" x1="355.648" y1="196.096" x2="355.648" y2="165.307"/>
	<line fill="none" stroke="#000000" stroke-width="3" stroke-linecap="square" x1="164" y1="259.479" x2="81.312" y2="259.479"/>
	
		<line fill="none" stroke="#000000" stroke-width="3" stroke-linecap="square" x1="143.328" y1="272.393" x2="101.984" y2="272.393"/>
	<line fill="none" stroke="#000000" stroke-width="3" x1="122.656" y1="188.524" x2="122.656" y2="259.479"/>
	
		<line fill="none" stroke="#000000" stroke-width="3" stroke-linecap="square" x1="122.656" y1="272.393" x2="122.656" y2="327.143"/>
	<path fill="#FFFFFF" d="M152,74.446c0,19.422-15.828,35.172-35.344,35.172c-19.523,0-35.344-15.75-35.344-35.172
		s15.82-35.172,35.344-35.172C136.172,39.274,152,55.024,152,74.446z"/>
	<path fill="none" stroke="#000000" stroke-width="3" stroke-linejoin="round" d="M152,74.446c0,19.422-15.828,35.172-35.344,35.172
		c-19.523,0-35.344-15.75-35.344-35.172s15.82-35.172,35.344-35.172C136.172,39.274,152,55.024,152,74.446z"/>
	<path fill="none" stroke="#000000" stroke-width="3" stroke-linecap="square" d="M97.164,74.446
		c17.68-35.172,17.68,35.172,35.352,0"/>
	
		<line fill="none" stroke="#000000" stroke-width="3" stroke-linecap="square" x1="175.375" y1="188.525" x2="122.656" y2="188.525"/>
	
		<line fill="none" stroke="#000000" stroke-width="3" stroke-linecap="square" x1="380.008" y1="214.244" x2="380.008" y2="298.721"/>
	
		<line fill="none" stroke="#000000" stroke-width="3" stroke-linecap="square" x1="379.883" y1="299.072" x2="291.547" y2="299.072"/>
	<path fill="#FFFFFF" d="M371.164,299.072c0,19.516-15.828,35.344-35.352,35.344c-19.516,0-35.344-15.828-35.344-35.344
		c0-19.523,15.828-35.352,35.344-35.352C355.336,263.721,371.164,279.549,371.164,299.072z"/>
	<path fill="none" stroke="#000000" stroke-width="3" stroke-linecap="square" d="M371.164,299.072
		c0,19.516-15.828,35.344-35.352,35.344c-19.516,0-35.344-15.828-35.344-35.344c0-19.523,15.828-35.352,35.344-35.352
		C355.336,263.721,371.164,279.549,371.164,299.072z"/>
	
		<line fill="none" stroke="#000000" stroke-width="3" stroke-linecap="square" x1="291.617" y1="214.244" x2="291.617" y2="297.689"/>
	
		<line fill="none" stroke="#000000" stroke-width="3" stroke-linecap="square" x1="153.664" y1="329.963" x2="91.648" y2="329.963"/>
	
		<line fill="none" stroke="#000000" stroke-width="3" stroke-linecap="square" x1="143.328" y1="340.299" x2="101.984" y2="340.299"/>
	
		<line fill="none" stroke="#000000" stroke-width="3" stroke-linecap="square" x1="132.992" y1="350.635" x2="112.32" y2="350.635"/>
	<polyline fill="none" stroke="#000000" stroke-width="3" stroke-linecap="square" points="549.323,129.196 549.323,74.446 
		453.031,74.451 	"/>
	
		<line fill="none" stroke="#000000" stroke-width="3" stroke-linecap="square" x1="580.331" y1="132.017" x2="518.315" y2="132.017"/>
	
		<line fill="none" stroke="#000000" stroke-width="3" stroke-linecap="square" x1="569.995" y1="142.353" x2="528.651" y2="142.353"/>
	
		<line fill="none" stroke="#000000" stroke-width="3" stroke-linecap="square" x1="559.659" y1="152.688" x2="538.987" y2="152.688"/>
	<text transform="matrix(1 0 0 1 312.498 300.166)" stroke="#000000" stroke-width="0.5" font-family="'CMTI12'" font-size="30">g</text>
	
		<text transform="matrix(0.583 0 0 0.583 325.998 310.1562)" stroke="#000000" stroke-width="0.5" font-family="'CMTI12'" font-size="30">SET</text>
	<polyline fill="none" stroke="#000000" stroke-width="3" stroke-linecap="square" points="43.006,128.646 43.006,73.896 
		80.98,73.901 	"/>
	<line fill="none" stroke="#000000" stroke-width="3" stroke-linecap="square" x1="11.999" y1="131.467" x2="74.014" y2="131.467"/>
	<line fill="none" stroke="#000000" stroke-width="3" stroke-linecap="square" x1="22.334" y1="141.803" x2="63.678" y2="141.803"/>
	<line fill="none" stroke="#000000" stroke-width="3" stroke-linecap="square" x1="32.67" y1="152.139" x2="53.342" y2="152.139"/>
</g>
<line stroke="#000000" stroke-width="3" x1="152" y1="74.446" x2="218.523" y2="74.446"/>
<text transform="matrix(1 0 0 1 37.165 271.5)" stroke="#000000" stroke-width="0.5" font-family="'CMTI12'" font-size="30">V</text>
<text transform="matrix(0.583 0 0 0.583 58.9453 281.4902)" stroke="#000000" stroke-width="0.5" font-family="'CMTI12'" font-size="30">G</text>
<text transform="matrix(1 0 0 1 29.6484 35.8325)" stroke="#000000" stroke-width="0.5" font-family="'CMTI12'" font-size="30">I</text>
<text transform="matrix(0.583 0 0 0.583 40.9277 45.8228)" stroke="#000000" stroke-width="0.5" font-family="'CMTI12'" font-size="30">heat</text>
</svg>
