<?xml version="1.0" encoding="utf-8" standalone="no"?>
<!DOCTYPE svg PUBLIC "-//W3C//DTD SVG 1.1//EN"
  "http://www.w3.org/Graphics/SVG/1.1/DTD/svg11.dtd">
<!-- Created with matplotlib (http://matplotlib.org/) -->
<svg height="245.9565pt" version="1.1" viewBox="0 0 491.745625 245.9565" width="491.745625pt" xmlns="http://www.w3.org/2000/svg" xmlns:xlink="http://www.w3.org/1999/xlink">
 <defs>
  <style type="text/css">
*{stroke-linecap:butt;stroke-linejoin:round;}
  </style>
 </defs>
 <g id="figure_1">
  <g id="patch_1">
   <path d="M 0 245.9565 
L 491.745625 245.9565 
L 491.745625 0 
L 0 0 
z
" style="fill:none;"/>
  </g>
  <g id="axes_1">
   <g id="patch_2">
    <path d="M 53.455625 198.044 
L 484.545625 198.044 
L 484.545625 7.2 
L 53.455625 7.2 
z
" style="fill:none;"/>
   </g>
   <g id="matplotlib.axis_1">
    <g id="xtick_1">
     <g id="line2d_1">
      <defs>
       <path d="M 0 0 
L 0 -5 
" id="m34229a7a0c" style="stroke:#ffffff;stroke-width:1.2;"/>
      </defs>
      <g>
       <use style="fill:#ffffff;stroke:#ffffff;stroke-width:1.2;" x="112.240625" xlink:href="#m34229a7a0c" y="198.044"/>
      </g>
     </g>
     <g id="line2d_2">
      <defs>
       <path d="M 0 0 
L 0 5 
" id="me2d25241b8" style="stroke:#ffffff;stroke-width:1.2;"/>
      </defs>
      <g>
       <use style="fill:#ffffff;stroke:#ffffff;stroke-width:1.2;" x="112.240625" xlink:href="#me2d25241b8" y="7.2"/>
      </g>
     </g>
     <g id="text_1">
      <!-- −4 -->
      <defs>
       <path d="M 55.421875 29.59375 
L 55.421875 21.390625 
L 4.5 21.390625 
L 4.5 29.59375 
z
" id="Helvetica-2212"/>
       <path d="M 33.0625 24.75 
L 33.0625 56.453125 
L 10.640625 24.75 
z
M 33.203125 0 
L 33.203125 17.09375 
L 2.546875 17.09375 
L 2.546875 25.6875 
L 34.578125 70.125 
L 42 70.125 
L 42 24.75 
L 52.296875 24.75 
L 52.296875 17.09375 
L 42 17.09375 
L 42 0 
z
" id="Helvetica-34"/>
      </defs>
      <g style="fill:#ffffff;" transform="translate(103.119375 213.0215)scale(0.16 -0.16)">
       <use xlink:href="#Helvetica-2212"/>
       <use x="58.398438" xlink:href="#Helvetica-34"/>
      </g>
     </g>
    </g>
    <g id="xtick_2">
     <g id="line2d_3">
      <g>
       <use style="fill:#ffffff;stroke:#ffffff;stroke-width:1.2;" x="190.620625" xlink:href="#m34229a7a0c" y="198.044"/>
      </g>
     </g>
     <g id="line2d_4">
      <g>
       <use style="fill:#ffffff;stroke:#ffffff;stroke-width:1.2;" x="190.620625" xlink:href="#me2d25241b8" y="7.2"/>
      </g>
     </g>
     <g id="text_2">
      <!-- −2 -->
      <defs>
       <path d="M 3.125 0 
Q 3.609375 9.03125 6.859375 15.71875 
Q 10.109375 22.40625 19.53125 27.875 
L 28.90625 33.296875 
Q 35.203125 36.96875 37.75 39.546875 
Q 41.75 43.609375 41.75 48.828125 
Q 41.75 54.9375 38.078125 58.515625 
Q 34.421875 62.109375 28.328125 62.109375 
Q 19.28125 62.109375 15.828125 55.28125 
Q 13.96875 51.609375 13.765625 45.125 
L 4.828125 45.125 
Q 4.984375 54.25 8.203125 60.015625 
Q 13.921875 70.171875 28.375 70.171875 
Q 40.375 70.171875 45.921875 63.671875 
Q 51.46875 57.171875 51.46875 49.21875 
Q 51.46875 40.828125 45.5625 34.859375 
Q 42.140625 31.390625 33.296875 26.46875 
L 26.609375 22.75 
Q 21.828125 20.125 19.09375 17.71875 
Q 14.203125 13.484375 12.9375 8.296875 
L 51.125 8.296875 
L 51.125 0 
L 3.125 0 
z
" id="Helvetica-32"/>
      </defs>
      <g style="fill:#ffffff;" transform="translate(181.499375 213.0215)scale(0.16 -0.16)">
       <use xlink:href="#Helvetica-2212"/>
       <use x="58.398438" xlink:href="#Helvetica-32"/>
      </g>
     </g>
    </g>
    <g id="xtick_3">
     <g id="line2d_5">
      <g>
       <use style="fill:#ffffff;stroke:#ffffff;stroke-width:1.2;" x="269.000625" xlink:href="#m34229a7a0c" y="198.044"/>
      </g>
     </g>
     <g id="line2d_6">
      <g>
       <use style="fill:#ffffff;stroke:#ffffff;stroke-width:1.2;" x="269.000625" xlink:href="#me2d25241b8" y="7.2"/>
      </g>
     </g>
     <g id="text_3">
      <!-- 0 -->
      <defs>
       <path d="M 27.046875 69.921875 
Q 40.625 69.921875 46.6875 58.734375 
Q 51.375 50.09375 51.375 35.0625 
Q 51.375 20.796875 47.125 11.46875 
Q 40.96875 -1.90625 27 -1.90625 
Q 14.40625 -1.90625 8.25 9.03125 
Q 3.125 18.171875 3.125 33.546875 
Q 3.125 45.453125 6.203125 54 
Q 11.96875 69.921875 27.046875 69.921875 
z
M 26.953125 6.109375 
Q 33.796875 6.109375 37.84375 12.15625 
Q 41.890625 18.21875 41.890625 34.71875 
Q 41.890625 46.625 38.953125 54.3125 
Q 36.03125 62.015625 27.59375 62.015625 
Q 19.828125 62.015625 16.234375 54.703125 
Q 12.640625 47.40625 12.640625 33.203125 
Q 12.640625 22.515625 14.9375 16.015625 
Q 18.453125 6.109375 26.953125 6.109375 
z
" id="Helvetica-30"/>
      </defs>
      <g style="fill:#ffffff;" transform="translate(264.551875 213.0215)scale(0.16 -0.16)">
       <use xlink:href="#Helvetica-30"/>
      </g>
     </g>
    </g>
    <g id="xtick_4">
     <g id="line2d_7">
      <g>
       <use style="fill:#ffffff;stroke:#ffffff;stroke-width:1.2;" x="347.380625" xlink:href="#m34229a7a0c" y="198.044"/>
      </g>
     </g>
     <g id="line2d_8">
      <g>
       <use style="fill:#ffffff;stroke:#ffffff;stroke-width:1.2;" x="347.380625" xlink:href="#me2d25241b8" y="7.2"/>
      </g>
     </g>
     <g id="text_4">
      <!-- 2 -->
      <g style="fill:#ffffff;" transform="translate(342.931875 213.0215)scale(0.16 -0.16)">
       <use xlink:href="#Helvetica-32"/>
      </g>
     </g>
    </g>
    <g id="xtick_5">
     <g id="line2d_9">
      <g>
       <use style="fill:#ffffff;stroke:#ffffff;stroke-width:1.2;" x="425.760625" xlink:href="#m34229a7a0c" y="198.044"/>
      </g>
     </g>
     <g id="line2d_10">
      <g>
       <use style="fill:#ffffff;stroke:#ffffff;stroke-width:1.2;" x="425.760625" xlink:href="#me2d25241b8" y="7.2"/>
      </g>
     </g>
     <g id="text_5">
      <!-- 4 -->
      <g style="fill:#ffffff;" transform="translate(421.311875 213.0215)scale(0.16 -0.16)">
       <use xlink:href="#Helvetica-34"/>
      </g>
     </g>
    </g>
    <g id="text_6">
     <!-- B$_{\parallel}$ (T) -->
     <defs>
      <path d="M 34.578125 41.40625 
Q 40.71875 41.40625 44.140625 43.109375 
Q 49.515625 45.796875 49.515625 52.78125 
Q 49.515625 59.8125 43.796875 62.25 
Q 40.578125 63.625 34.234375 63.625 
L 16.890625 63.625 
L 16.890625 41.40625 
z
M 37.84375 8.296875 
Q 46.78125 8.296875 50.59375 13.484375 
Q 52.984375 16.75 52.984375 21.390625 
Q 52.984375 29.203125 46 32.03125 
Q 42.28125 33.546875 36.1875 33.546875 
L 16.890625 33.546875 
L 16.890625 8.296875 
z
M 7.375 71.734375 
L 38.1875 71.734375 
Q 50.78125 71.734375 56.109375 64.203125 
Q 59.234375 59.765625 59.234375 53.953125 
Q 59.234375 47.171875 55.375 42.828125 
Q 53.375 40.53125 49.609375 38.625 
Q 55.125 36.53125 57.859375 33.890625 
Q 62.703125 29.203125 62.703125 20.953125 
Q 62.703125 14.015625 58.34375 8.40625 
Q 51.859375 0 37.703125 0 
L 7.375 0 
z
" id="Helvetica-42"/>
      <path d="M 39.40625 -18.90625 
L 32.796875 -18.90625 
L 32.796875 69 
L 39.40625 69 
z
M 19.5 -18.90625 
L 12.90625 -18.90625 
L 12.90625 69 
L 19.5 69 
z
" id="STIXGeneral-Regular-2225"/>
      <path id="Helvetica-20"/>
      <path d="M 29.59375 72.90625 
Q 21.921875 58.015625 19.625 50.984375 
Q 16.15625 40.28125 16.15625 26.265625 
Q 16.15625 12.109375 20.125 0.390625 
Q 22.5625 -6.84375 29.734375 -20.40625 
L 23.828125 -20.40625 
Q 16.703125 -9.28125 14.984375 -6.203125 
Q 13.28125 -3.125 11.28125 2.15625 
Q 8.546875 9.375 7.46875 17.578125 
Q 6.9375 21.828125 6.9375 25.6875 
Q 6.9375 40.140625 11.46875 51.421875 
Q 14.359375 58.59375 23.484375 72.90625 
z
" id="Helvetica-28"/>
      <path d="M 59.8125 71.734375 
L 59.8125 63.1875 
L 35.640625 63.1875 
L 35.640625 0 
L 25.78125 0 
L 25.78125 63.1875 
L 1.609375 63.1875 
L 1.609375 71.734375 
z
" id="Helvetica-54"/>
      <path d="M 3.46875 -20.40625 
Q 11.234375 -5.28125 13.484375 1.65625 
Q 16.890625 12.15625 16.890625 26.265625 
Q 16.890625 40.375 12.9375 52.09375 
Q 10.5 59.328125 3.328125 72.90625 
L 9.234375 72.90625 
Q 16.75 60.890625 18.328125 58.078125 
Q 19.921875 55.28125 21.78125 50.34375 
Q 24.125 44.234375 25.125 38.28125 
Q 26.125 32.328125 26.125 26.8125 
Q 26.125 12.359375 21.53125 1.03125 
Q 18.65625 -6.25 9.578125 -20.40625 
z
" id="Helvetica-29"/>
     </defs>
     <g style="fill:#ffffff;" transform="translate(240.400625 232.9565)scale(0.2 -0.2)">
      <use transform="translate(0 0.09375)" xlink:href="#Helvetica-42"/>
      <use transform="translate(79.276523 -15.595313)scale(0.7)" xlink:href="#STIXGeneral-Regular-2225"/>
      <use transform="translate(130.163468 0.09375)" xlink:href="#Helvetica-20"/>
      <use transform="translate(157.946671 0.09375)" xlink:href="#Helvetica-28"/>
      <use transform="translate(191.247452 0.09375)" xlink:href="#Helvetica-54"/>
      <use transform="translate(252.331437 0.09375)" xlink:href="#Helvetica-29"/>
     </g>
    </g>
   </g>
   <g id="matplotlib.axis_2">
    <g id="ytick_1">
     <g id="line2d_11">
      <defs>
       <path d="M 0 0 
L 5 0 
" id="mf5d0c6257e" style="stroke:#ffffff;stroke-width:1.2;"/>
      </defs>
      <g>
       <use style="fill:#ffffff;stroke:#ffffff;stroke-width:1.2;" x="53.455625" xlink:href="#mf5d0c6257e" y="177.955158"/>
      </g>
     </g>
     <g id="line2d_12">
      <defs>
       <path d="M 0 0 
L -5 0 
" id="mea5f4f93aa" style="stroke:#ffffff;stroke-width:1.2;"/>
      </defs>
      <g>
       <use style="fill:#ffffff;stroke:#ffffff;stroke-width:1.2;" x="484.545625" xlink:href="#mea5f4f93aa" y="177.955158"/>
      </g>
     </g>
     <g id="text_7">
      <!-- 0.0 -->
      <defs>
       <path d="M 8.546875 10.640625 
L 18.75 10.640625 
L 18.75 0 
L 8.546875 0 
z
" id="Helvetica-2e"/>
      </defs>
      <g style="fill:#ffffff;" transform="translate(27.715625 183.693908)scale(0.16 -0.16)">
       <use xlink:href="#Helvetica-30"/>
       <use x="55.615234" xlink:href="#Helvetica-2e"/>
       <use x="83.398438" xlink:href="#Helvetica-30"/>
      </g>
     </g>
    </g>
    <g id="ytick_2">
     <g id="line2d_13">
      <g>
       <use style="fill:#ffffff;stroke:#ffffff;stroke-width:1.2;" x="53.455625" xlink:href="#mf5d0c6257e" y="97.599789"/>
      </g>
     </g>
     <g id="line2d_14">
      <g>
       <use style="fill:#ffffff;stroke:#ffffff;stroke-width:1.2;" x="484.545625" xlink:href="#mea5f4f93aa" y="97.599789"/>
      </g>
     </g>
     <g id="text_8">
      <!-- 0.4 -->
      <g style="fill:#ffffff;" transform="translate(27.715625 103.338539)scale(0.16 -0.16)">
       <use xlink:href="#Helvetica-30"/>
       <use x="55.615234" xlink:href="#Helvetica-2e"/>
       <use x="83.398438" xlink:href="#Helvetica-34"/>
      </g>
     </g>
    </g>
    <g id="ytick_3">
     <g id="line2d_15">
      <g>
       <use style="fill:#ffffff;stroke:#ffffff;stroke-width:1.2;" x="53.455625" xlink:href="#mf5d0c6257e" y="38.709915"/>
      </g>
     </g>
     <g id="line2d_16">
      <g>
       <use style="fill:#ffffff;stroke:#ffffff;stroke-width:1.2;" x="484.545625" xlink:href="#mea5f4f93aa" y="38.709915"/>
      </g>
     </g>
     <g id="text_9">
      <!-- $\ln{2}$ -->
      <defs>
       <path d="M 6.6875 71.734375 
L 15.484375 71.734375 
L 15.484375 0 
L 6.6875 0 
z
" id="Helvetica-6c"/>
       <path d="M 6.453125 52.296875 
L 14.796875 52.296875 
L 14.796875 44.875 
Q 18.5 49.46875 22.65625 51.46875 
Q 26.8125 53.46875 31.890625 53.46875 
Q 43.015625 53.46875 46.921875 45.703125 
Q 49.078125 41.453125 49.078125 33.546875 
L 49.078125 0 
L 40.140625 0 
L 40.140625 32.953125 
Q 40.140625 37.75 38.71875 40.671875 
Q 36.375 45.5625 30.21875 45.5625 
Q 27.09375 45.5625 25.09375 44.921875 
Q 21.484375 43.84375 18.75 40.625 
Q 16.546875 38.03125 15.890625 35.265625 
Q 15.234375 32.515625 15.234375 27.390625 
L 15.234375 0 
L 6.453125 0 
z
M 27.09375 53.5625 
z
" id="Helvetica-6e"/>
      </defs>
      <g style="fill:#ffffff;" transform="translate(28.515625 44.448665)scale(0.16 -0.16)">
       <use transform="translate(0 0.265625)" xlink:href="#Helvetica-6c"/>
       <use transform="translate(22.216797 0.265625)" xlink:href="#Helvetica-6e"/>
       <use transform="translate(77.832031 0.265625)" xlink:href="#Helvetica-32"/>
      </g>
     </g>
    </g>
    <g id="text_10">
     <!-- $\Delta S/k_B$ -->
     <defs>
      <path d="M 14.40625 7.8125 
L 57.375 7.8125 
L 35.59375 61.578125 
z
M 30.71875 70.609375 
L 41.109375 70.609375 
L 70.21875 0 
L 2 0 
z
" id="Helvetica-394"/>
      <path d="M 13.96875 23.140625 
Q 14.3125 17.046875 16.84375 13.234375 
Q 21.6875 6.109375 33.890625 6.109375 
Q 39.359375 6.109375 43.84375 7.671875 
Q 52.546875 10.6875 52.546875 18.5 
Q 52.546875 24.359375 48.875 26.859375 
Q 45.171875 29.296875 37.25 31.109375 
L 27.546875 33.296875 
Q 18.015625 35.453125 14.0625 38.03125 
Q 7.234375 42.53125 7.234375 51.46875 
Q 7.234375 61.140625 13.921875 67.328125 
Q 20.609375 73.53125 32.859375 73.53125 
Q 44.140625 73.53125 52.015625 68.078125 
Q 59.90625 62.640625 59.90625 50.6875 
L 50.78125 50.6875 
Q 50.046875 56.453125 47.65625 59.515625 
Q 43.21875 65.140625 32.5625 65.140625 
Q 23.96875 65.140625 20.203125 61.515625 
Q 16.453125 57.90625 16.453125 53.125 
Q 16.453125 47.859375 20.84375 45.40625 
Q 23.734375 43.84375 33.890625 41.5 
L 43.953125 39.203125 
Q 51.21875 37.546875 55.171875 34.671875 
Q 62.015625 29.640625 62.015625 20.0625 
Q 62.015625 8.15625 53.34375 3.03125 
Q 44.671875 -2.09375 33.203125 -2.09375 
Q 19.828125 -2.09375 12.25 4.734375 
Q 4.6875 11.53125 4.828125 23.140625 
z
M 33.59375 73.6875 
z
" id="Helvetica-53"/>
      <path d="M 22.75 71.734375 
L 30.171875 71.734375 
L 7.421875 0 
L 0 0 
z
" id="Helvetica-2f"/>
      <path d="M 6.25 71.734375 
L 14.703125 71.734375 
L 14.703125 30.078125 
L 37.25 52.296875 
L 48.484375 52.296875 
L 28.46875 32.71875 
L 49.609375 0 
L 38.375 0 
L 22.078125 26.375 
L 14.703125 19.625 
L 14.703125 0 
L 6.25 0 
z
" id="Helvetica-6b"/>
     </defs>
     <g style="fill:#ffffff;" transform="translate(21.546875 129.322)rotate(-90)scale(0.2 -0.2)">
      <use transform="translate(0 0.3125)" xlink:href="#Helvetica-394"/>
      <use transform="translate(72.216797 0.3125)" xlink:href="#Helvetica-53"/>
      <use transform="translate(138.916016 0.3125)" xlink:href="#Helvetica-2f"/>
      <use transform="translate(166.699219 0.3125)" xlink:href="#Helvetica-6b"/>
      <use transform="translate(217.614414 -15.376563)scale(0.7)" xlink:href="#Helvetica-42"/>
     </g>
    </g>
   </g>
   <g id="line2d_17">
    <path clip-path="url(#pb4f7528d70)" d="M 53.455625 38.709915 
L 484.545625 38.709915 
" style="fill:none;stroke:#ffffff;stroke-dasharray:0.8,1.32;stroke-dashoffset:0;stroke-width:0.8;"/>
   </g>
   <g id="line2d_18">
    <path clip-path="url(#pb4f7528d70)" d="M 53.455625 177.955158 
L 484.545625 177.955158 
" style="fill:none;stroke:#ffffff;stroke-dasharray:0.8,1.32;stroke-dashoffset:0;stroke-width:0.8;"/>
   </g>
   <g id="PathCollection_1">
    <defs>
     <path d="M 0 2.738613 
C 0.726289 2.738613 1.422928 2.450055 1.936492 1.936492 
C 2.450055 1.422928 2.738613 0.726289 2.738613 0 
C 2.738613 -0.726289 2.450055 -1.422928 1.936492 -1.936492 
C 1.422928 -2.450055 0.726289 -2.738613 0 -2.738613 
C -0.726289 -2.738613 -1.422928 -2.450055 -1.936492 -1.936492 
C -2.450055 -1.422928 -2.738613 -0.726289 -2.738613 0 
C -2.738613 0.726289 -2.450055 1.422928 -1.936492 1.936492 
C -1.422928 2.450055 -0.726289 2.738613 0 2.738613 
z
" id="mce0b9cd202"/>
    </defs>
    <g clip-path="url(#pb4f7528d70)">
     <use style="fill:#81b1d2;fill-opacity:0.6;" x="112.240625" xlink:href="#mce0b9cd202" y="172.062595"/>
     <use style="fill:#81b1d2;fill-opacity:0.6;" x="114.853292" xlink:href="#mce0b9cd202" y="164.421613"/>
     <use style="fill:#81b1d2;fill-opacity:0.6;" x="117.465958" xlink:href="#mce0b9cd202" y="158.171783"/>
     <use style="fill:#81b1d2;fill-opacity:0.6;" x="120.078625" xlink:href="#mce0b9cd202" y="173.371321"/>
     <use style="fill:#81b1d2;fill-opacity:0.6;" x="122.691292" xlink:href="#mce0b9cd202" y="178.79599"/>
     <use style="fill:#81b1d2;fill-opacity:0.6;" x="125.303958" xlink:href="#mce0b9cd202" y="182.453334"/>
     <use style="fill:#81b1d2;fill-opacity:0.6;" x="127.916625" xlink:href="#mce0b9cd202" y="172.051894"/>
     <use style="fill:#81b1d2;fill-opacity:0.6;" x="130.529292" xlink:href="#mce0b9cd202" y="158.322029"/>
     <use style="fill:#81b1d2;fill-opacity:0.6;" x="133.141958" xlink:href="#mce0b9cd202" y="164.189247"/>
     <use style="fill:#81b1d2;fill-opacity:0.6;" x="135.754625" xlink:href="#mce0b9cd202" y="181.056569"/>
     <use style="fill:#81b1d2;fill-opacity:0.6;" x="138.367292" xlink:href="#mce0b9cd202" y="152.625811"/>
     <use style="fill:#81b1d2;fill-opacity:0.6;" x="140.979958" xlink:href="#mce0b9cd202" y="168.810167"/>
     <use style="fill:#81b1d2;fill-opacity:0.6;" x="143.592625" xlink:href="#mce0b9cd202" y="164.999247"/>
     <use style="fill:#81b1d2;fill-opacity:0.6;" x="146.205292" xlink:href="#mce0b9cd202" y="168.751812"/>
     <use style="fill:#81b1d2;fill-opacity:0.6;" x="148.817958" xlink:href="#mce0b9cd202" y="161.838283"/>
     <use style="fill:#81b1d2;fill-opacity:0.6;" x="151.430625" xlink:href="#mce0b9cd202" y="169.951261"/>
     <use style="fill:#81b1d2;fill-opacity:0.6;" x="154.043292" xlink:href="#mce0b9cd202" y="180.627053"/>
     <use style="fill:#81b1d2;fill-opacity:0.6;" x="156.655958" xlink:href="#mce0b9cd202" y="180.313485"/>
     <use style="fill:#81b1d2;fill-opacity:0.6;" x="159.268625" xlink:href="#mce0b9cd202" y="189.829314"/>
     <use style="fill:#81b1d2;fill-opacity:0.6;" x="161.881292" xlink:href="#mce0b9cd202" y="167.255413"/>
     <use style="fill:#81b1d2;fill-opacity:0.6;" x="164.493958" xlink:href="#mce0b9cd202" y="163.902203"/>
     <use style="fill:#81b1d2;fill-opacity:0.6;" x="167.106625" xlink:href="#mce0b9cd202" y="166.357877"/>
     <use style="fill:#81b1d2;fill-opacity:0.6;" x="169.719292" xlink:href="#mce0b9cd202" y="157.210201"/>
     <use style="fill:#81b1d2;fill-opacity:0.6;" x="172.331958" xlink:href="#mce0b9cd202" y="165.484029"/>
     <use style="fill:#81b1d2;fill-opacity:0.6;" x="174.944625" xlink:href="#mce0b9cd202" y="170.366561"/>
     <use style="fill:#81b1d2;fill-opacity:0.6;" x="177.557292" xlink:href="#mce0b9cd202" y="169.364233"/>
     <use style="fill:#81b1d2;fill-opacity:0.6;" x="180.169958" xlink:href="#mce0b9cd202" y="168.319213"/>
     <use style="fill:#81b1d2;fill-opacity:0.6;" x="182.782625" xlink:href="#mce0b9cd202" y="159.928202"/>
     <use style="fill:#81b1d2;fill-opacity:0.6;" x="185.395292" xlink:href="#mce0b9cd202" y="157.635906"/>
     <use style="fill:#81b1d2;fill-opacity:0.6;" x="188.007958" xlink:href="#mce0b9cd202" y="165.684923"/>
     <use style="fill:#81b1d2;fill-opacity:0.6;" x="190.620625" xlink:href="#mce0b9cd202" y="150.300966"/>
     <use style="fill:#81b1d2;fill-opacity:0.6;" x="193.233292" xlink:href="#mce0b9cd202" y="153.541775"/>
     <use style="fill:#81b1d2;fill-opacity:0.6;" x="195.845958" xlink:href="#mce0b9cd202" y="160.968453"/>
     <use style="fill:#81b1d2;fill-opacity:0.6;" x="198.458625" xlink:href="#mce0b9cd202" y="151.804976"/>
     <use style="fill:#81b1d2;fill-opacity:0.6;" x="201.071292" xlink:href="#mce0b9cd202" y="151.556262"/>
     <use style="fill:#81b1d2;fill-opacity:0.6;" x="203.683958" xlink:href="#mce0b9cd202" y="162.792026"/>
     <use style="fill:#81b1d2;fill-opacity:0.6;" x="206.296625" xlink:href="#mce0b9cd202" y="156.766439"/>
     <use style="fill:#81b1d2;fill-opacity:0.6;" x="208.909292" xlink:href="#mce0b9cd202" y="137.413905"/>
     <use style="fill:#81b1d2;fill-opacity:0.6;" x="211.521958" xlink:href="#mce0b9cd202" y="144.593192"/>
     <use style="fill:#81b1d2;fill-opacity:0.6;" x="214.134625" xlink:href="#mce0b9cd202" y="140.76353"/>
     <use style="fill:#81b1d2;fill-opacity:0.6;" x="216.747292" xlink:href="#mce0b9cd202" y="143.709464"/>
     <use style="fill:#81b1d2;fill-opacity:0.6;" x="219.359958" xlink:href="#mce0b9cd202" y="138.157253"/>
     <use style="fill:#81b1d2;fill-opacity:0.6;" x="221.972625" xlink:href="#mce0b9cd202" y="130.811248"/>
     <use style="fill:#81b1d2;fill-opacity:0.6;" x="224.585292" xlink:href="#mce0b9cd202" y="127.177303"/>
     <use style="fill:#81b1d2;fill-opacity:0.6;" x="227.197958" xlink:href="#mce0b9cd202" y="121.099081"/>
     <use style="fill:#81b1d2;fill-opacity:0.6;" x="229.810625" xlink:href="#mce0b9cd202" y="118.735769"/>
     <use style="fill:#81b1d2;fill-opacity:0.6;" x="232.423292" xlink:href="#mce0b9cd202" y="116.843052"/>
     <use style="fill:#81b1d2;fill-opacity:0.6;" x="235.035958" xlink:href="#mce0b9cd202" y="126.705545"/>
     <use style="fill:#81b1d2;fill-opacity:0.6;" x="237.648625" xlink:href="#mce0b9cd202" y="111.937271"/>
     <use style="fill:#81b1d2;fill-opacity:0.6;" x="240.261292" xlink:href="#mce0b9cd202" y="105.335569"/>
     <use style="fill:#81b1d2;fill-opacity:0.6;" x="242.873958" xlink:href="#mce0b9cd202" y="94.262612"/>
     <use style="fill:#81b1d2;fill-opacity:0.6;" x="245.486625" xlink:href="#mce0b9cd202" y="79.580938"/>
     <use style="fill:#81b1d2;fill-opacity:0.6;" x="248.099292" xlink:href="#mce0b9cd202" y="71.581534"/>
     <use style="fill:#81b1d2;fill-opacity:0.6;" x="250.711958" xlink:href="#mce0b9cd202" y="66.441418"/>
     <use style="fill:#81b1d2;fill-opacity:0.6;" x="253.324625" xlink:href="#mce0b9cd202" y="65.506208"/>
     <use style="fill:#81b1d2;fill-opacity:0.6;" x="255.937292" xlink:href="#mce0b9cd202" y="49.191931"/>
     <use style="fill:#81b1d2;fill-opacity:0.6;" x="258.549958" xlink:href="#mce0b9cd202" y="58.034598"/>
     <use style="fill:#81b1d2;fill-opacity:0.6;" x="261.162625" xlink:href="#mce0b9cd202" y="55.557779"/>
     <use style="fill:#81b1d2;fill-opacity:0.6;" x="263.775292" xlink:href="#mce0b9cd202" y="41.231326"/>
     <use style="fill:#81b1d2;fill-opacity:0.6;" x="266.387958" xlink:href="#mce0b9cd202" y="43.08293"/>
     <use style="fill:#81b1d2;fill-opacity:0.6;" x="269.000625" xlink:href="#mce0b9cd202" y="46.78645"/>
     <use style="fill:#81b1d2;fill-opacity:0.6;" x="271.613292" xlink:href="#mce0b9cd202" y="35.047257"/>
     <use style="fill:#81b1d2;fill-opacity:0.6;" x="274.225958" xlink:href="#mce0b9cd202" y="43.988018"/>
     <use style="fill:#81b1d2;fill-opacity:0.6;" x="276.838625" xlink:href="#mce0b9cd202" y="60.412276"/>
     <use style="fill:#81b1d2;fill-opacity:0.6;" x="279.451292" xlink:href="#mce0b9cd202" y="54.714807"/>
     <use style="fill:#81b1d2;fill-opacity:0.6;" x="282.063958" xlink:href="#mce0b9cd202" y="54.579425"/>
     <use style="fill:#81b1d2;fill-opacity:0.6;" x="284.676625" xlink:href="#mce0b9cd202" y="49.222129"/>
     <use style="fill:#81b1d2;fill-opacity:0.6;" x="287.289292" xlink:href="#mce0b9cd202" y="64.794852"/>
     <use style="fill:#81b1d2;fill-opacity:0.6;" x="289.901958" xlink:href="#mce0b9cd202" y="76.535998"/>
     <use style="fill:#81b1d2;fill-opacity:0.6;" x="292.514625" xlink:href="#mce0b9cd202" y="66.260783"/>
     <use style="fill:#81b1d2;fill-opacity:0.6;" x="295.127292" xlink:href="#mce0b9cd202" y="79.344525"/>
     <use style="fill:#81b1d2;fill-opacity:0.6;" x="297.739958" xlink:href="#mce0b9cd202" y="96.701321"/>
     <use style="fill:#81b1d2;fill-opacity:0.6;" x="300.352625" xlink:href="#mce0b9cd202" y="93.146594"/>
     <use style="fill:#81b1d2;fill-opacity:0.6;" x="302.965292" xlink:href="#mce0b9cd202" y="90.178362"/>
     <use style="fill:#81b1d2;fill-opacity:0.6;" x="305.577958" xlink:href="#mce0b9cd202" y="79.56417"/>
     <use style="fill:#81b1d2;fill-opacity:0.6;" x="308.190625" xlink:href="#mce0b9cd202" y="108.486955"/>
     <use style="fill:#81b1d2;fill-opacity:0.6;" x="310.803292" xlink:href="#mce0b9cd202" y="113.588135"/>
     <use style="fill:#81b1d2;fill-opacity:0.6;" x="313.415958" xlink:href="#mce0b9cd202" y="112.912741"/>
     <use style="fill:#81b1d2;fill-opacity:0.6;" x="316.028625" xlink:href="#mce0b9cd202" y="112.816471"/>
     <use style="fill:#81b1d2;fill-opacity:0.6;" x="318.641292" xlink:href="#mce0b9cd202" y="126.666974"/>
     <use style="fill:#81b1d2;fill-opacity:0.6;" x="321.253958" xlink:href="#mce0b9cd202" y="127.422251"/>
     <use style="fill:#81b1d2;fill-opacity:0.6;" x="323.866625" xlink:href="#mce0b9cd202" y="128.87133"/>
     <use style="fill:#81b1d2;fill-opacity:0.6;" x="326.479292" xlink:href="#mce0b9cd202" y="133.150966"/>
     <use style="fill:#81b1d2;fill-opacity:0.6;" x="329.091958" xlink:href="#mce0b9cd202" y="122.352566"/>
     <use style="fill:#81b1d2;fill-opacity:0.6;" x="331.704625" xlink:href="#mce0b9cd202" y="140.587734"/>
     <use style="fill:#81b1d2;fill-opacity:0.6;" x="334.317292" xlink:href="#mce0b9cd202" y="152.295664"/>
     <use style="fill:#81b1d2;fill-opacity:0.6;" x="336.929958" xlink:href="#mce0b9cd202" y="155.373799"/>
     <use style="fill:#81b1d2;fill-opacity:0.6;" x="339.542625" xlink:href="#mce0b9cd202" y="162.191434"/>
     <use style="fill:#81b1d2;fill-opacity:0.6;" x="342.155292" xlink:href="#mce0b9cd202" y="153.80414"/>
     <use style="fill:#81b1d2;fill-opacity:0.6;" x="344.767958" xlink:href="#mce0b9cd202" y="177.360058"/>
     <use style="fill:#81b1d2;fill-opacity:0.6;" x="347.380625" xlink:href="#mce0b9cd202" y="169.305054"/>
     <use style="fill:#81b1d2;fill-opacity:0.6;" x="349.993292" xlink:href="#mce0b9cd202" y="159.580253"/>
     <use style="fill:#81b1d2;fill-opacity:0.6;" x="352.605958" xlink:href="#mce0b9cd202" y="165.423499"/>
     <use style="fill:#81b1d2;fill-opacity:0.6;" x="355.218625" xlink:href="#mce0b9cd202" y="155.457158"/>
     <use style="fill:#81b1d2;fill-opacity:0.6;" x="357.831292" xlink:href="#mce0b9cd202" y="164.496503"/>
     <use style="fill:#81b1d2;fill-opacity:0.6;" x="360.443958" xlink:href="#mce0b9cd202" y="160.438446"/>
     <use style="fill:#81b1d2;fill-opacity:0.6;" x="363.056625" xlink:href="#mce0b9cd202" y="165.958653"/>
     <use style="fill:#81b1d2;fill-opacity:0.6;" x="365.669292" xlink:href="#mce0b9cd202" y="161.865693"/>
     <use style="fill:#81b1d2;fill-opacity:0.6;" x="368.281958" xlink:href="#mce0b9cd202" y="157.951516"/>
     <use style="fill:#81b1d2;fill-opacity:0.6;" x="370.894625" xlink:href="#mce0b9cd202" y="171.229399"/>
     <use style="fill:#81b1d2;fill-opacity:0.6;" x="373.507292" xlink:href="#mce0b9cd202" y="189.37076"/>
     <use style="fill:#81b1d2;fill-opacity:0.6;" x="376.119958" xlink:href="#mce0b9cd202" y="178.815051"/>
     <use style="fill:#81b1d2;fill-opacity:0.6;" x="378.732625" xlink:href="#mce0b9cd202" y="178.107851"/>
     <use style="fill:#81b1d2;fill-opacity:0.6;" x="381.345292" xlink:href="#mce0b9cd202" y="171.666273"/>
     <use style="fill:#81b1d2;fill-opacity:0.6;" x="383.957958" xlink:href="#mce0b9cd202" y="168.227302"/>
     <use style="fill:#81b1d2;fill-opacity:0.6;" x="386.570625" xlink:href="#mce0b9cd202" y="166.851727"/>
     <use style="fill:#81b1d2;fill-opacity:0.6;" x="389.183292" xlink:href="#mce0b9cd202" y="166.344505"/>
     <use style="fill:#81b1d2;fill-opacity:0.6;" x="391.795958" xlink:href="#mce0b9cd202" y="169.597692"/>
     <use style="fill:#81b1d2;fill-opacity:0.6;" x="394.408625" xlink:href="#mce0b9cd202" y="172.42487"/>
     <use style="fill:#81b1d2;fill-opacity:0.6;" x="397.021292" xlink:href="#mce0b9cd202" y="154.413931"/>
     <use style="fill:#81b1d2;fill-opacity:0.6;" x="399.633958" xlink:href="#mce0b9cd202" y="175.040651"/>
     <use style="fill:#81b1d2;fill-opacity:0.6;" x="402.246625" xlink:href="#mce0b9cd202" y="163.008243"/>
     <use style="fill:#81b1d2;fill-opacity:0.6;" x="404.859292" xlink:href="#mce0b9cd202" y="175.745332"/>
     <use style="fill:#81b1d2;fill-opacity:0.6;" x="407.471958" xlink:href="#mce0b9cd202" y="157.825631"/>
     <use style="fill:#81b1d2;fill-opacity:0.6;" x="410.084625" xlink:href="#mce0b9cd202" y="173.352466"/>
     <use style="fill:#81b1d2;fill-opacity:0.6;" x="412.697292" xlink:href="#mce0b9cd202" y="175.000036"/>
     <use style="fill:#81b1d2;fill-opacity:0.6;" x="415.309958" xlink:href="#mce0b9cd202" y="183.040744"/>
     <use style="fill:#81b1d2;fill-opacity:0.6;" x="417.922625" xlink:href="#mce0b9cd202" y="179.410262"/>
     <use style="fill:#81b1d2;fill-opacity:0.6;" x="420.535292" xlink:href="#mce0b9cd202" y="180.247851"/>
     <use style="fill:#81b1d2;fill-opacity:0.6;" x="423.147958" xlink:href="#mce0b9cd202" y="166.587365"/>
     <use style="fill:#81b1d2;fill-opacity:0.6;" x="425.760625" xlink:href="#mce0b9cd202" y="176.067901"/>
    </g>
   </g>
   <g id="PathCollection_2">
    <defs>
     <path d="M -0 3.872983 
L 2.32379 0 
L 0 -3.872983 
L -2.32379 -0 
z
" id="mb7822414d8"/>
    </defs>
    <g clip-path="url(#pb4f7528d70)">
     <use style="fill:#ffed6f;fill-opacity:0.6;" x="73.050625" xlink:href="#mb7822414d8" y="178.165816"/>
     <use style="fill:#ffed6f;fill-opacity:0.6;" x="75.663292" xlink:href="#mb7822414d8" y="178.545129"/>
     <use style="fill:#ffed6f;fill-opacity:0.6;" x="78.275958" xlink:href="#mb7822414d8" y="175.722243"/>
     <use style="fill:#ffed6f;fill-opacity:0.6;" x="80.888625" xlink:href="#mb7822414d8" y="179.523928"/>
     <use style="fill:#ffed6f;fill-opacity:0.6;" x="83.501292" xlink:href="#mb7822414d8" y="178.429642"/>
     <use style="fill:#ffed6f;fill-opacity:0.6;" x="86.113958" xlink:href="#mb7822414d8" y="185.620858"/>
     <use style="fill:#ffed6f;fill-opacity:0.6;" x="88.726625" xlink:href="#mb7822414d8" y="182.75879"/>
     <use style="fill:#ffed6f;fill-opacity:0.6;" x="91.339292" xlink:href="#mb7822414d8" y="176.312433"/>
     <use style="fill:#ffed6f;fill-opacity:0.6;" x="93.951958" xlink:href="#mb7822414d8" y="178.02949"/>
     <use style="fill:#ffed6f;fill-opacity:0.6;" x="96.564625" xlink:href="#mb7822414d8" y="176.696705"/>
     <use style="fill:#ffed6f;fill-opacity:0.6;" x="99.177292" xlink:href="#mb7822414d8" y="177.794731"/>
     <use style="fill:#ffed6f;fill-opacity:0.6;" x="101.789958" xlink:href="#mb7822414d8" y="172.235965"/>
     <use style="fill:#ffed6f;fill-opacity:0.6;" x="104.402625" xlink:href="#mb7822414d8" y="175.651005"/>
     <use style="fill:#ffed6f;fill-opacity:0.6;" x="107.015292" xlink:href="#mb7822414d8" y="176.465065"/>
     <use style="fill:#ffed6f;fill-opacity:0.6;" x="109.627958" xlink:href="#mb7822414d8" y="172.921705"/>
     <use style="fill:#ffed6f;fill-opacity:0.6;" x="112.240625" xlink:href="#mb7822414d8" y="183.106303"/>
     <use style="fill:#ffed6f;fill-opacity:0.6;" x="114.853292" xlink:href="#mb7822414d8" y="183.912421"/>
     <use style="fill:#ffed6f;fill-opacity:0.6;" x="117.465958" xlink:href="#mb7822414d8" y="180.863241"/>
     <use style="fill:#ffed6f;fill-opacity:0.6;" x="120.078625" xlink:href="#mb7822414d8" y="176.475559"/>
     <use style="fill:#ffed6f;fill-opacity:0.6;" x="122.691292" xlink:href="#mb7822414d8" y="175.34247"/>
     <use style="fill:#ffed6f;fill-opacity:0.6;" x="125.303958" xlink:href="#mb7822414d8" y="182.812445"/>
     <use style="fill:#ffed6f;fill-opacity:0.6;" x="127.916625" xlink:href="#mb7822414d8" y="177.429529"/>
     <use style="fill:#ffed6f;fill-opacity:0.6;" x="130.529292" xlink:href="#mb7822414d8" y="169.326412"/>
     <use style="fill:#ffed6f;fill-opacity:0.6;" x="133.141958" xlink:href="#mb7822414d8" y="169.003798"/>
     <use style="fill:#ffed6f;fill-opacity:0.6;" x="135.754625" xlink:href="#mb7822414d8" y="174.520596"/>
     <use style="fill:#ffed6f;fill-opacity:0.6;" x="138.367292" xlink:href="#mb7822414d8" y="175.663288"/>
     <use style="fill:#ffed6f;fill-opacity:0.6;" x="140.979958" xlink:href="#mb7822414d8" y="172.389609"/>
     <use style="fill:#ffed6f;fill-opacity:0.6;" x="143.592625" xlink:href="#mb7822414d8" y="173.050398"/>
     <use style="fill:#ffed6f;fill-opacity:0.6;" x="146.205292" xlink:href="#mb7822414d8" y="174.057409"/>
     <use style="fill:#ffed6f;fill-opacity:0.6;" x="148.817958" xlink:href="#mb7822414d8" y="169.886476"/>
     <use style="fill:#ffed6f;fill-opacity:0.6;" x="151.430625" xlink:href="#mb7822414d8" y="179.675474"/>
     <use style="fill:#ffed6f;fill-opacity:0.6;" x="154.043292" xlink:href="#mb7822414d8" y="174.057929"/>
     <use style="fill:#ffed6f;fill-opacity:0.6;" x="156.655958" xlink:href="#mb7822414d8" y="166.175084"/>
     <use style="fill:#ffed6f;fill-opacity:0.6;" x="159.268625" xlink:href="#mb7822414d8" y="169.049058"/>
     <use style="fill:#ffed6f;fill-opacity:0.6;" x="161.881292" xlink:href="#mb7822414d8" y="166.769792"/>
     <use style="fill:#ffed6f;fill-opacity:0.6;" x="164.493958" xlink:href="#mb7822414d8" y="167.32105"/>
     <use style="fill:#ffed6f;fill-opacity:0.6;" x="167.106625" xlink:href="#mb7822414d8" y="165.26253"/>
     <use style="fill:#ffed6f;fill-opacity:0.6;" x="169.719292" xlink:href="#mb7822414d8" y="168.67349"/>
     <use style="fill:#ffed6f;fill-opacity:0.6;" x="172.331958" xlink:href="#mb7822414d8" y="171.763832"/>
     <use style="fill:#ffed6f;fill-opacity:0.6;" x="174.944625" xlink:href="#mb7822414d8" y="168.900502"/>
     <use style="fill:#ffed6f;fill-opacity:0.6;" x="177.557292" xlink:href="#mb7822414d8" y="165.392985"/>
     <use style="fill:#ffed6f;fill-opacity:0.6;" x="180.169958" xlink:href="#mb7822414d8" y="164.701961"/>
     <use style="fill:#ffed6f;fill-opacity:0.6;" x="182.782625" xlink:href="#mb7822414d8" y="165.425852"/>
     <use style="fill:#ffed6f;fill-opacity:0.6;" x="185.395292" xlink:href="#mb7822414d8" y="159.156"/>
     <use style="fill:#ffed6f;fill-opacity:0.6;" x="188.007958" xlink:href="#mb7822414d8" y="158.662328"/>
     <use style="fill:#ffed6f;fill-opacity:0.6;" x="190.620625" xlink:href="#mb7822414d8" y="160.207666"/>
     <use style="fill:#ffed6f;fill-opacity:0.6;" x="193.233292" xlink:href="#mb7822414d8" y="161.095708"/>
     <use style="fill:#ffed6f;fill-opacity:0.6;" x="195.845958" xlink:href="#mb7822414d8" y="151.413517"/>
     <use style="fill:#ffed6f;fill-opacity:0.6;" x="198.458625" xlink:href="#mb7822414d8" y="157.233843"/>
     <use style="fill:#ffed6f;fill-opacity:0.6;" x="201.071292" xlink:href="#mb7822414d8" y="154.844962"/>
     <use style="fill:#ffed6f;fill-opacity:0.6;" x="203.683958" xlink:href="#mb7822414d8" y="152.91275"/>
     <use style="fill:#ffed6f;fill-opacity:0.6;" x="206.296625" xlink:href="#mb7822414d8" y="148.307292"/>
     <use style="fill:#ffed6f;fill-opacity:0.6;" x="208.909292" xlink:href="#mb7822414d8" y="146.323992"/>
     <use style="fill:#ffed6f;fill-opacity:0.6;" x="211.521958" xlink:href="#mb7822414d8" y="141.264281"/>
     <use style="fill:#ffed6f;fill-opacity:0.6;" x="214.134625" xlink:href="#mb7822414d8" y="140.733729"/>
     <use style="fill:#ffed6f;fill-opacity:0.6;" x="216.747292" xlink:href="#mb7822414d8" y="144.554067"/>
     <use style="fill:#ffed6f;fill-opacity:0.6;" x="219.359958" xlink:href="#mb7822414d8" y="141.723348"/>
     <use style="fill:#ffed6f;fill-opacity:0.6;" x="221.972625" xlink:href="#mb7822414d8" y="126.41257"/>
     <use style="fill:#ffed6f;fill-opacity:0.6;" x="224.585292" xlink:href="#mb7822414d8" y="117.762449"/>
     <use style="fill:#ffed6f;fill-opacity:0.6;" x="227.197958" xlink:href="#mb7822414d8" y="116.91304"/>
     <use style="fill:#ffed6f;fill-opacity:0.6;" x="229.810625" xlink:href="#mb7822414d8" y="104.452195"/>
     <use style="fill:#ffed6f;fill-opacity:0.6;" x="232.423292" xlink:href="#mb7822414d8" y="101.64367"/>
     <use style="fill:#ffed6f;fill-opacity:0.6;" x="235.035958" xlink:href="#mb7822414d8" y="97.35521"/>
     <use style="fill:#ffed6f;fill-opacity:0.6;" x="237.648625" xlink:href="#mb7822414d8" y="88.656731"/>
     <use style="fill:#ffed6f;fill-opacity:0.6;" x="240.261292" xlink:href="#mb7822414d8" y="83.024271"/>
     <use style="fill:#ffed6f;fill-opacity:0.6;" x="242.873958" xlink:href="#mb7822414d8" y="73.187768"/>
     <use style="fill:#ffed6f;fill-opacity:0.6;" x="245.486625" xlink:href="#mb7822414d8" y="75.851749"/>
     <use style="fill:#ffed6f;fill-opacity:0.6;" x="248.099292" xlink:href="#mb7822414d8" y="66.60838"/>
     <use style="fill:#ffed6f;fill-opacity:0.6;" x="250.711958" xlink:href="#mb7822414d8" y="55.126079"/>
     <use style="fill:#ffed6f;fill-opacity:0.6;" x="253.324625" xlink:href="#mb7822414d8" y="55.303442"/>
     <use style="fill:#ffed6f;fill-opacity:0.6;" x="255.937292" xlink:href="#mb7822414d8" y="53.613337"/>
     <use style="fill:#ffed6f;fill-opacity:0.6;" x="258.549958" xlink:href="#mb7822414d8" y="36.110103"/>
     <use style="fill:#ffed6f;fill-opacity:0.6;" x="261.162625" xlink:href="#mb7822414d8" y="50.441494"/>
     <use style="fill:#ffed6f;fill-opacity:0.6;" x="263.775292" xlink:href="#mb7822414d8" y="49.372301"/>
     <use style="fill:#ffed6f;fill-opacity:0.6;" x="266.387958" xlink:href="#mb7822414d8" y="40.001097"/>
     <use style="fill:#ffed6f;fill-opacity:0.6;" x="269.000625" xlink:href="#mb7822414d8" y="40.577314"/>
     <use style="fill:#ffed6f;fill-opacity:0.6;" x="271.613292" xlink:href="#mb7822414d8" y="47.624369"/>
     <use style="fill:#ffed6f;fill-opacity:0.6;" x="274.225958" xlink:href="#mb7822414d8" y="35.441756"/>
     <use style="fill:#ffed6f;fill-opacity:0.6;" x="276.838625" xlink:href="#mb7822414d8" y="55.942886"/>
     <use style="fill:#ffed6f;fill-opacity:0.6;" x="279.451292" xlink:href="#mb7822414d8" y="45.37682"/>
     <use style="fill:#ffed6f;fill-opacity:0.6;" x="282.063958" xlink:href="#mb7822414d8" y="48.635309"/>
     <use style="fill:#ffed6f;fill-opacity:0.6;" x="284.676625" xlink:href="#mb7822414d8" y="55.174324"/>
     <use style="fill:#ffed6f;fill-opacity:0.6;" x="287.289292" xlink:href="#mb7822414d8" y="57.315789"/>
     <use style="fill:#ffed6f;fill-opacity:0.6;" x="289.901958" xlink:href="#mb7822414d8" y="68.04246"/>
     <use style="fill:#ffed6f;fill-opacity:0.6;" x="292.514625" xlink:href="#mb7822414d8" y="73.089545"/>
     <use style="fill:#ffed6f;fill-opacity:0.6;" x="295.127292" xlink:href="#mb7822414d8" y="78.481977"/>
     <use style="fill:#ffed6f;fill-opacity:0.6;" x="297.739958" xlink:href="#mb7822414d8" y="85.86422"/>
     <use style="fill:#ffed6f;fill-opacity:0.6;" x="300.352625" xlink:href="#mb7822414d8" y="91.964475"/>
     <use style="fill:#ffed6f;fill-opacity:0.6;" x="302.965292" xlink:href="#mb7822414d8" y="86.762266"/>
     <use style="fill:#ffed6f;fill-opacity:0.6;" x="305.577958" xlink:href="#mb7822414d8" y="106.965231"/>
     <use style="fill:#ffed6f;fill-opacity:0.6;" x="308.190625" xlink:href="#mb7822414d8" y="107.017972"/>
     <use style="fill:#ffed6f;fill-opacity:0.6;" x="310.803292" xlink:href="#mb7822414d8" y="110.259441"/>
     <use style="fill:#ffed6f;fill-opacity:0.6;" x="313.415958" xlink:href="#mb7822414d8" y="116.888221"/>
     <use style="fill:#ffed6f;fill-opacity:0.6;" x="316.028625" xlink:href="#mb7822414d8" y="124.241477"/>
     <use style="fill:#ffed6f;fill-opacity:0.6;" x="318.641292" xlink:href="#mb7822414d8" y="128.411013"/>
     <use style="fill:#ffed6f;fill-opacity:0.6;" x="321.253958" xlink:href="#mb7822414d8" y="136.013146"/>
     <use style="fill:#ffed6f;fill-opacity:0.6;" x="323.866625" xlink:href="#mb7822414d8" y="135.713765"/>
     <use style="fill:#ffed6f;fill-opacity:0.6;" x="326.479292" xlink:href="#mb7822414d8" y="141.38725"/>
     <use style="fill:#ffed6f;fill-opacity:0.6;" x="329.091958" xlink:href="#mb7822414d8" y="145.215956"/>
     <use style="fill:#ffed6f;fill-opacity:0.6;" x="331.704625" xlink:href="#mb7822414d8" y="143.716675"/>
     <use style="fill:#ffed6f;fill-opacity:0.6;" x="334.317292" xlink:href="#mb7822414d8" y="152.755031"/>
     <use style="fill:#ffed6f;fill-opacity:0.6;" x="336.929958" xlink:href="#mb7822414d8" y="153.890573"/>
     <use style="fill:#ffed6f;fill-opacity:0.6;" x="339.542625" xlink:href="#mb7822414d8" y="150.869801"/>
     <use style="fill:#ffed6f;fill-opacity:0.6;" x="342.155292" xlink:href="#mb7822414d8" y="153.052631"/>
     <use style="fill:#ffed6f;fill-opacity:0.6;" x="344.767958" xlink:href="#mb7822414d8" y="162.658927"/>
     <use style="fill:#ffed6f;fill-opacity:0.6;" x="347.380625" xlink:href="#mb7822414d8" y="160.138707"/>
     <use style="fill:#ffed6f;fill-opacity:0.6;" x="349.993292" xlink:href="#mb7822414d8" y="163.002738"/>
     <use style="fill:#ffed6f;fill-opacity:0.6;" x="352.605958" xlink:href="#mb7822414d8" y="159.072113"/>
     <use style="fill:#ffed6f;fill-opacity:0.6;" x="355.218625" xlink:href="#mb7822414d8" y="165.530135"/>
     <use style="fill:#ffed6f;fill-opacity:0.6;" x="357.831292" xlink:href="#mb7822414d8" y="162.043603"/>
     <use style="fill:#ffed6f;fill-opacity:0.6;" x="360.443958" xlink:href="#mb7822414d8" y="166.29226"/>
     <use style="fill:#ffed6f;fill-opacity:0.6;" x="363.056625" xlink:href="#mb7822414d8" y="163.646254"/>
     <use style="fill:#ffed6f;fill-opacity:0.6;" x="365.669292" xlink:href="#mb7822414d8" y="169.507063"/>
     <use style="fill:#ffed6f;fill-opacity:0.6;" x="368.281958" xlink:href="#mb7822414d8" y="163.872004"/>
     <use style="fill:#ffed6f;fill-opacity:0.6;" x="370.894625" xlink:href="#mb7822414d8" y="169.505041"/>
     <use style="fill:#ffed6f;fill-opacity:0.6;" x="373.507292" xlink:href="#mb7822414d8" y="173.731916"/>
     <use style="fill:#ffed6f;fill-opacity:0.6;" x="376.119958" xlink:href="#mb7822414d8" y="168.096121"/>
     <use style="fill:#ffed6f;fill-opacity:0.6;" x="378.732625" xlink:href="#mb7822414d8" y="170.532988"/>
     <use style="fill:#ffed6f;fill-opacity:0.6;" x="381.345292" xlink:href="#mb7822414d8" y="177.940201"/>
     <use style="fill:#ffed6f;fill-opacity:0.6;" x="383.957958" xlink:href="#mb7822414d8" y="170.797668"/>
     <use style="fill:#ffed6f;fill-opacity:0.6;" x="386.570625" xlink:href="#mb7822414d8" y="178.444921"/>
     <use style="fill:#ffed6f;fill-opacity:0.6;" x="389.183292" xlink:href="#mb7822414d8" y="176.532662"/>
     <use style="fill:#ffed6f;fill-opacity:0.6;" x="391.795958" xlink:href="#mb7822414d8" y="172.246903"/>
     <use style="fill:#ffed6f;fill-opacity:0.6;" x="394.408625" xlink:href="#mb7822414d8" y="167.323121"/>
     <use style="fill:#ffed6f;fill-opacity:0.6;" x="397.021292" xlink:href="#mb7822414d8" y="177.275063"/>
     <use style="fill:#ffed6f;fill-opacity:0.6;" x="399.633958" xlink:href="#mb7822414d8" y="178.916099"/>
     <use style="fill:#ffed6f;fill-opacity:0.6;" x="402.246625" xlink:href="#mb7822414d8" y="172.683563"/>
     <use style="fill:#ffed6f;fill-opacity:0.6;" x="404.859292" xlink:href="#mb7822414d8" y="181.775019"/>
     <use style="fill:#ffed6f;fill-opacity:0.6;" x="407.471958" xlink:href="#mb7822414d8" y="186.002546"/>
     <use style="fill:#ffed6f;fill-opacity:0.6;" x="410.084625" xlink:href="#mb7822414d8" y="180.396483"/>
     <use style="fill:#ffed6f;fill-opacity:0.6;" x="412.697292" xlink:href="#mb7822414d8" y="179.345774"/>
     <use style="fill:#ffed6f;fill-opacity:0.6;" x="415.309958" xlink:href="#mb7822414d8" y="180.002936"/>
     <use style="fill:#ffed6f;fill-opacity:0.6;" x="417.922625" xlink:href="#mb7822414d8" y="179.268199"/>
     <use style="fill:#ffed6f;fill-opacity:0.6;" x="420.535292" xlink:href="#mb7822414d8" y="177.65788"/>
     <use style="fill:#ffed6f;fill-opacity:0.6;" x="423.147958" xlink:href="#mb7822414d8" y="186.837844"/>
     <use style="fill:#ffed6f;fill-opacity:0.6;" x="425.760625" xlink:href="#mb7822414d8" y="177.154308"/>
     <use style="fill:#ffed6f;fill-opacity:0.6;" x="428.373292" xlink:href="#mb7822414d8" y="167.964846"/>
     <use style="fill:#ffed6f;fill-opacity:0.6;" x="430.985958" xlink:href="#mb7822414d8" y="177.948032"/>
     <use style="fill:#ffed6f;fill-opacity:0.6;" x="433.598625" xlink:href="#mb7822414d8" y="181.744688"/>
     <use style="fill:#ffed6f;fill-opacity:0.6;" x="436.211292" xlink:href="#mb7822414d8" y="178.976584"/>
     <use style="fill:#ffed6f;fill-opacity:0.6;" x="438.823958" xlink:href="#mb7822414d8" y="175.090174"/>
    </g>
   </g>
   <g id="patch_3">
    <path d="M 53.455625 198.044 
L 53.455625 7.2 
" style="fill:none;stroke:#ffffff;stroke-linecap:square;stroke-linejoin:miter;stroke-width:1.2;"/>
   </g>
   <g id="patch_4">
    <path d="M 484.545625 198.044 
L 484.545625 7.2 
" style="fill:none;stroke:#ffffff;stroke-linecap:square;stroke-linejoin:miter;stroke-width:1.2;"/>
   </g>
   <g id="patch_5">
    <path d="M 53.455625 198.044 
L 484.545625 198.044 
" style="fill:none;stroke:#ffffff;stroke-linecap:square;stroke-linejoin:miter;stroke-width:1.2;"/>
   </g>
   <g id="patch_6">
    <path d="M 53.455625 7.2 
L 484.545625 7.2 
" style="fill:none;stroke:#ffffff;stroke-linecap:square;stroke-linejoin:miter;stroke-width:1.2;"/>
   </g>
   <g id="line2d_19">
    <path clip-path="url(#pb4f7528d70)" d="M 73.050625 177.880007 
L 101.323972 177.674758 
L 117.816757 177.356727 
L 129.597318 176.932428 
L 139.021767 176.391118 
L 146.875475 175.73363 
L 153.943811 174.916822 
L 160.226777 173.951548 
L 165.724372 172.869198 
L 170.436597 171.722285 
L 175.148821 170.330418 
L 179.075675 168.949491 
L 183.002529 167.33456 
L 186.929383 165.450891 
L 190.070865 163.724864 
L 193.212348 161.781294 
L 196.353831 159.597867 
L 199.495314 157.151351 
L 202.636797 154.417986 
L 205.77828 151.37404 
L 208.919763 147.996559 
L 212.061246 144.264347 
L 215.202729 140.159209 
L 218.344212 135.667492 
L 221.485695 130.781935 
L 224.627178 125.503829 
L 227.768661 119.845445 
L 231.695515 112.278605 
L 236.407739 102.59454 
L 243.476076 87.370798 
L 248.973671 75.673566 
L 252.900525 67.873684 
L 256.042008 62.2176 
L 258.39812 58.428773 
L 260.754232 55.106039 
L 262.324974 53.181867 
L 263.895715 51.510788 
L 265.466457 50.108118 
L 267.037198 48.986983 
L 268.60794 48.158053 
L 270.178681 47.629319 
L 271.749423 47.405924 
L 273.320164 47.490052 
L 274.890906 47.880878 
L 276.461647 48.574592 
L 278.032389 49.564476 
L 279.60313 50.84105 
L 281.173871 52.392268 
L 282.744613 54.203773 
L 285.100725 57.37274 
L 287.456837 61.0279 
L 289.81295 65.10099 
L 292.954433 71.057684 
L 296.881286 79.107531 
L 303.949623 94.343423 
L 310.232589 107.658797 
L 314.159443 115.509769 
L 318.086296 122.853336 
L 321.227779 128.314978 
L 324.369262 133.388392 
L 327.510745 138.067372 
L 330.652228 142.35539 
L 333.793711 146.263301 
L 336.935194 149.807348 
L 340.076677 153.00747 
L 343.21816 155.885921 
L 346.359643 158.466167 
L 349.501126 160.772037 
L 352.642609 162.827071 
L 355.784092 164.654062 
L 359.710946 166.650081 
L 363.637799 168.363182 
L 367.564653 169.829458 
L 371.491507 171.081431 
L 376.203731 172.341523 
L 380.915956 173.378412 
L 386.413551 174.355643 
L 392.696517 175.226008 
L 399.764853 175.961536 
L 407.618561 176.552846 
L 417.04301 177.039059 
L 428.823571 177.419675 
L 444.530986 177.695285 
L 464.950625 177.854644 
L 464.950625 177.854644 
" style="fill:none;stroke:#ffffff;stroke-dasharray:7.4,3.2;stroke-dashoffset:0;stroke-width:2;"/>
   </g>
   <g id="line2d_20">
    <path clip-path="url(#pb4f7528d70)" d="M 73.050625 177.874698 
L 100.538601 177.661276 
L 117.031387 177.322234 
L 128.811948 176.866606 
L 138.236397 176.282192 
L 146.090104 175.569317 
L 152.37307 174.793295 
L 157.870665 173.917567 
L 163.36826 172.809575 
L 168.080485 171.631963 
L 172.792709 170.198872 
L 176.719563 168.773459 
L 180.646417 167.102682 
L 184.57327 165.149434 
L 187.714753 163.356026 
L 190.856236 161.332959 
L 193.997719 159.056187 
L 197.139202 156.5006 
L 200.280685 153.640442 
L 203.422168 150.449897 
L 206.563651 146.9039 
L 209.705134 142.979194 
L 212.846617 138.655685 
L 215.9881 133.918124 
L 219.129583 128.758147 
L 222.271066 123.176648 
L 225.412549 117.186471 
L 229.339403 109.167889 
L 233.266256 100.649271 
L 239.549222 86.363755 
L 246.617559 70.366397 
L 249.759042 63.720462 
L 252.900525 57.614354 
L 255.256637 53.501431 
L 257.612749 49.873676 
L 259.183491 47.76017 
L 260.754232 45.913307 
L 262.324974 44.350313 
L 263.895715 43.086094 
L 265.466457 42.132926 
L 267.037198 41.500194 
L 268.60794 41.194191 
L 270.178681 41.217979 
L 271.749423 41.571317 
L 273.320164 42.250675 
L 274.890906 43.249304 
L 276.461647 44.557388 
L 278.032389 46.162255 
L 279.60313 48.048645 
L 281.173871 50.199024 
L 283.529984 53.876572 
L 285.886096 58.032128 
L 288.242208 62.588914 
L 291.383691 69.15241 
L 295.310545 77.882296 
L 307.876477 106.301447 
L 311.80333 114.504246 
L 315.730184 122.139902 
L 318.871667 127.795459 
L 322.01315 133.030826 
L 325.154633 137.843184 
L 328.296116 142.239434 
L 331.437599 146.233759 
L 334.579082 149.845524 
L 337.720565 153.097531 
L 340.862048 156.014609 
L 344.003531 158.622505 
L 347.145014 160.947035 
L 350.286497 163.01346 
L 353.42798 164.846037 
L 357.354833 166.842748 
L 361.281687 168.551384 
L 365.208541 170.009614 
L 369.135395 171.251187 
L 373.847619 172.497002 
L 378.559843 173.518772 
L 384.057439 174.478395 
L 390.340405 175.329687 
L 397.408741 176.045908 
L 405.262449 176.618879 
L 414.686898 177.087388 
L 427.252829 177.469704 
L 443.745615 177.730401 
L 464.950625 177.872535 
L 464.950625 177.872535 
" style="fill:none;stroke:#ffffff;stroke-linecap:square;stroke-width:2;"/>
   </g>
   <g id="legend_1">
    <g id="line2d_21"/>
    <g id="line2d_22">
     <defs>
      <path d="M 0 4 
C 1.060812 4 2.078319 3.578535 2.828427 2.828427 
C 3.578535 2.078319 4 1.060812 4 0 
C 4 -1.060812 3.578535 -2.078319 2.828427 -2.828427 
C 2.078319 -3.578535 1.060812 -4 0 -4 
C -1.060812 -4 -2.078319 -3.578535 -2.828427 -2.828427 
C -3.578535 -2.078319 -4 -1.060812 -4 0 
C -4 1.060812 -3.578535 2.078319 -2.828427 2.828427 
C -2.078319 3.578535 -1.060812 4 0 4 
z
" id="mfb793e2e46"/>
     </defs>
     <g>
      <use style="fill:#81b1d2;opacity:0.8;" x="69.555625" xlink:href="#mfb793e2e46" y="83.238344"/>
     </g>
    </g>
    <g id="text_11">
     <!-- $0 \rightarrow 1$ -->
     <defs>
      <path d="M 85.59375 25.796875 
L 85.59375 24.796875 
Q 74.09375 19.90625 61.796875 5.703125 
L 59.796875 7.59375 
Q 62.59375 11.59375 68 17.203125 
Q 69.40625 18.59375 69.40625 20 
Q 69.40625 22 66.796875 22 
L 7 22 
L 7 28.59375 
L 66.90625 28.59375 
Q 67.703125 28.59375 68.59375 29.34375 
Q 69.5 30.09375 69.5 30.796875 
Q 69.5 31.90625 68.09375 33.296875 
Q 63 38.203125 59.90625 42.90625 
L 61.90625 44.796875 
Q 74.296875 30.5 85.59375 25.796875 
z
" id="STIXGeneral-Regular-2192"/>
      <path d="M 9.578125 49.515625 
L 9.578125 56.25 
Q 19.09375 57.171875 22.84375 59.34375 
Q 26.609375 61.53125 28.46875 69.625 
L 35.40625 69.625 
L 35.40625 0 
L 26.03125 0 
L 26.03125 49.515625 
z
" id="Helvetica-31"/>
     </defs>
     <g style="fill:#ffffff;" transform="translate(80.055625 88.138344)scale(0.14 -0.14)">
      <use transform="translate(0 0.078125)" xlink:href="#Helvetica-30"/>
      <use transform="translate(72.275391 0.078125)" xlink:href="#STIXGeneral-Regular-2192"/>
      <use transform="translate(181.535538 0.078125)" xlink:href="#Helvetica-31"/>
     </g>
    </g>
    <g id="line2d_23">
     <path d="M 62.555625 112.723875 
L 76.555625 112.723875 
" style="fill:none;stroke:#ffffff;stroke-dasharray:7.4,3.2;stroke-dashoffset:0;stroke-width:2;"/>
    </g>
    <g id="line2d_24"/>
    <g id="text_12">
     <!-- $|g| = 0.48$, -->
     <defs>
      <path d="M 15.375 0 
L 7.03125 0 
L 7.03125 72.75 
L 15.375 72.75 
z
" id="Helvetica-7c"/>
      <path d="M 24.90625 53.21875 
Q 31.0625 53.21875 35.640625 50.203125 
Q 38.140625 48.484375 40.71875 45.21875 
L 40.71875 51.8125 
L 48.828125 51.8125 
L 48.828125 4.25 
Q 48.828125 -5.71875 45.90625 -11.46875 
Q 40.4375 -22.125 25.25 -22.125 
Q 16.796875 -22.125 11.03125 -18.328125 
Q 5.28125 -14.546875 4.59375 -6.5 
L 13.53125 -6.5 
Q 14.15625 -10.015625 16.0625 -11.921875 
Q 19.046875 -14.84375 25.4375 -14.84375 
Q 35.546875 -14.84375 38.671875 -7.71875 
Q 40.53125 -3.515625 40.375 7.28125 
Q 37.75 3.265625 34.03125 1.3125 
Q 30.328125 -0.640625 24.21875 -0.640625 
Q 15.71875 -0.640625 9.34375 5.390625 
Q 2.984375 11.421875 2.984375 25.34375 
Q 2.984375 38.484375 9.40625 45.84375 
Q 15.828125 53.21875 24.90625 53.21875 
z
M 40.71875 26.375 
Q 40.71875 36.078125 36.71875 40.765625 
Q 32.71875 45.453125 26.515625 45.453125 
Q 17.234375 45.453125 13.8125 36.765625 
Q 12.015625 32.125 12.015625 24.609375 
Q 12.015625 15.765625 15.59375 11.15625 
Q 19.1875 6.546875 25.25 6.546875 
Q 34.71875 6.546875 38.578125 15.09375 
Q 40.71875 19.921875 40.71875 26.375 
z
M 25.921875 53.5625 
z
" id="Helvetica-67"/>
      <path d="M 55.421875 40.140625 
L 55.421875 31.9375 
L 4.5 31.9375 
L 4.5 40.140625 
z
M 55.421875 19.1875 
L 55.421875 10.84375 
L 4.5 10.84375 
L 4.5 19.1875 
z
" id="Helvetica-3d"/>
      <path d="M 27.203125 40.625 
Q 33.015625 40.625 36.28125 43.875 
Q 39.546875 47.125 39.546875 51.609375 
Q 39.546875 55.515625 36.421875 58.78125 
Q 33.296875 62.0625 26.90625 62.0625 
Q 20.5625 62.0625 17.71875 58.78125 
Q 14.890625 55.515625 14.890625 51.125 
Q 14.890625 46.1875 18.546875 43.40625 
Q 22.21875 40.625 27.203125 40.625 
z
M 27.734375 6 
Q 33.84375 6 37.859375 9.296875 
Q 41.890625 12.59375 41.890625 19.140625 
Q 41.890625 25.921875 37.734375 29.4375 
Q 33.59375 32.953125 27.09375 32.953125 
Q 20.796875 32.953125 16.8125 29.359375 
Q 12.84375 25.78125 12.84375 19.4375 
Q 12.84375 13.96875 16.484375 9.984375 
Q 20.125 6 27.734375 6 
z
M 15.234375 37.25 
Q 11.578125 38.8125 9.515625 40.921875 
Q 5.671875 44.828125 5.671875 51.078125 
Q 5.671875 58.890625 11.328125 64.5 
Q 17 70.125 27.390625 70.125 
Q 37.453125 70.125 43.15625 64.8125 
Q 48.875 59.515625 48.875 52.4375 
Q 48.875 45.90625 45.5625 41.84375 
Q 43.703125 39.546875 39.796875 37.359375 
Q 44.140625 35.359375 46.625 32.765625 
Q 51.265625 27.875 51.265625 20.0625 
Q 51.265625 10.84375 45.0625 4.421875 
Q 38.875 -2 27.546875 -2 
Q 17.328125 -2 10.265625 3.53125 
Q 3.21875 9.078125 3.21875 19.625 
Q 3.21875 25.828125 6.25 30.34375 
Q 9.28125 34.859375 15.234375 37.25 
z
" id="Helvetica-38"/>
      <path d="M 8.296875 -10.203125 
Q 11.671875 -9.625 13.03125 -5.46875 
Q 13.765625 -3.265625 13.765625 -1.21875 
Q 13.765625 -0.875 13.734375 -0.609375 
Q 13.71875 -0.34375 13.625 0 
L 8.296875 0 
L 8.296875 10.640625 
L 18.75 10.640625 
L 18.75 0.78125 
Q 18.75 -5.03125 16.40625 -9.421875 
Q 14.0625 -13.8125 8.296875 -14.84375 
z
" id="Helvetica-2c"/>
     </defs>
     <g style="fill:#ffffff;" transform="translate(80.055625 108.864469)scale(0.14 -0.14)">
      <use transform="translate(0 0.25)" xlink:href="#Helvetica-7c"/>
      <use transform="translate(25.976562 0.25)" xlink:href="#Helvetica-67"/>
      <use transform="translate(81.591797 0.25)" xlink:href="#Helvetica-7c"/>
      <use transform="translate(124.228516 0.25)" xlink:href="#Helvetica-3d"/>
      <use transform="translate(199.287109 0.25)" xlink:href="#Helvetica-30"/>
      <use transform="translate(254.902344 0.25)" xlink:href="#Helvetica-2e"/>
      <use transform="translate(282.685547 0.25)" xlink:href="#Helvetica-34"/>
      <use transform="translate(338.300781 0.25)" xlink:href="#Helvetica-38"/>
      <use transform="translate(393.916016 0.25)" xlink:href="#Helvetica-2c"/>
     </g>
     <!-- $\Delta S(B=0T) / k_B = 0.65$ -->
     <defs>
      <path d="M 29.25 70.21875 
Q 40.96875 70.21875 45.578125 64.140625 
Q 50.203125 58.0625 50.203125 51.609375 
L 41.5 51.609375 
Q 40.71875 55.765625 39.015625 58.109375 
Q 35.84375 62.5 29.390625 62.5 
Q 22.015625 62.5 17.671875 55.6875 
Q 13.328125 48.875 12.84375 36.1875 
Q 15.875 40.625 20.453125 42.828125 
Q 24.65625 44.78125 29.828125 44.78125 
Q 38.625 44.78125 45.15625 39.15625 
Q 51.703125 33.546875 51.703125 22.40625 
Q 51.703125 12.890625 45.5 5.53125 
Q 39.3125 -1.8125 27.828125 -1.8125 
Q 18.015625 -1.8125 10.890625 5.640625 
Q 3.765625 13.09375 3.765625 30.71875 
Q 3.765625 43.75 6.9375 52.828125 
Q 13.03125 70.21875 29.25 70.21875 
z
M 28.609375 6 
Q 35.546875 6 38.984375 10.65625 
Q 42.4375 15.328125 42.4375 21.6875 
Q 42.4375 27.046875 39.359375 31.90625 
Q 36.28125 36.765625 28.171875 36.765625 
Q 22.515625 36.765625 18.234375 33 
Q 13.96875 29.25 13.96875 21.6875 
Q 13.96875 15.046875 17.84375 10.515625 
Q 21.734375 6 28.609375 6 
z
" id="Helvetica-36"/>
      <path d="M 12.359375 17.828125 
Q 13.234375 10.296875 19.34375 7.421875 
Q 22.46875 5.953125 26.5625 5.953125 
Q 34.375 5.953125 38.125 10.9375 
Q 41.890625 15.921875 41.890625 21.96875 
Q 41.890625 29.296875 37.421875 33.296875 
Q 32.953125 37.3125 26.703125 37.3125 
Q 22.171875 37.3125 18.921875 35.546875 
Q 15.671875 33.796875 13.375 30.671875 
L 5.765625 31.109375 
L 11.078125 68.75 
L 47.40625 68.75 
L 47.40625 60.25 
L 17.671875 60.25 
L 14.703125 40.828125 
Q 17.140625 42.671875 19.34375 43.609375 
Q 23.25 45.21875 28.375 45.21875 
Q 37.984375 45.21875 44.671875 39.015625 
Q 51.375 32.8125 51.375 23.296875 
Q 51.375 13.375 45.234375 5.796875 
Q 39.109375 -1.765625 25.6875 -1.765625 
Q 17.140625 -1.765625 10.5625 3.046875 
Q 4 7.859375 3.21875 17.828125 
z
" id="Helvetica-35"/>
     </defs>
     <g style="fill:#ffffff;" transform="translate(80.055625 124.516469)scale(0.14 -0.14)">
      <use transform="translate(0 0.3125)" xlink:href="#Helvetica-394"/>
      <use transform="translate(72.216797 0.3125)" xlink:href="#Helvetica-53"/>
      <use transform="translate(138.916016 0.3125)" xlink:href="#Helvetica-28"/>
      <use transform="translate(172.216797 0.3125)" xlink:href="#Helvetica-42"/>
      <use transform="translate(255.576172 0.3125)" xlink:href="#Helvetica-3d"/>
      <use transform="translate(330.634766 0.3125)" xlink:href="#Helvetica-30"/>
      <use transform="translate(386.25 0.3125)" xlink:href="#Helvetica-54"/>
      <use transform="translate(447.333984 0.3125)" xlink:href="#Helvetica-29"/>
      <use transform="translate(480.634766 0.3125)" xlink:href="#Helvetica-2f"/>
      <use transform="translate(508.417969 0.3125)" xlink:href="#Helvetica-6b"/>
      <use transform="translate(559.333164 -15.376563)scale(0.7)" xlink:href="#Helvetica-42"/>
      <use transform="translate(625.297617 0.3125)" xlink:href="#Helvetica-3d"/>
      <use transform="translate(700.356211 0.3125)" xlink:href="#Helvetica-30"/>
      <use transform="translate(755.971445 0.3125)" xlink:href="#Helvetica-2e"/>
      <use transform="translate(783.754648 0.3125)" xlink:href="#Helvetica-36"/>
      <use transform="translate(839.369883 0.3125)" xlink:href="#Helvetica-35"/>
     </g>
    </g>
   </g>
   <g id="legend_2">
    <g id="line2d_25"/>
    <g id="line2d_26">
     <defs>
      <path d="M -0 5.656854 
L 3.394113 0 
L 0 -5.656854 
L -3.394113 -0 
z
" id="m2a9b56d18c"/>
     </defs>
     <g>
      <use style="fill:#ffed6f;opacity:0.8;" x="339.645625" xlink:href="#m2a9b56d18c" y="83.238344"/>
     </g>
    </g>
    <g id="text_13">
     <!-- $2 \rightarrow 3$ -->
     <defs>
      <path d="M 25.984375 -1.90625 
Q 13.578125 -1.90625 7.984375 4.90625 
Q 2.390625 11.71875 2.390625 21.484375 
L 11.578125 21.484375 
Q 12.15625 14.703125 14.109375 11.625 
Q 17.53125 6.109375 26.46875 6.109375 
Q 33.40625 6.109375 37.59375 9.8125 
Q 41.796875 13.53125 41.796875 19.390625 
Q 41.796875 26.609375 37.375 29.484375 
Q 32.953125 32.375 25.09375 32.375 
Q 24.21875 32.375 23.3125 32.34375 
Q 22.40625 32.328125 21.484375 32.28125 
L 21.484375 40.046875 
Q 22.859375 39.890625 23.78125 39.84375 
Q 24.703125 39.796875 25.78125 39.796875 
Q 30.71875 39.796875 33.890625 41.359375 
Q 39.453125 44.09375 39.453125 51.125 
Q 39.453125 56.34375 35.734375 59.171875 
Q 32.03125 62.015625 27.09375 62.015625 
Q 18.3125 62.015625 14.9375 56.15625 
Q 13.09375 52.9375 12.84375 46.96875 
L 4.15625 46.96875 
Q 4.15625 54.78125 7.28125 60.25 
Q 12.640625 70.015625 26.171875 70.015625 
Q 36.859375 70.015625 42.71875 65.25 
Q 48.578125 60.5 48.578125 51.46875 
Q 48.578125 45.015625 45.125 41.015625 
Q 42.96875 38.53125 39.546875 37.109375 
Q 45.0625 35.59375 48.15625 31.265625 
Q 51.265625 26.953125 51.265625 20.703125 
Q 51.265625 10.6875 44.671875 4.390625 
Q 38.09375 -1.90625 25.984375 -1.90625 
z
" id="Helvetica-33"/>
     </defs>
     <g style="fill:#ffffff;" transform="translate(350.145625 88.138344)scale(0.14 -0.14)">
      <use transform="translate(0 0.828125)" xlink:href="#Helvetica-32"/>
      <use transform="translate(72.275391 0.828125)" xlink:href="#STIXGeneral-Regular-2192"/>
      <use transform="translate(181.535538 0.828125)" xlink:href="#Helvetica-33"/>
     </g>
    </g>
    <g id="line2d_27">
     <path d="M 332.645625 112.723875 
L 346.645625 112.723875 
" style="fill:none;stroke:#ffffff;stroke-linecap:square;stroke-width:2;"/>
    </g>
    <g id="line2d_28"/>
    <g id="text_14">
     <!-- $|g| = 0.44$, -->
     <g style="fill:#ffffff;" transform="translate(350.145625 108.864469)scale(0.14 -0.14)">
      <use transform="translate(0 0.25)" xlink:href="#Helvetica-7c"/>
      <use transform="translate(25.976562 0.25)" xlink:href="#Helvetica-67"/>
      <use transform="translate(81.591797 0.25)" xlink:href="#Helvetica-7c"/>
      <use transform="translate(124.228516 0.25)" xlink:href="#Helvetica-3d"/>
      <use transform="translate(199.287109 0.25)" xlink:href="#Helvetica-30"/>
      <use transform="translate(254.902344 0.25)" xlink:href="#Helvetica-2e"/>
      <use transform="translate(282.685547 0.25)" xlink:href="#Helvetica-34"/>
      <use transform="translate(338.300781 0.25)" xlink:href="#Helvetica-34"/>
      <use transform="translate(393.916016 0.25)" xlink:href="#Helvetica-2c"/>
     </g>
     <!-- $\Delta S(B=0T) / k_B = 0.68$ -->
     <g style="fill:#ffffff;" transform="translate(350.145625 124.516469)scale(0.14 -0.14)">
      <use transform="translate(0 0.3125)" xlink:href="#Helvetica-394"/>
      <use transform="translate(72.216797 0.3125)" xlink:href="#Helvetica-53"/>
      <use transform="translate(138.916016 0.3125)" xlink:href="#Helvetica-28"/>
      <use transform="translate(172.216797 0.3125)" xlink:href="#Helvetica-42"/>
      <use transform="translate(255.576172 0.3125)" xlink:href="#Helvetica-3d"/>
      <use transform="translate(330.634766 0.3125)" xlink:href="#Helvetica-30"/>
      <use transform="translate(386.25 0.3125)" xlink:href="#Helvetica-54"/>
      <use transform="translate(447.333984 0.3125)" xlink:href="#Helvetica-29"/>
      <use transform="translate(480.634766 0.3125)" xlink:href="#Helvetica-2f"/>
      <use transform="translate(508.417969 0.3125)" xlink:href="#Helvetica-6b"/>
      <use transform="translate(559.333164 -15.376563)scale(0.7)" xlink:href="#Helvetica-42"/>
      <use transform="translate(625.297617 0.3125)" xlink:href="#Helvetica-3d"/>
      <use transform="translate(700.356211 0.3125)" xlink:href="#Helvetica-30"/>
      <use transform="translate(755.971445 0.3125)" xlink:href="#Helvetica-2e"/>
      <use transform="translate(783.754648 0.3125)" xlink:href="#Helvetica-36"/>
      <use transform="translate(839.369883 0.3125)" xlink:href="#Helvetica-38"/>
     </g>
    </g>
   </g>
  </g>
 </g>
 <defs>
  <clipPath id="pb4f7528d70">
   <rect height="190.844" width="431.09" x="53.455625" y="7.2"/>
  </clipPath>
 </defs>
</svg>
