<?xml version="1.0" encoding="utf-8" standalone="no"?>
<!DOCTYPE svg PUBLIC "-//W3C//DTD SVG 1.1//EN"
  "http://www.w3.org/Graphics/SVG/1.1/DTD/svg11.dtd">
<!-- Created with matplotlib (http://matplotlib.org/) -->
<svg height="273.6pt" version="1.1" viewBox="0 0 374.4 273.6" width="374.4pt" xmlns="http://www.w3.org/2000/svg" xmlns:xlink="http://www.w3.org/1999/xlink">
 <defs>
  <style type="text/css">
*{stroke-linecap:butt;stroke-linejoin:round;}
  </style>
 </defs>
 <g id="figure_1">
  <g id="patch_1">
   <path d="M 0 273.6 
L 374.4 273.6 
L 374.4 0 
L 0 0 
z
" style="fill:none;"/>
  </g>
  <g id="axes_1">
   <g id="patch_2">
    <path d="M 46.8 239.4 
L 336.96 239.4 
L 336.96 32.832 
L 46.8 32.832 
z
" style="fill:none;"/>
   </g>
   <g id="matplotlib.axis_1">
    <g id="xtick_1">
     <g id="line2d_1">
      <defs>
       <path d="M 0 0 
L 0 -5 
" id="m4f5cf6ff33" style="stroke:#ffffff;stroke-width:1.2;"/>
      </defs>
      <g>
       <use style="fill:#ffffff;stroke:#ffffff;stroke-width:1.2;" x="59.989091" xlink:href="#m4f5cf6ff33" y="239.4"/>
      </g>
     </g>
     <g id="line2d_2">
      <defs>
       <path d="M 0 0 
L 0 5 
" id="m44f7c7d2ff" style="stroke:#ffffff;stroke-width:1.2;"/>
      </defs>
      <g>
       <use style="fill:#ffffff;stroke:#ffffff;stroke-width:1.2;" x="59.989091" xlink:href="#m44f7c7d2ff" y="32.832"/>
      </g>
     </g>
    </g>
    <g id="xtick_2">
     <g id="line2d_3">
      <g>
       <use style="fill:#ffffff;stroke:#ffffff;stroke-width:1.2;" x="125.934545" xlink:href="#m4f5cf6ff33" y="239.4"/>
      </g>
     </g>
     <g id="line2d_4">
      <g>
       <use style="fill:#ffffff;stroke:#ffffff;stroke-width:1.2;" x="125.934545" xlink:href="#m44f7c7d2ff" y="32.832"/>
      </g>
     </g>
    </g>
    <g id="xtick_3">
     <g id="line2d_5">
      <g>
       <use style="fill:#ffffff;stroke:#ffffff;stroke-width:1.2;" x="191.88" xlink:href="#m4f5cf6ff33" y="239.4"/>
      </g>
     </g>
     <g id="line2d_6">
      <g>
       <use style="fill:#ffffff;stroke:#ffffff;stroke-width:1.2;" x="191.88" xlink:href="#m44f7c7d2ff" y="32.832"/>
      </g>
     </g>
    </g>
    <g id="xtick_4">
     <g id="line2d_7">
      <g>
       <use style="fill:#ffffff;stroke:#ffffff;stroke-width:1.2;" x="257.825455" xlink:href="#m4f5cf6ff33" y="239.4"/>
      </g>
     </g>
     <g id="line2d_8">
      <g>
       <use style="fill:#ffffff;stroke:#ffffff;stroke-width:1.2;" x="257.825455" xlink:href="#m44f7c7d2ff" y="32.832"/>
      </g>
     </g>
    </g>
    <g id="xtick_5">
     <g id="line2d_9">
      <g>
       <use style="fill:#ffffff;stroke:#ffffff;stroke-width:1.2;" x="323.770909" xlink:href="#m4f5cf6ff33" y="239.4"/>
      </g>
     </g>
     <g id="line2d_10">
      <g>
       <use style="fill:#ffffff;stroke:#ffffff;stroke-width:1.2;" x="323.770909" xlink:href="#m44f7c7d2ff" y="32.832"/>
      </g>
     </g>
    </g>
    <g id="text_1">
     <!-- $V_{g}$ -->
     <defs>
      <path d="M 13.28125 71.734375 
L 33.890625 10.640625 
L 54.25 71.734375 
L 65.140625 71.734375 
L 38.96875 0 
L 28.65625 0 
L 2.546875 71.734375 
z
" id="Helvetica-56"/>
      <path d="M 24.90625 53.21875 
Q 31.0625 53.21875 35.640625 50.203125 
Q 38.140625 48.484375 40.71875 45.21875 
L 40.71875 51.8125 
L 48.828125 51.8125 
L 48.828125 4.25 
Q 48.828125 -5.71875 45.90625 -11.46875 
Q 40.4375 -22.125 25.25 -22.125 
Q 16.796875 -22.125 11.03125 -18.328125 
Q 5.28125 -14.546875 4.59375 -6.5 
L 13.53125 -6.5 
Q 14.15625 -10.015625 16.0625 -11.921875 
Q 19.046875 -14.84375 25.4375 -14.84375 
Q 35.546875 -14.84375 38.671875 -7.71875 
Q 40.53125 -3.515625 40.375 7.28125 
Q 37.75 3.265625 34.03125 1.3125 
Q 30.328125 -0.640625 24.21875 -0.640625 
Q 15.71875 -0.640625 9.34375 5.390625 
Q 2.984375 11.421875 2.984375 25.34375 
Q 2.984375 38.484375 9.40625 45.84375 
Q 15.828125 53.21875 24.90625 53.21875 
z
M 40.71875 26.375 
Q 40.71875 36.078125 36.71875 40.765625 
Q 32.71875 45.453125 26.515625 45.453125 
Q 17.234375 45.453125 13.8125 36.765625 
Q 12.015625 32.125 12.015625 24.609375 
Q 12.015625 15.765625 15.59375 11.15625 
Q 19.1875 6.546875 25.25 6.546875 
Q 34.71875 6.546875 38.578125 15.09375 
Q 40.71875 19.921875 40.71875 26.375 
z
M 25.921875 53.5625 
z
" id="Helvetica-67"/>
     </defs>
     <g style="fill:#ffffff;" transform="translate(180.88 259.3)scale(0.2 -0.2)">
      <use transform="translate(0 0.265625)" xlink:href="#Helvetica-56"/>
      <use transform="translate(67.614414 -15.423438)scale(0.7)" xlink:href="#Helvetica-67"/>
     </g>
    </g>
   </g>
   <g id="matplotlib.axis_2">
    <g id="ytick_1">
     <g id="line2d_11">
      <defs>
       <path d="M 0 0 
L 5 0 
" id="m11af733c39" style="stroke:#ffffff;stroke-width:1.2;"/>
      </defs>
      <g>
       <use style="fill:#ffffff;stroke:#ffffff;stroke-width:1.2;" x="46.8" xlink:href="#m11af733c39" y="215.55621"/>
      </g>
     </g>
     <g id="line2d_12">
      <defs>
       <path d="M 0 0 
L -5 0 
" id="m8fc7fc6dd9" style="stroke:#ffffff;stroke-width:1.2;"/>
      </defs>
      <g>
       <use style="fill:#ffffff;stroke:#ffffff;stroke-width:1.2;" x="336.96" xlink:href="#m8fc7fc6dd9" y="215.55621"/>
      </g>
     </g>
    </g>
    <g id="ytick_2">
     <g id="line2d_13">
      <g>
       <use style="fill:#ffffff;stroke:#ffffff;stroke-width:1.2;" x="46.8" xlink:href="#m11af733c39" y="180.889259"/>
      </g>
     </g>
     <g id="line2d_14">
      <g>
       <use style="fill:#ffffff;stroke:#ffffff;stroke-width:1.2;" x="336.96" xlink:href="#m8fc7fc6dd9" y="180.889259"/>
      </g>
     </g>
    </g>
    <g id="ytick_3">
     <g id="line2d_15">
      <g>
       <use style="fill:#ffffff;stroke:#ffffff;stroke-width:1.2;" x="46.8" xlink:href="#m11af733c39" y="146.222308"/>
      </g>
     </g>
     <g id="line2d_16">
      <g>
       <use style="fill:#ffffff;stroke:#ffffff;stroke-width:1.2;" x="336.96" xlink:href="#m8fc7fc6dd9" y="146.222308"/>
      </g>
     </g>
    </g>
    <g id="ytick_4">
     <g id="line2d_17">
      <g>
       <use style="fill:#ffffff;stroke:#ffffff;stroke-width:1.2;" x="46.8" xlink:href="#m11af733c39" y="111.555357"/>
      </g>
     </g>
     <g id="line2d_18">
      <g>
       <use style="fill:#ffffff;stroke:#ffffff;stroke-width:1.2;" x="336.96" xlink:href="#m8fc7fc6dd9" y="111.555357"/>
      </g>
     </g>
    </g>
    <g id="ytick_5">
     <g id="line2d_19">
      <g>
       <use style="fill:#ffffff;stroke:#ffffff;stroke-width:1.2;" x="46.8" xlink:href="#m11af733c39" y="76.888406"/>
      </g>
     </g>
     <g id="line2d_20">
      <g>
       <use style="fill:#ffffff;stroke:#ffffff;stroke-width:1.2;" x="336.96" xlink:href="#m8fc7fc6dd9" y="76.888406"/>
      </g>
     </g>
    </g>
    <g id="ytick_6">
     <g id="line2d_21">
      <g>
       <use style="fill:#ffffff;stroke:#ffffff;stroke-width:1.2;" x="46.8" xlink:href="#m11af733c39" y="42.221455"/>
      </g>
     </g>
     <g id="line2d_22">
      <g>
       <use style="fill:#ffffff;stroke:#ffffff;stroke-width:1.2;" x="336.96" xlink:href="#m8fc7fc6dd9" y="42.221455"/>
      </g>
     </g>
    </g>
    <g id="text_2">
     <!-- $\delta g_{SET}$ -->
     <defs>
      <path d="M 10.40625 70.609375 
L 49.8125 70.609375 
L 49.8125 63.375 
L 21.78125 63.375 
L 21.78125 63.1875 
L 39.203125 51.609375 
Q 48.96875 45.015625 52.6875 38.578125 
Q 56.109375 32.078125 56 25 
Q 55.90625 14.59375 49.421875 6.984375 
Q 42.78125 -0.78125 30.28125 -0.984375 
Q 18.796875 -0.875 12.015625 6.296875 
Q 5.171875 13.28125 5.078125 24.3125 
Q 5.328125 47.90625 29.109375 49.8125 
L 29.109375 50 
L 10.40625 63.375 
z
M 31.109375 6.203125 
Q 39.015625 6.296875 42.671875 12.40625 
Q 46.390625 18.21875 46.390625 25.09375 
Q 46.390625 29 45.609375 31.890625 
Q 44.78125 34.71875 43.609375 36.625 
Q 42.390625 38.484375 41.21875 39.703125 
Q 39.984375 40.921875 39.203125 41.40625 
Q 37.203125 43.21875 33.6875 43.21875 
Q 14.796875 43.21875 14.703125 23.875 
Q 14.703125 16.5 19 11.53125 
Q 23.296875 6.296875 31.109375 6.203125 
z
" id="Helvetica-3b4"/>
      <path d="M 13.96875 23.140625 
Q 14.3125 17.046875 16.84375 13.234375 
Q 21.6875 6.109375 33.890625 6.109375 
Q 39.359375 6.109375 43.84375 7.671875 
Q 52.546875 10.6875 52.546875 18.5 
Q 52.546875 24.359375 48.875 26.859375 
Q 45.171875 29.296875 37.25 31.109375 
L 27.546875 33.296875 
Q 18.015625 35.453125 14.0625 38.03125 
Q 7.234375 42.53125 7.234375 51.46875 
Q 7.234375 61.140625 13.921875 67.328125 
Q 20.609375 73.53125 32.859375 73.53125 
Q 44.140625 73.53125 52.015625 68.078125 
Q 59.90625 62.640625 59.90625 50.6875 
L 50.78125 50.6875 
Q 50.046875 56.453125 47.65625 59.515625 
Q 43.21875 65.140625 32.5625 65.140625 
Q 23.96875 65.140625 20.203125 61.515625 
Q 16.453125 57.90625 16.453125 53.125 
Q 16.453125 47.859375 20.84375 45.40625 
Q 23.734375 43.84375 33.890625 41.5 
L 43.953125 39.203125 
Q 51.21875 37.546875 55.171875 34.671875 
Q 62.015625 29.640625 62.015625 20.0625 
Q 62.015625 8.15625 53.34375 3.03125 
Q 44.671875 -2.09375 33.203125 -2.09375 
Q 19.828125 -2.09375 12.25 4.734375 
Q 4.6875 11.53125 4.828125 23.140625 
z
M 33.59375 73.6875 
z
" id="Helvetica-53"/>
      <path d="M 8.546875 71.734375 
L 60.84375 71.734375 
L 60.84375 62.9375 
L 18.015625 62.9375 
L 18.015625 41.15625 
L 57.625 41.15625 
L 57.625 32.859375 
L 18.015625 32.859375 
L 18.015625 8.546875 
L 61.578125 8.546875 
L 61.578125 0 
L 8.546875 0 
z
M 35.0625 71.734375 
z
" id="Helvetica-45"/>
      <path d="M 59.8125 71.734375 
L 59.8125 63.1875 
L 35.640625 63.1875 
L 35.640625 0 
L 25.78125 0 
L 25.78125 63.1875 
L 1.609375 63.1875 
L 1.609375 71.734375 
z
" id="Helvetica-54"/>
     </defs>
     <g style="fill:#ffffff;" transform="translate(36.7 161.816)rotate(-90)scale(0.2 -0.2)">
      <use transform="translate(0 0.390625)" xlink:href="#Helvetica-3b4"/>
      <use transform="translate(61.083984 0.390625)" xlink:href="#Helvetica-67"/>
      <use transform="translate(117.614414 -15.298438)scale(0.7)" xlink:href="#Helvetica-53"/>
      <use transform="translate(164.303867 -15.298438)scale(0.7)" xlink:href="#Helvetica-45"/>
      <use transform="translate(210.99332 -15.298438)scale(0.7)" xlink:href="#Helvetica-54"/>
     </g>
    </g>
   </g>
   <g id="line2d_23">
    <path clip-path="url(#pbab66665ac)" d="M 59.989091 110.094916 
L 67.118329 109.452931 
L 73.191384 108.695535 
L 78.472301 107.826993 
L 83.225127 106.831885 
L 87.713907 105.661683 
L 91.674595 104.404347 
L 95.371237 103.005691 
L 98.803833 101.481234 
L 102.236429 99.708212 
L 105.40498 97.822852 
L 108.57353 95.671488 
L 111.478034 93.443126 
L 114.382539 90.94967 
L 117.287043 88.174081 
L 120.191548 85.103363 
L 123.360098 81.409329 
L 126.528649 77.360656 
L 129.961245 72.602338 
L 133.921933 66.71817 
L 144.483767 50.760603 
L 146.86018 47.711262 
L 148.708501 45.673971 
L 150.292776 44.231617 
L 151.613006 43.289062 
L 152.933235 42.621383 
L 153.989419 42.310968 
L 155.045602 42.221455 
L 156.101785 42.373617 
L 157.157969 42.788444 
L 158.214152 43.486905 
L 159.270336 44.489688 
L 160.326519 45.816901 
L 161.382703 47.487743 
L 162.438886 49.520132 
L 163.759115 52.593602 
L 165.079345 56.284235 
L 166.399574 60.612577 
L 167.983849 66.665606 
L 169.568124 73.658869 
L 171.416446 82.980305 
L 173.264767 93.482959 
L 175.377133 106.771134 
L 178.017592 124.901571 
L 187.259197 190.209159 
L 189.107518 201.131372 
L 190.691794 209.335941 
L 192.276069 216.30403 
L 193.596298 221.075894 
L 194.652482 224.177935 
L 195.708665 226.625185 
L 196.500803 228.025497 
L 197.29294 229.052062 
L 198.085078 229.707 
L 198.877215 229.994957 
L 199.405307 229.986444 
L 199.933399 229.820588 
L 200.725536 229.283671 
L 201.517674 228.411952 
L 202.309812 227.219476 
L 203.365995 225.157969 
L 204.422179 222.595662 
L 205.742408 218.757411 
L 207.326683 213.344201 
L 209.175004 206.130053 
L 211.551417 195.848372 
L 216.040197 175.11764 
L 219.736839 158.51283 
L 222.377297 147.630609 
L 224.75371 138.785953 
L 226.866077 131.766965 
L 228.978444 125.571009 
L 230.826765 120.821221 
L 232.675086 116.678547 
L 234.523407 113.112728 
L 236.371728 110.085852 
L 237.956003 107.887989 
L 239.540278 106.026147 
L 241.124554 104.471266 
L 242.708829 103.194457 
L 244.293104 102.16755 
L 246.141425 101.24934 
L 247.989746 100.594062 
L 249.838067 100.164296 
L 251.950434 99.905612 
L 254.326847 99.856862 
L 256.967305 100.037794 
L 260.135856 100.493645 
L 264.096544 101.301536 
L 270.69769 102.918243 
L 280.995479 105.420934 
L 287.596626 106.782719 
L 293.933726 107.865614 
L 300.534873 108.770271 
L 307.664111 109.524382 
L 315.849533 110.159134 
L 323.770909 110.593478 
L 323.770909 110.593478 
" style="fill:none;stroke:#8dd3c7;stroke-linecap:square;stroke-width:2;"/>
   </g>
   <g id="line2d_24">
    <path clip-path="url(#pbab66665ac)" d="M 59.989091 110.593478 
L 69.758788 110.034326 
L 77.94421 109.348813 
L 85.073448 108.538482 
L 91.674595 107.572357 
L 98.011695 106.425185 
L 104.612842 104.999468 
L 113.06231 102.918243 
L 121.247731 100.954821 
L 125.208419 100.238633 
L 128.112924 99.920459 
L 130.753382 99.855553 
L 132.865749 100.006684 
L 134.978116 100.38433 
L 136.826437 100.938566 
L 138.674758 101.739307 
L 140.259034 102.651487 
L 141.843309 103.799886 
L 143.427584 105.212153 
L 145.011859 106.916878 
L 146.596134 108.943112 
L 148.18041 111.319753 
L 149.764685 114.074768 
L 151.34896 117.234238 
L 153.197281 121.462006 
L 155.045602 126.300404 
L 156.893923 131.766965 
L 159.00629 138.785953 
L 161.118657 146.600694 
L 163.49507 156.257345 
L 166.399574 169.055478 
L 175.113088 208.275453 
L 176.961409 215.237124 
L 178.545684 220.372257 
L 179.865913 223.936678 
L 180.922097 226.254002 
L 181.97828 228.049355 
L 182.770418 229.029641 
L 183.562555 229.679607 
L 184.354693 229.986444 
L 184.882785 229.994957 
L 185.410876 229.843461 
L 186.203014 229.311489 
L 186.995152 228.409161 
L 187.787289 227.133507 
L 188.579427 225.484136 
L 189.63561 222.707905 
L 190.691794 219.284274 
L 192.012023 214.12712 
L 193.332252 208.050507 
L 194.916527 199.654382 
L 196.764848 188.545991 
L 199.141261 172.661371 
L 202.573857 147.915315 
L 207.326683 113.85168 
L 209.703096 98.316893 
L 211.815463 85.864958 
L 213.663784 76.196446 
L 215.512105 67.766055 
L 217.09638 61.556041 
L 218.680655 56.284235 
L 220.000885 52.593602 
L 221.321114 49.520132 
L 222.641343 47.036812 
L 223.697527 45.453614 
L 224.75371 44.209349 
L 225.809894 43.28456 
L 226.866077 42.658963 
L 227.92226 42.311773 
L 228.978444 42.221993 
L 230.034627 42.368667 
L 231.090811 42.731103 
L 232.41104 43.456785 
L 233.731269 44.449847 
L 235.315545 45.943474 
L 237.163866 48.028694 
L 239.276233 50.760603 
L 242.180737 54.930713 
L 246.933563 62.235379 
L 252.742572 71.069138 
L 256.439214 76.295315 
L 259.87181 80.758815 
L 263.04036 84.512695 
L 266.208911 87.907273 
L 269.113415 90.709232 
L 272.01792 93.227679 
L 275.18647 95.671488 
L 278.35502 97.822852 
L 281.523571 99.708212 
L 284.956167 101.481234 
L 288.388763 103.005691 
L 292.085405 104.404347 
L 296.046093 105.661683 
L 300.270827 106.769702 
L 305.023653 107.77746 
L 310.30457 108.657203 
L 316.113579 109.395699 
L 322.978771 110.034343 
L 323.770909 110.094916 
L 323.770909 110.094916 
" style="fill:none;stroke:#feffb3;stroke-linecap:square;stroke-width:2;"/>
   </g>
   <g id="patch_3">
    <path d="M 46.8 239.4 
L 46.8 32.832 
" style="fill:none;stroke:#ffffff;stroke-linecap:square;stroke-linejoin:miter;stroke-width:1.2;"/>
   </g>
   <g id="patch_4">
    <path d="M 336.96 239.4 
L 336.96 32.832 
" style="fill:none;stroke:#ffffff;stroke-linecap:square;stroke-linejoin:miter;stroke-width:1.2;"/>
   </g>
   <g id="patch_5">
    <path d="M 46.8 239.4 
L 336.96 239.4 
" style="fill:none;stroke:#ffffff;stroke-linecap:square;stroke-linejoin:miter;stroke-width:1.2;"/>
   </g>
   <g id="patch_6">
    <path d="M 46.8 32.832 
L 336.96 32.832 
" style="fill:none;stroke:#ffffff;stroke-linecap:square;stroke-linejoin:miter;stroke-width:1.2;"/>
   </g>
   <g id="legend_1">
    <g id="line2d_25">
     <path d="M 57.2 197.2525 
L 70 197.2525 
" style="fill:none;stroke:#8dd3c7;stroke-linecap:square;stroke-width:2;"/>
    </g>
    <g id="line2d_26"/>
    <g id="text_3">
     <!-- $dS/k_B = 2 \ln{2}$ -->
     <defs>
      <path d="M 12.015625 25.53125 
Q 12.015625 17.140625 15.578125 11.46875 
Q 19.140625 5.8125 27 5.8125 
Q 33.109375 5.8125 37.03125 11.0625 
Q 40.96875 16.3125 40.96875 26.125 
Q 40.96875 36.03125 36.90625 40.796875 
Q 32.859375 45.5625 26.90625 45.5625 
Q 20.265625 45.5625 16.140625 40.484375 
Q 12.015625 35.40625 12.015625 25.53125 
z
M 25.25 53.21875 
Q 31.25 53.21875 35.296875 50.6875 
Q 37.640625 49.21875 40.625 45.5625 
L 40.625 71.96875 
L 49.078125 71.96875 
L 49.078125 0 
L 41.15625 0 
L 41.15625 7.28125 
Q 38.09375 2.4375 33.890625 0.28125 
Q 29.6875 -1.859375 24.265625 -1.859375 
Q 15.53125 -1.859375 9.125 5.484375 
Q 2.734375 12.84375 2.734375 25.046875 
Q 2.734375 36.46875 8.5625 44.84375 
Q 14.40625 53.21875 25.25 53.21875 
z
" id="Helvetica-64"/>
      <path d="M 22.75 71.734375 
L 30.171875 71.734375 
L 7.421875 0 
L 0 0 
z
" id="Helvetica-2f"/>
      <path d="M 6.25 71.734375 
L 14.703125 71.734375 
L 14.703125 30.078125 
L 37.25 52.296875 
L 48.484375 52.296875 
L 28.46875 32.71875 
L 49.609375 0 
L 38.375 0 
L 22.078125 26.375 
L 14.703125 19.625 
L 14.703125 0 
L 6.25 0 
z
" id="Helvetica-6b"/>
      <path d="M 34.578125 41.40625 
Q 40.71875 41.40625 44.140625 43.109375 
Q 49.515625 45.796875 49.515625 52.78125 
Q 49.515625 59.8125 43.796875 62.25 
Q 40.578125 63.625 34.234375 63.625 
L 16.890625 63.625 
L 16.890625 41.40625 
z
M 37.84375 8.296875 
Q 46.78125 8.296875 50.59375 13.484375 
Q 52.984375 16.75 52.984375 21.390625 
Q 52.984375 29.203125 46 32.03125 
Q 42.28125 33.546875 36.1875 33.546875 
L 16.890625 33.546875 
L 16.890625 8.296875 
z
M 7.375 71.734375 
L 38.1875 71.734375 
Q 50.78125 71.734375 56.109375 64.203125 
Q 59.234375 59.765625 59.234375 53.953125 
Q 59.234375 47.171875 55.375 42.828125 
Q 53.375 40.53125 49.609375 38.625 
Q 55.125 36.53125 57.859375 33.890625 
Q 62.703125 29.203125 62.703125 20.953125 
Q 62.703125 14.015625 58.34375 8.40625 
Q 51.859375 0 37.703125 0 
L 7.375 0 
z
" id="Helvetica-42"/>
      <path d="M 55.421875 40.140625 
L 55.421875 31.9375 
L 4.5 31.9375 
L 4.5 40.140625 
z
M 55.421875 19.1875 
L 55.421875 10.84375 
L 4.5 10.84375 
L 4.5 19.1875 
z
" id="Helvetica-3d"/>
      <path d="M 3.125 0 
Q 3.609375 9.03125 6.859375 15.71875 
Q 10.109375 22.40625 19.53125 27.875 
L 28.90625 33.296875 
Q 35.203125 36.96875 37.75 39.546875 
Q 41.75 43.609375 41.75 48.828125 
Q 41.75 54.9375 38.078125 58.515625 
Q 34.421875 62.109375 28.328125 62.109375 
Q 19.28125 62.109375 15.828125 55.28125 
Q 13.96875 51.609375 13.765625 45.125 
L 4.828125 45.125 
Q 4.984375 54.25 8.203125 60.015625 
Q 13.921875 70.171875 28.375 70.171875 
Q 40.375 70.171875 45.921875 63.671875 
Q 51.46875 57.171875 51.46875 49.21875 
Q 51.46875 40.828125 45.5625 34.859375 
Q 42.140625 31.390625 33.296875 26.46875 
L 26.609375 22.75 
Q 21.828125 20.125 19.09375 17.71875 
Q 14.203125 13.484375 12.9375 8.296875 
L 51.125 8.296875 
L 51.125 0 
L 3.125 0 
z
" id="Helvetica-32"/>
      <path d="M 6.6875 71.734375 
L 15.484375 71.734375 
L 15.484375 0 
L 6.6875 0 
z
" id="Helvetica-6c"/>
      <path d="M 6.453125 52.296875 
L 14.796875 52.296875 
L 14.796875 44.875 
Q 18.5 49.46875 22.65625 51.46875 
Q 26.8125 53.46875 31.890625 53.46875 
Q 43.015625 53.46875 46.921875 45.703125 
Q 49.078125 41.453125 49.078125 33.546875 
L 49.078125 0 
L 40.140625 0 
L 40.140625 32.953125 
Q 40.140625 37.75 38.71875 40.671875 
Q 36.375 45.5625 30.21875 45.5625 
Q 27.09375 45.5625 25.09375 44.921875 
Q 21.484375 43.84375 18.75 40.625 
Q 16.546875 38.03125 15.890625 35.265625 
Q 15.234375 32.515625 15.234375 27.390625 
L 15.234375 0 
L 6.453125 0 
z
M 27.09375 53.5625 
z
" id="Helvetica-6e"/>
     </defs>
     <g style="fill:#ffffff;" transform="translate(74 202.8525)scale(0.16 -0.16)">
      <use transform="translate(0 0.3125)" xlink:href="#Helvetica-64"/>
      <use transform="translate(55.615234 0.3125)" xlink:href="#Helvetica-53"/>
      <use transform="translate(122.314453 0.3125)" xlink:href="#Helvetica-2f"/>
      <use transform="translate(150.097656 0.3125)" xlink:href="#Helvetica-6b"/>
      <use transform="translate(201.012852 -15.376563)scale(0.7)" xlink:href="#Helvetica-42"/>
      <use transform="translate(266.977305 0.3125)" xlink:href="#Helvetica-3d"/>
      <use transform="translate(342.035898 0.3125)" xlink:href="#Helvetica-32"/>
      <use transform="translate(397.651133 0.3125)" xlink:href="#Helvetica-6c"/>
      <use transform="translate(419.86793 0.3125)" xlink:href="#Helvetica-6e"/>
      <use transform="translate(475.483164 0.3125)" xlink:href="#Helvetica-32"/>
     </g>
    </g>
    <g id="line2d_27">
     <path d="M 57.2 220.065 
L 70 220.065 
" style="fill:none;stroke:#feffb3;stroke-linecap:square;stroke-width:2;"/>
    </g>
    <g id="line2d_28"/>
    <g id="text_4">
     <!-- $dS/k_B = -2 \ln{2}$ -->
     <defs>
      <path d="M 55.421875 29.59375 
L 55.421875 21.390625 
L 4.5 21.390625 
L 4.5 29.59375 
z
" id="Helvetica-2212"/>
     </defs>
     <g style="fill:#ffffff;" transform="translate(74 225.665)scale(0.16 -0.16)">
      <use transform="translate(0 0.3125)" xlink:href="#Helvetica-64"/>
      <use transform="translate(55.615234 0.3125)" xlink:href="#Helvetica-53"/>
      <use transform="translate(122.314453 0.3125)" xlink:href="#Helvetica-2f"/>
      <use transform="translate(150.097656 0.3125)" xlink:href="#Helvetica-6b"/>
      <use transform="translate(201.012852 -15.376563)scale(0.7)" xlink:href="#Helvetica-42"/>
      <use transform="translate(266.977305 0.3125)" xlink:href="#Helvetica-3d"/>
      <use transform="translate(358.696055 0.3125)" xlink:href="#Helvetica-2212"/>
      <use transform="translate(433.754648 0.3125)" xlink:href="#Helvetica-32"/>
      <use transform="translate(489.369883 0.3125)" xlink:href="#Helvetica-6c"/>
      <use transform="translate(511.58668 0.3125)" xlink:href="#Helvetica-6e"/>
      <use transform="translate(567.201914 0.3125)" xlink:href="#Helvetica-32"/>
     </g>
    </g>
   </g>
  </g>
 </g>
 <defs>
  <clipPath id="pbab66665ac">
   <rect height="206.568" width="290.16" x="46.8" y="32.832"/>
  </clipPath>
 </defs>
</svg>
