<?xml version="1.0" encoding="utf-8" standalone="no"?>
<!DOCTYPE svg PUBLIC "-//W3C//DTD SVG 1.1//EN"
  "http://www.w3.org/Graphics/SVG/1.1/DTD/svg11.dtd">
<!-- Created with matplotlib (http://matplotlib.org/) -->
<svg height="273.6pt" version="1.1" viewBox="0 0 374.4 273.6" width="374.4pt" xmlns="http://www.w3.org/2000/svg" xmlns:xlink="http://www.w3.org/1999/xlink">
 <defs>
  <style type="text/css">
*{stroke-linecap:butt;stroke-linejoin:round;}
  </style>
 </defs>
 <g id="figure_1">
  <g id="patch_1">
   <path d="M 0 273.6 
L 374.4 273.6 
L 374.4 0 
L 0 0 
z
" style="fill:none;"/>
  </g>
  <g id="axes_1">
   <g id="patch_2">
    <path d="M 46.8 239.4 
L 336.96 239.4 
L 336.96 32.832 
L 46.8 32.832 
z
" style="fill:none;"/>
   </g>
   <g id="matplotlib.axis_1">
    <g id="xtick_1">
     <g id="line2d_1">
      <defs>
       <path d="M 0 0 
L 0 -5 
" id="m38e8bbb5cd" style="stroke:#ffffff;stroke-width:1.2;"/>
      </defs>
      <g>
       <use style="fill:#ffffff;stroke:#ffffff;stroke-width:1.2;" x="59.989091" xlink:href="#m38e8bbb5cd" y="239.4"/>
      </g>
     </g>
     <g id="line2d_2">
      <defs>
       <path d="M 0 0 
L 0 5 
" id="mf5b4e90c73" style="stroke:#ffffff;stroke-width:1.2;"/>
      </defs>
      <g>
       <use style="fill:#ffffff;stroke:#ffffff;stroke-width:1.2;" x="59.989091" xlink:href="#mf5b4e90c73" y="32.832"/>
      </g>
     </g>
    </g>
    <g id="xtick_2">
     <g id="line2d_3">
      <g>
       <use style="fill:#ffffff;stroke:#ffffff;stroke-width:1.2;" x="125.934545" xlink:href="#m38e8bbb5cd" y="239.4"/>
      </g>
     </g>
     <g id="line2d_4">
      <g>
       <use style="fill:#ffffff;stroke:#ffffff;stroke-width:1.2;" x="125.934545" xlink:href="#mf5b4e90c73" y="32.832"/>
      </g>
     </g>
    </g>
    <g id="xtick_3">
     <g id="line2d_5">
      <g>
       <use style="fill:#ffffff;stroke:#ffffff;stroke-width:1.2;" x="191.88" xlink:href="#m38e8bbb5cd" y="239.4"/>
      </g>
     </g>
     <g id="line2d_6">
      <g>
       <use style="fill:#ffffff;stroke:#ffffff;stroke-width:1.2;" x="191.88" xlink:href="#mf5b4e90c73" y="32.832"/>
      </g>
     </g>
    </g>
    <g id="xtick_4">
     <g id="line2d_7">
      <g>
       <use style="fill:#ffffff;stroke:#ffffff;stroke-width:1.2;" x="257.825455" xlink:href="#m38e8bbb5cd" y="239.4"/>
      </g>
     </g>
     <g id="line2d_8">
      <g>
       <use style="fill:#ffffff;stroke:#ffffff;stroke-width:1.2;" x="257.825455" xlink:href="#mf5b4e90c73" y="32.832"/>
      </g>
     </g>
    </g>
    <g id="xtick_5">
     <g id="line2d_9">
      <g>
       <use style="fill:#ffffff;stroke:#ffffff;stroke-width:1.2;" x="323.770909" xlink:href="#m38e8bbb5cd" y="239.4"/>
      </g>
     </g>
     <g id="line2d_10">
      <g>
       <use style="fill:#ffffff;stroke:#ffffff;stroke-width:1.2;" x="323.770909" xlink:href="#mf5b4e90c73" y="32.832"/>
      </g>
     </g>
    </g>
    <g id="text_1">
     <!-- $V_{g}$ -->
     <defs>
      <path d="M 13.28125 71.734375 
L 33.890625 10.640625 
L 54.25 71.734375 
L 65.140625 71.734375 
L 38.96875 0 
L 28.65625 0 
L 2.546875 71.734375 
z
" id="Helvetica-56"/>
      <path d="M 24.90625 53.21875 
Q 31.0625 53.21875 35.640625 50.203125 
Q 38.140625 48.484375 40.71875 45.21875 
L 40.71875 51.8125 
L 48.828125 51.8125 
L 48.828125 4.25 
Q 48.828125 -5.71875 45.90625 -11.46875 
Q 40.4375 -22.125 25.25 -22.125 
Q 16.796875 -22.125 11.03125 -18.328125 
Q 5.28125 -14.546875 4.59375 -6.5 
L 13.53125 -6.5 
Q 14.15625 -10.015625 16.0625 -11.921875 
Q 19.046875 -14.84375 25.4375 -14.84375 
Q 35.546875 -14.84375 38.671875 -7.71875 
Q 40.53125 -3.515625 40.375 7.28125 
Q 37.75 3.265625 34.03125 1.3125 
Q 30.328125 -0.640625 24.21875 -0.640625 
Q 15.71875 -0.640625 9.34375 5.390625 
Q 2.984375 11.421875 2.984375 25.34375 
Q 2.984375 38.484375 9.40625 45.84375 
Q 15.828125 53.21875 24.90625 53.21875 
z
M 40.71875 26.375 
Q 40.71875 36.078125 36.71875 40.765625 
Q 32.71875 45.453125 26.515625 45.453125 
Q 17.234375 45.453125 13.8125 36.765625 
Q 12.015625 32.125 12.015625 24.609375 
Q 12.015625 15.765625 15.59375 11.15625 
Q 19.1875 6.546875 25.25 6.546875 
Q 34.71875 6.546875 38.578125 15.09375 
Q 40.71875 19.921875 40.71875 26.375 
z
M 25.921875 53.5625 
z
" id="Helvetica-67"/>
     </defs>
     <g style="fill:#ffffff;" transform="translate(180.88 259.3)scale(0.2 -0.2)">
      <use transform="translate(0 0.265625)" xlink:href="#Helvetica-56"/>
      <use transform="translate(67.614414 -15.423438)scale(0.7)" xlink:href="#Helvetica-67"/>
     </g>
    </g>
   </g>
   <g id="matplotlib.axis_2">
    <g id="ytick_1">
     <g id="line2d_11">
      <defs>
       <path d="M 0 0 
L 5 0 
" id="m626b5e4f37" style="stroke:#ffffff;stroke-width:1.2;"/>
      </defs>
      <g>
       <use style="fill:#ffffff;stroke:#ffffff;stroke-width:1.2;" x="46.8" xlink:href="#m626b5e4f37" y="224.752743"/>
      </g>
     </g>
     <g id="line2d_12">
      <defs>
       <path d="M 0 0 
L -5 0 
" id="m4e041baf9c" style="stroke:#ffffff;stroke-width:1.2;"/>
      </defs>
      <g>
       <use style="fill:#ffffff;stroke:#ffffff;stroke-width:1.2;" x="336.96" xlink:href="#m4e041baf9c" y="224.752743"/>
      </g>
     </g>
    </g>
    <g id="ytick_2">
     <g id="line2d_13">
      <g>
       <use style="fill:#ffffff;stroke:#ffffff;stroke-width:1.2;" x="46.8" xlink:href="#m626b5e4f37" y="179.119921"/>
      </g>
     </g>
     <g id="line2d_14">
      <g>
       <use style="fill:#ffffff;stroke:#ffffff;stroke-width:1.2;" x="336.96" xlink:href="#m4e041baf9c" y="179.119921"/>
      </g>
     </g>
    </g>
    <g id="ytick_3">
     <g id="line2d_15">
      <g>
       <use style="fill:#ffffff;stroke:#ffffff;stroke-width:1.2;" x="46.8" xlink:href="#m626b5e4f37" y="133.487099"/>
      </g>
     </g>
     <g id="line2d_16">
      <g>
       <use style="fill:#ffffff;stroke:#ffffff;stroke-width:1.2;" x="336.96" xlink:href="#m4e041baf9c" y="133.487099"/>
      </g>
     </g>
    </g>
    <g id="ytick_4">
     <g id="line2d_17">
      <g>
       <use style="fill:#ffffff;stroke:#ffffff;stroke-width:1.2;" x="46.8" xlink:href="#m626b5e4f37" y="87.854277"/>
      </g>
     </g>
     <g id="line2d_18">
      <g>
       <use style="fill:#ffffff;stroke:#ffffff;stroke-width:1.2;" x="336.96" xlink:href="#m4e041baf9c" y="87.854277"/>
      </g>
     </g>
    </g>
    <g id="ytick_5">
     <g id="line2d_19">
      <g>
       <use style="fill:#ffffff;stroke:#ffffff;stroke-width:1.2;" x="46.8" xlink:href="#m626b5e4f37" y="42.221455"/>
      </g>
     </g>
     <g id="line2d_20">
      <g>
       <use style="fill:#ffffff;stroke:#ffffff;stroke-width:1.2;" x="336.96" xlink:href="#m4e041baf9c" y="42.221455"/>
      </g>
     </g>
    </g>
    <g id="text_2">
     <!-- $\delta g_{SET}$ -->
     <defs>
      <path d="M 10.40625 70.609375 
L 49.8125 70.609375 
L 49.8125 63.375 
L 21.78125 63.375 
L 21.78125 63.1875 
L 39.203125 51.609375 
Q 48.96875 45.015625 52.6875 38.578125 
Q 56.109375 32.078125 56 25 
Q 55.90625 14.59375 49.421875 6.984375 
Q 42.78125 -0.78125 30.28125 -0.984375 
Q 18.796875 -0.875 12.015625 6.296875 
Q 5.171875 13.28125 5.078125 24.3125 
Q 5.328125 47.90625 29.109375 49.8125 
L 29.109375 50 
L 10.40625 63.375 
z
M 31.109375 6.203125 
Q 39.015625 6.296875 42.671875 12.40625 
Q 46.390625 18.21875 46.390625 25.09375 
Q 46.390625 29 45.609375 31.890625 
Q 44.78125 34.71875 43.609375 36.625 
Q 42.390625 38.484375 41.21875 39.703125 
Q 39.984375 40.921875 39.203125 41.40625 
Q 37.203125 43.21875 33.6875 43.21875 
Q 14.796875 43.21875 14.703125 23.875 
Q 14.703125 16.5 19 11.53125 
Q 23.296875 6.296875 31.109375 6.203125 
z
" id="Helvetica-3b4"/>
      <path d="M 13.96875 23.140625 
Q 14.3125 17.046875 16.84375 13.234375 
Q 21.6875 6.109375 33.890625 6.109375 
Q 39.359375 6.109375 43.84375 7.671875 
Q 52.546875 10.6875 52.546875 18.5 
Q 52.546875 24.359375 48.875 26.859375 
Q 45.171875 29.296875 37.25 31.109375 
L 27.546875 33.296875 
Q 18.015625 35.453125 14.0625 38.03125 
Q 7.234375 42.53125 7.234375 51.46875 
Q 7.234375 61.140625 13.921875 67.328125 
Q 20.609375 73.53125 32.859375 73.53125 
Q 44.140625 73.53125 52.015625 68.078125 
Q 59.90625 62.640625 59.90625 50.6875 
L 50.78125 50.6875 
Q 50.046875 56.453125 47.65625 59.515625 
Q 43.21875 65.140625 32.5625 65.140625 
Q 23.96875 65.140625 20.203125 61.515625 
Q 16.453125 57.90625 16.453125 53.125 
Q 16.453125 47.859375 20.84375 45.40625 
Q 23.734375 43.84375 33.890625 41.5 
L 43.953125 39.203125 
Q 51.21875 37.546875 55.171875 34.671875 
Q 62.015625 29.640625 62.015625 20.0625 
Q 62.015625 8.15625 53.34375 3.03125 
Q 44.671875 -2.09375 33.203125 -2.09375 
Q 19.828125 -2.09375 12.25 4.734375 
Q 4.6875 11.53125 4.828125 23.140625 
z
M 33.59375 73.6875 
z
" id="Helvetica-53"/>
      <path d="M 8.546875 71.734375 
L 60.84375 71.734375 
L 60.84375 62.9375 
L 18.015625 62.9375 
L 18.015625 41.15625 
L 57.625 41.15625 
L 57.625 32.859375 
L 18.015625 32.859375 
L 18.015625 8.546875 
L 61.578125 8.546875 
L 61.578125 0 
L 8.546875 0 
z
M 35.0625 71.734375 
z
" id="Helvetica-45"/>
      <path d="M 59.8125 71.734375 
L 59.8125 63.1875 
L 35.640625 63.1875 
L 35.640625 0 
L 25.78125 0 
L 25.78125 63.1875 
L 1.609375 63.1875 
L 1.609375 71.734375 
z
" id="Helvetica-54"/>
     </defs>
     <g style="fill:#ffffff;" transform="translate(36.7 161.816)rotate(-90)scale(0.2 -0.2)">
      <use transform="translate(0 0.390625)" xlink:href="#Helvetica-3b4"/>
      <use transform="translate(61.083984 0.390625)" xlink:href="#Helvetica-67"/>
      <use transform="translate(117.614414 -15.298438)scale(0.7)" xlink:href="#Helvetica-53"/>
      <use transform="translate(164.303867 -15.298438)scale(0.7)" xlink:href="#Helvetica-45"/>
      <use transform="translate(210.99332 -15.298438)scale(0.7)" xlink:href="#Helvetica-54"/>
     </g>
    </g>
   </g>
   <g id="line2d_21">
    <path clip-path="url(#p631a2c5d80)" d="M 59.989091 86.184717 
L 67.118329 85.47769 
L 73.191384 84.655985 
L 78.472301 83.727442 
L 83.225127 82.679076 
L 87.713907 81.464837 
L 91.93864 80.086761 
L 95.899328 78.554789 
L 99.595971 76.887335 
L 103.292613 74.96488 
L 106.725209 72.931438 
L 110.157805 70.643921 
L 113.590401 68.094184 
L 117.287043 65.057568 
L 121.247731 61.495055 
L 126.000557 56.893161 
L 134.71407 48.372524 
L 137.354529 46.116809 
L 139.466896 44.568303 
L 141.315217 43.470312 
L 142.899492 42.770356 
L 144.219722 42.390825 
L 145.539951 42.226065 
L 146.86018 42.3056 
L 147.916364 42.565973 
L 148.972547 43.019126 
L 150.028731 43.682056 
L 151.084914 44.572076 
L 152.141097 45.706664 
L 153.461327 47.495402 
L 154.781556 49.727081 
L 156.101785 52.433936 
L 157.422015 55.646038 
L 158.742244 59.390317 
L 160.326519 64.617525 
L 161.910794 70.672196 
L 163.49507 77.568708 
L 165.343391 86.673238 
L 167.191712 96.877178 
L 169.304079 109.772526 
L 171.944537 127.424949 
L 175.905225 155.771704 
L 179.865913 183.707063 
L 181.97828 197.206379 
L 183.826601 207.63596 
L 185.410876 215.261345 
L 186.731106 220.533359 
L 187.787289 223.969349 
L 188.843473 226.664017 
L 189.63561 228.177875 
L 190.427748 229.244796 
L 191.219885 229.857151 
L 191.747977 230.010545 
L 192.276069 229.9594 
L 192.804161 229.703878 
L 193.332252 229.244796 
L 194.12439 228.177875 
L 194.916527 226.664017 
L 195.708665 224.713989 
L 196.764848 221.459674 
L 197.821032 217.495119 
L 199.141261 211.615093 
L 200.725536 203.350099 
L 202.573857 192.314144 
L 204.95027 176.494261 
L 208.646912 150.029106 
L 212.871646 120.189702 
L 215.512105 103.170539 
L 217.624472 90.915657 
L 219.472793 81.332429 
L 221.321114 72.877261 
L 222.905389 66.542772 
L 224.489664 61.042292 
L 226.073939 56.351525 
L 227.658215 52.433936 
L 228.978444 49.727081 
L 230.298673 47.495402 
L 231.618903 45.706664 
L 232.939132 44.327327 
L 234.259361 43.323293 
L 235.315545 42.767399 
L 236.371728 42.412735 
L 237.691957 42.226855 
L 239.012187 42.297533 
L 240.332416 42.59459 
L 241.916691 43.209888 
L 243.500966 44.064486 
L 245.349287 45.308421 
L 247.7257 47.208096 
L 250.630205 49.843781 
L 255.38303 54.51985 
L 262.248223 61.247488 
L 266.472957 65.057568 
L 270.169599 68.094184 
L 273.602195 70.643921 
L 277.034791 72.931438 
L 280.467387 74.96488 
L 284.164029 76.887335 
L 287.860672 78.554789 
L 291.82136 80.086761 
L 295.782048 81.385776 
L 300.270827 82.614068 
L 305.023653 83.674884 
L 310.30457 84.614712 
L 316.113579 85.415161 
L 322.714726 86.094561 
L 323.770909 86.184717 
L 323.770909 86.184717 
" style="fill:none;stroke:#bc82bd;stroke-linecap:square;stroke-width:2;"/>
   </g>
   <g id="patch_3">
    <path d="M 46.8 239.4 
L 46.8 32.832 
" style="fill:none;stroke:#ffffff;stroke-linecap:square;stroke-linejoin:miter;stroke-width:1.2;"/>
   </g>
   <g id="patch_4">
    <path d="M 336.96 239.4 
L 336.96 32.832 
" style="fill:none;stroke:#ffffff;stroke-linecap:square;stroke-linejoin:miter;stroke-width:1.2;"/>
   </g>
   <g id="patch_5">
    <path d="M 46.8 239.4 
L 336.96 239.4 
" style="fill:none;stroke:#ffffff;stroke-linecap:square;stroke-linejoin:miter;stroke-width:1.2;"/>
   </g>
   <g id="patch_6">
    <path d="M 46.8 32.832 
L 336.96 32.832 
" style="fill:none;stroke:#ffffff;stroke-linecap:square;stroke-linejoin:miter;stroke-width:1.2;"/>
   </g>
  </g>
 </g>
 <defs>
  <clipPath id="p631a2c5d80">
   <rect height="206.568" width="290.16" x="46.8" y="32.832"/>
  </clipPath>
 </defs>
</svg>
