<?xml version="1.0" encoding="utf-8" standalone="no"?>
<!DOCTYPE svg PUBLIC "-//W3C//DTD SVG 1.1//EN"
  "http://www.w3.org/Graphics/SVG/1.1/DTD/svg11.dtd">
<!-- Created with matplotlib (http://matplotlib.org/) -->
<svg height="273.6pt" version="1.1" viewBox="0 0 374.4 273.6" width="374.4pt" xmlns="http://www.w3.org/2000/svg" xmlns:xlink="http://www.w3.org/1999/xlink">
 <defs>
  <style type="text/css">
*{stroke-linecap:butt;stroke-linejoin:round;}
  </style>
 </defs>
 <g id="figure_1">
  <g id="patch_1">
   <path d="M 0 273.6 
L 374.4 273.6 
L 374.4 0 
L 0 0 
z
" style="fill:none;"/>
  </g>
  <g id="axes_1">
   <g id="patch_2">
    <path d="M 46.8 239.4 
L 336.96 239.4 
L 336.96 32.832 
L 46.8 32.832 
z
" style="fill:none;"/>
   </g>
   <g id="matplotlib.axis_1">
    <g id="xtick_1">
     <g id="line2d_1">
      <defs>
       <path d="M 0 0 
L 0 -5 
" id="md6c7444c1f" style="stroke:#ffffff;stroke-width:1.2;"/>
      </defs>
      <g>
       <use style="fill:#ffffff;stroke:#ffffff;stroke-width:1.2;" x="59.989091" xlink:href="#md6c7444c1f" y="239.4"/>
      </g>
     </g>
     <g id="line2d_2">
      <defs>
       <path d="M 0 0 
L 0 5 
" id="m7f0ffffffd" style="stroke:#ffffff;stroke-width:1.2;"/>
      </defs>
      <g>
       <use style="fill:#ffffff;stroke:#ffffff;stroke-width:1.2;" x="59.989091" xlink:href="#m7f0ffffffd" y="32.832"/>
      </g>
     </g>
    </g>
    <g id="xtick_2">
     <g id="line2d_3">
      <g>
       <use style="fill:#ffffff;stroke:#ffffff;stroke-width:1.2;" x="125.934545" xlink:href="#md6c7444c1f" y="239.4"/>
      </g>
     </g>
     <g id="line2d_4">
      <g>
       <use style="fill:#ffffff;stroke:#ffffff;stroke-width:1.2;" x="125.934545" xlink:href="#m7f0ffffffd" y="32.832"/>
      </g>
     </g>
    </g>
    <g id="xtick_3">
     <g id="line2d_5">
      <g>
       <use style="fill:#ffffff;stroke:#ffffff;stroke-width:1.2;" x="191.88" xlink:href="#md6c7444c1f" y="239.4"/>
      </g>
     </g>
     <g id="line2d_6">
      <g>
       <use style="fill:#ffffff;stroke:#ffffff;stroke-width:1.2;" x="191.88" xlink:href="#m7f0ffffffd" y="32.832"/>
      </g>
     </g>
    </g>
    <g id="xtick_4">
     <g id="line2d_7">
      <g>
       <use style="fill:#ffffff;stroke:#ffffff;stroke-width:1.2;" x="257.825455" xlink:href="#md6c7444c1f" y="239.4"/>
      </g>
     </g>
     <g id="line2d_8">
      <g>
       <use style="fill:#ffffff;stroke:#ffffff;stroke-width:1.2;" x="257.825455" xlink:href="#m7f0ffffffd" y="32.832"/>
      </g>
     </g>
    </g>
    <g id="xtick_5">
     <g id="line2d_9">
      <g>
       <use style="fill:#ffffff;stroke:#ffffff;stroke-width:1.2;" x="323.770909" xlink:href="#md6c7444c1f" y="239.4"/>
      </g>
     </g>
     <g id="line2d_10">
      <g>
       <use style="fill:#ffffff;stroke:#ffffff;stroke-width:1.2;" x="323.770909" xlink:href="#m7f0ffffffd" y="32.832"/>
      </g>
     </g>
    </g>
    <g id="text_1">
     <!-- $V_{g}$ -->
     <defs>
      <path d="M 13.28125 71.734375 
L 33.890625 10.640625 
L 54.25 71.734375 
L 65.140625 71.734375 
L 38.96875 0 
L 28.65625 0 
L 2.546875 71.734375 
z
" id="Helvetica-56"/>
      <path d="M 24.90625 53.21875 
Q 31.0625 53.21875 35.640625 50.203125 
Q 38.140625 48.484375 40.71875 45.21875 
L 40.71875 51.8125 
L 48.828125 51.8125 
L 48.828125 4.25 
Q 48.828125 -5.71875 45.90625 -11.46875 
Q 40.4375 -22.125 25.25 -22.125 
Q 16.796875 -22.125 11.03125 -18.328125 
Q 5.28125 -14.546875 4.59375 -6.5 
L 13.53125 -6.5 
Q 14.15625 -10.015625 16.0625 -11.921875 
Q 19.046875 -14.84375 25.4375 -14.84375 
Q 35.546875 -14.84375 38.671875 -7.71875 
Q 40.53125 -3.515625 40.375 7.28125 
Q 37.75 3.265625 34.03125 1.3125 
Q 30.328125 -0.640625 24.21875 -0.640625 
Q 15.71875 -0.640625 9.34375 5.390625 
Q 2.984375 11.421875 2.984375 25.34375 
Q 2.984375 38.484375 9.40625 45.84375 
Q 15.828125 53.21875 24.90625 53.21875 
z
M 40.71875 26.375 
Q 40.71875 36.078125 36.71875 40.765625 
Q 32.71875 45.453125 26.515625 45.453125 
Q 17.234375 45.453125 13.8125 36.765625 
Q 12.015625 32.125 12.015625 24.609375 
Q 12.015625 15.765625 15.59375 11.15625 
Q 19.1875 6.546875 25.25 6.546875 
Q 34.71875 6.546875 38.578125 15.09375 
Q 40.71875 19.921875 40.71875 26.375 
z
M 25.921875 53.5625 
z
" id="Helvetica-67"/>
     </defs>
     <g style="fill:#ffffff;" transform="translate(180.88 259.3)scale(0.2 -0.2)">
      <use transform="translate(0 0.265625)" xlink:href="#Helvetica-56"/>
      <use transform="translate(67.614414 -15.423438)scale(0.7)" xlink:href="#Helvetica-67"/>
     </g>
    </g>
   </g>
   <g id="matplotlib.axis_2">
    <g id="ytick_1">
     <g id="line2d_11">
      <defs>
       <path d="M 0 0 
L 5 0 
" id="m55a64ee70b" style="stroke:#ffffff;stroke-width:1.2;"/>
      </defs>
      <g>
       <use style="fill:#ffffff;stroke:#ffffff;stroke-width:1.2;" x="46.8" xlink:href="#m55a64ee70b" y="177.762778"/>
      </g>
     </g>
     <g id="line2d_12">
      <defs>
       <path d="M 0 0 
L -5 0 
" id="mb928ddbd16" style="stroke:#ffffff;stroke-width:1.2;"/>
      </defs>
      <g>
       <use style="fill:#ffffff;stroke:#ffffff;stroke-width:1.2;" x="336.96" xlink:href="#mb928ddbd16" y="177.762778"/>
      </g>
     </g>
    </g>
    <g id="ytick_2">
     <g id="line2d_13">
      <g>
       <use style="fill:#ffffff;stroke:#ffffff;stroke-width:1.2;" x="46.8" xlink:href="#m55a64ee70b" y="111.555357"/>
      </g>
     </g>
     <g id="line2d_14">
      <g>
       <use style="fill:#ffffff;stroke:#ffffff;stroke-width:1.2;" x="336.96" xlink:href="#mb928ddbd16" y="111.555357"/>
      </g>
     </g>
    </g>
    <g id="ytick_3">
     <g id="line2d_15">
      <g>
       <use style="fill:#ffffff;stroke:#ffffff;stroke-width:1.2;" x="46.8" xlink:href="#m55a64ee70b" y="45.347935"/>
      </g>
     </g>
     <g id="line2d_16">
      <g>
       <use style="fill:#ffffff;stroke:#ffffff;stroke-width:1.2;" x="336.96" xlink:href="#mb928ddbd16" y="45.347935"/>
      </g>
     </g>
    </g>
    <g id="text_2">
     <!-- $\delta g_{SET}$ -->
     <defs>
      <path d="M 10.40625 70.609375 
L 49.8125 70.609375 
L 49.8125 63.375 
L 21.78125 63.375 
L 21.78125 63.1875 
L 39.203125 51.609375 
Q 48.96875 45.015625 52.6875 38.578125 
Q 56.109375 32.078125 56 25 
Q 55.90625 14.59375 49.421875 6.984375 
Q 42.78125 -0.78125 30.28125 -0.984375 
Q 18.796875 -0.875 12.015625 6.296875 
Q 5.171875 13.28125 5.078125 24.3125 
Q 5.328125 47.90625 29.109375 49.8125 
L 29.109375 50 
L 10.40625 63.375 
z
M 31.109375 6.203125 
Q 39.015625 6.296875 42.671875 12.40625 
Q 46.390625 18.21875 46.390625 25.09375 
Q 46.390625 29 45.609375 31.890625 
Q 44.78125 34.71875 43.609375 36.625 
Q 42.390625 38.484375 41.21875 39.703125 
Q 39.984375 40.921875 39.203125 41.40625 
Q 37.203125 43.21875 33.6875 43.21875 
Q 14.796875 43.21875 14.703125 23.875 
Q 14.703125 16.5 19 11.53125 
Q 23.296875 6.296875 31.109375 6.203125 
z
" id="Helvetica-3b4"/>
      <path d="M 13.96875 23.140625 
Q 14.3125 17.046875 16.84375 13.234375 
Q 21.6875 6.109375 33.890625 6.109375 
Q 39.359375 6.109375 43.84375 7.671875 
Q 52.546875 10.6875 52.546875 18.5 
Q 52.546875 24.359375 48.875 26.859375 
Q 45.171875 29.296875 37.25 31.109375 
L 27.546875 33.296875 
Q 18.015625 35.453125 14.0625 38.03125 
Q 7.234375 42.53125 7.234375 51.46875 
Q 7.234375 61.140625 13.921875 67.328125 
Q 20.609375 73.53125 32.859375 73.53125 
Q 44.140625 73.53125 52.015625 68.078125 
Q 59.90625 62.640625 59.90625 50.6875 
L 50.78125 50.6875 
Q 50.046875 56.453125 47.65625 59.515625 
Q 43.21875 65.140625 32.5625 65.140625 
Q 23.96875 65.140625 20.203125 61.515625 
Q 16.453125 57.90625 16.453125 53.125 
Q 16.453125 47.859375 20.84375 45.40625 
Q 23.734375 43.84375 33.890625 41.5 
L 43.953125 39.203125 
Q 51.21875 37.546875 55.171875 34.671875 
Q 62.015625 29.640625 62.015625 20.0625 
Q 62.015625 8.15625 53.34375 3.03125 
Q 44.671875 -2.09375 33.203125 -2.09375 
Q 19.828125 -2.09375 12.25 4.734375 
Q 4.6875 11.53125 4.828125 23.140625 
z
M 33.59375 73.6875 
z
" id="Helvetica-53"/>
      <path d="M 8.546875 71.734375 
L 60.84375 71.734375 
L 60.84375 62.9375 
L 18.015625 62.9375 
L 18.015625 41.15625 
L 57.625 41.15625 
L 57.625 32.859375 
L 18.015625 32.859375 
L 18.015625 8.546875 
L 61.578125 8.546875 
L 61.578125 0 
L 8.546875 0 
z
M 35.0625 71.734375 
z
" id="Helvetica-45"/>
      <path d="M 59.8125 71.734375 
L 59.8125 63.1875 
L 35.640625 63.1875 
L 35.640625 0 
L 25.78125 0 
L 25.78125 63.1875 
L 1.609375 63.1875 
L 1.609375 71.734375 
z
" id="Helvetica-54"/>
     </defs>
     <g style="fill:#ffffff;" transform="translate(36.7 161.816)rotate(-90)scale(0.2 -0.2)">
      <use transform="translate(0 0.390625)" xlink:href="#Helvetica-3b4"/>
      <use transform="translate(61.083984 0.390625)" xlink:href="#Helvetica-67"/>
      <use transform="translate(117.614414 -15.298438)scale(0.7)" xlink:href="#Helvetica-53"/>
      <use transform="translate(164.303867 -15.298438)scale(0.7)" xlink:href="#Helvetica-45"/>
      <use transform="translate(210.99332 -15.298438)scale(0.7)" xlink:href="#Helvetica-54"/>
     </g>
    </g>
   </g>
   <g id="line2d_17">
    <path clip-path="url(#p0fec00a1cd)" d="M 59.989091 110.593478 
L 69.758788 110.034326 
L 77.94421 109.348813 
L 85.073448 108.538482 
L 91.674595 107.572357 
L 98.011695 106.425185 
L 104.612842 104.999468 
L 113.06231 102.918243 
L 121.247731 100.954821 
L 125.208419 100.238633 
L 128.112924 99.920459 
L 130.753382 99.855553 
L 132.865749 100.006684 
L 134.978116 100.38433 
L 136.826437 100.938566 
L 138.674758 101.739307 
L 140.259034 102.651487 
L 141.843309 103.799886 
L 143.427584 105.212153 
L 145.011859 106.916878 
L 146.596134 108.943112 
L 148.18041 111.319753 
L 149.764685 114.074768 
L 151.34896 117.234238 
L 153.197281 121.462006 
L 155.045602 126.300404 
L 156.893923 131.766965 
L 159.00629 138.785953 
L 161.118657 146.600694 
L 163.49507 156.257345 
L 166.399574 169.055478 
L 175.113088 208.275453 
L 176.961409 215.237124 
L 178.545684 220.372257 
L 179.865913 223.936678 
L 180.922097 226.254002 
L 181.97828 228.049355 
L 182.770418 229.029641 
L 183.562555 229.679607 
L 184.354693 229.986444 
L 184.882785 229.994957 
L 185.410876 229.843461 
L 186.203014 229.311489 
L 186.995152 228.409161 
L 187.787289 227.133507 
L 188.579427 225.484136 
L 189.63561 222.707905 
L 190.691794 219.284274 
L 192.012023 214.12712 
L 193.332252 208.050507 
L 194.916527 199.654382 
L 196.764848 188.545991 
L 199.141261 172.661371 
L 202.573857 147.915315 
L 207.326683 113.85168 
L 209.703096 98.316893 
L 211.815463 85.864958 
L 213.663784 76.196446 
L 215.512105 67.766055 
L 217.09638 61.556041 
L 218.680655 56.284235 
L 220.000885 52.593602 
L 221.321114 49.520132 
L 222.641343 47.036812 
L 223.697527 45.453614 
L 224.75371 44.209349 
L 225.809894 43.28456 
L 226.866077 42.658963 
L 227.92226 42.311773 
L 228.978444 42.221993 
L 230.034627 42.368667 
L 231.090811 42.731103 
L 232.41104 43.456785 
L 233.731269 44.449847 
L 235.315545 45.943474 
L 237.163866 48.028694 
L 239.276233 50.760603 
L 242.180737 54.930713 
L 246.933563 62.235379 
L 252.742572 71.069138 
L 256.439214 76.295315 
L 259.87181 80.758815 
L 263.04036 84.512695 
L 266.208911 87.907273 
L 269.113415 90.709232 
L 272.01792 93.227679 
L 275.18647 95.671488 
L 278.35502 97.822852 
L 281.523571 99.708212 
L 284.956167 101.481234 
L 288.388763 103.005691 
L 292.085405 104.404347 
L 296.046093 105.661683 
L 300.270827 106.769702 
L 305.023653 107.77746 
L 310.30457 108.657203 
L 316.113579 109.395699 
L 322.978771 110.034343 
L 323.770909 110.094916 
L 323.770909 110.094916 
" style="fill:none;stroke:#bc82bd;stroke-linecap:square;stroke-width:2;"/>
   </g>
   <g id="patch_3">
    <path d="M 46.8 239.4 
L 46.8 32.832 
" style="fill:none;stroke:#ffffff;stroke-linecap:square;stroke-linejoin:miter;stroke-width:1.2;"/>
   </g>
   <g id="patch_4">
    <path d="M 336.96 239.4 
L 336.96 32.832 
" style="fill:none;stroke:#ffffff;stroke-linecap:square;stroke-linejoin:miter;stroke-width:1.2;"/>
   </g>
   <g id="patch_5">
    <path d="M 46.8 239.4 
L 336.96 239.4 
" style="fill:none;stroke:#ffffff;stroke-linecap:square;stroke-linejoin:miter;stroke-width:1.2;"/>
   </g>
   <g id="patch_6">
    <path d="M 46.8 32.832 
L 336.96 32.832 
" style="fill:none;stroke:#ffffff;stroke-linecap:square;stroke-linejoin:miter;stroke-width:1.2;"/>
   </g>
   <g id="text_3">
    <!-- $\delta S/k_B = -2 \ln{2}$ -->
    <defs>
     <path d="M 26 43.671875 
C 13.203125 40.578125 4 27.3125 4 15.640625 
C 4 4.984375 11.203125 -1 19.203125 -1 
C 31 -1 39 15.15625 39 28.40625 
C 39 37.375 34.796875 42.875 32.296875 46.15625 
C 28.59375 50.84375 22.59375 58.53125 22.59375 63.3125 
C 22.59375 65.015625 23.90625 68 28.296875 68 
C 31.40625 68 33.296875 66.90625 36.296875 65.203125 
C 37.203125 64.59375 39.5 63.3125 40.796875 63.3125 
C 42.90625 63.3125 44.40625 65.390625 44.40625 66.984375 
C 44.40625 68.890625 42.90625 69.1875 39.40625 69.984375 
C 34.703125 70.984375 33.296875 70.984375 31.59375 70.984375 
C 29.90625 70.984375 20.09375 70.984375 20.09375 60.8125 
C 20.09375 55.921875 22.59375 50.25 26 43.671875 
z
M 27.09375 41.703125 
C 30.90625 33.828125 32.40625 30.84375 32.40625 24.375 
C 32.40625 16.609375 28.203125 0.984375 19.296875 0.984375 
C 15.40625 0.984375 9.796875 3.578125 9.796875 12.828125 
C 9.796875 19.296875 13.5 38.109375 27.09375 41.703125 
z
" id="CMMI12-14"/>
     <path d="M 63.5 69.109375 
C 63.5 70 62.796875 70 62.59375 70 
C 62.203125 70 62.09375 69.90625 60.90625 68.40625 
C 60.296875 67.703125 56.203125 62.515625 56.09375 62.421875 
C 52.796875 68.90625 46.203125 70 42 70 
C 29.296875 70 17.796875 58.484375 17.796875 47.265625 
C 17.796875 39.828125 22.296875 35.453125 27.203125 33.765625 
C 28.296875 33.359375 34.203125 31.765625 37.203125 31.078125 
C 42.296875 29.6875 43.59375 29.296875 45.703125 27.109375 
C 46.09375 26.609375 48.09375 24.328125 48.09375 19.65625 
C 48.09375 10.421875 39.5 0.890625 29.5 0.890625 
C 21.296875 0.890625 12.203125 4.375 12.203125 15.484375 
C 12.203125 17.375 12.59375 19.765625 12.90625 20.75 
C 12.90625 21.0625 13 21.53125 13 21.734375 
C 13 22.140625 12.796875 22.640625 12 22.640625 
C 11.09375 22.640625 11 22.4375 10.59375 20.75 
L 5.5 0.375 
C 5.5 0.28125 5.09375 -1 5.09375 -1.109375 
C 5.09375 -2 5.90625 -2 6.09375 -2 
C 6.5 -2 6.59375 -1.90625 7.796875 -0.40625 
L 12.40625 5.5625 
C 14.796875 1.96875 20 -2 29.296875 -2 
C 42.203125 -2 54 10.40625 54 22.8125 
C 54 27 53 30.671875 49.203125 34.328125 
C 47.09375 36.421875 45.296875 36.921875 36.09375 39.3125 
C 29.40625 41.09375 28.5 41.390625 26.703125 42.984375 
C 25 44.65625 23.703125 47.046875 23.703125 50.421875 
C 23.703125 58.765625 32.203125 67.3125 41.703125 67.3125 
C 51.5 67.3125 56.09375 61.34375 56.09375 51.921875 
C 56.09375 49.34375 55.59375 46.65625 55.59375 46.265625 
C 55.59375 45.359375 56.40625 45.359375 56.703125 45.359375 
C 57.59375 45.359375 57.703125 45.65625 58.09375 47.25 
z
" id="CMMI12-83"/>
     <path d="M 42.90625 71.28125 
C 42.90625 71.390625 43.5 72.90625 43.5 73.09375 
C 43.5 74.296875 42.5 75 41.703125 75 
C 41.203125 75 40.296875 75 39.5 72.796875 
L 6 -21.296875 
C 6 -21.40625 5.40625 -22.890625 5.40625 -23.09375 
C 5.40625 -24.296875 6.40625 -25 7.203125 -25 
C 7.796875 -25 8.703125 -24.890625 9.40625 -22.796875 
z
" id="CMMI12-61"/>
     <path d="M 28.09375 66.515625 
C 28.203125 66.921875 28.40625 67.515625 28.40625 68 
C 28.40625 69 27.40625 69 27.203125 69 
C 27.09375 69 23.5 68.640625 21.703125 68.390625 
C 20 68.390625 18.5 68.09375 16.703125 68.09375 
C 14.296875 67.890625 13.59375 67.796875 13.59375 66 
C 13.59375 65 14.59375 65 15.59375 65 
C 20.703125 65 20.703125 64.109375 20.703125 63.125 
C 20.703125 62.734375 20.703125 62.53125 20.203125 60.75 
L 5.90625 3.875 
C 5.5 2.375 5.5 2.1875 5.5 1.578125 
C 5.5 -0.59375 7.203125 -1 8.203125 -1 
C 11 -1 11.59375 1.203125 12.40625 4.296875 
L 17.09375 22.953125 
C 24.296875 22.15625 28.59375 19.15625 28.59375 14.375 
C 28.59375 13.765625 28.59375 13.375 28.296875 11.875 
C 27.90625 10.375 27.90625 9.1875 27.90625 8.6875 
C 27.90625 2.890625 31.703125 -1 36.796875 -1 
C 41.40625 -1 43.796875 3.1875 44.59375 4.59375 
C 46.703125 8.28125 48 13.875 48 14.265625 
C 48 14.765625 47.59375 15.171875 47 15.171875 
C 46.09375 15.171875 46 14.765625 45.59375 13.171875 
C 44.203125 7.984375 42.09375 1 37 1 
C 35 1 33.703125 2 33.703125 5.78125 
C 33.703125 7.6875 34.09375 9.875 34.5 11.375 
C 34.90625 13.171875 34.90625 13.265625 34.90625 14.46875 
C 34.90625 20.359375 29.59375 23.65625 20.40625 24.84375 
C 24 27.046875 27.59375 30.9375 29 32.4375 
C 34.703125 38.8125 38.59375 42.015625 43.203125 42.015625 
C 45.5 42.015625 46.09375 41.40625 46.796875 40.8125 
C 43.09375 40.40625 41.703125 37.8125 41.703125 35.828125 
C 41.703125 33.421875 43.59375 32.625 45 32.625 
C 47.703125 32.625 50.09375 34.921875 50.09375 38.125 
C 50.09375 41.015625 47.796875 44 43.296875 44 
C 37.796875 44 33.296875 40.109375 26.203125 32.125 
C 25.203125 30.9375 21.5 27.140625 17.796875 25.75 
z
" id="CMMI12-107"/>
     <path d="M 36.59375 61.265625 
C 37.5 65 37.90625 65 41.796875 65 
L 54.796875 65 
C 66.09375 65 66.09375 55.375 66.09375 54.453125 
C 66.09375 46.34375 58 36 44.796875 36 
L 30.40625 36 
z
M 53.5 35.546875 
C 64.40625 37.53125 74.296875 45.09375 74.296875 54.265625 
C 74.296875 62.03125 67.40625 68 56.09375 68 
L 24 68 
C 22.09375 68 21.203125 68 21.203125 66.03125 
C 21.203125 65 22.09375 65 23.59375 65 
C 29.703125 65 29.703125 64.25 29.703125 63.1875 
C 29.703125 63 29.703125 62.390625 29.296875 60.890625 
L 15.796875 7.375 
C 14.90625 3.890625 14.703125 2.890625 7.703125 2.890625 
C 5.796875 2.890625 4.796875 2.890625 4.796875 1.09375 
C 4.796875 0 5.40625 0 7.40625 0 
L 41.703125 0 
C 57 0 68.796875 11.546875 68.796875 21.609375 
C 68.796875 29.78125 61.59375 34.75 53.5 35.546875 
z
M 39.296875 2.890625 
L 25.796875 2.890625 
C 24.40625 2.890625 24.203125 2.890625 23.59375 3 
C 22.5 3.09375 22.40625 3.296875 22.40625 4.078125 
C 22.40625 4.765625 22.59375 5.359375 22.796875 6.234375 
L 29.796875 34 
L 48.59375 34 
C 60.40625 34 60.40625 23.171875 60.40625 22.390625 
C 60.40625 12.9375 51.703125 2.890625 39.296875 2.890625 
z
" id="CMMI12-66"/>
     <path d="M 64.296875 31.515625 
C 65.796875 31.515625 67.296875 31.515625 67.296875 33.203125 
C 67.296875 35 65.59375 35 63.90625 35 
L 8 35 
C 6.296875 35 4.59375 35 4.59375 33.203125 
C 4.59375 31.515625 6.09375 31.515625 7.59375 31.515625 
z
M 63.90625 14 
C 65.59375 14 67.296875 14 67.296875 15.796875 
C 67.296875 17.484375 65.796875 17.484375 64.296875 17.484375 
L 7.59375 17.484375 
C 6.09375 17.484375 4.59375 17.484375 4.59375 15.796875 
C 4.59375 14 6.296875 14 8 14 
z
" id="CMR17-61"/>
     <path d="M 65.90625 23 
C 67.59375 23 69.40625 23 69.40625 25 
C 69.40625 27 67.59375 27 65.90625 27 
L 11.796875 27 
C 10.09375 27 8.296875 27 8.296875 25 
C 8.296875 23 10.09375 23 11.796875 23 
z
" id="CMSY10-0"/>
     <path d="M 41.703125 15.453125 
L 39.90625 15.453125 
C 38.90625 8.375 38.09375 7.171875 37.703125 6.5625 
C 37.203125 5.765625 30 5.765625 28.59375 5.765625 
L 9.40625 5.765625 
C 13 9.671875 20 16.75 28.5 24.953125 
C 34.59375 30.734375 41.703125 37.53125 41.703125 47.421875 
C 41.703125 59.21875 32.296875 66 21.796875 66 
C 10.796875 66 4.09375 56.3125 4.09375 47.34375 
C 4.09375 43.4375 7 42.9375 8.203125 42.9375 
C 9.203125 42.9375 12.203125 43.546875 12.203125 47.03125 
C 12.203125 50.109375 9.59375 51 8.203125 51 
C 7.59375 51 7 50.90625 6.59375 50.703125 
C 8.5 59.21875 14.296875 63.40625 20.40625 63.40625 
C 29.09375 63.40625 34.796875 56.515625 34.796875 47.421875 
C 34.796875 38.734375 29.703125 31.25 24 24.75 
L 4.09375 2.28125 
L 4.09375 0 
L 39.296875 0 
z
" id="CMR17-50"/>
     <path d="M 15.296875 68.6875 
L 3.40625 67.59375 
L 3.40625 65 
C 9.296875 65 10.203125 64.40625 10.203125 59.640625 
L 10.203125 6.65625 
C 10.203125 2.875 9.796875 2.390625 3.40625 2.390625 
L 3.40625 -0.203125 
C 5.796875 0 10.203125 0 12.703125 0 
C 15.296875 0 19.703125 0 22.09375 -0.203125 
L 22.09375 2.390625 
C 15.703125 2.390625 15.296875 2.78125 15.296875 6.65625 
z
" id="CMR17-108"/>
     <path d="M 41.5 30.203125 
C 41.5 35.296875 40.5 43.59375 28.703125 43.59375 
C 20.796875 43.59375 16.703125 37.5 15.203125 33.5 
L 15.09375 33.5 
L 15.09375 43.59375 
L 3.296875 42.5 
L 3.296875 39.90625 
C 9.203125 39.90625 10.09375 39.296875 10.09375 34.5 
L 10.09375 6.6875 
C 10.09375 2.875 9.703125 2.390625 3.296875 2.390625 
L 3.296875 -0.203125 
C 5.703125 0 10.09375 0 12.703125 0 
C 15.296875 0 19.796875 0 22.203125 -0.203125 
L 22.203125 2.390625 
C 15.796875 2.390625 15.40625 2.78125 15.40625 6.6875 
L 15.40625 25.90625 
C 15.40625 35.109375 21 42 28 42 
C 35.40625 42 36.203125 35.40625 36.203125 30.59375 
L 36.203125 6.6875 
C 36.203125 2.875 35.796875 2.390625 29.40625 2.390625 
L 29.40625 -0.203125 
C 31.796875 0 36.203125 0 38.796875 0 
C 41.40625 0 45.90625 0 48.296875 -0.203125 
L 48.296875 2.390625 
C 41.90625 2.390625 41.5 2.78125 41.5 6.6875 
z
" id="CMR17-110"/>
    </defs>
    <g style="fill:#ffffff;" transform="translate(61.308 63.8172)scale(0.2 -0.2)">
     <use transform="translate(0 14.943915)scale(0.996264)" xlink:href="#CMMI12-14"/>
     <use transform="translate(46.941386 14.943915)scale(0.996264)" xlink:href="#CMMI12-83"/>
     <use transform="translate(107.31639 14.943915)scale(0.996264)" xlink:href="#CMMI12-61"/>
     <use transform="translate(156.091309 14.943915)scale(0.996264)" xlink:href="#CMMI12-107"/>
     <use transform="translate(206.826497 0)scale(0.697382)" xlink:href="#CMMI12-66"/>
     <use transform="translate(290.393264 14.943915)scale(0.996264)" xlink:href="#CMR17-61"/>
     <use transform="translate(389.782061 14.943915)scale(0.996264)" xlink:href="#CMSY10-0"/>
     <use transform="translate(467.269529 14.943915)scale(0.996264)" xlink:href="#CMR17-50"/>
     <use transform="translate(529.564411 14.943915)scale(0.996264)" xlink:href="#CMR17-108"/>
     <use transform="translate(554.43547 14.943915)scale(0.996264)" xlink:href="#CMR17-110"/>
     <use transform="translate(621.935245 14.943915)scale(0.996264)" xlink:href="#CMR17-50"/>
    </g>
   </g>
  </g>
 </g>
 <defs>
  <clipPath id="p0fec00a1cd">
   <rect height="206.568" width="290.16" x="46.8" y="32.832"/>
  </clipPath>
 </defs>
</svg>
