<?xml version="1.0" encoding="utf-8" standalone="no"?>
<!DOCTYPE svg PUBLIC "-//W3C//DTD SVG 1.1//EN"
  "http://www.w3.org/Graphics/SVG/1.1/DTD/svg11.dtd">
<!-- Created with matplotlib (http://matplotlib.org/) -->
<svg height="246.3565pt" version="1.1" viewBox="0 0 345.1025 246.3565" width="345.1025pt" xmlns="http://www.w3.org/2000/svg" xmlns:xlink="http://www.w3.org/1999/xlink">
 <defs>
  <style type="text/css">
*{stroke-linecap:butt;stroke-linejoin:round;}
  </style>
 </defs>
 <g id="figure_1">
  <g id="patch_1">
   <path d="M 0 246.3565 
L 345.1025 246.3565 
L 345.1025 0 
L 0 0 
z
" style="fill:none;"/>
  </g>
  <g id="axes_1">
   <g id="patch_2">
    <path d="M 52.3425 198.044 
L 337.9025 198.044 
L 337.9025 7.2 
L 52.3425 7.2 
z
" style="fill:none;"/>
   </g>
   <g id="matplotlib.axis_1">
    <g id="xtick_1">
     <g id="line2d_1">
      <defs>
       <path d="M 0 0 
L 0 -5 
" id="m91d26b8291" style="stroke:#ffffff;stroke-width:1.2;"/>
      </defs>
      <g>
       <use style="fill:#ffffff;stroke:#ffffff;stroke-width:1.2;" x="80.8985" xlink:href="#m91d26b8291" y="198.044"/>
      </g>
     </g>
     <g id="line2d_2">
      <defs>
       <path d="M 0 0 
L 0 5 
" id="m1197fef7a5" style="stroke:#ffffff;stroke-width:1.2;"/>
      </defs>
      <g>
       <use style="fill:#ffffff;stroke:#ffffff;stroke-width:1.2;" x="80.8985" xlink:href="#m1197fef7a5" y="7.2"/>
      </g>
     </g>
     <g id="text_1">
      <!-- −2 -->
      <defs>
       <path d="M 55.421875 29.59375 
L 55.421875 21.390625 
L 4.5 21.390625 
L 4.5 29.59375 
z
" id="Helvetica-2212"/>
       <path d="M 3.125 0 
Q 3.609375 9.03125 6.859375 15.71875 
Q 10.109375 22.40625 19.53125 27.875 
L 28.90625 33.296875 
Q 35.203125 36.96875 37.75 39.546875 
Q 41.75 43.609375 41.75 48.828125 
Q 41.75 54.9375 38.078125 58.515625 
Q 34.421875 62.109375 28.328125 62.109375 
Q 19.28125 62.109375 15.828125 55.28125 
Q 13.96875 51.609375 13.765625 45.125 
L 4.828125 45.125 
Q 4.984375 54.25 8.203125 60.015625 
Q 13.921875 70.171875 28.375 70.171875 
Q 40.375 70.171875 45.921875 63.671875 
Q 51.46875 57.171875 51.46875 49.21875 
Q 51.46875 40.828125 45.5625 34.859375 
Q 42.140625 31.390625 33.296875 26.46875 
L 26.609375 22.75 
Q 21.828125 20.125 19.09375 17.71875 
Q 14.203125 13.484375 12.9375 8.296875 
L 51.125 8.296875 
L 51.125 0 
L 3.125 0 
z
" id="Helvetica-32"/>
      </defs>
      <g style="fill:#ffffff;" transform="translate(71.77725 213.0215)scale(0.16 -0.16)">
       <use xlink:href="#Helvetica-2212"/>
       <use x="58.398438" xlink:href="#Helvetica-32"/>
      </g>
     </g>
    </g>
    <g id="xtick_2">
     <g id="line2d_3">
      <g>
       <use style="fill:#ffffff;stroke:#ffffff;stroke-width:1.2;" x="195.1225" xlink:href="#m91d26b8291" y="198.044"/>
      </g>
     </g>
     <g id="line2d_4">
      <g>
       <use style="fill:#ffffff;stroke:#ffffff;stroke-width:1.2;" x="195.1225" xlink:href="#m1197fef7a5" y="7.2"/>
      </g>
     </g>
     <g id="text_2">
      <!-- 0 -->
      <defs>
       <path d="M 27.046875 69.921875 
Q 40.625 69.921875 46.6875 58.734375 
Q 51.375 50.09375 51.375 35.0625 
Q 51.375 20.796875 47.125 11.46875 
Q 40.96875 -1.90625 27 -1.90625 
Q 14.40625 -1.90625 8.25 9.03125 
Q 3.125 18.171875 3.125 33.546875 
Q 3.125 45.453125 6.203125 54 
Q 11.96875 69.921875 27.046875 69.921875 
z
M 26.953125 6.109375 
Q 33.796875 6.109375 37.84375 12.15625 
Q 41.890625 18.21875 41.890625 34.71875 
Q 41.890625 46.625 38.953125 54.3125 
Q 36.03125 62.015625 27.59375 62.015625 
Q 19.828125 62.015625 16.234375 54.703125 
Q 12.640625 47.40625 12.640625 33.203125 
Q 12.640625 22.515625 14.9375 16.015625 
Q 18.453125 6.109375 26.953125 6.109375 
z
" id="Helvetica-30"/>
      </defs>
      <g style="fill:#ffffff;" transform="translate(190.67375 213.0215)scale(0.16 -0.16)">
       <use xlink:href="#Helvetica-30"/>
      </g>
     </g>
    </g>
    <g id="xtick_3">
     <g id="line2d_5">
      <g>
       <use style="fill:#ffffff;stroke:#ffffff;stroke-width:1.2;" x="309.3465" xlink:href="#m91d26b8291" y="198.044"/>
      </g>
     </g>
     <g id="line2d_6">
      <g>
       <use style="fill:#ffffff;stroke:#ffffff;stroke-width:1.2;" x="309.3465" xlink:href="#m1197fef7a5" y="7.2"/>
      </g>
     </g>
     <g id="text_3">
      <!-- 2 -->
      <g style="fill:#ffffff;" transform="translate(304.89775 213.0215)scale(0.16 -0.16)">
       <use xlink:href="#Helvetica-32"/>
      </g>
     </g>
    </g>
    <g id="text_4">
     <!-- $V_{p}-V_{mid}$ (mV) -->
     <defs>
      <path d="M 13.28125 71.734375 
L 33.890625 10.640625 
L 54.25 71.734375 
L 65.140625 71.734375 
L 38.96875 0 
L 28.65625 0 
L 2.546875 71.734375 
z
" id="Helvetica-56"/>
      <path d="M 28.515625 5.90625 
Q 34.671875 5.90625 38.75 11.0625 
Q 42.828125 16.21875 42.828125 26.46875 
Q 42.828125 32.71875 41.015625 37.203125 
Q 37.59375 45.84375 28.515625 45.84375 
Q 19.390625 45.84375 16.015625 36.71875 
Q 14.203125 31.84375 14.203125 24.3125 
Q 14.203125 18.265625 16.015625 14.015625 
Q 19.4375 5.90625 28.515625 5.90625 
z
M 5.765625 52.046875 
L 14.3125 52.046875 
L 14.3125 45.125 
Q 16.9375 48.6875 20.0625 50.640625 
Q 24.515625 53.5625 30.515625 53.5625 
Q 39.40625 53.5625 45.609375 46.75 
Q 51.8125 39.9375 51.8125 27.296875 
Q 51.8125 10.203125 42.875 2.875 
Q 37.203125 -1.765625 29.6875 -1.765625 
Q 23.78125 -1.765625 19.78125 0.828125 
Q 17.4375 2.296875 14.546875 5.859375 
L 14.546875 -20.84375 
L 5.765625 -20.84375 
z
" id="Helvetica-70"/>
      <path d="M 6.453125 52.296875 
L 15.140625 52.296875 
L 15.140625 44.875 
Q 18.265625 48.734375 20.796875 50.484375 
Q 25.140625 53.46875 30.671875 53.46875 
Q 36.921875 53.46875 40.71875 50.390625 
Q 42.875 48.640625 44.625 45.21875 
Q 47.5625 49.421875 51.515625 51.4375 
Q 55.46875 53.46875 60.40625 53.46875 
Q 70.953125 53.46875 74.75 45.84375 
Q 76.8125 41.75 76.8125 34.8125 
L 76.8125 0 
L 67.671875 0 
L 67.671875 36.328125 
Q 67.671875 41.546875 65.0625 43.5 
Q 62.453125 45.453125 58.6875 45.453125 
Q 53.515625 45.453125 49.78125 41.984375 
Q 46.046875 38.53125 46.046875 30.421875 
L 46.046875 0 
L 37.109375 0 
L 37.109375 34.125 
Q 37.109375 39.453125 35.84375 41.890625 
Q 33.84375 45.5625 28.375 45.5625 
Q 23.390625 45.5625 19.3125 41.703125 
Q 15.234375 37.84375 15.234375 27.734375 
L 15.234375 0 
L 6.453125 0 
z
" id="Helvetica-6d"/>
      <path d="M 6.453125 52.046875 
L 15.375 52.046875 
L 15.375 0 
L 6.453125 0 
z
M 6.453125 71.734375 
L 15.375 71.734375 
L 15.375 61.765625 
L 6.453125 61.765625 
z
" id="Helvetica-69"/>
      <path d="M 12.015625 25.53125 
Q 12.015625 17.140625 15.578125 11.46875 
Q 19.140625 5.8125 27 5.8125 
Q 33.109375 5.8125 37.03125 11.0625 
Q 40.96875 16.3125 40.96875 26.125 
Q 40.96875 36.03125 36.90625 40.796875 
Q 32.859375 45.5625 26.90625 45.5625 
Q 20.265625 45.5625 16.140625 40.484375 
Q 12.015625 35.40625 12.015625 25.53125 
z
M 25.25 53.21875 
Q 31.25 53.21875 35.296875 50.6875 
Q 37.640625 49.21875 40.625 45.5625 
L 40.625 71.96875 
L 49.078125 71.96875 
L 49.078125 0 
L 41.15625 0 
L 41.15625 7.28125 
Q 38.09375 2.4375 33.890625 0.28125 
Q 29.6875 -1.859375 24.265625 -1.859375 
Q 15.53125 -1.859375 9.125 5.484375 
Q 2.734375 12.84375 2.734375 25.046875 
Q 2.734375 36.46875 8.5625 44.84375 
Q 14.40625 53.21875 25.25 53.21875 
z
" id="Helvetica-64"/>
      <path id="Helvetica-20"/>
      <path d="M 29.59375 72.90625 
Q 21.921875 58.015625 19.625 50.984375 
Q 16.15625 40.28125 16.15625 26.265625 
Q 16.15625 12.109375 20.125 0.390625 
Q 22.5625 -6.84375 29.734375 -20.40625 
L 23.828125 -20.40625 
Q 16.703125 -9.28125 14.984375 -6.203125 
Q 13.28125 -3.125 11.28125 2.15625 
Q 8.546875 9.375 7.46875 17.578125 
Q 6.9375 21.828125 6.9375 25.6875 
Q 6.9375 40.140625 11.46875 51.421875 
Q 14.359375 58.59375 23.484375 72.90625 
z
" id="Helvetica-28"/>
      <path d="M 3.46875 -20.40625 
Q 11.234375 -5.28125 13.484375 1.65625 
Q 16.890625 12.15625 16.890625 26.265625 
Q 16.890625 40.375 12.9375 52.09375 
Q 10.5 59.328125 3.328125 72.90625 
L 9.234375 72.90625 
Q 16.75 60.890625 18.328125 58.078125 
Q 19.921875 55.28125 21.78125 50.34375 
Q 24.125 44.234375 25.125 38.28125 
Q 26.125 32.328125 26.125 26.8125 
Q 26.125 12.359375 21.53125 1.03125 
Q 18.65625 -6.25 9.578125 -20.40625 
z
" id="Helvetica-29"/>
     </defs>
     <g style="fill:#ffffff;" transform="translate(132.2225 232.9565)scale(0.2 -0.2)">
      <use transform="translate(0 0.09375)" xlink:href="#Helvetica-56"/>
      <use transform="translate(67.614414 -15.595313)scale(0.7)" xlink:href="#Helvetica-70"/>
      <use transform="translate(125.820078 0.09375)" xlink:href="#Helvetica-2212"/>
      <use transform="translate(200.878672 0.09375)" xlink:href="#Helvetica-56"/>
      <use transform="translate(268.493086 -15.595313)scale(0.7)" xlink:href="#Helvetica-6d"/>
      <use transform="translate(326.803633 -15.595313)scale(0.7)" xlink:href="#Helvetica-69"/>
      <use transform="translate(342.355391 -15.595313)scale(0.7)" xlink:href="#Helvetica-64"/>
      <use transform="translate(383.900898 0.09375)" xlink:href="#Helvetica-20"/>
      <use transform="translate(411.684102 0.09375)" xlink:href="#Helvetica-28"/>
      <use transform="translate(444.984883 0.09375)" xlink:href="#Helvetica-6d"/>
      <use transform="translate(528.285664 0.09375)" xlink:href="#Helvetica-56"/>
      <use transform="translate(594.984883 0.09375)" xlink:href="#Helvetica-29"/>
     </g>
    </g>
   </g>
   <g id="matplotlib.axis_2">
    <g id="ytick_1">
     <g id="line2d_7">
      <defs>
       <path d="M 0 0 
L 5 0 
" id="m62b63ae073" style="stroke:#ffffff;stroke-width:1.2;"/>
      </defs>
      <g>
       <use style="fill:#ffffff;stroke:#ffffff;stroke-width:1.2;" x="52.3425" xlink:href="#m62b63ae073" y="189.369273"/>
      </g>
     </g>
     <g id="line2d_8">
      <defs>
       <path d="M 0 0 
L -5 0 
" id="mf7a8ec9242" style="stroke:#ffffff;stroke-width:1.2;"/>
      </defs>
      <g>
       <use style="fill:#ffffff;stroke:#ffffff;stroke-width:1.2;" x="337.9025" xlink:href="#mf7a8ec9242" y="189.369273"/>
      </g>
     </g>
     <g id="text_5">
      <!-- −2 -->
      <g style="fill:#ffffff;" transform="translate(30.6 195.108023)scale(0.16 -0.16)">
       <use xlink:href="#Helvetica-2212"/>
       <use x="58.398438" xlink:href="#Helvetica-32"/>
      </g>
     </g>
    </g>
    <g id="ytick_2">
     <g id="line2d_9">
      <g>
       <use style="fill:#ffffff;stroke:#ffffff;stroke-width:1.2;" x="52.3425" xlink:href="#m62b63ae073" y="119.971455"/>
      </g>
     </g>
     <g id="line2d_10">
      <g>
       <use style="fill:#ffffff;stroke:#ffffff;stroke-width:1.2;" x="337.9025" xlink:href="#mf7a8ec9242" y="119.971455"/>
      </g>
     </g>
     <g id="text_6">
      <!-- 0 -->
      <g style="fill:#ffffff;" transform="translate(39.945 125.710205)scale(0.16 -0.16)">
       <use xlink:href="#Helvetica-30"/>
      </g>
     </g>
    </g>
    <g id="ytick_3">
     <g id="line2d_11">
      <g>
       <use style="fill:#ffffff;stroke:#ffffff;stroke-width:1.2;" x="52.3425" xlink:href="#m62b63ae073" y="50.573636"/>
      </g>
     </g>
     <g id="line2d_12">
      <g>
       <use style="fill:#ffffff;stroke:#ffffff;stroke-width:1.2;" x="337.9025" xlink:href="#mf7a8ec9242" y="50.573636"/>
      </g>
     </g>
     <g id="text_7">
      <!-- 2 -->
      <g style="fill:#ffffff;" transform="translate(39.945 56.312386)scale(0.16 -0.16)">
       <use xlink:href="#Helvetica-32"/>
      </g>
     </g>
    </g>
    <g id="text_8">
     <!-- $\delta G_{sens}$ $(10^{-3} \, e^2/h)$ -->
     <defs>
      <path d="M 10.40625 70.609375 
L 49.8125 70.609375 
L 49.8125 63.375 
L 21.78125 63.375 
L 21.78125 63.1875 
L 39.203125 51.609375 
Q 48.96875 45.015625 52.6875 38.578125 
Q 56.109375 32.078125 56 25 
Q 55.90625 14.59375 49.421875 6.984375 
Q 42.78125 -0.78125 30.28125 -0.984375 
Q 18.796875 -0.875 12.015625 6.296875 
Q 5.171875 13.28125 5.078125 24.3125 
Q 5.328125 47.90625 29.109375 49.8125 
L 29.109375 50 
L 10.40625 63.375 
z
M 31.109375 6.203125 
Q 39.015625 6.296875 42.671875 12.40625 
Q 46.390625 18.21875 46.390625 25.09375 
Q 46.390625 29 45.609375 31.890625 
Q 44.78125 34.71875 43.609375 36.625 
Q 42.390625 38.484375 41.21875 39.703125 
Q 39.984375 40.921875 39.203125 41.40625 
Q 37.203125 43.21875 33.6875 43.21875 
Q 14.796875 43.21875 14.703125 23.875 
Q 14.703125 16.5 19 11.53125 
Q 23.296875 6.296875 31.109375 6.203125 
z
" id="Helvetica-3b4"/>
      <path d="M 38.625 73.578125 
Q 48.734375 73.578125 56.109375 69.671875 
Q 66.796875 64.0625 69.1875 50 
L 59.578125 50 
Q 57.8125 57.859375 52.296875 61.453125 
Q 46.78125 65.046875 38.375 65.046875 
Q 28.421875 65.046875 21.609375 57.5625 
Q 14.796875 50.09375 14.796875 35.296875 
Q 14.796875 22.515625 20.40625 14.484375 
Q 26.03125 6.453125 38.71875 6.453125 
Q 48.4375 6.453125 54.8125 12.078125 
Q 61.1875 17.71875 61.328125 30.328125 
L 38.875 30.328125 
L 38.875 38.375 
L 70.359375 38.375 
L 70.359375 0 
L 64.109375 0 
L 61.765625 9.234375 
Q 56.84375 3.8125 53.03125 1.703125 
Q 46.625 -1.90625 36.765625 -1.90625 
Q 24.03125 -1.90625 14.84375 6.34375 
Q 4.828125 16.703125 4.828125 34.765625 
Q 4.828125 52.78125 14.59375 63.421875 
Q 23.875 73.578125 38.625 73.578125 
z
M 37.015625 73.6875 
z
" id="Helvetica-47"/>
      <path d="M 11.671875 16.40625 
Q 12.0625 12.015625 13.875 9.671875 
Q 17.1875 5.421875 25.390625 5.421875 
Q 30.28125 5.421875 33.984375 7.546875 
Q 37.703125 9.671875 37.703125 14.109375 
Q 37.703125 17.484375 34.71875 19.234375 
Q 32.8125 20.3125 27.203125 21.734375 
L 20.21875 23.484375 
Q 13.53125 25.140625 10.359375 27.203125 
Q 4.6875 30.765625 4.6875 37.0625 
Q 4.6875 44.484375 10.03125 49.0625 
Q 15.375 53.65625 24.421875 53.65625 
Q 36.234375 53.65625 41.453125 46.734375 
Q 44.734375 42.328125 44.625 37.25 
L 36.328125 37.25 
Q 36.078125 40.234375 34.234375 42.671875 
Q 31.203125 46.140625 23.734375 46.140625 
Q 18.75 46.140625 16.1875 44.234375 
Q 13.625 42.328125 13.625 39.203125 
Q 13.625 35.796875 17 33.734375 
Q 18.953125 32.515625 22.75 31.59375 
L 28.5625 30.171875 
Q 38.03125 27.875 41.265625 25.734375 
Q 46.390625 22.359375 46.390625 15.140625 
Q 46.390625 8.15625 41.09375 3.078125 
Q 35.796875 -2 24.953125 -2 
Q 13.28125 -2 8.421875 3.296875 
Q 3.5625 8.59375 3.21875 16.40625 
z
M 24.65625 53.5625 
z
" id="Helvetica-73"/>
      <path d="M 28.21875 53.46875 
Q 33.796875 53.46875 39.015625 50.859375 
Q 44.234375 48.25 46.96875 44.09375 
Q 49.609375 40.140625 50.484375 34.859375 
Q 51.265625 31.25 51.265625 23.34375 
L 12.9375 23.34375 
Q 13.1875 15.375 16.703125 10.5625 
Q 20.21875 5.765625 27.59375 5.765625 
Q 34.46875 5.765625 38.578125 10.296875 
Q 40.921875 12.9375 41.890625 16.40625 
L 50.53125 16.40625 
Q 50.203125 13.53125 48.265625 9.984375 
Q 46.34375 6.453125 43.953125 4.203125 
Q 39.9375 0.296875 34.03125 -1.078125 
Q 30.859375 -1.859375 26.859375 -1.859375 
Q 17.09375 -1.859375 10.296875 5.25 
Q 3.515625 12.359375 3.515625 25.140625 
Q 3.515625 37.75 10.34375 45.609375 
Q 17.1875 53.46875 28.21875 53.46875 
z
M 42.234375 30.328125 
Q 41.703125 36.03125 39.75 39.453125 
Q 36.140625 45.796875 27.6875 45.796875 
Q 21.625 45.796875 17.515625 41.421875 
Q 13.421875 37.0625 13.1875 30.328125 
z
M 27.390625 53.5625 
z
" id="Helvetica-65"/>
      <path d="M 6.453125 52.296875 
L 14.796875 52.296875 
L 14.796875 44.875 
Q 18.5 49.46875 22.65625 51.46875 
Q 26.8125 53.46875 31.890625 53.46875 
Q 43.015625 53.46875 46.921875 45.703125 
Q 49.078125 41.453125 49.078125 33.546875 
L 49.078125 0 
L 40.140625 0 
L 40.140625 32.953125 
Q 40.140625 37.75 38.71875 40.671875 
Q 36.375 45.5625 30.21875 45.5625 
Q 27.09375 45.5625 25.09375 44.921875 
Q 21.484375 43.84375 18.75 40.625 
Q 16.546875 38.03125 15.890625 35.265625 
Q 15.234375 32.515625 15.234375 27.390625 
L 15.234375 0 
L 6.453125 0 
z
M 27.09375 53.5625 
z
" id="Helvetica-6e"/>
      <path d="M 9.578125 49.515625 
L 9.578125 56.25 
Q 19.09375 57.171875 22.84375 59.34375 
Q 26.609375 61.53125 28.46875 69.625 
L 35.40625 69.625 
L 35.40625 0 
L 26.03125 0 
L 26.03125 49.515625 
z
" id="Helvetica-31"/>
      <path d="M 25.984375 -1.90625 
Q 13.578125 -1.90625 7.984375 4.90625 
Q 2.390625 11.71875 2.390625 21.484375 
L 11.578125 21.484375 
Q 12.15625 14.703125 14.109375 11.625 
Q 17.53125 6.109375 26.46875 6.109375 
Q 33.40625 6.109375 37.59375 9.8125 
Q 41.796875 13.53125 41.796875 19.390625 
Q 41.796875 26.609375 37.375 29.484375 
Q 32.953125 32.375 25.09375 32.375 
Q 24.21875 32.375 23.3125 32.34375 
Q 22.40625 32.328125 21.484375 32.28125 
L 21.484375 40.046875 
Q 22.859375 39.890625 23.78125 39.84375 
Q 24.703125 39.796875 25.78125 39.796875 
Q 30.71875 39.796875 33.890625 41.359375 
Q 39.453125 44.09375 39.453125 51.125 
Q 39.453125 56.34375 35.734375 59.171875 
Q 32.03125 62.015625 27.09375 62.015625 
Q 18.3125 62.015625 14.9375 56.15625 
Q 13.09375 52.9375 12.84375 46.96875 
L 4.15625 46.96875 
Q 4.15625 54.78125 7.28125 60.25 
Q 12.640625 70.015625 26.171875 70.015625 
Q 36.859375 70.015625 42.71875 65.25 
Q 48.578125 60.5 48.578125 51.46875 
Q 48.578125 45.015625 45.125 41.015625 
Q 42.96875 38.53125 39.546875 37.109375 
Q 45.0625 35.59375 48.15625 31.265625 
Q 51.265625 26.953125 51.265625 20.703125 
Q 51.265625 10.6875 44.671875 4.390625 
Q 38.09375 -1.90625 25.984375 -1.90625 
z
" id="Helvetica-33"/>
      <path d="M 22.75 71.734375 
L 30.171875 71.734375 
L 7.421875 0 
L 0 0 
z
" id="Helvetica-2f"/>
      <path d="M 6.453125 71.96875 
L 15.234375 71.96875 
L 15.234375 45.21875 
Q 18.359375 49.171875 20.84375 50.78125 
Q 25.09375 53.5625 31.453125 53.5625 
Q 42.828125 53.5625 46.875 45.609375 
Q 49.078125 41.265625 49.078125 33.546875 
L 49.078125 0 
L 40.046875 0 
L 40.046875 32.953125 
Q 40.046875 38.71875 38.578125 41.40625 
Q 36.1875 45.703125 29.59375 45.703125 
Q 24.125 45.703125 19.671875 41.9375 
Q 15.234375 38.1875 15.234375 27.734375 
L 15.234375 0 
L 6.453125 0 
z
" id="Helvetica-68"/>
     </defs>
     <g style="fill:#ffffff;" transform="translate(24.4 180.122)rotate(-90)scale(0.2 -0.2)">
      <use transform="translate(0 0.271875)" xlink:href="#Helvetica-3b4"/>
      <use transform="translate(61.083984 0.271875)" xlink:href="#Helvetica-47"/>
      <use transform="translate(139.782383 -15.417187)scale(0.7)" xlink:href="#Helvetica-73"/>
      <use transform="translate(174.782383 -15.417187)scale(0.7)" xlink:href="#Helvetica-65"/>
      <use transform="translate(213.713047 -15.417187)scale(0.7)" xlink:href="#Helvetica-6e"/>
      <use transform="translate(252.643711 -15.417187)scale(0.7)" xlink:href="#Helvetica-73"/>
      <use transform="translate(290.258555 0.271875)" xlink:href="#Helvetica-20"/>
      <use transform="translate(318.041758 0.271875)" xlink:href="#Helvetica-28"/>
      <use transform="translate(351.342539 0.271875)" xlink:href="#Helvetica-31"/>
      <use transform="translate(406.957773 0.271875)" xlink:href="#Helvetica-30"/>
      <use transform="translate(463.488203 36.879688)scale(0.7)" xlink:href="#Helvetica-2212"/>
      <use transform="translate(504.367109 36.879688)scale(0.7)" xlink:href="#Helvetica-33"/>
      <use transform="translate(559.796358 0.271875)" xlink:href="#Helvetica-65"/>
      <use transform="translate(616.326788 36.879688)scale(0.7)" xlink:href="#Helvetica-32"/>
      <use transform="translate(657.872296 0.271875)" xlink:href="#Helvetica-2f"/>
      <use transform="translate(685.655499 0.271875)" xlink:href="#Helvetica-68"/>
      <use transform="translate(741.270733 0.271875)" xlink:href="#Helvetica-29"/>
     </g>
    </g>
   </g>
   <g id="PolyCollection_1">
    <path clip-path="url(#p535d0e3a16)" d="M -122.070823 118.287468 
L -122.070823 119.971455 
L -119.215223 119.971455 
L -116.359623 119.971455 
L -113.504023 119.971455 
L -110.648423 119.971455 
L -107.792823 119.971455 
L -104.937223 119.971455 
L -102.081623 119.971455 
L -99.226023 119.971455 
L -96.370423 119.971455 
L -93.514823 119.971455 
L -90.659223 119.971455 
L -87.803623 119.971455 
L -84.948023 119.971455 
L -82.092423 119.971455 
L -79.236823 119.971455 
L -76.381223 119.971455 
L -73.525623 119.971455 
L -70.670023 119.971455 
L -67.814423 119.971455 
L -64.958823 119.971455 
L -62.103223 119.971455 
L -59.247623 119.971455 
L -56.392023 119.971455 
L -53.536423 119.971455 
L -50.680823 119.971455 
L -47.825223 119.971455 
L -44.969623 119.971455 
L -42.114023 119.971455 
L -39.258423 119.971455 
L -36.402823 119.971455 
L -33.547223 119.971455 
L -30.691623 119.971455 
L -27.836023 119.971455 
L -24.980423 119.971455 
L -22.124823 119.971455 
L -19.269223 119.971455 
L -16.413623 119.971455 
L -13.558023 119.971455 
L -10.702423 119.971455 
L -7.846823 119.971455 
L -4.991223 119.971455 
L -2.135623 119.971455 
L 0.719977 119.971455 
L 3.575577 119.971455 
L 6.431177 119.971455 
L 9.286777 119.971455 
L 12.142377 119.971455 
L 14.997977 119.971455 
L 17.853577 119.971455 
L 20.709177 119.971455 
L 23.564777 119.971455 
L 26.420377 119.971455 
L 29.275977 119.971455 
L 32.131577 119.971455 
L 34.987177 119.971455 
L 37.842777 119.971455 
L 40.698377 119.971455 
L 43.553977 119.971455 
L 46.409577 119.971455 
L 49.265177 119.971455 
L 52.120777 119.971455 
L 54.976377 119.971455 
L 57.831977 119.971455 
L 60.687577 119.971455 
L 63.543177 119.971455 
L 66.398777 119.971455 
L 69.254377 119.971455 
L 72.109977 119.971455 
L 74.965577 119.971455 
L 77.821177 119.971455 
L 80.676777 119.971455 
L 83.532377 119.971455 
L 86.387977 119.971455 
L 89.243577 119.971455 
L 92.099177 119.971455 
L 94.954777 119.971455 
L 97.810377 119.971455 
L 100.665977 119.971455 
L 103.521577 119.971455 
L 106.377177 119.971455 
L 109.232777 119.971455 
L 112.088377 119.971455 
L 114.943977 119.971455 
L 117.799577 119.971455 
L 120.655177 119.971455 
L 123.510777 119.971455 
L 126.366377 119.971455 
L 129.221977 119.971455 
L 132.077577 119.971455 
L 134.933177 119.971455 
L 137.788777 119.971455 
L 140.644377 119.971455 
L 143.499977 119.971455 
L 146.355577 119.971455 
L 149.211177 119.971455 
L 152.066777 119.971455 
L 154.922377 119.971455 
L 157.777977 119.971455 
L 160.633577 119.971455 
L 163.489177 119.971455 
L 166.344777 119.971455 
L 169.200377 119.971455 
L 172.055977 119.971455 
L 174.911577 119.971455 
L 177.767177 119.971455 
L 180.622777 119.971455 
L 183.478377 119.971455 
L 186.333977 119.971455 
L 189.189577 119.971455 
L 192.045177 119.971455 
L 194.900777 119.971455 
L 197.756377 119.971455 
L 200.611977 119.971455 
L 203.467577 119.971455 
L 206.323177 119.971455 
L 209.178777 119.971455 
L 212.034377 119.971455 
L 214.889977 119.971455 
L 217.745577 119.971455 
L 220.601177 119.971455 
L 223.456777 119.971455 
L 226.312377 119.971455 
L 229.167977 119.971455 
L 232.023577 119.971455 
L 234.879177 119.971455 
L 237.734777 119.971455 
L 240.590377 119.971455 
L 243.445977 119.971455 
L 246.301577 119.971455 
L 249.157177 119.971455 
L 252.012777 119.971455 
L 254.868377 119.971455 
L 257.723977 119.971455 
L 260.579577 119.971455 
L 263.435177 119.971455 
L 266.290777 119.971455 
L 269.146377 119.971455 
L 272.001977 119.971455 
L 274.857577 119.971455 
L 277.713177 119.971455 
L 280.568777 119.971455 
L 283.424377 119.971455 
L 286.279977 119.971455 
L 289.135577 119.971455 
L 291.991177 119.971455 
L 294.846777 119.971455 
L 297.702377 119.971455 
L 300.557977 119.971455 
L 303.413577 119.971455 
L 306.269177 119.971455 
L 309.124777 119.971455 
L 311.980377 119.971455 
L 314.835977 119.971455 
L 317.691577 119.971455 
L 320.547177 119.971455 
L 323.402777 119.971455 
L 326.258377 119.971455 
L 329.113977 119.971455 
L 331.969577 119.971455 
L 334.825177 119.971455 
L 337.680777 119.971455 
L 340.536377 119.971455 
L 343.391977 119.971455 
L 346.247577 119.971455 
L 349.103177 119.971455 
L 351.958777 119.971455 
L 354.814377 119.971455 
L 357.669977 119.971455 
L 360.525577 119.971455 
L 363.381177 119.971455 
L 366.236777 119.971455 
L 369.092377 119.971455 
L 371.947977 119.971455 
L 374.803577 119.971455 
L 377.659177 119.971455 
L 380.514777 119.971455 
L 383.370377 119.971455 
L 386.225977 119.971455 
L 389.081577 119.971455 
L 391.937177 119.971455 
L 394.792777 119.971455 
L 397.648377 119.971455 
L 400.503977 119.971455 
L 403.359577 119.971455 
L 406.215177 119.971455 
L 409.070777 119.971455 
L 411.926377 119.971455 
L 414.781977 119.971455 
L 417.637577 119.971455 
L 420.493177 119.971455 
L 423.348777 119.971455 
L 426.204377 119.971455 
L 429.059977 119.971455 
L 431.915577 119.971455 
L 434.771177 119.971455 
L 437.626777 119.971455 
L 440.482377 119.971455 
L 443.337977 119.971455 
L 446.193577 119.971455 
L 449.049177 119.971455 
L 451.904777 119.971455 
L 454.760377 119.971455 
L 457.615977 119.971455 
L 460.471577 119.971455 
L 463.327177 119.971455 
L 466.182777 119.971455 
L 469.038377 119.971455 
L 471.893977 119.971455 
L 474.749577 119.971455 
L 477.605177 119.971455 
L 480.460777 119.971455 
L 483.316377 119.971455 
L 486.171977 119.971455 
L 489.027577 119.971455 
L 491.883177 119.971455 
L 494.738777 119.971455 
L 497.594377 119.971455 
L 500.449977 119.971455 
L 503.305577 119.971455 
L 506.161177 119.971455 
L 509.016777 119.971455 
L 511.872377 119.971455 
L 514.727977 119.971455 
L 517.583577 119.971455 
L 520.439177 119.971455 
L 523.294777 119.971455 
L 526.150377 119.971455 
L 529.005977 119.971455 
L 531.861577 119.971455 
L 534.717177 119.971455 
L 537.572777 119.971455 
L 540.428377 119.971455 
L 543.283977 119.971455 
L 546.139577 119.971455 
L 548.995177 119.971455 
L 551.850777 119.971455 
L 554.706377 119.971455 
L 554.706377 120.865313 
L 554.706377 120.865313 
L 551.850777 120.25212 
L 548.995177 120.075179 
L 546.139577 119.376566 
L 543.283977 119.172169 
L 540.428377 119.254538 
L 537.572777 119.687739 
L 534.717177 120.71888 
L 531.861577 121.252754 
L 529.005977 120.102634 
L 526.150377 119.35521 
L 523.294777 118.583379 
L 520.439177 118.11357 
L 517.583577 118.818286 
L 514.727977 118.23865 
L 511.872377 118.092217 
L 509.016777 118.516265 
L 506.161177 118.735917 
L 503.305577 119.60842 
L 500.449977 119.21793 
L 497.594377 118.74507 
L 494.738777 119.013533 
L 491.883177 119.471138 
L 489.027577 120.03857 
L 486.171977 120.242967 
L 483.316377 120.264322 
L 480.460777 120.218561 
L 477.605177 120.432111 
L 474.749577 120.331438 
L 471.893977 119.9501 
L 469.038377 119.437581 
L 466.182777 119.144713 
L 463.327177 119.638927 
L 460.471577 120.148395 
L 457.615977 120.014165 
L 454.760377 119.879933 
L 451.904777 119.922643 
L 449.049177 120.377198 
L 446.193577 121.545623 
L 443.337977 122.460837 
L 440.482377 122.207629 
L 437.626777 121.371736 
L 434.771177 120.059927 
L 431.915577 119.254538 
L 429.059977 118.986076 
L 426.204377 118.986076 
L 423.348777 120.102635 
L 420.493177 120.706675 
L 417.637577 120.630408 
L 414.781977 120.801247 
L 411.926377 119.489446 
L 409.070777 118.693211 
L 406.215177 118.665755 
L 403.359577 118.482712 
L 400.503977 119.074546 
L 397.648377 119.602318 
L 394.792777 120.029418 
L 391.937177 120.523633 
L 389.081577 120.624306 
L 386.225977 120.804298 
L 383.370377 120.959884 
L 380.514777 120.68227 
L 377.659177 121.20089 
L 374.803577 121.319868 
L 371.947977 120.755487 
L 369.092377 121.027 
L 366.236777 120.651763 
L 363.381177 120.77684 
L 360.525577 121.603582 
L 357.669977 121.432742 
L 354.814377 121.780523 
L 351.958777 121.50596 
L 349.103177 121.685951 
L 346.247577 121.728661 
L 343.391977 121.133773 
L 340.536377 120.130091 
L 337.680777 119.294198 
L 334.825177 119.654182 
L 331.969577 119.919593 
L 329.113977 120.544988 
L 326.258377 121.252752 
L 323.402777 121.15513 
L 320.547177 121.277158 
L 317.691577 121.740866 
L 314.835977 121.817135 
L 311.980377 121.826287 
L 309.124777 122.067293 
L 306.269177 121.954416 
L 303.413577 122.360156 
L 300.557977 122.829966 
L 297.702377 123.345539 
L 294.846777 123.232663 
L 291.991177 122.735401 
L 289.135577 122.52185 
L 286.279977 121.484606 
L 283.424377 121.774423 
L 280.568777 122.131357 
L 277.713177 122.863524 
L 274.857577 125.502384 
L 272.001977 127.994806 
L 269.146377 129.62083 
L 266.290777 131.015005 
L 263.435177 131.875312 
L 260.579577 132.875954 
L 257.723977 134.61486 
L 254.868377 136.472738 
L 252.012777 138.150616 
L 249.157177 140.673542 
L 246.301577 142.93716 
L 243.445977 145.606556 
L 240.590377 149.27046 
L 237.734777 151.717157 
L 234.879177 154.682455 
L 232.023577 156.701973 
L 229.167977 157.748391 
L 226.312377 159.0266 
L 223.456777 159.575721 
L 220.601177 157.5745 
L 217.745577 152.58047 
L 214.889977 146.878707 
L 212.034377 139.035343 
L 209.178777 129.849646 
L 206.323177 121.039196 
L 203.467577 106.825939 
L 200.611977 90.858491 
L 197.756377 79.80576 
L 194.900777 66.538231 
L 192.045177 56.449597 
L 189.189577 48.886929 
L 186.333977 38.676227 
L 183.478377 30.396561 
L 180.622777 23.871036 
L 177.767177 18.971563 
L 174.911577 18.120469 
L 172.055977 19.847226 
L 169.200377 25.948644 
L 166.344777 33.404599 
L 163.489177 38.978202 
L 160.633577 48.148628 
L 157.777977 55.021872 
L 154.922377 61.074477 
L 152.066777 68.923957 
L 149.211177 73.759322 
L 146.355577 76.776508 
L 143.499977 80.181142 
L 140.644377 83.234858 
L 137.788777 86.843856 
L 134.933177 91.712771 
L 132.077577 96.38033 
L 129.221977 99.327331 
L 126.366377 101.749582 
L 123.510777 103.82405 
L 120.655177 105.001616 
L 117.799577 106.505622 
L 114.943977 107.301861 
L 112.088377 107.786933 
L 109.232777 108.934001 
L 106.377177 109.77294 
L 103.521577 110.807126 
L 100.665977 112.247057 
L 97.810377 112.311125 
L 94.954777 112.28062 
L 92.099177 112.353836 
L 89.243577 112.100625 
L 86.387977 112.466705 
L 83.532377 112.45755 
L 80.676777 113.198872 
L 77.821177 114.034765 
L 74.965577 114.931674 
L 72.109977 116.551602 
L 69.254377 116.457031 
L 66.398777 115.441143 
L 63.543177 115.581478 
L 60.687577 115.288605 
L 57.831977 116.24653 
L 54.976377 117.726128 
L 52.120777 117.652912 
L 49.265177 117.698675 
L 46.409577 117.741386 
L 43.553977 118.101369 
L 40.698377 119.105052 
L 37.842777 119.468087 
L 34.987177 119.291147 
L 32.131577 119.163017 
L 29.275977 118.778628 
L 26.420377 118.882353 
L 23.564777 118.83049 
L 20.709177 118.189844 
L 17.853577 118.317973 
L 14.997977 118.647449 
L 12.142377 118.409495 
L 9.286777 118.787779 
L 6.431177 119.056241 
L 3.575577 118.897604 
L 0.719977 119.211827 
L -2.135623 118.967772 
L -4.991223 118.537623 
L -7.846823 118.019003 
L -10.702423 117.622413 
L -13.558023 118.522371 
L -16.413623 118.915912 
L -19.269223 119.675538 
L -22.124823 120.053824 
L -24.980423 119.205727 
L -27.836023 118.681004 
L -30.691623 118.113573 
L -33.547223 117.823756 
L -36.402823 118.491861 
L -39.258423 118.717614 
L -42.114023 118.967772 
L -44.969623 118.900659 
L -47.825223 118.528472 
L -50.680823 117.787149 
L -53.536423 117.469876 
L -56.392023 118.073913 
L -59.247623 118.308818 
L -62.103223 118.983026 
L -64.958823 119.519949 
L -67.814423 119.275893 
L -70.670023 119.159967 
L -73.525623 119.269792 
L -76.381223 119.443683 
L -79.236823 119.587065 
L -82.092423 119.34911 
L -84.948023 119.13251 
L -87.803623 119.678584 
L -90.659223 119.864677 
L -93.514823 120.230763 
L -96.370423 120.834802 
L -99.226023 119.773158 
L -102.081623 119.764005 
L -104.937223 119.91349 
L -107.792823 119.886034 
L -110.648423 119.782311 
L -113.504023 119.123362 
L -116.359623 118.449155 
L -119.215223 117.95494 
L -122.070823 118.287468 
z
" style="fill:#ffffff;fill-opacity:0.2;"/>
   </g>
   <g id="line2d_13">
    <path clip-path="url(#p535d0e3a16)" d="M 52.3425 119.971455 
L 337.9025 119.971455 
" style="fill:none;stroke:#b0b0b0;stroke-dasharray:1,1.65;stroke-dashoffset:0;"/>
   </g>
   <g id="PathCollection_1">
    <defs>
     <path d="M 0 2.44949 
C 0.649612 2.44949 1.272706 2.191396 1.732051 1.732051 
C 2.191396 1.272706 2.44949 0.649612 2.44949 0 
C 2.44949 -0.649612 2.191396 -1.272706 1.732051 -1.732051 
C 1.272706 -2.191396 0.649612 -2.44949 0 -2.44949 
C -0.649612 -2.44949 -1.272706 -2.191396 -1.732051 -1.732051 
C -2.191396 -1.272706 -2.44949 -0.649612 -2.44949 0 
C -2.44949 0.649612 -2.191396 1.272706 -1.732051 1.732051 
C -1.272706 2.191396 -0.649612 2.44949 0 2.44949 
z
" id="m14ca8e8e6d"/>
    </defs>
    <g clip-path="url(#p535d0e3a16)">
     <use style="fill:#bc82bd;fill-opacity:0.8;" x="-1" xlink:href="#m14ca8e8e6d" y="119.064829"/>
     <use style="fill:#bc82bd;fill-opacity:0.8;" x="0.719977" xlink:href="#m14ca8e8e6d" y="119.211827"/>
     <use style="fill:#bc82bd;fill-opacity:0.8;" x="3.575577" xlink:href="#m14ca8e8e6d" y="118.897604"/>
     <use style="fill:#bc82bd;fill-opacity:0.8;" x="6.431177" xlink:href="#m14ca8e8e6d" y="119.056241"/>
     <use style="fill:#bc82bd;fill-opacity:0.8;" x="9.286777" xlink:href="#m14ca8e8e6d" y="118.787779"/>
     <use style="fill:#bc82bd;fill-opacity:0.8;" x="12.142377" xlink:href="#m14ca8e8e6d" y="118.409495"/>
     <use style="fill:#bc82bd;fill-opacity:0.8;" x="14.997977" xlink:href="#m14ca8e8e6d" y="118.647449"/>
     <use style="fill:#bc82bd;fill-opacity:0.8;" x="17.853577" xlink:href="#m14ca8e8e6d" y="118.317973"/>
     <use style="fill:#bc82bd;fill-opacity:0.8;" x="20.709177" xlink:href="#m14ca8e8e6d" y="118.189844"/>
     <use style="fill:#bc82bd;fill-opacity:0.8;" x="23.564777" xlink:href="#m14ca8e8e6d" y="118.83049"/>
     <use style="fill:#bc82bd;fill-opacity:0.8;" x="26.420377" xlink:href="#m14ca8e8e6d" y="118.882353"/>
     <use style="fill:#bc82bd;fill-opacity:0.8;" x="29.275977" xlink:href="#m14ca8e8e6d" y="118.778628"/>
     <use style="fill:#bc82bd;fill-opacity:0.8;" x="32.131577" xlink:href="#m14ca8e8e6d" y="119.163017"/>
     <use style="fill:#bc82bd;fill-opacity:0.8;" x="34.987177" xlink:href="#m14ca8e8e6d" y="119.291147"/>
     <use style="fill:#bc82bd;fill-opacity:0.8;" x="37.842777" xlink:href="#m14ca8e8e6d" y="119.468087"/>
     <use style="fill:#bc82bd;fill-opacity:0.8;" x="40.698377" xlink:href="#m14ca8e8e6d" y="119.105052"/>
     <use style="fill:#bc82bd;fill-opacity:0.8;" x="43.553977" xlink:href="#m14ca8e8e6d" y="118.101369"/>
     <use style="fill:#bc82bd;fill-opacity:0.8;" x="46.409577" xlink:href="#m14ca8e8e6d" y="117.741386"/>
     <use style="fill:#bc82bd;fill-opacity:0.8;" x="49.265177" xlink:href="#m14ca8e8e6d" y="117.698675"/>
     <use style="fill:#bc82bd;fill-opacity:0.8;" x="52.120777" xlink:href="#m14ca8e8e6d" y="117.652912"/>
     <use style="fill:#bc82bd;fill-opacity:0.8;" x="54.976377" xlink:href="#m14ca8e8e6d" y="117.726128"/>
     <use style="fill:#bc82bd;fill-opacity:0.8;" x="57.831977" xlink:href="#m14ca8e8e6d" y="116.24653"/>
     <use style="fill:#bc82bd;fill-opacity:0.8;" x="60.687577" xlink:href="#m14ca8e8e6d" y="115.288605"/>
     <use style="fill:#bc82bd;fill-opacity:0.8;" x="63.543177" xlink:href="#m14ca8e8e6d" y="115.581478"/>
     <use style="fill:#bc82bd;fill-opacity:0.8;" x="66.398777" xlink:href="#m14ca8e8e6d" y="115.441143"/>
     <use style="fill:#bc82bd;fill-opacity:0.8;" x="69.254377" xlink:href="#m14ca8e8e6d" y="116.457031"/>
     <use style="fill:#bc82bd;fill-opacity:0.8;" x="72.109977" xlink:href="#m14ca8e8e6d" y="116.551602"/>
     <use style="fill:#bc82bd;fill-opacity:0.8;" x="74.965577" xlink:href="#m14ca8e8e6d" y="114.931674"/>
     <use style="fill:#bc82bd;fill-opacity:0.8;" x="77.821177" xlink:href="#m14ca8e8e6d" y="114.034765"/>
     <use style="fill:#bc82bd;fill-opacity:0.8;" x="80.676777" xlink:href="#m14ca8e8e6d" y="113.198872"/>
     <use style="fill:#bc82bd;fill-opacity:0.8;" x="83.532377" xlink:href="#m14ca8e8e6d" y="112.45755"/>
     <use style="fill:#bc82bd;fill-opacity:0.8;" x="86.387977" xlink:href="#m14ca8e8e6d" y="112.466705"/>
     <use style="fill:#bc82bd;fill-opacity:0.8;" x="89.243577" xlink:href="#m14ca8e8e6d" y="112.100625"/>
     <use style="fill:#bc82bd;fill-opacity:0.8;" x="92.099177" xlink:href="#m14ca8e8e6d" y="112.353836"/>
     <use style="fill:#bc82bd;fill-opacity:0.8;" x="94.954777" xlink:href="#m14ca8e8e6d" y="112.28062"/>
     <use style="fill:#bc82bd;fill-opacity:0.8;" x="97.810377" xlink:href="#m14ca8e8e6d" y="112.311125"/>
     <use style="fill:#bc82bd;fill-opacity:0.8;" x="100.665977" xlink:href="#m14ca8e8e6d" y="112.247057"/>
     <use style="fill:#bc82bd;fill-opacity:0.8;" x="103.521577" xlink:href="#m14ca8e8e6d" y="110.807126"/>
     <use style="fill:#bc82bd;fill-opacity:0.8;" x="106.377177" xlink:href="#m14ca8e8e6d" y="109.77294"/>
     <use style="fill:#bc82bd;fill-opacity:0.8;" x="109.232777" xlink:href="#m14ca8e8e6d" y="108.934001"/>
     <use style="fill:#bc82bd;fill-opacity:0.8;" x="112.088377" xlink:href="#m14ca8e8e6d" y="107.786933"/>
     <use style="fill:#bc82bd;fill-opacity:0.8;" x="114.943977" xlink:href="#m14ca8e8e6d" y="107.301861"/>
     <use style="fill:#bc82bd;fill-opacity:0.8;" x="117.799577" xlink:href="#m14ca8e8e6d" y="106.505622"/>
     <use style="fill:#bc82bd;fill-opacity:0.8;" x="120.655177" xlink:href="#m14ca8e8e6d" y="105.001616"/>
     <use style="fill:#bc82bd;fill-opacity:0.8;" x="123.510777" xlink:href="#m14ca8e8e6d" y="103.82405"/>
     <use style="fill:#bc82bd;fill-opacity:0.8;" x="126.366377" xlink:href="#m14ca8e8e6d" y="101.749582"/>
     <use style="fill:#bc82bd;fill-opacity:0.8;" x="129.221977" xlink:href="#m14ca8e8e6d" y="99.327331"/>
     <use style="fill:#bc82bd;fill-opacity:0.8;" x="132.077577" xlink:href="#m14ca8e8e6d" y="96.38033"/>
     <use style="fill:#bc82bd;fill-opacity:0.8;" x="134.933177" xlink:href="#m14ca8e8e6d" y="91.712771"/>
     <use style="fill:#bc82bd;fill-opacity:0.8;" x="137.788777" xlink:href="#m14ca8e8e6d" y="86.843856"/>
     <use style="fill:#bc82bd;fill-opacity:0.8;" x="140.644377" xlink:href="#m14ca8e8e6d" y="83.234858"/>
     <use style="fill:#bc82bd;fill-opacity:0.8;" x="143.499977" xlink:href="#m14ca8e8e6d" y="80.181142"/>
     <use style="fill:#bc82bd;fill-opacity:0.8;" x="146.355577" xlink:href="#m14ca8e8e6d" y="76.776508"/>
     <use style="fill:#bc82bd;fill-opacity:0.8;" x="149.211177" xlink:href="#m14ca8e8e6d" y="73.759322"/>
     <use style="fill:#bc82bd;fill-opacity:0.8;" x="152.066777" xlink:href="#m14ca8e8e6d" y="68.923957"/>
     <use style="fill:#bc82bd;fill-opacity:0.8;" x="154.922377" xlink:href="#m14ca8e8e6d" y="61.074477"/>
     <use style="fill:#bc82bd;fill-opacity:0.8;" x="157.777977" xlink:href="#m14ca8e8e6d" y="55.021872"/>
     <use style="fill:#bc82bd;fill-opacity:0.8;" x="160.633577" xlink:href="#m14ca8e8e6d" y="48.148628"/>
     <use style="fill:#bc82bd;fill-opacity:0.8;" x="163.489177" xlink:href="#m14ca8e8e6d" y="38.978202"/>
     <use style="fill:#bc82bd;fill-opacity:0.8;" x="166.344777" xlink:href="#m14ca8e8e6d" y="33.404599"/>
     <use style="fill:#bc82bd;fill-opacity:0.8;" x="169.200377" xlink:href="#m14ca8e8e6d" y="25.948644"/>
     <use style="fill:#bc82bd;fill-opacity:0.8;" x="172.055977" xlink:href="#m14ca8e8e6d" y="19.847226"/>
     <use style="fill:#bc82bd;fill-opacity:0.8;" x="174.911577" xlink:href="#m14ca8e8e6d" y="18.120469"/>
     <use style="fill:#bc82bd;fill-opacity:0.8;" x="177.767177" xlink:href="#m14ca8e8e6d" y="18.971563"/>
     <use style="fill:#bc82bd;fill-opacity:0.8;" x="180.622777" xlink:href="#m14ca8e8e6d" y="23.871036"/>
     <use style="fill:#bc82bd;fill-opacity:0.8;" x="183.478377" xlink:href="#m14ca8e8e6d" y="30.396561"/>
     <use style="fill:#bc82bd;fill-opacity:0.8;" x="186.333977" xlink:href="#m14ca8e8e6d" y="38.676227"/>
     <use style="fill:#bc82bd;fill-opacity:0.8;" x="189.189577" xlink:href="#m14ca8e8e6d" y="48.886929"/>
     <use style="fill:#bc82bd;fill-opacity:0.8;" x="192.045177" xlink:href="#m14ca8e8e6d" y="56.449597"/>
     <use style="fill:#bc82bd;fill-opacity:0.8;" x="194.900777" xlink:href="#m14ca8e8e6d" y="66.538231"/>
     <use style="fill:#bc82bd;fill-opacity:0.8;" x="197.756377" xlink:href="#m14ca8e8e6d" y="79.80576"/>
     <use style="fill:#bc82bd;fill-opacity:0.8;" x="200.611977" xlink:href="#m14ca8e8e6d" y="90.858491"/>
     <use style="fill:#bc82bd;fill-opacity:0.8;" x="203.467577" xlink:href="#m14ca8e8e6d" y="106.825939"/>
     <use style="fill:#bc82bd;fill-opacity:0.8;" x="206.323177" xlink:href="#m14ca8e8e6d" y="121.039196"/>
     <use style="fill:#bc82bd;fill-opacity:0.8;" x="209.178777" xlink:href="#m14ca8e8e6d" y="129.849646"/>
     <use style="fill:#bc82bd;fill-opacity:0.8;" x="212.034377" xlink:href="#m14ca8e8e6d" y="139.035343"/>
     <use style="fill:#bc82bd;fill-opacity:0.8;" x="214.889977" xlink:href="#m14ca8e8e6d" y="146.878707"/>
     <use style="fill:#bc82bd;fill-opacity:0.8;" x="217.745577" xlink:href="#m14ca8e8e6d" y="152.58047"/>
     <use style="fill:#bc82bd;fill-opacity:0.8;" x="220.601177" xlink:href="#m14ca8e8e6d" y="157.5745"/>
     <use style="fill:#bc82bd;fill-opacity:0.8;" x="223.456777" xlink:href="#m14ca8e8e6d" y="159.575721"/>
     <use style="fill:#bc82bd;fill-opacity:0.8;" x="226.312377" xlink:href="#m14ca8e8e6d" y="159.0266"/>
     <use style="fill:#bc82bd;fill-opacity:0.8;" x="229.167977" xlink:href="#m14ca8e8e6d" y="157.748391"/>
     <use style="fill:#bc82bd;fill-opacity:0.8;" x="232.023577" xlink:href="#m14ca8e8e6d" y="156.701973"/>
     <use style="fill:#bc82bd;fill-opacity:0.8;" x="234.879177" xlink:href="#m14ca8e8e6d" y="154.682455"/>
     <use style="fill:#bc82bd;fill-opacity:0.8;" x="237.734777" xlink:href="#m14ca8e8e6d" y="151.717157"/>
     <use style="fill:#bc82bd;fill-opacity:0.8;" x="240.590377" xlink:href="#m14ca8e8e6d" y="149.27046"/>
     <use style="fill:#bc82bd;fill-opacity:0.8;" x="243.445977" xlink:href="#m14ca8e8e6d" y="145.606556"/>
     <use style="fill:#bc82bd;fill-opacity:0.8;" x="246.301577" xlink:href="#m14ca8e8e6d" y="142.93716"/>
     <use style="fill:#bc82bd;fill-opacity:0.8;" x="249.157177" xlink:href="#m14ca8e8e6d" y="140.673542"/>
     <use style="fill:#bc82bd;fill-opacity:0.8;" x="252.012777" xlink:href="#m14ca8e8e6d" y="138.150616"/>
     <use style="fill:#bc82bd;fill-opacity:0.8;" x="254.868377" xlink:href="#m14ca8e8e6d" y="136.472738"/>
     <use style="fill:#bc82bd;fill-opacity:0.8;" x="257.723977" xlink:href="#m14ca8e8e6d" y="134.61486"/>
     <use style="fill:#bc82bd;fill-opacity:0.8;" x="260.579577" xlink:href="#m14ca8e8e6d" y="132.875954"/>
     <use style="fill:#bc82bd;fill-opacity:0.8;" x="263.435177" xlink:href="#m14ca8e8e6d" y="131.875312"/>
     <use style="fill:#bc82bd;fill-opacity:0.8;" x="266.290777" xlink:href="#m14ca8e8e6d" y="131.015005"/>
     <use style="fill:#bc82bd;fill-opacity:0.8;" x="269.146377" xlink:href="#m14ca8e8e6d" y="129.62083"/>
     <use style="fill:#bc82bd;fill-opacity:0.8;" x="272.001977" xlink:href="#m14ca8e8e6d" y="127.994806"/>
     <use style="fill:#bc82bd;fill-opacity:0.8;" x="274.857577" xlink:href="#m14ca8e8e6d" y="125.502384"/>
     <use style="fill:#bc82bd;fill-opacity:0.8;" x="277.713177" xlink:href="#m14ca8e8e6d" y="122.863524"/>
     <use style="fill:#bc82bd;fill-opacity:0.8;" x="280.568777" xlink:href="#m14ca8e8e6d" y="122.131357"/>
     <use style="fill:#bc82bd;fill-opacity:0.8;" x="283.424377" xlink:href="#m14ca8e8e6d" y="121.774423"/>
     <use style="fill:#bc82bd;fill-opacity:0.8;" x="286.279977" xlink:href="#m14ca8e8e6d" y="121.484606"/>
     <use style="fill:#bc82bd;fill-opacity:0.8;" x="289.135577" xlink:href="#m14ca8e8e6d" y="122.52185"/>
     <use style="fill:#bc82bd;fill-opacity:0.8;" x="291.991177" xlink:href="#m14ca8e8e6d" y="122.735401"/>
     <use style="fill:#bc82bd;fill-opacity:0.8;" x="294.846777" xlink:href="#m14ca8e8e6d" y="123.232663"/>
     <use style="fill:#bc82bd;fill-opacity:0.8;" x="297.702377" xlink:href="#m14ca8e8e6d" y="123.345539"/>
     <use style="fill:#bc82bd;fill-opacity:0.8;" x="300.557977" xlink:href="#m14ca8e8e6d" y="122.829966"/>
     <use style="fill:#bc82bd;fill-opacity:0.8;" x="303.413577" xlink:href="#m14ca8e8e6d" y="122.360156"/>
     <use style="fill:#bc82bd;fill-opacity:0.8;" x="306.269177" xlink:href="#m14ca8e8e6d" y="121.954416"/>
     <use style="fill:#bc82bd;fill-opacity:0.8;" x="309.124777" xlink:href="#m14ca8e8e6d" y="122.067293"/>
     <use style="fill:#bc82bd;fill-opacity:0.8;" x="311.980377" xlink:href="#m14ca8e8e6d" y="121.826287"/>
     <use style="fill:#bc82bd;fill-opacity:0.8;" x="314.835977" xlink:href="#m14ca8e8e6d" y="121.817135"/>
     <use style="fill:#bc82bd;fill-opacity:0.8;" x="317.691577" xlink:href="#m14ca8e8e6d" y="121.740866"/>
     <use style="fill:#bc82bd;fill-opacity:0.8;" x="320.547177" xlink:href="#m14ca8e8e6d" y="121.277158"/>
     <use style="fill:#bc82bd;fill-opacity:0.8;" x="323.402777" xlink:href="#m14ca8e8e6d" y="121.15513"/>
     <use style="fill:#bc82bd;fill-opacity:0.8;" x="326.258377" xlink:href="#m14ca8e8e6d" y="121.252752"/>
     <use style="fill:#bc82bd;fill-opacity:0.8;" x="329.113977" xlink:href="#m14ca8e8e6d" y="120.544988"/>
     <use style="fill:#bc82bd;fill-opacity:0.8;" x="331.969577" xlink:href="#m14ca8e8e6d" y="119.919593"/>
     <use style="fill:#bc82bd;fill-opacity:0.8;" x="334.825177" xlink:href="#m14ca8e8e6d" y="119.654182"/>
     <use style="fill:#bc82bd;fill-opacity:0.8;" x="337.680777" xlink:href="#m14ca8e8e6d" y="119.294198"/>
     <use style="fill:#bc82bd;fill-opacity:0.8;" x="340.536377" xlink:href="#m14ca8e8e6d" y="120.130091"/>
     <use style="fill:#bc82bd;fill-opacity:0.8;" x="343.391977" xlink:href="#m14ca8e8e6d" y="121.133773"/>
     <use style="fill:#bc82bd;fill-opacity:0.8;" x="346.247577" xlink:href="#m14ca8e8e6d" y="121.728661"/>
     <use style="fill:#bc82bd;fill-opacity:0.8;" x="349.103177" xlink:href="#m14ca8e8e6d" y="121.685951"/>
     <use style="fill:#bc82bd;fill-opacity:0.8;" x="351.958777" xlink:href="#m14ca8e8e6d" y="121.50596"/>
     <use style="fill:#bc82bd;fill-opacity:0.8;" x="354.814377" xlink:href="#m14ca8e8e6d" y="121.780523"/>
     <use style="fill:#bc82bd;fill-opacity:0.8;" x="357.669977" xlink:href="#m14ca8e8e6d" y="121.432742"/>
     <use style="fill:#bc82bd;fill-opacity:0.8;" x="360.525577" xlink:href="#m14ca8e8e6d" y="121.603582"/>
     <use style="fill:#bc82bd;fill-opacity:0.8;" x="363.381177" xlink:href="#m14ca8e8e6d" y="120.77684"/>
     <use style="fill:#bc82bd;fill-opacity:0.8;" x="366.236777" xlink:href="#m14ca8e8e6d" y="120.651763"/>
     <use style="fill:#bc82bd;fill-opacity:0.8;" x="369.092377" xlink:href="#m14ca8e8e6d" y="121.027"/>
     <use style="fill:#bc82bd;fill-opacity:0.8;" x="371.947977" xlink:href="#m14ca8e8e6d" y="120.755487"/>
     <use style="fill:#bc82bd;fill-opacity:0.8;" x="374.803577" xlink:href="#m14ca8e8e6d" y="121.319868"/>
     <use style="fill:#bc82bd;fill-opacity:0.8;" x="377.659177" xlink:href="#m14ca8e8e6d" y="121.20089"/>
     <use style="fill:#bc82bd;fill-opacity:0.8;" x="380.514777" xlink:href="#m14ca8e8e6d" y="120.68227"/>
     <use style="fill:#bc82bd;fill-opacity:0.8;" x="383.370377" xlink:href="#m14ca8e8e6d" y="120.959884"/>
     <use style="fill:#bc82bd;fill-opacity:0.8;" x="386.225977" xlink:href="#m14ca8e8e6d" y="120.804298"/>
     <use style="fill:#bc82bd;fill-opacity:0.8;" x="389.081577" xlink:href="#m14ca8e8e6d" y="120.624306"/>
     <use style="fill:#bc82bd;fill-opacity:0.8;" x="391.937177" xlink:href="#m14ca8e8e6d" y="120.523633"/>
     <use style="fill:#bc82bd;fill-opacity:0.8;" x="394.792777" xlink:href="#m14ca8e8e6d" y="120.029418"/>
     <use style="fill:#bc82bd;fill-opacity:0.8;" x="397.648377" xlink:href="#m14ca8e8e6d" y="119.602318"/>
     <use style="fill:#bc82bd;fill-opacity:0.8;" x="400.503977" xlink:href="#m14ca8e8e6d" y="119.074546"/>
     <use style="fill:#bc82bd;fill-opacity:0.8;" x="403.359577" xlink:href="#m14ca8e8e6d" y="118.482712"/>
     <use style="fill:#bc82bd;fill-opacity:0.8;" x="406.215177" xlink:href="#m14ca8e8e6d" y="118.665755"/>
     <use style="fill:#bc82bd;fill-opacity:0.8;" x="409.070777" xlink:href="#m14ca8e8e6d" y="118.693211"/>
     <use style="fill:#bc82bd;fill-opacity:0.8;" x="411.926377" xlink:href="#m14ca8e8e6d" y="119.489446"/>
     <use style="fill:#bc82bd;fill-opacity:0.8;" x="414.781977" xlink:href="#m14ca8e8e6d" y="120.801247"/>
     <use style="fill:#bc82bd;fill-opacity:0.8;" x="417.637577" xlink:href="#m14ca8e8e6d" y="120.630408"/>
     <use style="fill:#bc82bd;fill-opacity:0.8;" x="420.493177" xlink:href="#m14ca8e8e6d" y="120.706675"/>
     <use style="fill:#bc82bd;fill-opacity:0.8;" x="423.348777" xlink:href="#m14ca8e8e6d" y="120.102635"/>
     <use style="fill:#bc82bd;fill-opacity:0.8;" x="426.204377" xlink:href="#m14ca8e8e6d" y="118.986076"/>
     <use style="fill:#bc82bd;fill-opacity:0.8;" x="429.059977" xlink:href="#m14ca8e8e6d" y="118.986076"/>
     <use style="fill:#bc82bd;fill-opacity:0.8;" x="431.915577" xlink:href="#m14ca8e8e6d" y="119.254538"/>
     <use style="fill:#bc82bd;fill-opacity:0.8;" x="434.771177" xlink:href="#m14ca8e8e6d" y="120.059927"/>
     <use style="fill:#bc82bd;fill-opacity:0.8;" x="437.626777" xlink:href="#m14ca8e8e6d" y="121.371736"/>
     <use style="fill:#bc82bd;fill-opacity:0.8;" x="440.482377" xlink:href="#m14ca8e8e6d" y="122.207629"/>
     <use style="fill:#bc82bd;fill-opacity:0.8;" x="443.337977" xlink:href="#m14ca8e8e6d" y="122.460837"/>
     <use style="fill:#bc82bd;fill-opacity:0.8;" x="446.193577" xlink:href="#m14ca8e8e6d" y="121.545623"/>
     <use style="fill:#bc82bd;fill-opacity:0.8;" x="449.049177" xlink:href="#m14ca8e8e6d" y="120.377198"/>
     <use style="fill:#bc82bd;fill-opacity:0.8;" x="451.904777" xlink:href="#m14ca8e8e6d" y="119.922643"/>
     <use style="fill:#bc82bd;fill-opacity:0.8;" x="454.760377" xlink:href="#m14ca8e8e6d" y="119.879933"/>
     <use style="fill:#bc82bd;fill-opacity:0.8;" x="457.615977" xlink:href="#m14ca8e8e6d" y="120.014165"/>
     <use style="fill:#bc82bd;fill-opacity:0.8;" x="460.471577" xlink:href="#m14ca8e8e6d" y="120.148395"/>
     <use style="fill:#bc82bd;fill-opacity:0.8;" x="463.327177" xlink:href="#m14ca8e8e6d" y="119.638927"/>
     <use style="fill:#bc82bd;fill-opacity:0.8;" x="466.182777" xlink:href="#m14ca8e8e6d" y="119.144713"/>
     <use style="fill:#bc82bd;fill-opacity:0.8;" x="469.038377" xlink:href="#m14ca8e8e6d" y="119.437581"/>
     <use style="fill:#bc82bd;fill-opacity:0.8;" x="471.893977" xlink:href="#m14ca8e8e6d" y="119.9501"/>
     <use style="fill:#bc82bd;fill-opacity:0.8;" x="474.749577" xlink:href="#m14ca8e8e6d" y="120.331438"/>
     <use style="fill:#bc82bd;fill-opacity:0.8;" x="477.605177" xlink:href="#m14ca8e8e6d" y="120.432111"/>
     <use style="fill:#bc82bd;fill-opacity:0.8;" x="480.460777" xlink:href="#m14ca8e8e6d" y="120.218561"/>
     <use style="fill:#bc82bd;fill-opacity:0.8;" x="483.316377" xlink:href="#m14ca8e8e6d" y="120.264322"/>
     <use style="fill:#bc82bd;fill-opacity:0.8;" x="486.171977" xlink:href="#m14ca8e8e6d" y="120.242967"/>
     <use style="fill:#bc82bd;fill-opacity:0.8;" x="489.027577" xlink:href="#m14ca8e8e6d" y="120.03857"/>
     <use style="fill:#bc82bd;fill-opacity:0.8;" x="491.883177" xlink:href="#m14ca8e8e6d" y="119.471138"/>
     <use style="fill:#bc82bd;fill-opacity:0.8;" x="494.738777" xlink:href="#m14ca8e8e6d" y="119.013533"/>
     <use style="fill:#bc82bd;fill-opacity:0.8;" x="497.594377" xlink:href="#m14ca8e8e6d" y="118.74507"/>
     <use style="fill:#bc82bd;fill-opacity:0.8;" x="500.449977" xlink:href="#m14ca8e8e6d" y="119.21793"/>
     <use style="fill:#bc82bd;fill-opacity:0.8;" x="503.305577" xlink:href="#m14ca8e8e6d" y="119.60842"/>
     <use style="fill:#bc82bd;fill-opacity:0.8;" x="506.161177" xlink:href="#m14ca8e8e6d" y="118.735917"/>
     <use style="fill:#bc82bd;fill-opacity:0.8;" x="509.016777" xlink:href="#m14ca8e8e6d" y="118.516265"/>
     <use style="fill:#bc82bd;fill-opacity:0.8;" x="511.872377" xlink:href="#m14ca8e8e6d" y="118.092217"/>
     <use style="fill:#bc82bd;fill-opacity:0.8;" x="514.727977" xlink:href="#m14ca8e8e6d" y="118.23865"/>
     <use style="fill:#bc82bd;fill-opacity:0.8;" x="517.583577" xlink:href="#m14ca8e8e6d" y="118.818286"/>
     <use style="fill:#bc82bd;fill-opacity:0.8;" x="520.439177" xlink:href="#m14ca8e8e6d" y="118.11357"/>
     <use style="fill:#bc82bd;fill-opacity:0.8;" x="523.294777" xlink:href="#m14ca8e8e6d" y="118.583379"/>
     <use style="fill:#bc82bd;fill-opacity:0.8;" x="526.150377" xlink:href="#m14ca8e8e6d" y="119.35521"/>
     <use style="fill:#bc82bd;fill-opacity:0.8;" x="529.005977" xlink:href="#m14ca8e8e6d" y="120.102634"/>
     <use style="fill:#bc82bd;fill-opacity:0.8;" x="531.861577" xlink:href="#m14ca8e8e6d" y="121.252754"/>
     <use style="fill:#bc82bd;fill-opacity:0.8;" x="534.717177" xlink:href="#m14ca8e8e6d" y="120.71888"/>
     <use style="fill:#bc82bd;fill-opacity:0.8;" x="537.572777" xlink:href="#m14ca8e8e6d" y="119.687739"/>
     <use style="fill:#bc82bd;fill-opacity:0.8;" x="540.428377" xlink:href="#m14ca8e8e6d" y="119.254538"/>
     <use style="fill:#bc82bd;fill-opacity:0.8;" x="543.283977" xlink:href="#m14ca8e8e6d" y="119.172169"/>
     <use style="fill:#bc82bd;fill-opacity:0.8;" x="546.139577" xlink:href="#m14ca8e8e6d" y="119.376566"/>
     <use style="fill:#bc82bd;fill-opacity:0.8;" x="548.995177" xlink:href="#m14ca8e8e6d" y="120.075179"/>
     <use style="fill:#bc82bd;fill-opacity:0.8;" x="551.850777" xlink:href="#m14ca8e8e6d" y="120.25212"/>
     <use style="fill:#bc82bd;fill-opacity:0.8;" x="554.706377" xlink:href="#m14ca8e8e6d" y="120.865313"/>
    </g>
   </g>
   <g id="patch_3">
    <path d="M 52.3425 198.044 
L 52.3425 7.2 
" style="fill:none;stroke:#ffffff;stroke-linecap:square;stroke-linejoin:miter;stroke-width:1.2;"/>
   </g>
   <g id="patch_4">
    <path d="M 337.9025 198.044 
L 337.9025 7.2 
" style="fill:none;stroke:#ffffff;stroke-linecap:square;stroke-linejoin:miter;stroke-width:1.2;"/>
   </g>
   <g id="patch_5">
    <path d="M 52.3425 198.044 
L 337.9025 198.044 
" style="fill:none;stroke:#ffffff;stroke-linecap:square;stroke-linejoin:miter;stroke-width:1.2;"/>
   </g>
   <g id="patch_6">
    <path d="M 52.3425 7.2 
L 337.9025 7.2 
" style="fill:none;stroke:#ffffff;stroke-linecap:square;stroke-linejoin:miter;stroke-width:1.2;"/>
   </g>
   <g id="text_9">
    <!-- $I_{heat} = 8\,$nA RMS -->
    <defs>
     <path d="M 9.8125 71.734375 
L 19.625 71.734375 
L 19.625 0 
L 9.8125 0 
z
" id="Helvetica-49"/>
     <path d="M 13.1875 13.921875 
Q 13.1875 10.109375 15.96875 7.90625 
Q 18.75 5.71875 22.5625 5.71875 
Q 27.203125 5.71875 31.546875 7.859375 
Q 38.875 11.421875 38.875 19.53125 
L 38.875 26.609375 
Q 37.25 25.59375 34.703125 24.90625 
Q 32.171875 24.21875 29.734375 23.921875 
L 24.421875 23.25 
Q 19.625 22.609375 17.234375 21.234375 
Q 13.1875 18.953125 13.1875 13.921875 
z
M 34.46875 31.6875 
Q 37.5 32.078125 38.53125 34.234375 
Q 39.109375 35.40625 39.109375 37.59375 
Q 39.109375 42.09375 35.90625 44.109375 
Q 32.71875 46.140625 26.765625 46.140625 
Q 19.875 46.140625 17 42.4375 
Q 15.375 40.375 14.890625 36.328125 
L 6.6875 36.328125 
Q 6.9375 46 12.96875 49.78125 
Q 19 53.5625 26.953125 53.5625 
Q 36.1875 53.5625 41.9375 50.046875 
Q 47.65625 46.53125 47.65625 39.109375 
L 47.65625 8.984375 
Q 47.65625 7.625 48.21875 6.78125 
Q 48.78125 5.953125 50.59375 5.953125 
Q 51.171875 5.953125 51.90625 6.03125 
Q 52.640625 6.109375 53.46875 6.25 
L 53.46875 -0.25 
Q 51.421875 -0.828125 50.34375 -0.96875 
Q 49.265625 -1.125 47.40625 -1.125 
Q 42.875 -1.125 40.828125 2.09375 
Q 39.75 3.8125 39.3125 6.9375 
Q 36.625 3.421875 31.59375 0.828125 
Q 26.5625 -1.765625 20.515625 -1.765625 
Q 13.234375 -1.765625 8.609375 2.65625 
Q 4 7.078125 4 13.71875 
Q 4 21 8.546875 25 
Q 13.09375 29 20.453125 29.9375 
z
M 27.203125 53.5625 
z
" id="Helvetica-61"/>
     <path d="M 8.203125 66.890625 
L 17.09375 66.890625 
L 17.09375 52.296875 
L 25.4375 52.296875 
L 25.4375 45.125 
L 17.09375 45.125 
L 17.09375 10.984375 
Q 17.09375 8.25 18.953125 7.328125 
Q 19.96875 6.78125 22.359375 6.78125 
Q 23 6.78125 23.734375 6.8125 
Q 24.46875 6.84375 25.4375 6.9375 
L 25.4375 0 
Q 23.921875 -0.4375 22.28125 -0.625 
Q 20.65625 -0.828125 18.75 -0.828125 
Q 12.59375 -0.828125 10.390625 2.3125 
Q 8.203125 5.46875 8.203125 10.5 
L 8.203125 45.125 
L 1.125 45.125 
L 1.125 52.296875 
L 8.203125 52.296875 
z
" id="Helvetica-74"/>
     <path d="M 55.421875 40.140625 
L 55.421875 31.9375 
L 4.5 31.9375 
L 4.5 40.140625 
z
M 55.421875 19.1875 
L 55.421875 10.84375 
L 4.5 10.84375 
L 4.5 19.1875 
z
" id="Helvetica-3d"/>
     <path d="M 27.203125 40.625 
Q 33.015625 40.625 36.28125 43.875 
Q 39.546875 47.125 39.546875 51.609375 
Q 39.546875 55.515625 36.421875 58.78125 
Q 33.296875 62.0625 26.90625 62.0625 
Q 20.5625 62.0625 17.71875 58.78125 
Q 14.890625 55.515625 14.890625 51.125 
Q 14.890625 46.1875 18.546875 43.40625 
Q 22.21875 40.625 27.203125 40.625 
z
M 27.734375 6 
Q 33.84375 6 37.859375 9.296875 
Q 41.890625 12.59375 41.890625 19.140625 
Q 41.890625 25.921875 37.734375 29.4375 
Q 33.59375 32.953125 27.09375 32.953125 
Q 20.796875 32.953125 16.8125 29.359375 
Q 12.84375 25.78125 12.84375 19.4375 
Q 12.84375 13.96875 16.484375 9.984375 
Q 20.125 6 27.734375 6 
z
M 15.234375 37.25 
Q 11.578125 38.8125 9.515625 40.921875 
Q 5.671875 44.828125 5.671875 51.078125 
Q 5.671875 58.890625 11.328125 64.5 
Q 17 70.125 27.390625 70.125 
Q 37.453125 70.125 43.15625 64.8125 
Q 48.875 59.515625 48.875 52.4375 
Q 48.875 45.90625 45.5625 41.84375 
Q 43.703125 39.546875 39.796875 37.359375 
Q 44.140625 35.359375 46.625 32.765625 
Q 51.265625 27.875 51.265625 20.0625 
Q 51.265625 10.84375 45.0625 4.421875 
Q 38.875 -2 27.546875 -2 
Q 17.328125 -2 10.265625 3.53125 
Q 3.21875 9.078125 3.21875 19.625 
Q 3.21875 25.828125 6.25 30.34375 
Q 9.28125 34.859375 15.234375 37.25 
z
" id="Helvetica-38"/>
     <path d="M 44.4375 29.390625 
L 33.546875 61.078125 
L 21.96875 29.390625 
z
M 28.46875 71.734375 
L 39.453125 71.734375 
L 65.484375 0 
L 54.828125 0 
L 47.5625 21.484375 
L 19.1875 21.484375 
L 11.421875 0 
L 1.46875 0 
z
M 33.5 71.734375 
z
" id="Helvetica-41"/>
     <path d="M 40.96875 38.875 
Q 47.796875 38.875 51.78125 41.609375 
Q 55.765625 44.34375 55.765625 51.46875 
Q 55.765625 59.125 50.203125 61.921875 
Q 47.21875 63.375 42.234375 63.375 
L 18.5 63.375 
L 18.5 38.875 
z
M 8.796875 71.734375 
L 42 71.734375 
Q 50.203125 71.734375 55.515625 69.34375 
Q 65.625 64.75 65.625 52.390625 
Q 65.625 45.953125 62.953125 41.84375 
Q 60.296875 37.75 55.515625 35.25 
Q 59.71875 33.546875 61.84375 30.765625 
Q 63.96875 27.984375 64.203125 21.734375 
L 64.546875 12.109375 
Q 64.703125 8.015625 65.234375 6 
Q 66.109375 2.59375 68.359375 1.609375 
L 68.359375 0 
L 56.453125 0 
Q 55.953125 0.921875 55.65625 2.390625 
Q 55.375 3.859375 55.171875 8.0625 
L 54.59375 20.015625 
Q 54.25 27.046875 49.359375 29.4375 
Q 46.578125 30.765625 40.625 30.765625 
L 18.5 30.765625 
L 18.5 0 
L 8.796875 0 
z
" id="Helvetica-52"/>
     <path d="M 7.375 71.734375 
L 21.296875 71.734375 
L 41.890625 11.078125 
L 62.359375 71.734375 
L 76.125 71.734375 
L 76.125 0 
L 66.890625 0 
L 66.890625 42.328125 
Q 66.890625 44.53125 66.984375 49.609375 
Q 67.09375 54.6875 67.09375 60.5 
L 46.625 0 
L 37.015625 0 
L 16.40625 60.5 
L 16.40625 58.296875 
Q 16.40625 55.671875 16.53125 50.265625 
Q 16.65625 44.875 16.65625 42.328125 
L 16.65625 0 
L 7.375 0 
z
" id="Helvetica-4d"/>
     <path d="M 13.96875 23.140625 
Q 14.3125 17.046875 16.84375 13.234375 
Q 21.6875 6.109375 33.890625 6.109375 
Q 39.359375 6.109375 43.84375 7.671875 
Q 52.546875 10.6875 52.546875 18.5 
Q 52.546875 24.359375 48.875 26.859375 
Q 45.171875 29.296875 37.25 31.109375 
L 27.546875 33.296875 
Q 18.015625 35.453125 14.0625 38.03125 
Q 7.234375 42.53125 7.234375 51.46875 
Q 7.234375 61.140625 13.921875 67.328125 
Q 20.609375 73.53125 32.859375 73.53125 
Q 44.140625 73.53125 52.015625 68.078125 
Q 59.90625 62.640625 59.90625 50.6875 
L 50.78125 50.6875 
Q 50.046875 56.453125 47.65625 59.515625 
Q 43.21875 65.140625 32.5625 65.140625 
Q 23.96875 65.140625 20.203125 61.515625 
Q 16.453125 57.90625 16.453125 53.125 
Q 16.453125 47.859375 20.84375 45.40625 
Q 23.734375 43.84375 33.890625 41.5 
L 43.953125 39.203125 
Q 51.21875 37.546875 55.171875 34.671875 
Q 62.015625 29.640625 62.015625 20.0625 
Q 62.015625 8.15625 53.34375 3.03125 
Q 44.671875 -2.09375 33.203125 -2.09375 
Q 19.828125 -2.09375 12.25 4.734375 
Q 4.6875 11.53125 4.828125 23.140625 
z
M 33.59375 73.6875 
z
" id="Helvetica-53"/>
    </defs>
    <g style="fill:#ffffff;" transform="translate(200.8337 45.3688)scale(0.18 -0.18)">
     <use transform="translate(0 0.3125)" xlink:href="#Helvetica-49"/>
     <use transform="translate(28.698398 -15.376563)scale(0.7)" xlink:href="#Helvetica-68"/>
     <use transform="translate(67.629062 -15.376563)scale(0.7)" xlink:href="#Helvetica-65"/>
     <use transform="translate(106.559727 -15.376563)scale(0.7)" xlink:href="#Helvetica-61"/>
     <use transform="translate(145.490391 -15.376563)scale(0.7)" xlink:href="#Helvetica-74"/>
     <use transform="translate(184.213633 0.3125)" xlink:href="#Helvetica-3d"/>
     <use transform="translate(259.272227 0.3125)" xlink:href="#Helvetica-38"/>
     <use transform="translate(328.771202 0.3125)" xlink:href="#Helvetica-6e"/>
     <use transform="translate(384.386437 0.3125)" xlink:href="#Helvetica-41"/>
     <use transform="translate(451.085655 0.3125)" xlink:href="#Helvetica-20"/>
     <use transform="translate(478.868858 0.3125)" xlink:href="#Helvetica-52"/>
     <use transform="translate(551.085655 0.3125)" xlink:href="#Helvetica-4d"/>
     <use transform="translate(634.386437 0.3125)" xlink:href="#Helvetica-53"/>
    </g>
   </g>
   <g id="text_10">
    <!-- $N=0$ -->
    <defs>
     <path d="M 22.859375 71.734375 
L 34.328125 71.734375 
L 58.203125 13.625 
L 70.5625 71.734375 
L 79.78125 71.734375 
L 64.546875 0 
L 53.65625 0 
L 29.203125 58.0625 
L 16.890625 0 
L 7.625 0 
z
" id="Helvetica-Oblique-4e"/>
     <path d="M 63.921875 40.140625 
L 62.203125 31.9375 
L 11.28125 31.9375 
L 12.984375 40.140625 
z
M 59.46875 19.1875 
L 57.71875 10.84375 
L 6.78125 10.84375 
L 8.546875 19.1875 
z
" id="Helvetica-Oblique-3d"/>
     <path d="M 59.125 58.734375 
Q 62.015625 50.09375 58.796875 35.0625 
Q 55.765625 20.796875 49.515625 11.46875 
Q 40.53125 -1.90625 26.5625 -1.90625 
Q 13.96875 -1.90625 10.15625 9.03125 
Q 6.984375 18.171875 10.25 33.546875 
Q 12.75 45.453125 17.671875 54 
Q 26.8125 69.921875 41.890625 69.921875 
Q 55.46875 69.921875 59.125 58.734375 
z
M 49.265625 34.71875 
Q 51.765625 46.625 50.46875 54.3125 
Q 49.171875 62.015625 40.71875 62.015625 
Q 32.953125 62.015625 27.828125 54.703125 
Q 22.703125 47.40625 19.671875 33.203125 
Q 17.390625 22.515625 18.3125 16.015625 
Q 19.734375 6.109375 28.21875 6.109375 
Q 35.0625 6.109375 40.40625 12.15625 
Q 45.75 18.21875 49.265625 34.71875 
z
" id="Helvetica-Oblique-30"/>
    </defs>
    <g style="fill:#ffffff;" transform="translate(80.8985 169.4174)scale(0.18 -0.18)">
     <use transform="translate(0 0.265625)" xlink:href="#Helvetica-Oblique-4e"/>
     <use transform="translate(88.876953 0.265625)" xlink:href="#Helvetica-Oblique-3d"/>
     <use transform="translate(163.935547 0.265625)" xlink:href="#Helvetica-Oblique-30"/>
    </g>
   </g>
   <g id="text_11">
    <!-- $N=1$ -->
    <defs>
     <path d="M 20.0625 49.515625 
L 21.484375 56.25 
Q 31.203125 57.171875 35.421875 59.34375 
Q 39.65625 61.53125 43.265625 69.625 
L 50.203125 69.625 
L 35.40625 0 
L 26.03125 0 
L 36.53125 49.515625 
z
" id="Helvetica-Oblique-31"/>
    </defs>
    <g style="fill:#ffffff;" transform="translate(266.5125 169.4174)scale(0.18 -0.18)">
     <use transform="translate(0 0.265625)" xlink:href="#Helvetica-Oblique-4e"/>
     <use transform="translate(88.876953 0.265625)" xlink:href="#Helvetica-Oblique-3d"/>
     <use transform="translate(163.935547 0.265625)" xlink:href="#Helvetica-Oblique-31"/>
    </g>
   </g>
  </g>
 </g>
 <defs>
  <clipPath id="p535d0e3a16">
   <rect height="190.844" width="285.56" x="52.3425" y="7.2"/>
  </clipPath>
 </defs>
</svg>
