<?xml version="1.0" encoding="utf-8" standalone="no"?>
<!DOCTYPE svg PUBLIC "-//W3C//DTD SVG 1.1//EN"
  "http://www.w3.org/Graphics/SVG/1.1/DTD/svg11.dtd">
<!-- Created with matplotlib (http://matplotlib.org/) -->
<svg height="246.3565pt" version="1.1" viewBox="0 0 344.8575 246.3565" width="344.8575pt" xmlns="http://www.w3.org/2000/svg" xmlns:xlink="http://www.w3.org/1999/xlink">
 <defs>
  <style type="text/css">
*{stroke-linecap:butt;stroke-linejoin:round;}
  </style>
 </defs>
 <g id="figure_1">
  <g id="patch_1">
   <path d="M 0 246.3565 
L 344.8575 246.3565 
L 344.8575 0 
L 0 0 
z
" style="fill:none;"/>
  </g>
  <g id="axes_1">
   <g id="patch_2">
    <path d="M 65.2375 198.044 
L 337.6575 198.044 
L 337.6575 7.2 
L 65.2375 7.2 
z
" style="fill:none;"/>
   </g>
   <g id="matplotlib.axis_1">
    <g id="xtick_1">
     <g id="line2d_1">
      <path clip-path="url(#p0fcc541471)" d="M 92.4795 198.044 
L 92.4795 7.2 
" style="fill:none;stroke:#ffffff;stroke-dasharray:0.8,1.32;stroke-dashoffset:0;stroke-width:0.8;"/>
     </g>
     <g id="line2d_2">
      <defs>
       <path d="M 0 0 
L 0 -5 
" id="md309f6bdb4" style="stroke:#ffffff;stroke-width:1.2;"/>
      </defs>
      <g>
       <use style="fill:#ffffff;stroke:#ffffff;stroke-width:1.2;" x="92.4795" xlink:href="#md309f6bdb4" y="198.044"/>
      </g>
     </g>
     <g id="line2d_3">
      <defs>
       <path d="M 0 0 
L 0 5 
" id="me3ece46b9e" style="stroke:#ffffff;stroke-width:1.2;"/>
      </defs>
      <g>
       <use style="fill:#ffffff;stroke:#ffffff;stroke-width:1.2;" x="92.4795" xlink:href="#me3ece46b9e" y="7.2"/>
      </g>
     </g>
     <g id="text_1">
      <!-- −2 -->
      <defs>
       <path d="M 55.421875 29.59375 
L 55.421875 21.390625 
L 4.5 21.390625 
L 4.5 29.59375 
z
" id="Helvetica-2212"/>
       <path d="M 3.125 0 
Q 3.609375 9.03125 6.859375 15.71875 
Q 10.109375 22.40625 19.53125 27.875 
L 28.90625 33.296875 
Q 35.203125 36.96875 37.75 39.546875 
Q 41.75 43.609375 41.75 48.828125 
Q 41.75 54.9375 38.078125 58.515625 
Q 34.421875 62.109375 28.328125 62.109375 
Q 19.28125 62.109375 15.828125 55.28125 
Q 13.96875 51.609375 13.765625 45.125 
L 4.828125 45.125 
Q 4.984375 54.25 8.203125 60.015625 
Q 13.921875 70.171875 28.375 70.171875 
Q 40.375 70.171875 45.921875 63.671875 
Q 51.46875 57.171875 51.46875 49.21875 
Q 51.46875 40.828125 45.5625 34.859375 
Q 42.140625 31.390625 33.296875 26.46875 
L 26.609375 22.75 
Q 21.828125 20.125 19.09375 17.71875 
Q 14.203125 13.484375 12.9375 8.296875 
L 51.125 8.296875 
L 51.125 0 
L 3.125 0 
z
" id="Helvetica-32"/>
      </defs>
      <g style="fill:#ffffff;" transform="translate(83.35825 213.0215)scale(0.16 -0.16)">
       <use xlink:href="#Helvetica-2212"/>
       <use x="58.398438" xlink:href="#Helvetica-32"/>
      </g>
     </g>
    </g>
    <g id="xtick_2">
     <g id="line2d_4">
      <path clip-path="url(#p0fcc541471)" d="M 201.4475 198.044 
L 201.4475 7.2 
" style="fill:none;stroke:#ffffff;stroke-dasharray:0.8,1.32;stroke-dashoffset:0;stroke-width:0.8;"/>
     </g>
     <g id="line2d_5">
      <g>
       <use style="fill:#ffffff;stroke:#ffffff;stroke-width:1.2;" x="201.4475" xlink:href="#md309f6bdb4" y="198.044"/>
      </g>
     </g>
     <g id="line2d_6">
      <g>
       <use style="fill:#ffffff;stroke:#ffffff;stroke-width:1.2;" x="201.4475" xlink:href="#me3ece46b9e" y="7.2"/>
      </g>
     </g>
     <g id="text_2">
      <!-- 0 -->
      <defs>
       <path d="M 27.046875 69.921875 
Q 40.625 69.921875 46.6875 58.734375 
Q 51.375 50.09375 51.375 35.0625 
Q 51.375 20.796875 47.125 11.46875 
Q 40.96875 -1.90625 27 -1.90625 
Q 14.40625 -1.90625 8.25 9.03125 
Q 3.125 18.171875 3.125 33.546875 
Q 3.125 45.453125 6.203125 54 
Q 11.96875 69.921875 27.046875 69.921875 
z
M 26.953125 6.109375 
Q 33.796875 6.109375 37.84375 12.15625 
Q 41.890625 18.21875 41.890625 34.71875 
Q 41.890625 46.625 38.953125 54.3125 
Q 36.03125 62.015625 27.59375 62.015625 
Q 19.828125 62.015625 16.234375 54.703125 
Q 12.640625 47.40625 12.640625 33.203125 
Q 12.640625 22.515625 14.9375 16.015625 
Q 18.453125 6.109375 26.953125 6.109375 
z
" id="Helvetica-30"/>
      </defs>
      <g style="fill:#ffffff;" transform="translate(196.99875 213.0215)scale(0.16 -0.16)">
       <use xlink:href="#Helvetica-30"/>
      </g>
     </g>
    </g>
    <g id="xtick_3">
     <g id="line2d_7">
      <path clip-path="url(#p0fcc541471)" d="M 310.4155 198.044 
L 310.4155 7.2 
" style="fill:none;stroke:#ffffff;stroke-dasharray:0.8,1.32;stroke-dashoffset:0;stroke-width:0.8;"/>
     </g>
     <g id="line2d_8">
      <g>
       <use style="fill:#ffffff;stroke:#ffffff;stroke-width:1.2;" x="310.4155" xlink:href="#md309f6bdb4" y="198.044"/>
      </g>
     </g>
     <g id="line2d_9">
      <g>
       <use style="fill:#ffffff;stroke:#ffffff;stroke-width:1.2;" x="310.4155" xlink:href="#me3ece46b9e" y="7.2"/>
      </g>
     </g>
     <g id="text_3">
      <!-- 2 -->
      <g style="fill:#ffffff;" transform="translate(305.96675 213.0215)scale(0.16 -0.16)">
       <use xlink:href="#Helvetica-32"/>
      </g>
     </g>
    </g>
    <g id="text_4">
     <!-- $V_{p} - V_{mid}$ (mV) -->
     <defs>
      <path d="M 13.28125 71.734375 
L 33.890625 10.640625 
L 54.25 71.734375 
L 65.140625 71.734375 
L 38.96875 0 
L 28.65625 0 
L 2.546875 71.734375 
z
" id="Helvetica-56"/>
      <path d="M 28.515625 5.90625 
Q 34.671875 5.90625 38.75 11.0625 
Q 42.828125 16.21875 42.828125 26.46875 
Q 42.828125 32.71875 41.015625 37.203125 
Q 37.59375 45.84375 28.515625 45.84375 
Q 19.390625 45.84375 16.015625 36.71875 
Q 14.203125 31.84375 14.203125 24.3125 
Q 14.203125 18.265625 16.015625 14.015625 
Q 19.4375 5.90625 28.515625 5.90625 
z
M 5.765625 52.046875 
L 14.3125 52.046875 
L 14.3125 45.125 
Q 16.9375 48.6875 20.0625 50.640625 
Q 24.515625 53.5625 30.515625 53.5625 
Q 39.40625 53.5625 45.609375 46.75 
Q 51.8125 39.9375 51.8125 27.296875 
Q 51.8125 10.203125 42.875 2.875 
Q 37.203125 -1.765625 29.6875 -1.765625 
Q 23.78125 -1.765625 19.78125 0.828125 
Q 17.4375 2.296875 14.546875 5.859375 
L 14.546875 -20.84375 
L 5.765625 -20.84375 
z
" id="Helvetica-70"/>
      <path d="M 6.453125 52.296875 
L 15.140625 52.296875 
L 15.140625 44.875 
Q 18.265625 48.734375 20.796875 50.484375 
Q 25.140625 53.46875 30.671875 53.46875 
Q 36.921875 53.46875 40.71875 50.390625 
Q 42.875 48.640625 44.625 45.21875 
Q 47.5625 49.421875 51.515625 51.4375 
Q 55.46875 53.46875 60.40625 53.46875 
Q 70.953125 53.46875 74.75 45.84375 
Q 76.8125 41.75 76.8125 34.8125 
L 76.8125 0 
L 67.671875 0 
L 67.671875 36.328125 
Q 67.671875 41.546875 65.0625 43.5 
Q 62.453125 45.453125 58.6875 45.453125 
Q 53.515625 45.453125 49.78125 41.984375 
Q 46.046875 38.53125 46.046875 30.421875 
L 46.046875 0 
L 37.109375 0 
L 37.109375 34.125 
Q 37.109375 39.453125 35.84375 41.890625 
Q 33.84375 45.5625 28.375 45.5625 
Q 23.390625 45.5625 19.3125 41.703125 
Q 15.234375 37.84375 15.234375 27.734375 
L 15.234375 0 
L 6.453125 0 
z
" id="Helvetica-6d"/>
      <path d="M 6.453125 52.046875 
L 15.375 52.046875 
L 15.375 0 
L 6.453125 0 
z
M 6.453125 71.734375 
L 15.375 71.734375 
L 15.375 61.765625 
L 6.453125 61.765625 
z
" id="Helvetica-69"/>
      <path d="M 12.015625 25.53125 
Q 12.015625 17.140625 15.578125 11.46875 
Q 19.140625 5.8125 27 5.8125 
Q 33.109375 5.8125 37.03125 11.0625 
Q 40.96875 16.3125 40.96875 26.125 
Q 40.96875 36.03125 36.90625 40.796875 
Q 32.859375 45.5625 26.90625 45.5625 
Q 20.265625 45.5625 16.140625 40.484375 
Q 12.015625 35.40625 12.015625 25.53125 
z
M 25.25 53.21875 
Q 31.25 53.21875 35.296875 50.6875 
Q 37.640625 49.21875 40.625 45.5625 
L 40.625 71.96875 
L 49.078125 71.96875 
L 49.078125 0 
L 41.15625 0 
L 41.15625 7.28125 
Q 38.09375 2.4375 33.890625 0.28125 
Q 29.6875 -1.859375 24.265625 -1.859375 
Q 15.53125 -1.859375 9.125 5.484375 
Q 2.734375 12.84375 2.734375 25.046875 
Q 2.734375 36.46875 8.5625 44.84375 
Q 14.40625 53.21875 25.25 53.21875 
z
" id="Helvetica-64"/>
      <path id="Helvetica-20"/>
      <path d="M 29.59375 72.90625 
Q 21.921875 58.015625 19.625 50.984375 
Q 16.15625 40.28125 16.15625 26.265625 
Q 16.15625 12.109375 20.125 0.390625 
Q 22.5625 -6.84375 29.734375 -20.40625 
L 23.828125 -20.40625 
Q 16.703125 -9.28125 14.984375 -6.203125 
Q 13.28125 -3.125 11.28125 2.15625 
Q 8.546875 9.375 7.46875 17.578125 
Q 6.9375 21.828125 6.9375 25.6875 
Q 6.9375 40.140625 11.46875 51.421875 
Q 14.359375 58.59375 23.484375 72.90625 
z
" id="Helvetica-28"/>
      <path d="M 3.46875 -20.40625 
Q 11.234375 -5.28125 13.484375 1.65625 
Q 16.890625 12.15625 16.890625 26.265625 
Q 16.890625 40.375 12.9375 52.09375 
Q 10.5 59.328125 3.328125 72.90625 
L 9.234375 72.90625 
Q 16.75 60.890625 18.328125 58.078125 
Q 19.921875 55.28125 21.78125 50.34375 
Q 24.125 44.234375 25.125 38.28125 
Q 26.125 32.328125 26.125 26.8125 
Q 26.125 12.359375 21.53125 1.03125 
Q 18.65625 -6.25 9.578125 -20.40625 
z
" id="Helvetica-29"/>
     </defs>
     <g style="fill:#ffffff;" transform="translate(138.5475 232.9565)scale(0.2 -0.2)">
      <use transform="translate(0 0.09375)" xlink:href="#Helvetica-56"/>
      <use transform="translate(67.614414 -15.595313)scale(0.7)" xlink:href="#Helvetica-70"/>
      <use transform="translate(125.820078 0.09375)" xlink:href="#Helvetica-2212"/>
      <use transform="translate(200.878672 0.09375)" xlink:href="#Helvetica-56"/>
      <use transform="translate(268.493086 -15.595313)scale(0.7)" xlink:href="#Helvetica-6d"/>
      <use transform="translate(326.803633 -15.595313)scale(0.7)" xlink:href="#Helvetica-69"/>
      <use transform="translate(342.355391 -15.595313)scale(0.7)" xlink:href="#Helvetica-64"/>
      <use transform="translate(383.900898 0.09375)" xlink:href="#Helvetica-20"/>
      <use transform="translate(411.684102 0.09375)" xlink:href="#Helvetica-28"/>
      <use transform="translate(444.984883 0.09375)" xlink:href="#Helvetica-6d"/>
      <use transform="translate(528.285664 0.09375)" xlink:href="#Helvetica-56"/>
      <use transform="translate(594.984883 0.09375)" xlink:href="#Helvetica-29"/>
     </g>
    </g>
   </g>
   <g id="matplotlib.axis_2">
    <g id="ytick_1">
     <g id="line2d_10">
      <path clip-path="url(#p0fcc541471)" d="M 65.2375 150.333 
L 337.6575 150.333 
" style="fill:none;stroke:#ffffff;stroke-dasharray:0.8,1.32;stroke-dashoffset:0;stroke-width:0.8;"/>
     </g>
     <g id="line2d_11">
      <defs>
       <path d="M 0 0 
L 5 0 
" id="mf4471d8f8a" style="stroke:#ffffff;stroke-width:1.2;"/>
      </defs>
      <g>
       <use style="fill:#ffffff;stroke:#ffffff;stroke-width:1.2;" x="65.2375" xlink:href="#mf4471d8f8a" y="150.333"/>
      </g>
     </g>
     <g id="line2d_12">
      <defs>
       <path d="M 0 0 
L -5 0 
" id="m86f8fcb2cc" style="stroke:#ffffff;stroke-width:1.2;"/>
      </defs>
      <g>
       <use style="fill:#ffffff;stroke:#ffffff;stroke-width:1.2;" x="337.6575" xlink:href="#m86f8fcb2cc" y="150.333"/>
      </g>
     </g>
     <g id="text_5">
      <!-- 0.46 -->
      <defs>
       <path d="M 8.546875 10.640625 
L 18.75 10.640625 
L 18.75 0 
L 8.546875 0 
z
" id="Helvetica-2e"/>
       <path d="M 33.0625 24.75 
L 33.0625 56.453125 
L 10.640625 24.75 
z
M 33.203125 0 
L 33.203125 17.09375 
L 2.546875 17.09375 
L 2.546875 25.6875 
L 34.578125 70.125 
L 42 70.125 
L 42 24.75 
L 52.296875 24.75 
L 52.296875 17.09375 
L 42 17.09375 
L 42 0 
z
" id="Helvetica-34"/>
       <path d="M 29.25 70.21875 
Q 40.96875 70.21875 45.578125 64.140625 
Q 50.203125 58.0625 50.203125 51.609375 
L 41.5 51.609375 
Q 40.71875 55.765625 39.015625 58.109375 
Q 35.84375 62.5 29.390625 62.5 
Q 22.015625 62.5 17.671875 55.6875 
Q 13.328125 48.875 12.84375 36.1875 
Q 15.875 40.625 20.453125 42.828125 
Q 24.65625 44.78125 29.828125 44.78125 
Q 38.625 44.78125 45.15625 39.15625 
Q 51.703125 33.546875 51.703125 22.40625 
Q 51.703125 12.890625 45.5 5.53125 
Q 39.3125 -1.8125 27.828125 -1.8125 
Q 18.015625 -1.8125 10.890625 5.640625 
Q 3.765625 13.09375 3.765625 30.71875 
Q 3.765625 43.75 6.9375 52.828125 
Q 13.03125 70.21875 29.25 70.21875 
z
M 28.609375 6 
Q 35.546875 6 38.984375 10.65625 
Q 42.4375 15.328125 42.4375 21.6875 
Q 42.4375 27.046875 39.359375 31.90625 
Q 36.28125 36.765625 28.171875 36.765625 
Q 22.515625 36.765625 18.234375 33 
Q 13.96875 29.25 13.96875 21.6875 
Q 13.96875 15.046875 17.84375 10.515625 
Q 21.734375 6 28.609375 6 
z
" id="Helvetica-36"/>
      </defs>
      <g style="fill:#ffffff;" transform="translate(30.6 156.07175)scale(0.16 -0.16)">
       <use xlink:href="#Helvetica-30"/>
       <use x="55.615234" xlink:href="#Helvetica-2e"/>
       <use x="83.398438" xlink:href="#Helvetica-34"/>
       <use x="139.013672" xlink:href="#Helvetica-36"/>
      </g>
     </g>
    </g>
    <g id="ytick_2">
     <g id="line2d_13">
      <path clip-path="url(#p0fcc541471)" d="M 65.2375 86.718333 
L 337.6575 86.718333 
" style="fill:none;stroke:#ffffff;stroke-dasharray:0.8,1.32;stroke-dashoffset:0;stroke-width:0.8;"/>
     </g>
     <g id="line2d_14">
      <g>
       <use style="fill:#ffffff;stroke:#ffffff;stroke-width:1.2;" x="65.2375" xlink:href="#mf4471d8f8a" y="86.718333"/>
      </g>
     </g>
     <g id="line2d_15">
      <g>
       <use style="fill:#ffffff;stroke:#ffffff;stroke-width:1.2;" x="337.6575" xlink:href="#m86f8fcb2cc" y="86.718333"/>
      </g>
     </g>
     <g id="text_6">
      <!-- 0.48 -->
      <defs>
       <path d="M 27.203125 40.625 
Q 33.015625 40.625 36.28125 43.875 
Q 39.546875 47.125 39.546875 51.609375 
Q 39.546875 55.515625 36.421875 58.78125 
Q 33.296875 62.0625 26.90625 62.0625 
Q 20.5625 62.0625 17.71875 58.78125 
Q 14.890625 55.515625 14.890625 51.125 
Q 14.890625 46.1875 18.546875 43.40625 
Q 22.21875 40.625 27.203125 40.625 
z
M 27.734375 6 
Q 33.84375 6 37.859375 9.296875 
Q 41.890625 12.59375 41.890625 19.140625 
Q 41.890625 25.921875 37.734375 29.4375 
Q 33.59375 32.953125 27.09375 32.953125 
Q 20.796875 32.953125 16.8125 29.359375 
Q 12.84375 25.78125 12.84375 19.4375 
Q 12.84375 13.96875 16.484375 9.984375 
Q 20.125 6 27.734375 6 
z
M 15.234375 37.25 
Q 11.578125 38.8125 9.515625 40.921875 
Q 5.671875 44.828125 5.671875 51.078125 
Q 5.671875 58.890625 11.328125 64.5 
Q 17 70.125 27.390625 70.125 
Q 37.453125 70.125 43.15625 64.8125 
Q 48.875 59.515625 48.875 52.4375 
Q 48.875 45.90625 45.5625 41.84375 
Q 43.703125 39.546875 39.796875 37.359375 
Q 44.140625 35.359375 46.625 32.765625 
Q 51.265625 27.875 51.265625 20.0625 
Q 51.265625 10.84375 45.0625 4.421875 
Q 38.875 -2 27.546875 -2 
Q 17.328125 -2 10.265625 3.53125 
Q 3.21875 9.078125 3.21875 19.625 
Q 3.21875 25.828125 6.25 30.34375 
Q 9.28125 34.859375 15.234375 37.25 
z
" id="Helvetica-38"/>
      </defs>
      <g style="fill:#ffffff;" transform="translate(30.6 92.457083)scale(0.16 -0.16)">
       <use xlink:href="#Helvetica-30"/>
       <use x="55.615234" xlink:href="#Helvetica-2e"/>
       <use x="83.398438" xlink:href="#Helvetica-34"/>
       <use x="139.013672" xlink:href="#Helvetica-38"/>
      </g>
     </g>
    </g>
    <g id="ytick_3">
     <g id="line2d_16">
      <path clip-path="url(#p0fcc541471)" d="M 65.2375 23.103667 
L 337.6575 23.103667 
" style="fill:none;stroke:#ffffff;stroke-dasharray:0.8,1.32;stroke-dashoffset:0;stroke-width:0.8;"/>
     </g>
     <g id="line2d_17">
      <g>
       <use style="fill:#ffffff;stroke:#ffffff;stroke-width:1.2;" x="65.2375" xlink:href="#mf4471d8f8a" y="23.103667"/>
      </g>
     </g>
     <g id="line2d_18">
      <g>
       <use style="fill:#ffffff;stroke:#ffffff;stroke-width:1.2;" x="337.6575" xlink:href="#m86f8fcb2cc" y="23.103667"/>
      </g>
     </g>
     <g id="text_7">
      <!-- 0.50 -->
      <defs>
       <path d="M 12.359375 17.828125 
Q 13.234375 10.296875 19.34375 7.421875 
Q 22.46875 5.953125 26.5625 5.953125 
Q 34.375 5.953125 38.125 10.9375 
Q 41.890625 15.921875 41.890625 21.96875 
Q 41.890625 29.296875 37.421875 33.296875 
Q 32.953125 37.3125 26.703125 37.3125 
Q 22.171875 37.3125 18.921875 35.546875 
Q 15.671875 33.796875 13.375 30.671875 
L 5.765625 31.109375 
L 11.078125 68.75 
L 47.40625 68.75 
L 47.40625 60.25 
L 17.671875 60.25 
L 14.703125 40.828125 
Q 17.140625 42.671875 19.34375 43.609375 
Q 23.25 45.21875 28.375 45.21875 
Q 37.984375 45.21875 44.671875 39.015625 
Q 51.375 32.8125 51.375 23.296875 
Q 51.375 13.375 45.234375 5.796875 
Q 39.109375 -1.765625 25.6875 -1.765625 
Q 17.140625 -1.765625 10.5625 3.046875 
Q 4 7.859375 3.21875 17.828125 
z
" id="Helvetica-35"/>
      </defs>
      <g style="fill:#ffffff;" transform="translate(30.6 28.842417)scale(0.16 -0.16)">
       <use xlink:href="#Helvetica-30"/>
       <use x="55.615234" xlink:href="#Helvetica-2e"/>
       <use x="83.398438" xlink:href="#Helvetica-35"/>
       <use x="139.013672" xlink:href="#Helvetica-30"/>
      </g>
     </g>
    </g>
    <g id="text_8">
     <!-- G$_{sens}$ $(e^2/h)$ -->
     <defs>
      <path d="M 38.625 73.578125 
Q 48.734375 73.578125 56.109375 69.671875 
Q 66.796875 64.0625 69.1875 50 
L 59.578125 50 
Q 57.8125 57.859375 52.296875 61.453125 
Q 46.78125 65.046875 38.375 65.046875 
Q 28.421875 65.046875 21.609375 57.5625 
Q 14.796875 50.09375 14.796875 35.296875 
Q 14.796875 22.515625 20.40625 14.484375 
Q 26.03125 6.453125 38.71875 6.453125 
Q 48.4375 6.453125 54.8125 12.078125 
Q 61.1875 17.71875 61.328125 30.328125 
L 38.875 30.328125 
L 38.875 38.375 
L 70.359375 38.375 
L 70.359375 0 
L 64.109375 0 
L 61.765625 9.234375 
Q 56.84375 3.8125 53.03125 1.703125 
Q 46.625 -1.90625 36.765625 -1.90625 
Q 24.03125 -1.90625 14.84375 6.34375 
Q 4.828125 16.703125 4.828125 34.765625 
Q 4.828125 52.78125 14.59375 63.421875 
Q 23.875 73.578125 38.625 73.578125 
z
M 37.015625 73.6875 
z
" id="Helvetica-47"/>
      <path d="M 11.671875 16.40625 
Q 12.0625 12.015625 13.875 9.671875 
Q 17.1875 5.421875 25.390625 5.421875 
Q 30.28125 5.421875 33.984375 7.546875 
Q 37.703125 9.671875 37.703125 14.109375 
Q 37.703125 17.484375 34.71875 19.234375 
Q 32.8125 20.3125 27.203125 21.734375 
L 20.21875 23.484375 
Q 13.53125 25.140625 10.359375 27.203125 
Q 4.6875 30.765625 4.6875 37.0625 
Q 4.6875 44.484375 10.03125 49.0625 
Q 15.375 53.65625 24.421875 53.65625 
Q 36.234375 53.65625 41.453125 46.734375 
Q 44.734375 42.328125 44.625 37.25 
L 36.328125 37.25 
Q 36.078125 40.234375 34.234375 42.671875 
Q 31.203125 46.140625 23.734375 46.140625 
Q 18.75 46.140625 16.1875 44.234375 
Q 13.625 42.328125 13.625 39.203125 
Q 13.625 35.796875 17 33.734375 
Q 18.953125 32.515625 22.75 31.59375 
L 28.5625 30.171875 
Q 38.03125 27.875 41.265625 25.734375 
Q 46.390625 22.359375 46.390625 15.140625 
Q 46.390625 8.15625 41.09375 3.078125 
Q 35.796875 -2 24.953125 -2 
Q 13.28125 -2 8.421875 3.296875 
Q 3.5625 8.59375 3.21875 16.40625 
z
M 24.65625 53.5625 
z
" id="Helvetica-73"/>
      <path d="M 28.21875 53.46875 
Q 33.796875 53.46875 39.015625 50.859375 
Q 44.234375 48.25 46.96875 44.09375 
Q 49.609375 40.140625 50.484375 34.859375 
Q 51.265625 31.25 51.265625 23.34375 
L 12.9375 23.34375 
Q 13.1875 15.375 16.703125 10.5625 
Q 20.21875 5.765625 27.59375 5.765625 
Q 34.46875 5.765625 38.578125 10.296875 
Q 40.921875 12.9375 41.890625 16.40625 
L 50.53125 16.40625 
Q 50.203125 13.53125 48.265625 9.984375 
Q 46.34375 6.453125 43.953125 4.203125 
Q 39.9375 0.296875 34.03125 -1.078125 
Q 30.859375 -1.859375 26.859375 -1.859375 
Q 17.09375 -1.859375 10.296875 5.25 
Q 3.515625 12.359375 3.515625 25.140625 
Q 3.515625 37.75 10.34375 45.609375 
Q 17.1875 53.46875 28.21875 53.46875 
z
M 42.234375 30.328125 
Q 41.703125 36.03125 39.75 39.453125 
Q 36.140625 45.796875 27.6875 45.796875 
Q 21.625 45.796875 17.515625 41.421875 
Q 13.421875 37.0625 13.1875 30.328125 
z
M 27.390625 53.5625 
z
" id="Helvetica-65"/>
      <path d="M 6.453125 52.296875 
L 14.796875 52.296875 
L 14.796875 44.875 
Q 18.5 49.46875 22.65625 51.46875 
Q 26.8125 53.46875 31.890625 53.46875 
Q 43.015625 53.46875 46.921875 45.703125 
Q 49.078125 41.453125 49.078125 33.546875 
L 49.078125 0 
L 40.140625 0 
L 40.140625 32.953125 
Q 40.140625 37.75 38.71875 40.671875 
Q 36.375 45.5625 30.21875 45.5625 
Q 27.09375 45.5625 25.09375 44.921875 
Q 21.484375 43.84375 18.75 40.625 
Q 16.546875 38.03125 15.890625 35.265625 
Q 15.234375 32.515625 15.234375 27.390625 
L 15.234375 0 
L 6.453125 0 
z
M 27.09375 53.5625 
z
" id="Helvetica-6e"/>
      <path d="M 22.75 71.734375 
L 30.171875 71.734375 
L 7.421875 0 
L 0 0 
z
" id="Helvetica-2f"/>
      <path d="M 6.453125 71.96875 
L 15.234375 71.96875 
L 15.234375 45.21875 
Q 18.359375 49.171875 20.84375 50.78125 
Q 25.09375 53.5625 31.453125 53.5625 
Q 42.828125 53.5625 46.875 45.609375 
Q 49.078125 41.265625 49.078125 33.546875 
L 49.078125 0 
L 40.046875 0 
L 40.046875 32.953125 
Q 40.046875 38.71875 38.578125 41.40625 
Q 36.1875 45.703125 29.59375 45.703125 
Q 24.125 45.703125 19.671875 41.9375 
Q 15.234375 38.1875 15.234375 27.734375 
L 15.234375 0 
L 6.453125 0 
z
" id="Helvetica-68"/>
     </defs>
     <g style="fill:#ffffff;" transform="translate(24.4 153.222)rotate(-90)scale(0.2 -0.2)">
      <use transform="translate(0 0.271875)" xlink:href="#Helvetica-47"/>
      <use transform="translate(78.698398 -15.417187)scale(0.7)" xlink:href="#Helvetica-73"/>
      <use transform="translate(113.698398 -15.417187)scale(0.7)" xlink:href="#Helvetica-65"/>
      <use transform="translate(152.629062 -15.417187)scale(0.7)" xlink:href="#Helvetica-6e"/>
      <use transform="translate(191.559727 -15.417187)scale(0.7)" xlink:href="#Helvetica-73"/>
      <use transform="translate(229.17457 0.271875)" xlink:href="#Helvetica-20"/>
      <use transform="translate(256.957773 0.271875)" xlink:href="#Helvetica-28"/>
      <use transform="translate(290.258555 0.271875)" xlink:href="#Helvetica-65"/>
      <use transform="translate(346.788984 36.879688)scale(0.7)" xlink:href="#Helvetica-32"/>
      <use transform="translate(388.334492 0.271875)" xlink:href="#Helvetica-2f"/>
      <use transform="translate(416.117695 0.271875)" xlink:href="#Helvetica-68"/>
      <use transform="translate(471.73293 0.271875)" xlink:href="#Helvetica-29"/>
     </g>
    </g>
   </g>
   <g id="PathCollection_1">
    <defs>
     <path d="M 0 3.162278 
C 0.838646 3.162278 1.643056 2.82908 2.236068 2.236068 
C 2.82908 1.643056 3.162278 0.838646 3.162278 0 
C 3.162278 -0.838646 2.82908 -1.643056 2.236068 -2.236068 
C 1.643056 -2.82908 0.838646 -3.162278 0 -3.162278 
C -0.838646 -3.162278 -1.643056 -2.82908 -2.236068 -2.236068 
C -2.82908 -1.643056 -3.162278 -0.838646 -3.162278 0 
C -3.162278 0.838646 -2.82908 1.643056 -2.236068 2.236068 
C -1.643056 2.82908 -0.838646 3.162278 0 3.162278 
z
" id="meac1e14980"/>
    </defs>
    <g clip-path="url(#p0fcc541471)">
     <use style="fill:#81b1d2;fill-opacity:0.5;" x="-1" xlink:href="#meac1e14980" y="82.164198"/>
     <use style="fill:#81b1d2;fill-opacity:0.5;" x="0.422086" xlink:href="#meac1e14980" y="81.539297"/>
     <use style="fill:#81b1d2;fill-opacity:0.5;" x="3.146286" xlink:href="#meac1e14980" y="80.84643"/>
     <use style="fill:#81b1d2;fill-opacity:0.5;" x="5.870486" xlink:href="#meac1e14980" y="80.120565"/>
     <use style="fill:#81b1d2;fill-opacity:0.5;" x="8.594686" xlink:href="#meac1e14980" y="79.394322"/>
     <use style="fill:#81b1d2;fill-opacity:0.5;" x="11.318886" xlink:href="#meac1e14980" y="78.668444"/>
     <use style="fill:#81b1d2;fill-opacity:0.5;" x="14.043086" xlink:href="#meac1e14980" y="77.822918"/>
     <use style="fill:#81b1d2;fill-opacity:0.5;" x="16.767286" xlink:href="#meac1e14980" y="76.992814"/>
     <use style="fill:#81b1d2;fill-opacity:0.5;" x="19.491486" xlink:href="#meac1e14980" y="76.462534"/>
     <use style="fill:#81b1d2;fill-opacity:0.5;" x="22.215686" xlink:href="#meac1e14980" y="75.326735"/>
     <use style="fill:#81b1d2;fill-opacity:0.5;" x="24.939886" xlink:href="#meac1e14980" y="74.412962"/>
     <use style="fill:#81b1d2;fill-opacity:0.5;" x="27.664086" xlink:href="#meac1e14980" y="73.329988"/>
     <use style="fill:#81b1d2;fill-opacity:0.5;" x="30.388286" xlink:href="#meac1e14980" y="72.065747"/>
     <use style="fill:#81b1d2;fill-opacity:0.5;" x="33.112486" xlink:href="#meac1e14980" y="70.955634"/>
     <use style="fill:#81b1d2;fill-opacity:0.5;" x="35.836686" xlink:href="#meac1e14980" y="69.577269"/>
     <use style="fill:#81b1d2;fill-opacity:0.5;" x="38.560886" xlink:href="#meac1e14980" y="68.638915"/>
     <use style="fill:#81b1d2;fill-opacity:0.5;" x="41.285086" xlink:href="#meac1e14980" y="67.337621"/>
     <use style="fill:#81b1d2;fill-opacity:0.5;" x="44.009286" xlink:href="#meac1e14980" y="66.57796"/>
     <use style="fill:#81b1d2;fill-opacity:0.5;" x="46.733486" xlink:href="#meac1e14980" y="65.162501"/>
     <use style="fill:#81b1d2;fill-opacity:0.5;" x="49.457686" xlink:href="#meac1e14980" y="64.365424"/>
     <use style="fill:#81b1d2;fill-opacity:0.5;" x="52.181886" xlink:href="#meac1e14980" y="63.654576"/>
     <use style="fill:#81b1d2;fill-opacity:0.5;" x="54.906086" xlink:href="#meac1e14980" y="62.559871"/>
     <use style="fill:#81b1d2;fill-opacity:0.5;" x="57.630286" xlink:href="#meac1e14980" y="61.767911"/>
     <use style="fill:#81b1d2;fill-opacity:0.5;" x="60.354486" xlink:href="#meac1e14980" y="60.720173"/>
     <use style="fill:#81b1d2;fill-opacity:0.5;" x="63.078686" xlink:href="#meac1e14980" y="59.459204"/>
     <use style="fill:#81b1d2;fill-opacity:0.5;" x="65.802886" xlink:href="#meac1e14980" y="58.33185"/>
     <use style="fill:#81b1d2;fill-opacity:0.5;" x="68.527086" xlink:href="#meac1e14980" y="57.539192"/>
     <use style="fill:#81b1d2;fill-opacity:0.5;" x="71.251286" xlink:href="#meac1e14980" y="56.187226"/>
     <use style="fill:#81b1d2;fill-opacity:0.5;" x="73.975486" xlink:href="#meac1e14980" y="55.132147"/>
     <use style="fill:#81b1d2;fill-opacity:0.5;" x="76.699686" xlink:href="#meac1e14980" y="54.190101"/>
     <use style="fill:#81b1d2;fill-opacity:0.5;" x="79.423886" xlink:href="#meac1e14980" y="53.428987"/>
     <use style="fill:#81b1d2;fill-opacity:0.5;" x="82.148086" xlink:href="#meac1e14980" y="52.527685"/>
     <use style="fill:#81b1d2;fill-opacity:0.5;" x="84.872286" xlink:href="#meac1e14980" y="51.765844"/>
     <use style="fill:#81b1d2;fill-opacity:0.5;" x="87.596486" xlink:href="#meac1e14980" y="50.960321"/>
     <use style="fill:#81b1d2;fill-opacity:0.5;" x="90.320686" xlink:href="#meac1e14980" y="50.268559"/>
     <use style="fill:#81b1d2;fill-opacity:0.5;" x="93.044886" xlink:href="#meac1e14980" y="49.657545"/>
     <use style="fill:#81b1d2;fill-opacity:0.5;" x="95.769086" xlink:href="#meac1e14980" y="49.072944"/>
     <use style="fill:#81b1d2;fill-opacity:0.5;" x="98.493286" xlink:href="#meac1e14980" y="48.202474"/>
     <use style="fill:#81b1d2;fill-opacity:0.5;" x="101.217486" xlink:href="#meac1e14980" y="47.039157"/>
     <use style="fill:#81b1d2;fill-opacity:0.5;" x="103.941686" xlink:href="#meac1e14980" y="45.868486"/>
     <use style="fill:#81b1d2;fill-opacity:0.5;" x="106.665886" xlink:href="#meac1e14980" y="45.022233"/>
     <use style="fill:#81b1d2;fill-opacity:0.5;" x="109.390086" xlink:href="#meac1e14980" y="43.696331"/>
     <use style="fill:#81b1d2;fill-opacity:0.5;" x="112.114286" xlink:href="#meac1e14980" y="42.506574"/>
     <use style="fill:#81b1d2;fill-opacity:0.5;" x="114.838486" xlink:href="#meac1e14980" y="41.842706"/>
     <use style="fill:#81b1d2;fill-opacity:0.5;" x="117.562686" xlink:href="#meac1e14980" y="40.612596"/>
     <use style="fill:#81b1d2;fill-opacity:0.5;" x="120.286886" xlink:href="#meac1e14980" y="39.86394"/>
     <use style="fill:#81b1d2;fill-opacity:0.5;" x="123.011086" xlink:href="#meac1e14980" y="39.319328"/>
     <use style="fill:#81b1d2;fill-opacity:0.5;" x="125.735286" xlink:href="#meac1e14980" y="38.640039"/>
     <use style="fill:#81b1d2;fill-opacity:0.5;" x="128.459486" xlink:href="#meac1e14980" y="38.004779"/>
     <use style="fill:#81b1d2;fill-opacity:0.5;" x="131.183686" xlink:href="#meac1e14980" y="37.689533"/>
     <use style="fill:#81b1d2;fill-opacity:0.5;" x="133.907886" xlink:href="#meac1e14980" y="37.194111"/>
     <use style="fill:#81b1d2;fill-opacity:0.5;" x="136.632086" xlink:href="#meac1e14980" y="36.522903"/>
     <use style="fill:#81b1d2;fill-opacity:0.5;" x="139.356286" xlink:href="#meac1e14980" y="36.431878"/>
     <use style="fill:#81b1d2;fill-opacity:0.5;" x="142.080486" xlink:href="#meac1e14980" y="35.801778"/>
     <use style="fill:#81b1d2;fill-opacity:0.5;" x="144.804686" xlink:href="#meac1e14980" y="34.828188"/>
     <use style="fill:#81b1d2;fill-opacity:0.5;" x="147.528886" xlink:href="#meac1e14980" y="33.983404"/>
     <use style="fill:#81b1d2;fill-opacity:0.5;" x="150.253086" xlink:href="#meac1e14980" y="33.417902"/>
     <use style="fill:#81b1d2;fill-opacity:0.5;" x="152.977286" xlink:href="#meac1e14980" y="32.83846"/>
     <use style="fill:#81b1d2;fill-opacity:0.5;" x="155.701486" xlink:href="#meac1e14980" y="32.215687"/>
     <use style="fill:#81b1d2;fill-opacity:0.5;" x="158.425686" xlink:href="#meac1e14980" y="31.852006"/>
     <use style="fill:#81b1d2;fill-opacity:0.5;" x="161.149886" xlink:href="#meac1e14980" y="31.630009"/>
     <use style="fill:#81b1d2;fill-opacity:0.5;" x="163.874086" xlink:href="#meac1e14980" y="32.019738"/>
     <use style="fill:#81b1d2;fill-opacity:0.5;" x="166.598286" xlink:href="#meac1e14980" y="33.568394"/>
     <use style="fill:#81b1d2;fill-opacity:0.5;" x="169.322486" xlink:href="#meac1e14980" y="34.557043"/>
     <use style="fill:#81b1d2;fill-opacity:0.5;" x="172.046686" xlink:href="#meac1e14980" y="35.489539"/>
     <use style="fill:#81b1d2;fill-opacity:0.5;" x="174.770886" xlink:href="#meac1e14980" y="38.401877"/>
     <use style="fill:#81b1d2;fill-opacity:0.5;" x="177.495086" xlink:href="#meac1e14980" y="40.134792"/>
     <use style="fill:#81b1d2;fill-opacity:0.5;" x="180.219286" xlink:href="#meac1e14980" y="44.860038"/>
     <use style="fill:#81b1d2;fill-opacity:0.5;" x="182.943486" xlink:href="#meac1e14980" y="47.284673"/>
     <use style="fill:#81b1d2;fill-opacity:0.5;" x="185.667686" xlink:href="#meac1e14980" y="50.872275"/>
     <use style="fill:#81b1d2;fill-opacity:0.5;" x="188.391886" xlink:href="#meac1e14980" y="57.607831"/>
     <use style="fill:#81b1d2;fill-opacity:0.5;" x="191.116086" xlink:href="#meac1e14980" y="64.7089"/>
     <use style="fill:#81b1d2;fill-opacity:0.5;" x="193.840286" xlink:href="#meac1e14980" y="72.906491"/>
     <use style="fill:#81b1d2;fill-opacity:0.5;" x="196.564486" xlink:href="#meac1e14980" y="80.756957"/>
     <use style="fill:#81b1d2;fill-opacity:0.5;" x="199.288686" xlink:href="#meac1e14980" y="91.902863"/>
     <use style="fill:#81b1d2;fill-opacity:0.5;" x="202.012886" xlink:href="#meac1e14980" y="101.294253"/>
     <use style="fill:#81b1d2;fill-opacity:0.5;" x="204.737086" xlink:href="#meac1e14980" y="114.036536"/>
     <use style="fill:#81b1d2;fill-opacity:0.5;" x="207.461286" xlink:href="#meac1e14980" y="124.820999"/>
     <use style="fill:#81b1d2;fill-opacity:0.5;" x="210.185486" xlink:href="#meac1e14980" y="133.432552"/>
     <use style="fill:#81b1d2;fill-opacity:0.5;" x="212.909686" xlink:href="#meac1e14980" y="142.526313"/>
     <use style="fill:#81b1d2;fill-opacity:0.5;" x="215.633886" xlink:href="#meac1e14980" y="150.20611"/>
     <use style="fill:#81b1d2;fill-opacity:0.5;" x="218.358086" xlink:href="#meac1e14980" y="157.031559"/>
     <use style="fill:#81b1d2;fill-opacity:0.5;" x="221.082286" xlink:href="#meac1e14980" y="161.706511"/>
     <use style="fill:#81b1d2;fill-opacity:0.5;" x="223.806486" xlink:href="#meac1e14980" y="165.487125"/>
     <use style="fill:#81b1d2;fill-opacity:0.5;" x="226.530686" xlink:href="#meac1e14980" y="167.874692"/>
     <use style="fill:#81b1d2;fill-opacity:0.5;" x="229.254886" xlink:href="#meac1e14980" y="170.60905"/>
     <use style="fill:#81b1d2;fill-opacity:0.5;" x="231.979086" xlink:href="#meac1e14980" y="171.861182"/>
     <use style="fill:#81b1d2;fill-opacity:0.5;" x="234.703286" xlink:href="#meac1e14980" y="172.943037"/>
     <use style="fill:#81b1d2;fill-opacity:0.5;" x="237.427486" xlink:href="#meac1e14980" y="173.916263"/>
     <use style="fill:#81b1d2;fill-opacity:0.5;" x="240.151686" xlink:href="#meac1e14980" y="174.434071"/>
     <use style="fill:#81b1d2;fill-opacity:0.5;" x="242.875886" xlink:href="#meac1e14980" y="174.79262"/>
     <use style="fill:#81b1d2;fill-opacity:0.5;" x="245.600086" xlink:href="#meac1e14980" y="174.366565"/>
     <use style="fill:#81b1d2;fill-opacity:0.5;" x="248.324286" xlink:href="#meac1e14980" y="173.865647"/>
     <use style="fill:#81b1d2;fill-opacity:0.5;" x="251.048486" xlink:href="#meac1e14980" y="173.375371"/>
     <use style="fill:#81b1d2;fill-opacity:0.5;" x="253.772686" xlink:href="#meac1e14980" y="172.618297"/>
     <use style="fill:#81b1d2;fill-opacity:0.5;" x="256.496886" xlink:href="#meac1e14980" y="171.955898"/>
     <use style="fill:#81b1d2;fill-opacity:0.5;" x="259.221086" xlink:href="#meac1e14980" y="171.321394"/>
     <use style="fill:#81b1d2;fill-opacity:0.5;" x="261.945286" xlink:href="#meac1e14980" y="170.522108"/>
     <use style="fill:#81b1d2;fill-opacity:0.5;" x="264.669486" xlink:href="#meac1e14980" y="169.688327"/>
     <use style="fill:#81b1d2;fill-opacity:0.5;" x="267.393686" xlink:href="#meac1e14980" y="168.78188"/>
     <use style="fill:#81b1d2;fill-opacity:0.5;" x="270.117886" xlink:href="#meac1e14980" y="167.844239"/>
     <use style="fill:#81b1d2;fill-opacity:0.5;" x="272.842086" xlink:href="#meac1e14980" y="167.262923"/>
     <use style="fill:#81b1d2;fill-opacity:0.5;" x="275.566286" xlink:href="#meac1e14980" y="166.388412"/>
     <use style="fill:#81b1d2;fill-opacity:0.5;" x="278.290486" xlink:href="#meac1e14980" y="165.369687"/>
     <use style="fill:#81b1d2;fill-opacity:0.5;" x="281.014686" xlink:href="#meac1e14980" y="164.335903"/>
     <use style="fill:#81b1d2;fill-opacity:0.5;" x="283.738886" xlink:href="#meac1e14980" y="163.514231"/>
     <use style="fill:#81b1d2;fill-opacity:0.5;" x="286.463086" xlink:href="#meac1e14980" y="162.507601"/>
     <use style="fill:#81b1d2;fill-opacity:0.5;" x="289.187286" xlink:href="#meac1e14980" y="161.346116"/>
     <use style="fill:#81b1d2;fill-opacity:0.5;" x="291.911486" xlink:href="#meac1e14980" y="160.318205"/>
     <use style="fill:#81b1d2;fill-opacity:0.5;" x="294.635686" xlink:href="#meac1e14980" y="159.538746"/>
     <use style="fill:#81b1d2;fill-opacity:0.5;" x="297.359886" xlink:href="#meac1e14980" y="158.651399"/>
     <use style="fill:#81b1d2;fill-opacity:0.5;" x="300.084086" xlink:href="#meac1e14980" y="158.77359"/>
     <use style="fill:#81b1d2;fill-opacity:0.5;" x="302.808286" xlink:href="#meac1e14980" y="157.691386"/>
     <use style="fill:#81b1d2;fill-opacity:0.5;" x="305.532486" xlink:href="#meac1e14980" y="156.343838"/>
     <use style="fill:#81b1d2;fill-opacity:0.5;" x="308.256686" xlink:href="#meac1e14980" y="155.321436"/>
     <use style="fill:#81b1d2;fill-opacity:0.5;" x="310.980886" xlink:href="#meac1e14980" y="154.447652"/>
     <use style="fill:#81b1d2;fill-opacity:0.5;" x="313.705086" xlink:href="#meac1e14980" y="153.589668"/>
     <use style="fill:#81b1d2;fill-opacity:0.5;" x="316.429286" xlink:href="#meac1e14980" y="152.043948"/>
     <use style="fill:#81b1d2;fill-opacity:0.5;" x="319.153486" xlink:href="#meac1e14980" y="150.922453"/>
     <use style="fill:#81b1d2;fill-opacity:0.5;" x="321.877686" xlink:href="#meac1e14980" y="149.003532"/>
     <use style="fill:#81b1d2;fill-opacity:0.5;" x="324.601886" xlink:href="#meac1e14980" y="147.621853"/>
     <use style="fill:#81b1d2;fill-opacity:0.5;" x="327.326086" xlink:href="#meac1e14980" y="146.705884"/>
     <use style="fill:#81b1d2;fill-opacity:0.5;" x="330.050286" xlink:href="#meac1e14980" y="145.426976"/>
     <use style="fill:#81b1d2;fill-opacity:0.5;" x="332.774486" xlink:href="#meac1e14980" y="144.720561"/>
     <use style="fill:#81b1d2;fill-opacity:0.5;" x="335.498686" xlink:href="#meac1e14980" y="143.910983"/>
     <use style="fill:#81b1d2;fill-opacity:0.5;" x="338.222886" xlink:href="#meac1e14980" y="143.034655"/>
     <use style="fill:#81b1d2;fill-opacity:0.5;" x="340.947086" xlink:href="#meac1e14980" y="142.226937"/>
     <use style="fill:#81b1d2;fill-opacity:0.5;" x="343.671286" xlink:href="#meac1e14980" y="141.003413"/>
     <use style="fill:#81b1d2;fill-opacity:0.5;" x="346.395486" xlink:href="#meac1e14980" y="140.210712"/>
     <use style="fill:#81b1d2;fill-opacity:0.5;" x="349.119686" xlink:href="#meac1e14980" y="139.473452"/>
     <use style="fill:#81b1d2;fill-opacity:0.5;" x="351.843886" xlink:href="#meac1e14980" y="139.154529"/>
     <use style="fill:#81b1d2;fill-opacity:0.5;" x="354.568086" xlink:href="#meac1e14980" y="137.872265"/>
     <use style="fill:#81b1d2;fill-opacity:0.5;" x="357.292286" xlink:href="#meac1e14980" y="136.844717"/>
     <use style="fill:#81b1d2;fill-opacity:0.5;" x="360.016486" xlink:href="#meac1e14980" y="136.07257"/>
     <use style="fill:#81b1d2;fill-opacity:0.5;" x="362.740686" xlink:href="#meac1e14980" y="135.290524"/>
     <use style="fill:#81b1d2;fill-opacity:0.5;" x="365.464886" xlink:href="#meac1e14980" y="134.25895"/>
     <use style="fill:#81b1d2;fill-opacity:0.5;" x="368.189086" xlink:href="#meac1e14980" y="133.480581"/>
     <use style="fill:#81b1d2;fill-opacity:0.5;" x="370.913286" xlink:href="#meac1e14980" y="132.044959"/>
     <use style="fill:#81b1d2;fill-opacity:0.5;" x="373.637486" xlink:href="#meac1e14980" y="130.705115"/>
     <use style="fill:#81b1d2;fill-opacity:0.5;" x="376.361686" xlink:href="#meac1e14980" y="130.162363"/>
     <use style="fill:#81b1d2;fill-opacity:0.5;" x="379.085886" xlink:href="#meac1e14980" y="128.947662"/>
     <use style="fill:#81b1d2;fill-opacity:0.5;" x="381.810086" xlink:href="#meac1e14980" y="127.452223"/>
     <use style="fill:#81b1d2;fill-opacity:0.5;" x="384.534286" xlink:href="#meac1e14980" y="125.969257"/>
     <use style="fill:#81b1d2;fill-opacity:0.5;" x="387.258486" xlink:href="#meac1e14980" y="124.641536"/>
     <use style="fill:#81b1d2;fill-opacity:0.5;" x="389.982686" xlink:href="#meac1e14980" y="123.949061"/>
     <use style="fill:#81b1d2;fill-opacity:0.5;" x="392.706886" xlink:href="#meac1e14980" y="123.173251"/>
     <use style="fill:#81b1d2;fill-opacity:0.5;" x="395.431086" xlink:href="#meac1e14980" y="122.411046"/>
     <use style="fill:#81b1d2;fill-opacity:0.5;" x="398.155286" xlink:href="#meac1e14980" y="121.437093"/>
     <use style="fill:#81b1d2;fill-opacity:0.5;" x="400.879486" xlink:href="#meac1e14980" y="120.370296"/>
     <use style="fill:#81b1d2;fill-opacity:0.5;" x="403.603686" xlink:href="#meac1e14980" y="119.882956"/>
     <use style="fill:#81b1d2;fill-opacity:0.5;" x="406.327886" xlink:href="#meac1e14980" y="119.286623"/>
     <use style="fill:#81b1d2;fill-opacity:0.5;" x="409.052086" xlink:href="#meac1e14980" y="118.927711"/>
     <use style="fill:#81b1d2;fill-opacity:0.5;" x="411.776286" xlink:href="#meac1e14980" y="117.76659"/>
     <use style="fill:#81b1d2;fill-opacity:0.5;" x="414.500486" xlink:href="#meac1e14980" y="117.318162"/>
     <use style="fill:#81b1d2;fill-opacity:0.5;" x="417.224686" xlink:href="#meac1e14980" y="116.190767"/>
     <use style="fill:#81b1d2;fill-opacity:0.5;" x="419.948886" xlink:href="#meac1e14980" y="115.238444"/>
     <use style="fill:#81b1d2;fill-opacity:0.5;" x="422.673086" xlink:href="#meac1e14980" y="114.31986"/>
     <use style="fill:#81b1d2;fill-opacity:0.5;" x="425.397286" xlink:href="#meac1e14980" y="112.931554"/>
     <use style="fill:#81b1d2;fill-opacity:0.5;" x="428.121486" xlink:href="#meac1e14980" y="111.836108"/>
     <use style="fill:#81b1d2;fill-opacity:0.5;" x="430.845686" xlink:href="#meac1e14980" y="110.630943"/>
     <use style="fill:#81b1d2;fill-opacity:0.5;" x="433.569886" xlink:href="#meac1e14980" y="109.411082"/>
     <use style="fill:#81b1d2;fill-opacity:0.5;" x="436.294086" xlink:href="#meac1e14980" y="107.783496"/>
     <use style="fill:#81b1d2;fill-opacity:0.5;" x="439.018286" xlink:href="#meac1e14980" y="106.612853"/>
     <use style="fill:#81b1d2;fill-opacity:0.5;" x="441.742486" xlink:href="#meac1e14980" y="104.787865"/>
     <use style="fill:#81b1d2;fill-opacity:0.5;" x="444.466686" xlink:href="#meac1e14980" y="104.305306"/>
     <use style="fill:#81b1d2;fill-opacity:0.5;" x="447.190886" xlink:href="#meac1e14980" y="103.467513"/>
     <use style="fill:#81b1d2;fill-opacity:0.5;" x="449.915086" xlink:href="#meac1e14980" y="101.817583"/>
     <use style="fill:#81b1d2;fill-opacity:0.5;" x="452.639286" xlink:href="#meac1e14980" y="100.972058"/>
     <use style="fill:#81b1d2;fill-opacity:0.5;" x="455.363486" xlink:href="#meac1e14980" y="100.01389"/>
     <use style="fill:#81b1d2;fill-opacity:0.5;" x="458.087686" xlink:href="#meac1e14980" y="99.182696"/>
     <use style="fill:#81b1d2;fill-opacity:0.5;" x="460.811886" xlink:href="#meac1e14980" y="98.093486"/>
     <use style="fill:#81b1d2;fill-opacity:0.5;" x="463.536086" xlink:href="#meac1e14980" y="97.791468"/>
     <use style="fill:#81b1d2;fill-opacity:0.5;" x="466.260286" xlink:href="#meac1e14980" y="96.225572"/>
     <use style="fill:#81b1d2;fill-opacity:0.5;" x="468.984486" xlink:href="#meac1e14980" y="95.262595"/>
     <use style="fill:#81b1d2;fill-opacity:0.5;" x="471.708686" xlink:href="#meac1e14980" y="94.588814"/>
     <use style="fill:#81b1d2;fill-opacity:0.5;" x="474.432886" xlink:href="#meac1e14980" y="93.112811"/>
     <use style="fill:#81b1d2;fill-opacity:0.5;" x="477.157086" xlink:href="#meac1e14980" y="92.523064"/>
     <use style="fill:#81b1d2;fill-opacity:0.5;" x="479.881286" xlink:href="#meac1e14980" y="91.148335"/>
     <use style="fill:#81b1d2;fill-opacity:0.5;" x="482.605486" xlink:href="#meac1e14980" y="90.254738"/>
     <use style="fill:#81b1d2;fill-opacity:0.5;" x="485.329686" xlink:href="#meac1e14980" y="89.155992"/>
     <use style="fill:#81b1d2;fill-opacity:0.5;" x="488.053886" xlink:href="#meac1e14980" y="88.270826"/>
     <use style="fill:#81b1d2;fill-opacity:0.5;" x="490.778086" xlink:href="#meac1e14980" y="87.042911"/>
     <use style="fill:#81b1d2;fill-opacity:0.5;" x="493.502286" xlink:href="#meac1e14980" y="86.189681"/>
     <use style="fill:#81b1d2;fill-opacity:0.5;" x="496.226486" xlink:href="#meac1e14980" y="85.576822"/>
    </g>
   </g>
   <g id="line2d_19">
    <path clip-path="url(#p0fcc541471)" d="M -1 84.17353 
L 123.011086 39.414327 
L 133.907886 35.661416 
L 142.080486 33.048791 
L 147.528886 31.508352 
L 152.977286 30.256063 
L 155.701486 29.792777 
L 158.425686 29.479626 
L 161.149886 29.358099 
L 163.874086 29.480048 
L 166.598286 29.909574 
L 169.322486 30.724756 
L 172.046686 32.018875 
L 174.770886 33.900486 
L 177.495086 36.491453 
L 180.219286 39.921778 
L 182.943486 44.319963 
L 185.667686 49.797896 
L 188.391886 56.430286 
L 191.116086 64.230524 
L 193.840286 73.127521 
L 196.564486 82.950475 
L 202.012886 104.214687 
L 204.737086 114.918796 
L 207.461286 125.16388 
L 210.185486 134.629828 
L 212.909686 143.086406 
L 215.633886 150.405212 
L 218.358086 156.552704 
L 221.082286 161.570729 
L 223.806486 165.552226 
L 226.530686 168.618182 
L 229.254886 170.899227 
L 231.979086 172.522873 
L 234.703286 173.605872 
L 237.427486 174.250539 
L 240.151686 174.543752 
L 242.875886 174.5576 
L 245.600086 174.350874 
L 248.324286 173.970899 
L 253.772686 172.834199 
L 259.221086 171.363527 
L 267.393686 168.806908 
L 278.290486 165.084909 
L 300.084086 157.306525 
L 345.8575 140.762191 
L 345.8575 140.762191 
" style="fill:none;stroke:#ff0000;stroke-dasharray:7.4,3.2;stroke-dashoffset:0;stroke-width:2;"/>
   </g>
   <g id="patch_3">
    <path d="M 65.2375 198.044 
L 65.2375 7.2 
" style="fill:none;stroke:#ffffff;stroke-linecap:square;stroke-linejoin:miter;stroke-width:1.2;"/>
   </g>
   <g id="patch_4">
    <path d="M 337.6575 198.044 
L 337.6575 7.2 
" style="fill:none;stroke:#ffffff;stroke-linecap:square;stroke-linejoin:miter;stroke-width:1.2;"/>
   </g>
   <g id="patch_5">
    <path d="M 65.2375 198.044 
L 337.6575 198.044 
" style="fill:none;stroke:#ffffff;stroke-linecap:square;stroke-linejoin:miter;stroke-width:1.2;"/>
   </g>
   <g id="patch_6">
    <path d="M 65.2375 7.2 
L 337.6575 7.2 
" style="fill:none;stroke:#ffffff;stroke-linecap:square;stroke-linejoin:miter;stroke-width:1.2;"/>
   </g>
   <g id="text_9">
    <!-- $N=0$ -->
    <defs>
     <path d="M 22.859375 71.734375 
L 34.328125 71.734375 
L 58.203125 13.625 
L 70.5625 71.734375 
L 79.78125 71.734375 
L 64.546875 0 
L 53.65625 0 
L 29.203125 58.0625 
L 16.890625 0 
L 7.625 0 
z
" id="Helvetica-Oblique-4e"/>
     <path d="M 63.921875 40.140625 
L 62.203125 31.9375 
L 11.28125 31.9375 
L 12.984375 40.140625 
z
M 59.46875 19.1875 
L 57.71875 10.84375 
L 6.78125 10.84375 
L 8.546875 19.1875 
z
" id="Helvetica-Oblique-3d"/>
     <path d="M 59.125 58.734375 
Q 62.015625 50.09375 58.796875 35.0625 
Q 55.765625 20.796875 49.515625 11.46875 
Q 40.53125 -1.90625 26.5625 -1.90625 
Q 13.96875 -1.90625 10.15625 9.03125 
Q 6.984375 18.171875 10.25 33.546875 
Q 12.75 45.453125 17.671875 54 
Q 26.8125 69.921875 41.890625 69.921875 
Q 55.46875 69.921875 59.125 58.734375 
z
M 49.265625 34.71875 
Q 51.765625 46.625 50.46875 54.3125 
Q 49.171875 62.015625 40.71875 62.015625 
Q 32.953125 62.015625 27.828125 54.703125 
Q 22.703125 47.40625 19.671875 33.203125 
Q 17.390625 22.515625 18.3125 16.015625 
Q 19.734375 6.109375 28.21875 6.109375 
Q 35.0625 6.109375 40.40625 12.15625 
Q 45.75 18.21875 49.265625 34.71875 
z
" id="Helvetica-Oblique-30"/>
    </defs>
    <g style="fill:#ffffff;" transform="translate(106.1005 112.1642)scale(0.18 -0.18)">
     <use transform="translate(0 0.265625)" xlink:href="#Helvetica-Oblique-4e"/>
     <use transform="translate(88.876953 0.265625)" xlink:href="#Helvetica-Oblique-3d"/>
     <use transform="translate(163.935547 0.265625)" xlink:href="#Helvetica-Oblique-30"/>
    </g>
   </g>
   <g id="text_10">
    <!-- $N=1$ -->
    <defs>
     <path d="M 20.0625 49.515625 
L 21.484375 56.25 
Q 31.203125 57.171875 35.421875 59.34375 
Q 39.65625 61.53125 43.265625 69.625 
L 50.203125 69.625 
L 35.40625 0 
L 26.03125 0 
L 36.53125 49.515625 
z
" id="Helvetica-Oblique-31"/>
    </defs>
    <g style="fill:#ffffff;" transform="translate(242.3105 112.1642)scale(0.18 -0.18)">
     <use transform="translate(0 0.265625)" xlink:href="#Helvetica-Oblique-4e"/>
     <use transform="translate(88.876953 0.265625)" xlink:href="#Helvetica-Oblique-3d"/>
     <use transform="translate(163.935547 0.265625)" xlink:href="#Helvetica-Oblique-31"/>
    </g>
   </g>
  </g>
 </g>
 <defs>
  <clipPath id="p0fcc541471">
   <rect height="190.844" width="272.42" x="65.2375" y="7.2"/>
  </clipPath>
 </defs>
</svg>
